<?xml version="1.0" standalone="no"?><!DOCTYPE svg PUBLIC "-//W3C//DTD SVG 1.1//EN" "http://www.w3.org/Graphics/SVG/1.1/DTD/svg11.dtd"><svg t="1716875664748" class="icon" viewBox="0 0 1088 1024" version="1.1" xmlns="http://www.w3.org/2000/svg" p-id="37714" xmlns:xlink="http://www.w3.org/1999/xlink" width="51" height="48"><path d="M224 170.688A21.312 21.312 0 0 0 202.688 192v640c0 11.776 9.6 21.312 21.312 21.312h640c11.776 0 21.376-9.536 21.376-21.312V192a21.312 21.312 0 0 0-21.376-21.312h-640zM117.312 192c0-58.88 47.808-106.688 106.688-106.688h640c58.88 0 106.688 47.808 106.688 106.688v640c0 58.88-47.744 106.688-106.688 106.688h-640c-58.88 0-106.688-47.744-106.688-106.688V192z m661.376 64h-97.856a21.312 21.312 0 0 0-15.104 36.416l97.92 97.856c13.44 13.44 36.352 3.84 36.352-15.104V277.312A21.312 21.312 0 0 0 778.688 256zM288 375.168V277.312c0-11.776 9.6-21.312 21.312-21.312h97.856c19.008 0 28.544 22.976 15.104 36.416L324.416 390.272a21.312 21.312 0 0 1-36.416-15.104zM309.312 768h97.856a21.312 21.312 0 0 0 15.104-36.416L324.416 633.728a21.312 21.312 0 0 0-36.416 15.104v97.856c0 11.776 9.6 21.312 21.312 21.312z m490.688-119.168v97.856c0 11.776-9.6 21.312-21.312 21.312h-97.856a21.312 21.312 0 0 1-15.104-36.416l97.92-97.856a21.312 21.312 0 0 1 36.352 15.104z" p-id="37715"></path></svg>