<?xml version="1.0" standalone="no"?><!DOCTYPE svg PUBLIC "-//W3C//DTD SVG 1.1//EN" "http://www.w3.org/Graphics/SVG/1.1/DTD/svg11.dtd"><svg t="1743294622227" class="icon" viewBox="0 0 1024 1024" version="1.1" xmlns="http://www.w3.org/2000/svg" p-id="39551" xmlns:xlink="http://www.w3.org/1999/xlink" width="200" height="200"><path d="M0 704V320C0 143.264 143.264 0 320 0h384c176.736 0 320 143.264 320 320v384c0 176.736-143.264 320-320 320H320C143.264 1024 0 880.736 0 704z m64 0q0 106.048 74.976 181.024T320 960h384q106.048 0 181.024-74.976T960 704V320q0-106.048-74.976-181.024T704 64H320Q213.952 64 138.976 138.976T64 320v384z" p-id="39552"></path></svg>