<?xml version="1.0" standalone="no"?><!DOCTYPE svg PUBLIC "-//W3C//DTD SVG 1.1//EN" "http://www.w3.org/Graphics/SVG/1.1/DTD/svg11.dtd"><svg t="1744705988005" class="icon" viewBox="0 0 1024 1024" version="1.1" xmlns="http://www.w3.org/2000/svg" p-id="42375" xmlns:xlink="http://www.w3.org/1999/xlink" width="64" height="64"><path d="M504.263066 934.912c-119.808 1.024-238.592 1.024-357.376 1.024-61.44 0-82.944-21.504-82.944-83.968V181.248c0-64.512 19.456-83.968 84.992-83.968h515.072c65.536 0 84.992 19.456 84.992 84.992 0 114.688 1.024 80.896-1.024 195.584 0 26.624 13.312 25.6 32.768 25.6 18.432 0 32.768 3.072 32.768-25.6-1.024-119.808 0-92.16-1.024-211.968-1.024-82.944-54.272-133.12-137.216-133.12H140.743066C52.679066 32.768 0.455066 83.968 0.455066 173.056v340.992c0 115.712-1.024 232.448 0 347.136 1.024 84.992 54.272 137.216 137.216 137.216 122.88 0 244.736-1.024 366.592 1.024 28.672 1.024 26.624-13.312 27.648-33.792 1.024-20.48 0-31.744-27.648-30.72z m0 0" p-id="42376"></path><path d="M412.103066 226.304c-60.416 0-119.808 1.024-180.224 0-23.552 0-41.984 8.192-40.96 32.768 1.024 23.552 17.408 32.768 39.936 31.744h352.256c23.552 0 40.96-8.192 40.96-33.792-1.024-26.624-20.48-31.744-43.008-30.72H412.103066zM624.071066 451.584c1.024-26.624-18.432-32.768-40.96-32.768-58.368 1.024-115.712 0-174.08 0-59.392 0-117.76 1.024-177.152 0-23.552 0-43.008 6.144-43.008 31.744s18.432 33.792 41.984 33.792h350.208c23.552-1.024 43.008-7.168 43.008-32.768zM432.583066 676.864c21.504 0 35.84-11.264 35.84-32.768s-14.336-32.768-35.84-31.744h-102.4c-33.792 0-68.608 1.024-103.424 0-21.504-1.024-36.864 9.216-37.888 30.72-1.024 23.552 14.336 33.792 37.888 33.792h205.824z" p-id="42377"></path><path d="M956.871066 843.776c12.288 7.168 21.504 17.408 28.672 29.696 7.168 12.288 11.264 26.624 11.264 41.984 0 12.288-2.048 22.528-7.168 32.768-4.096 10.24-10.24 19.456-18.432 26.624-8.192 8.192-16.384 14.336-26.624 18.432-10.24 4.096-21.504 7.168-32.768 7.168-15.36 0-28.672-4.096-40.96-11.264-12.288-7.168-22.528-16.384-29.696-27.648l-4.096-4.096c-1.024-2.048-2.048-3.072-4.096-5.12-6.144-8.192-9.216-17.408-11.264-28.672s-2.048-23.552-2.048-35.84c0-12.288 1.024-24.576 1.024-36.864 0-12.288-1.024-22.528-3.072-31.744-4.096-7.168-8.192-15.36-13.312-23.552-5.12-8.192-10.24-17.408-16.384-25.6-1.024-1.024-2.048-3.072-3.072-4.096-1.024-1.024-2.048-2.048-2.048-3.072-7.168 8.192-13.312 16.384-19.456 24.576-6.144 8.192-13.312 16.384-19.456 25.6-2.048 2.048-3.072 4.096-4.096 6.144-1.024 2.048-3.072 4.096-4.096 6.144-3.072 7.168-5.12 12.288-5.12 17.408s1.024 10.24 2.048 14.336 3.072 10.24 4.096 14.336c2.048 5.12 2.048 11.264 3.072 17.408 0 6.144-1.024 14.336-3.072 23.552-2.048 9.216-6.144 19.456-11.264 32.768-6.144 16.384-16.384 29.696-30.72 39.936s-30.72 15.36-49.152 15.36c-12.288 0-22.528-2.048-32.768-7.168-10.24-4.096-19.456-10.24-26.624-18.432-8.192-8.192-14.336-16.384-18.432-26.624-4.096-10.24-7.168-21.504-7.168-32.768 0-13.312 3.072-24.576 8.192-35.84s12.288-20.48 22.528-28.672c9.216-9.216 18.432-17.408 28.672-23.552 10.24-6.144 19.456-12.288 29.696-17.408 9.216-5.12 19.456-11.264 27.648-16.384 9.216-5.12 16.384-12.288 22.528-19.456 1.024-2.048 3.072-4.096 4.096-5.12 1.024-2.048 3.072-4.096 4.096-5.12l1.024-1.024c1.024-3.072 3.072-5.12 6.144-8.192 5.12-6.144 10.24-13.312 15.36-20.48l15.36-21.504-23.552-23.552c-6.144-6.144-13.312-13.312-19.456-21.504-12.288-16.384-23.552-33.792-31.744-52.224-8.192-18.432-15.36-34.816-19.456-51.2-5.12-16.384-7.168-30.72-7.168-43.008 0-12.288 2.048-22.528 7.168-28.672 2.048-2.048 6.144-3.072 11.264-4.096 5.12-1.024 8.192 1.024 11.264 5.12 6.144 9.216 14.336 20.48 22.528 33.792 8.192 12.288 17.408 26.624 26.624 40.96C727.495066 583.68 737.735066 599.04 747.975066 614.4s20.48 31.744 31.744 47.104l6.144-9.216 6.144-9.216c9.216-14.336 19.456-28.672 27.648-43.008 9.216-15.36 17.408-29.696 24.576-43.008 8.192-13.312 14.336-25.6 20.48-36.864 6.144-11.264 10.24-19.456 13.312-24.576 2.048-4.096 7.168-6.144 13.312-6.144 6.144 0 11.264 2.048 15.36 6.144 2.048 2.048 4.096 8.192 6.144 18.432 2.048 10.24 1.024 23.552-2.048 39.936-3.072 16.384-8.192 34.816-17.408 56.32-9.216 21.504-22.528 43.008-40.96 67.584l-17.408 21.504c-6.144 7.168-11.264 14.336-17.408 21.504 8.192 12.288 16.384 24.576 23.552 35.84 7.168 11.264 14.336 21.504 20.48 29.696 9.216 9.216 18.432 16.384 27.648 22.528 9.216 5.12 17.408 10.24 26.624 13.312 8.192 4.096 16.384 7.168 23.552 10.24 6.144 2.048 12.288 6.144 17.408 11.264zM642.503066 954.368c11.264 0 21.504-4.096 29.696-12.288 8.192-8.192 12.288-18.432 12.288-29.696s-4.096-21.504-12.288-29.696c-8.192-8.192-17.408-12.288-29.696-12.288-11.264 0-21.504 4.096-29.696 12.288-8.192 8.192-12.288 18.432-12.288 29.696s4.096 21.504 12.288 29.696c8.192 8.192 18.432 12.288 29.696 12.288z m268.288 0c11.264 0 21.504-4.096 29.696-12.288 8.192-8.192 12.288-17.408 12.288-29.696 0-11.264-4.096-21.504-12.288-29.696-8.192-8.192-17.408-12.288-29.696-12.288-11.264 0-21.504 4.096-29.696 12.288s-12.288 18.432-12.288 29.696c0 6.144 1.024 11.264 3.072 16.384 2.048 5.12 5.12 9.216 9.216 13.312s8.192 7.168 13.312 9.216c5.12 2.048 10.24 3.072 16.384 3.072z m0 0" p-id="42378"></path></svg>