<?xml version="1.0" standalone="no"?>
<!DOCTYPE svg PUBLIC "-//W3C//DTD SVG 1.1//EN" "http://www.w3.org/Graphics/SVG/1.1/DTD/svg11.dtd"><svg t="1712365567267"
    class="icon" viewBox="0 0 1024 1024" version="1.1" xmlns="http://www.w3.org/2000/svg" p-id="10053"
    xmlns:xlink="http://www.w3.org/1999/xlink" width="200" height="200">
    <path
        d="M953.108 651.609l-73.154-98.429c36.879-48.594 56.909-107.926 56.702-169.011 0-154.794-125.925-280.739-280.739-280.739-98.898-0.038-189.833 51.942-240.37 135.678l-5.698-7.803-0.364-0.5a49.533 49.533 0 0 0-41.756-19.406 49.55 49.55 0 0 0-39.678 23.351L68.367 653.642a29.15 29.15 0 0 0 24.738 44.496 29.128 29.128 0 0 0 24.787-13.784l252.79-407.831 231.035 316.741 0.379 0.521a49.544 49.544 0 0 0 36.928 19.408 49.495 49.495 0 0 0 38.654-15.7c0.453-0.489 0.882-0.99 1.297-1.495l83.66-102.944 143.863 193.332a29.13 29.13 0 0 0 27.186 13.041 29.142 29.142 0 0 0 24.175-18.034 29.146 29.146 0 0 0-4.751-29.784zM843.348 503.92l-40.71-54.765a49.5 49.5 0 0 0-36.989-19.841 49.518 49.518 0 0 0-38.935 15.701c-0.449 0.485-0.882 0.981-1.297 1.479l-83.599 102.861-189.126-259.311c1.382-1.665 2.987-3.09 4.001-5.106 37.465-75.684 114.724-123.467 199.178-123.178 122.592 0 222.475 99.809 222.475 222.473 0.133 42.585-12.145 84.105-34.998 119.687zM889.848 753.586H104.292c-16.086 0-29.137 13.043-29.137 29.132 0 16.093 13.05 29.132 29.137 29.132h785.556c16.091 0 29.132-13.039 29.132-29.132 0-16.089-13.041-29.132-29.132-29.132zM789.285 862.304H204.898c-16.086 0-29.125 13.043-29.125 29.132s13.039 29.134 29.125 29.134h584.387c16.086 0 29.132-13.046 29.132-29.134s-13.045-29.132-29.132-29.132z"
        p-id="10054"></path>
</svg>