<?xml version="1.0" standalone="no"?>
<!DOCTYPE svg PUBLIC "-//W3C//DTD SVG 1.1//EN" "http://www.w3.org/Graphics/SVG/1.1/DTD/svg11.dtd"><svg class="icon"
    width="200px" height="175.04px" viewBox="0 0 1170 1024" version="1.1" xmlns="http://www.w3.org/2000/svg">
    <path
        d="M1170.285714 36.571429a36.571429 36.571429 0 0 1-36.571428 36.571428H36.571429a36.571429 36.571429 0 0 1 0-73.142857h1097.142857a36.571429 36.571429 0 0 1 36.571428 36.571429z m-219.428571 146.285714v512a36.571429 36.571429 0 0 1-36.571429 36.571428h-219.428571a36.571429 36.571429 0 0 1-36.571429-36.571428v-512a36.571429 36.571429 0 0 1 36.571429-36.571429h219.428571a36.571429 36.571429 0 0 1 36.571429 36.571429z m-438.857143 0v804.571428a36.571429 36.571429 0 0 1-36.571429 36.571429h-219.428571a36.571429 36.571429 0 0 1-36.571429-36.571429v-804.571428a36.571429 36.571429 0 0 1 36.571429-36.571429h219.428571a36.571429 36.571429 0 0 1 36.571429 36.571429z" />
</svg>