<?xml version="1.0" standalone="no"?><!DOCTYPE svg PUBLIC "-//W3C//DTD SVG 1.1//EN" "http://www.w3.org/Graphics/SVG/1.1/DTD/svg11.dtd"><svg t="1712148273097" class="icon" viewBox="0 0 1024 1024" version="1.1" xmlns="http://www.w3.org/2000/svg" p-id="4299" xmlns:xlink="http://www.w3.org/1999/xlink" width="200" height="200"><path d="M891.392 801.28h-218.112c-18.432 0-31.232 12.288-31.232 31.232 0 18.432 12.288 31.232 31.232 31.232h218.112c18.432 0 31.232-12.288 31.232-31.232-0.512-12.8-12.8-31.232-31.232-31.232zM891.392 626.688h-218.112c-18.432 0-31.232 12.288-31.232 31.232 0 18.432 12.288 31.232 31.232 31.232h218.112c18.432 0 31.232-12.288 31.232-31.232-0.512-12.288-12.8-31.232-31.232-31.232zM642.048 489.984c0 18.432 12.288 31.232 31.232 31.232h218.112c18.432 0 31.232-12.288 31.232-31.232 0-18.944-12.8-31.232-31.232-31.232h-218.112c-18.432 0-31.232 12.288-31.232 31.232z" p-id="4300"></path><path d="M798.208 123.392c-6.144-12.288-17.408-18.432-31.232-18.432H132.608c-12.8 0-28.16 5.12-31.232 18.432-3.072 12.288-1.536 19.968 12.288 37.376l203.264 281.6v267.776c0 12.8 6.144 18.944 12.288 25.088l62.464 49.664c14.336 11.264 32.256 7.68 43.52-6.144s8.704-30.72-6.144-43.52l-49.664-43.52V429.568c0-12.8 1.024-14.848-6.144-25.088L207.36 173.056h484.864L521.216 409.6c-6.144 8.704-6.144 18.944-6.144 25.088v470.528c0 18.944 12.8 31.232 31.232 31.232 18.944 0 37.376-12.288 37.376-31.232V447.488l208.384-286.72c9.216-14.848 12.288-25.088 6.144-37.376z" p-id="4301"></path></svg>