<?xml version="1.0" standalone="no"?>
<!DOCTYPE svg PUBLIC "-//W3C//DTD SVG 1.1//EN" "http://www.w3.org/Graphics/SVG/1.1/DTD/svg11.dtd"><svg t="1715434385193"
    class="icon" viewBox="0 0 1024 1024" version="1.1" xmlns="http://www.w3.org/2000/svg" p-id="41418"
    xmlns:xlink="http://www.w3.org/1999/xlink">
    <path
        d="M901.76 230.9888H484.16256V180.5312c0-30.75072-24.92928-55.68-55.68-55.68H122.24C91.4944 124.8512 66.56 149.78048 66.56 180.5312v662.9376c0 30.7456 24.9344 55.68 55.68 55.68h779.52c30.75584 0 55.68-24.9344 55.68-55.68V286.6688c0-30.75072-24.92416-55.68-55.68-55.68zM164.54144 176.1024h228.31104c30.75584 0 41.75872 11.008 41.75872 41.75872v68.83328h427.06432c30.75584 0 41.76384-2.34496 41.76384 28.40576v77.35296H122.7776v-174.592c0-30.75072 11.01824-41.75872 41.76384-41.75872z m697.1392 668.52864H164.54144c-30.7456 0-41.76384-11.008-41.76384-41.75872V447.54944h780.66688v355.30752c0 30.7456-11.008 41.77408-41.76384 41.77408z"
        p-id="41419"></path>
</svg>