<?xml version="1.0" standalone="no"?><!DOCTYPE svg PUBLIC "-//W3C//DTD SVG 1.1//EN" "http://www.w3.org/Graphics/SVG/1.1/DTD/svg11.dtd"><svg t="1750985489271" class="icon" viewBox="0 0 1024 1024" version="1.1" xmlns="http://www.w3.org/2000/svg" p-id="42170" xmlns:xlink="http://www.w3.org/1999/xlink" width="64" height="64"><path d="M356.571429 54.857143h-18.285715c-5.485714 0-9.142857 3.657143-9.142857 9.142857v274.285714c0 5.485714 3.657143 9.142857 9.142857 9.142857h18.285715c5.485714 0 9.142857-3.657143 9.142857-9.142857v-274.285714c0-5.485714-3.657143-9.142857-9.142857-9.142857zM356.571429 512h-18.285715c-5.485714 0-9.142857 3.657143-9.142857 9.142857v91.428572c0 5.485714 3.657143 9.142857 9.142857 9.142857h18.285715c5.485714 0 9.142857-3.657143 9.142857-9.142857v-91.428572c0-5.485714-3.657143-9.142857-9.142857-9.142857zM228.571429 201.142857h-18.285715c-5.485714 0-9.142857 3.657143-9.142857 9.142857v292.571429c0 5.485714 3.657143 9.142857 9.142857 9.142857h18.285715c5.485714 0 9.142857-3.657143 9.142857-9.142857v-292.571429c0-5.485714-3.657143-9.142857-9.142857-9.142857zM347.428571 420.571429c-10.971429 0-18.285714 7.314286-18.285714 18.285714s7.314286 18.285714 18.285714 18.285714 18.285714-7.314286 18.285715-18.285714-7.314286-18.285714-18.285715-18.285714zM219.428571 585.142857c-10.971429 0-18.285714 7.314286-18.285714 18.285714s7.314286 18.285714 18.285714 18.285715 18.285714-7.314286 18.285715-18.285715-7.314286-18.285714-18.285715-18.285714zM219.428571 91.428571c-10.971429 0-18.285714 7.314286-18.285714 18.285715s7.314286 18.285714 18.285714 18.285714 18.285714-7.314286 18.285715-18.285714-7.314286-18.285714-18.285715-18.285715zM722.285714 621.714286c31.085714 0 56.685714 14.628571 71.314286 36.571428h-142.628571c14.628571-21.942857 42.057143-36.571429 71.314285-36.571428m0-36.571429c-65.828571 0-118.857143 49.371429-118.857143 109.714286h237.714286c0-60.342857-53.028571-109.714286-118.857143-109.714286z" fill="#444444" p-id="42171"></path><path d="M722.285714 310.857143c5.485714 0 9.142857 3.657143 9.142857 7.314286V585.142857h-18.285714V318.171429c0-3.657143 3.657143-7.314286 9.142857-7.314286m0-36.571429c-25.6 0-45.714286 20.114286-45.714285 43.885715V621.714286h91.428571V318.171429c0-23.771429-20.114286-43.885714-45.714286-43.885715zM896 694.857143c51.2 0 91.428571 40.228571 91.428571 91.428571v109.714286c0 51.2-40.228571 91.428571-91.428571 91.428571H128c-51.2 0-91.428571-40.228571-91.428571-91.428571v-109.714286c0-51.2 40.228571-91.428571 91.428571-91.428571h768m0-36.571429H128c-71.314286 0-128 56.685714-128 128v109.714286c0 71.314286 56.685714 128 128 128h768c71.314286 0 128-56.685714 128-128v-109.714286c0-71.314286-56.685714-128-128-128z" fill="#444444" p-id="42172"></path><path d="M237.714286 804.571429c20.114286 0 36.571429 16.457143 36.571428 36.571428s-16.457143 36.571429-36.571428 36.571429-36.571429-16.457143-36.571429-36.571429 16.457143-36.571429 36.571429-36.571428m0-36.571429c-40.228571 0-73.142857 32.914286-73.142857 73.142857s32.914286 73.142857 73.142857 73.142857 73.142857-32.914286 73.142857-73.142857-32.914286-73.142857-73.142857-73.142857zM813.714286 841.142857h-365.714286c-5.485714 0-9.142857 3.657143-9.142857 9.142857s3.657143 9.142857 9.142857 9.142857h365.714286c5.485714 0 9.142857-3.657143 9.142857-9.142857s-3.657143-9.142857-9.142857-9.142857zM469.942857 117.028571c-5.485714 0-10.971429-1.828571-14.628571-7.314285-5.485714-7.314286-3.657143-20.114286 3.657143-25.6C530.285714 31.085714 623.542857 3.657143 722.285714 3.657143S914.285714 32.914286 985.6 84.114286c7.314286 5.485714 9.142857 18.285714 3.657143 25.6-5.485714 7.314286-18.285714 9.142857-25.6 3.657143-64-47.542857-149.942857-73.142857-241.371429-73.142858s-177.371429 25.6-241.371428 73.142858c-3.657143 1.828571-7.314286 3.657143-10.971429 3.657142z" fill="#444444" p-id="42173"></path><path d="M555.885714 202.971429c-5.485714 0-10.971429-1.828571-14.628571-7.314286-5.485714-7.314286-3.657143-20.114286 3.657143-25.6 47.542857-34.742857 109.714286-54.857143 177.371428-54.857143 65.828571 0 129.828571 20.114286 177.371429 54.857143 7.314286 5.485714 9.142857 18.285714 3.657143 25.6-5.485714 7.314286-18.285714 9.142857-25.6 3.657143-42.057143-31.085714-96.914286-47.542857-155.428572-47.542857s-115.2 16.457143-155.428571 47.542857c-3.657143 1.828571-7.314286 3.657143-10.971429 3.657143z" fill="#444444" p-id="42174"></path></svg>