<?xml version="1.0" standalone="no"?><!DOCTYPE svg PUBLIC "-//W3C//DTD SVG 1.1//EN" "http://www.w3.org/Graphics/SVG/1.1/DTD/svg11.dtd"><svg t="1732154000588" class="icon" viewBox="0 0 1029 1024" version="1.1" xmlns="http://www.w3.org/2000/svg" p-id="40430" xmlns:xlink="http://www.w3.org/1999/xlink" width="64.3125" height="64"><path d="M64.866067 468.893278h350.771121a50.185063 50.185063 0 0 0 50.11016-50.11016V68.086899a50.185063 50.185063 0 0 0-50.11016-50.185063H64.866067A50.185063 50.185063 0 0 0 14.980616 68.086899v350.696219a50.185063 50.185063 0 0 0 49.885451 50.11016z m26.890205-394.814132h302.683345v328.3751H91.756272zM1022.576841 375.638944l-202.687733-350.546412a50.035257 50.035257 0 0 0-86.737766 0l-202.687733 350.546412a50.11016 50.11016 0 0 0 43.219077 74.903079h405.450369a50.11016 50.11016 0 0 0 43.443786-74.903079zM954.265233 560.574647H603.419209a50.185063 50.185063 0 0 0-50.110161 50.11016v350.696219a50.185063 50.185063 0 0 0 50.110161 49.810547h350.846024a50.185063 50.185063 0 0 0 50.11016-50.11016V610.684807a50.185063 50.185063 0 0 0-50.11016-50.11016z m-24.043889 389.496014H627.538V621.69556h302.683344zM237.967084 548.065833a237.967084 237.967084 0 1 0 237.967083 237.967083 238.041987 238.041987 0 0 0-237.967083-237.967083z m0 389.496013A151.379124 151.379124 0 1 1 389.496013 786.032916a151.379124 151.379124 0 0 1-151.528929 151.379124z"  p-id="40431"></path></svg>