<?xml version="1.0" standalone="no"?><!DOCTYPE svg PUBLIC "-//W3C//DTD SVG 1.1//EN" "http://www.w3.org/Graphics/SVG/1.1/DTD/svg11.dtd"><svg class="icon" width="64px" height="64.00px" viewBox="0 0 1024 1024" version="1.1" xmlns="http://www.w3.org/2000/svg"><path d="M954.88 0c37.888 0 69.12 31.232 69.12 69.12v885.76c0 37.888-31.232 69.12-69.12 69.12h-885.76C31.232 1024 0 992.768 0 954.88v-885.76C0 31.232 31.232 0 69.12 0h885.76M107.008 959.488h810.496c23.04 0 41.472-18.432 41.472-41.472V107.008c0-23.04-18.432-41.472-41.472-41.472H107.008c-23.04 0-41.472 18.432-41.472 41.472v810.496c0 23.552 18.944 41.984 41.472 41.984m454.144-810.496c37.888 0 69.12 31.232 69.12 69.12V394.24h177.152c37.888 0 69.12 31.232 69.12 69.12v343.552c0 37.888-31.232 69.12-69.12 69.12H464.896c-37.888 0-69.12-31.232-69.12-69.12v-176.128H218.624c-37.888 0-69.12-31.232-69.12-69.12V218.112c0-37.888 31.232-69.12 69.12-69.12h342.528m-304.64 416.768h139.264V463.872c0-37.888 31.232-69.12 69.12-69.12h99.84V257.024c0-23.04-18.432-41.472-41.472-41.472H256.512c-23.04 0-41.472 18.432-41.472 41.472v267.776c0 22.016 18.432 40.96 41.472 40.96m246.272 245.248h266.752c23.04 0 41.472-18.432 41.472-41.472V501.76c0-23.04-18.432-41.472-41.472-41.472h-139.264V561.664c0 37.888-31.232 69.12-69.12 69.12H461.312V769.536c0 23.04 18.432 41.472 41.472 41.472m-41.472-245.248h61.952c23.04 0 41.472-18.432 41.472-41.472V460.288H502.784c-23.04 0-41.472 18.432-41.472 41.472v64" /></svg>