<?xml version="1.0" standalone="no"?>
<!DOCTYPE svg PUBLIC "-//W3C//DTD SVG 1.1//EN" "http://www.w3.org/Graphics/SVG/1.1/DTD/svg11.dtd"><svg t="1716559036380"
    class="icon" viewBox="0 0 1024 1024" version="1.1" xmlns="http://www.w3.org/2000/svg" p-id="4527"
    xmlns:xlink="http://www.w3.org/1999/xlink" width="200" height="200">
    <path
        d="M986.020878 96.452959c0-17.941808-13.739738-36.490454-36.639301-36.490453h-0.996131c-19.670725 0.457991-35.677519 17.048725-35.677519 36.982794v857.474137H199.168993c-50.653833 0-91.861597-42.810733-91.861597-95.422479v-49.085213c0-52.668995 43.016829-95.422479 95.88047-95.422479h568.985442a68.801737 68.801737 0 0 0 68.801737-68.801737l0.343494-575.809512c0-38.001825-31.143406-69.843667-69.145231-69.843668L154.835439 0h-0.148848a127.768112 127.768112 0 0 0-81.73999 36.799598A117.303012 117.303012 0 0 0 37.978969 120.440252v739.140645a162.850242 162.850242 0 0 0 48.524174 116.123684 164.430312 164.430312 0 0 0 116.684723 48.295179h713.252689c38.001825 0 69.488724-30.799912 69.488724-68.801738zM107.307396 120.440252a47.619641 47.619641 0 0 1 47.67689-47.447895h617.063075v566.214595H203.187866c-41.219213 0-73.610645 16.957126-95.88047 31.864742z"
        p-id="4528"></path>
    <path
        d="M808.114172 806.156217H245.42611c-17.632664 0-35.872165 13.419144-35.872166 35.872165 0 22.132428 13.739738 35.872165 35.872166 35.872165h562.688062C825.723936 877.911997 844.043587 864.458504 844.043587 842.028382s-18.31965-35.872165-35.929415-35.872165z"
        p-id="4529"></path>
</svg>