<?xml version="1.0" standalone="no"?><!DOCTYPE svg PUBLIC "-//W3C//DTD SVG 1.1//EN" "http://www.w3.org/Graphics/SVG/1.1/DTD/svg11.dtd"><svg t="1743294982895" class="icon" viewBox="0 0 1024 1024" version="1.1" xmlns="http://www.w3.org/2000/svg" p-id="49683" xmlns:xlink="http://www.w3.org/1999/xlink" width="200" height="200"><path d="M768 179.2A76.8 76.8 0 0 1 844.8 256v512a76.8 76.8 0 0 1-76.8 76.8H256A76.8 76.8 0 0 1 179.2 768V256A76.8 76.8 0 0 1 256 179.2h512zM256 102.4a153.6 153.6 0 0 0-153.6 153.6v512a153.6 153.6 0 0 0 153.6 153.6h512a153.6 153.6 0 0 0 153.6-153.6V256a153.6 153.6 0 0 0-153.6-153.6H256z" p-id="49684"></path><path d="M102.4 384A76.8 76.8 0 0 1 179.2 307.2h665.6A76.8 76.8 0 0 1 921.6 384H102.4z"  p-id="49685"></path></svg>