<?xml version="1.0" standalone="no"?><!DOCTYPE svg PUBLIC "-//W3C//DTD SVG 1.1//EN" "http://www.w3.org/Graphics/SVG/1.1/DTD/svg11.dtd"><svg t="1716875670765" class="icon" viewBox="0 0 1024 1024" version="1.1" xmlns="http://www.w3.org/2000/svg" p-id="38038" xmlns:xlink="http://www.w3.org/1999/xlink" width="48" height="48"><path d="M613.091556 839.224889l-132.323556-147.057778a17.066667 17.066667 0 0 1 12.686222-28.444444h107.975111V568.888889h48.753778v94.776889h107.975111a17.066667 17.066667 0 0 1 12.686222 28.501333l-132.380444 147.057778a17.066667 17.066667 0 0 1-25.372444 0zM638.464 184.775111l132.323556 147.057778a17.066667 17.066667 0 0 1-12.686223 28.444444h-107.975111V455.111111h-48.753778V360.277333H493.397333a17.066667 17.066667 0 0 1-12.686222-28.444444l132.380445-147.057778a17.066667 17.066667 0 0 1 25.372444 0z" p-id="38039"></path><path d="M853.333333 113.777778a56.888889 56.888889 0 0 1 56.888889 56.888889v682.666666a56.888889 56.888889 0 0 1-56.888889 56.888889H170.666667a56.888889 56.888889 0 0 1-56.888889-56.888889V170.666667a56.888889 56.888889 0 0 1 56.888889-56.888889h682.666666zM398.222222 853.333333h398.222222a56.888889 56.888889 0 0 0 56.888889-56.888889V227.555556a56.888889 56.888889 0 0 0-56.888889-56.888889H398.222222v682.666666z" p-id="38040"></path></svg>