<?xml version="1.0" standalone="no"?>
<!DOCTYPE svg PUBLIC "-//W3C//DTD SVG 1.1//EN" "http://www.w3.org/Graphics/SVG/1.1/DTD/svg11.dtd"><svg t="1723988376384"
    class="icon" viewBox="0 0 1024 1024" version="1.1" xmlns="http://www.w3.org/2000/svg" p-id="41388"
    xmlns:xlink="http://www.w3.org/1999/xlink" width="200" height="200">
    <path
        d="M327.338667 149.397333a26.24 26.24 0 0 1 24.277333 12.544c5.056 8.384 4.906667 18.858667-0.341333 27.093334l-65.066667 101.653333 156.48 125.952c7.594667 6.101333 11.114667 15.914667 9.109333 25.386667l-29.824 140.224 120.533334-157.418667-119.466667-137.429333a25.664 25.664 0 0 1-0.554667-33.066667l75.370667-92.885333c5.333333-6.677333 13.653333-10.282667 22.229333-9.621334l372.885334 25.813334c6.933333 0.448 13.376 3.626667 17.941333 8.810666 4.544 5.184 6.826667 11.946667 6.357333 18.773334L871.68 850.624a25.834667 25.834667 0 0 1-9.173333 17.898667 26.389333 26.389333 0 0 1-19.306667 6.058666l-427.584-38.442666a26.069333 26.069333 0 0 1-22.442667-17.6l-42.112-125.013334a25.365333 25.365333 0 0 1-1.152-8.917333 24.746667 24.746667 0 0 1-0.597333-11.925333l48-225.856-162.133333-130.474667a25.685333 25.685333 0 0 1-5.610667-33.92l49.813333-77.824-118.634666 8.213333 33.024 467.136 100.864-10.026666a26.218667 26.218667 0 0 1 28.650666 23.168c0.682667 6.826667-1.386667 13.653333-5.781333 18.986666a26.24 26.24 0 0 1-17.664 9.365334l-102.421333 10.154666L202.666667 806.4l118.08-8.725333a25.962667 25.962667 0 0 1 28.032 23.893333 25.92 25.92 0 0 1-24.106667 27.712l-144.277333 10.666667a26.389333 26.389333 0 0 1-19.050667-6.272 25.813333 25.813333 0 0 1-9.002667-17.749334L106.730667 190.592a25.706667 25.706667 0 0 1 6.357333-18.794667 26.24 26.24 0 0 1 17.92-8.832z m202.730666 54.997334l-53.205333 65.536 119.04 136.96a25.6 25.6 0 0 1 1.024 32.490666l-191.936 250.709334 32.362667 96 383.957333 34.56 5.12-72.426667-338.602667-32.192a26.24 26.24 0 0 1-17.685333-9.28 25.685333 25.685333 0 0 1-5.845333-18.944 25.386667 25.386667 0 0 1 9.28-17.6c5.376-4.394667 12.330667-6.421333 19.242666-5.674667l337.237334 32.064 33.173333-469.184-333.162667-23.04zM736 298.666667a53.333333 53.333333 0 1 1 0 106.666666 53.333333 53.333333 0 0 1 0-106.666666z"
        p-id="41389"></path>
</svg>