<?xml version="1.0" standalone="no"?><!DOCTYPE svg PUBLIC "-//W3C//DTD SVG 1.1//EN" "http://www.w3.org/Graphics/SVG/1.1/DTD/svg11.dtd"><svg t="1712147473621" class="icon" viewBox="0 0 1024 1024" version="1.1" xmlns="http://www.w3.org/2000/svg" p-id="43751" xmlns:xlink="http://www.w3.org/1999/xlink" width="200" height="200"><path d="M832 83.2A108.8 108.8 0 0 1 940.8 192v640a108.8 108.8 0 0 1-108.8 108.8H192A108.8 108.8 0 0 1 83.2 832V192A108.8 108.8 0 0 1 192 83.2z m-170.88 531.84l-183.168 164.928a44.8 44.8 0 0 1-53.12 5.056l-6.016-4.352-122.048-104.64-124.032 93.056V832a19.2 19.2 0 0 0 14.848 18.688L192 851.2h640a19.2 19.2 0 0 0 19.2-19.2v-44.224L661.12 615.04zM832 172.8H192a19.2 19.2 0 0 0-19.2 19.2l-0.064 465.088 99.008-74.24a44.8 44.8 0 0 1 50.56-2.304l5.504 4.096 119.424 102.4 184.128-165.696a44.8 44.8 0 0 1 54.144-4.416l5.952 4.608 159.744 145.216V192a19.2 19.2 0 0 0-14.784-18.688l-4.48-0.512z m-448 59.712a151.488 151.488 0 1 1 0 302.976 151.488 151.488 0 0 1 0-302.976z m0 89.6a61.888 61.888 0 1 0 0 123.776 61.888 61.888 0 0 0 0-123.776z" p-id="43752"></path></svg>