<?xml version="1.0" standalone="no"?><!DOCTYPE svg PUBLIC "-//W3C//DTD SVG 1.1//EN" "http://www.w3.org/Graphics/SVG/1.1/DTD/svg11.dtd"><svg t="1743294594659" class="icon" viewBox="0 0 1024 1024" version="1.1" xmlns="http://www.w3.org/2000/svg" p-id="37684" xmlns:xlink="http://www.w3.org/1999/xlink" width="200" height="200"><path d="M812.8 937.6c-33.6 0-64.8-12.8-88-36.8-48.8-48.8-48.8-128 0-176.8 23.2-23.2 55.2-36.8 88-36.8 33.6 0 64.8 12.8 88 36.8 48.8 48.8 48.8 128 0 176.8-23.2 24-54.4 36.8-88 36.8z m0-233.6c-28.8 0-56.8 11.2-76.8 32-42.4 42.4-42.4 111.2 0 154.4 20.8 20.8 48 32 76.8 32 28.8 0 56.8-11.2 76.8-32 42.4-42.4 42.4-111.2 0-154.4-20-20.8-48-32-76.8-32z"  p-id="37685"></path><path d="M812.8 1020c-55.2 0-107.2-21.6-146.4-60.8-48-48-68.8-115.2-57.6-182.4L316 484c-21.6 6.4-44 9.6-67.2 9.6-65.6 0-126.4-25.6-172.8-72C24.8 370.4-0.8 300 5.6 228c0-4 1.6-7.2 4.8-10.4L36 192c6.4-6.4 16-6.4 22.4 0l121.6 121.6 87.2-48.8 48.8-87.2-122.4-120c-6.4-6.4-6.4-16 0-22.4l25.6-25.6c2.4-2.4 6.4-4 10.4-4.8 6.4-0.8 13.6-0.8 20-0.8 65.6 0 126.4 25.6 172.8 72 63.2 63.2 86.4 154.4 62.4 240l292.8 292.8c12-2.4 24-3.2 36-3.2 55.2 0 107.2 21.6 146.4 60.8 80.8 80.8 80.8 212 0 292.8-40 39.2-92 60.8-147.2 60.8zM320 449.6c4 0 8 1.6 11.2 4.8L636.8 760c4 4 5.6 9.6 4 14.4-12.8 58.4 4.8 119.2 47.2 161.6 32.8 32.8 76.8 51.2 124 51.2 46.4 0 90.4-18.4 124-51.2 68-68 68-179.2 0-248-32.8-32.8-76.8-51.2-124-51.2-12.8 0-25.6 1.6-37.6 4-5.6 0.8-11.2-0.8-14.4-4L454.4 331.2c-4-4-5.6-10.4-4-16 25.6-76.8 5.6-160-52-216.8-43.2-43.2-101.6-65.6-162.4-61.6l-9.6 9.6 118.4 118.4c4.8 4.8 6.4 12.8 2.4 19.2l-56.8 101.6c-1.6 2.4-3.2 4.8-6.4 6.4L184 348.8c-6.4 3.2-14.4 2.4-19.2-2.4L46.4 227.2l-9.6 9.6c-3.2 60.8 19.2 119.2 61.6 162.4 40 40 93.6 62.4 150.4 62.4 22.4 0 44.8-3.2 66.4-10.4 1.6-0.8 3.2-1.6 4.8-1.6z"  p-id="37686"></path><path d="M707.2 672c-2.4 0-4-0.8-5.6-2.4L419.2 387.2c-3.2-3.2-3.2-8 0-11.2 3.2-3.2 8-3.2 11.2 0l282.4 282.4c3.2 3.2 3.2 8 0 11.2-1.6 1.6-3.2 2.4-5.6 2.4z"  p-id="37687"></path></svg>