<?xml version="1.0" standalone="no"?><!DOCTYPE svg PUBLIC "-//W3C//DTD SVG 1.1//EN" "http://www.w3.org/Graphics/SVG/1.1/DTD/svg11.dtd"><svg t="1743315423320" class="icon" viewBox="0 0 1024 1024" version="1.1" xmlns="http://www.w3.org/2000/svg" p-id="41497" xmlns:xlink="http://www.w3.org/1999/xlink" width="200" height="200"><path d="M938.666667 384c0-164.693333-133.973333-298.666667-298.666667-298.666667-150.186667 0-274.346667 111.36-295.253333 256H128c-23.466667 0-42.666667 19.2-42.666667 42.666667v512c0 23.466667 19.2 42.666667 42.666667 42.666667h512c23.466667 0 42.666667-19.2 42.666667-42.666667v-216.746667c144.64-20.906667 256-145.066667 256-295.253333z m-341.333334 209.066667a213.76 213.76 0 0 1-166.4-166.4h149.333334c9.386667 0 17.066667 7.68 17.066666 17.066666v149.333334z m-17.066666 260.266666H187.733333c-9.386667 0-17.066667-7.68-17.066666-17.066666v-392.533334c0-9.386667 7.68-17.066667 17.066666-17.066666h157.013334A298.666667 298.666667 0 0 0 597.333333 679.253333v157.013334c0 9.386667-7.68 17.066667-17.066666 17.066666z m102.4-260.266666V384c0-23.466667-19.2-42.666667-42.666667-42.666667h-209.066667A213.333333 213.333333 0 0 1 853.333333 384c0 102.826667-73.386667 189.013333-170.666666 209.066667z" p-id="41498"></path></svg>