<?xml version="1.0" standalone="no"?><!DOCTYPE svg PUBLIC "-//W3C//DTD SVG 1.1//EN" "http://www.w3.org/Graphics/SVG/1.1/DTD/svg11.dtd"><svg t="1722670471293" class="icon" viewBox="0 0 1024 1024" version="1.1" xmlns="http://www.w3.org/2000/svg" p-id="65731" xmlns:xlink="http://www.w3.org/1999/xlink" width="200" height="200"><path d="M39.661972 212.732394c0 72.112676 59.492958 131.605634 131.605634 131.605634s131.605634-59.492958 131.605633-131.605634-59.492958-131.605634-131.605633-131.605633-131.605634 57.690141-131.605634 131.605633z m0 0"  p-id="65732"></path><path d="M265.014085 173.070423h102.760563c64.901408 0 115.380282 52.28169 115.380282 115.380281v340.732395c0 32.450704 25.239437 57.690141 57.69014 57.69014h234.366198v-160.450704l209.12676 209.126761-207.323943 209.12676v-171.267605H517.408451c-64.901408 0-115.380282-52.28169-115.380282-115.380282V326.309859c0-32.450704-25.239437-57.690141-57.690141-57.690141H252.394366l12.619719-95.549295z m0 0"  p-id="65733"></path></svg>