<?xml version="1.0" standalone="no"?>
<!DOCTYPE svg PUBLIC "-//W3C//DTD SVG 1.1//EN" "http://www.w3.org/Graphics/SVG/1.1/DTD/svg11.dtd"><svg t="1715497994466"
    class="icon" viewBox="0 0 1024 1024" version="1.1" xmlns="http://www.w3.org/2000/svg" p-id="1726"
    xmlns:xlink="http://www.w3.org/1999/xlink" width="200" height="200">
    <path
        d="M847 959H177a50 50 0 0 1-50-50V456.2a50 50 0 0 1 50-50h83.99V315c0-138.071 111.929-250 250-250s250 111.929 250 250v91.2H847a50 50 0 0 1 50 50V909a50 50 0 0 1-50 50zM700.99 315c0-104.934-85.066-190-190-190s-190 85.066-190 190v91.2h380V315zM837 486a20 20 0 0 0-20-20H207a20 20 0 0 0-20 20v393a20 20 0 0 0 20 20h610a20 20 0 0 0 20-20V486zM512 767a30 30 0 0 1-30-30V628a30 30 0 0 1 60 0v109a30 30 0 0 1-30 30z"
        p-id="1727"></path>
</svg>