<?xml version="1.0" standalone="no"?><!DOCTYPE svg PUBLIC "-//W3C//DTD SVG 1.1//EN" "http://www.w3.org/Graphics/SVG/1.1/DTD/svg11.dtd"><svg t="1746095028451" class="icon" viewBox="0 0 1024 1024" version="1.1" xmlns="http://www.w3.org/2000/svg" p-id="48992" xmlns:xlink="http://www.w3.org/1999/xlink" width="64" height="64"><path d="M780.8 645.12H727.04c-10.24-43.52-51.2-76.8-99.84-76.8s-87.04 33.28-99.84 76.8H268.8c-15.36 0-25.6 10.24-25.6 25.6s10.24 25.6 25.6 25.6H527.36c10.24 43.52 51.2 76.8 99.84 76.8s87.04-33.28 99.84-76.8h53.76c15.36 0 25.6-10.24 25.6-25.6s-10.24-25.6-25.6-25.6z m-153.6 87.04c-33.28 0-61.44-28.16-61.44-61.44s28.16-61.44 61.44-61.44 61.44 28.16 61.44 61.44-28.16 61.44-61.44 61.44z m153.6-358.4H496.64c-10.24-43.52-51.2-76.8-99.84-76.8s-87.04 33.28-99.84 76.8h-28.16c-15.36 0-25.6 10.24-25.6 25.6s10.24 25.6 25.6 25.6H296.96c10.24 43.52 51.2 76.8 99.84 76.8s87.04-33.28 99.84-76.8h284.16c15.36 0 25.6-10.24 25.6-25.6s-10.24-25.6-25.6-25.6z m-384 87.04c-33.28 0-61.44-28.16-61.44-61.44s28.16-61.44 61.44-61.44 61.44 28.16 61.44 61.44-28.16 61.44-61.44 61.44z m435.2-343.04h-614.4c-56.32 0-102.4 46.08-102.4 102.4v614.4c0 56.32 46.08 102.4 102.4 102.4h614.4c56.32 0 102.4-46.08 102.4-102.4V220.16c0-56.32-46.08-102.4-102.4-102.4z m51.2 716.8c0 28.16-23.04 51.2-51.2 51.2h-614.4c-28.16 0-51.2-23.04-51.2-51.2V220.16c0-28.16 23.04-51.2 51.2-51.2h614.4c28.16 0 51.2 23.04 51.2 51.2v614.4z" p-id="48993" ></path></svg>