<?xml version="1.0" encoding="utf-8"?>
<svg version="1.1" xmlns="http://www.w3.org/2000/svg" xmlns:xlink="http://www.w3.org/1999/xlink" viewBox="0 0 500 282">
  <!-- 背景矩形（已改为百分比尺寸） -->
  <rect fill="#EFEFEF" stroke="#595757" stroke-width="1.42%" stroke-miterlimit="10" width="100%" height="100%"/>
  
  <!-- 所有路径保持原始d属性，仅优化样式 -->
  <path fill="#696969" d="M187.925,220.073c3.313,1.385,6.926,2.138,10.69,2.138c3.614,0,7.137-0.723,10.359-2.018l0.361-0.12
    c3.252-1.355,6.203-3.282,8.703-5.722l0.391-0.361c2.56-2.56,4.638-5.661,6.053-9.124c1.385-3.313,2.138-6.926,2.138-10.69
    c0-3.734-0.783-7.348-2.138-10.69c-1.309-3.181-3.198-6.092-5.571-8.582l4.336-7.498l74.472,42.973
    c1.536,0.903,3.222,1.445,4.878,1.656h0.03c1.747,0.241,3.523,0.09,5.149-0.331c1.656-0.452,3.252-1.205,4.668-2.289
    c1.205-0.934,2.289-2.108,3.162-3.493l0.301-0.452l3.945-6.956l13.642,7.89c3.072,1.777,7.017,0.753,8.793-2.349l25.356-43.755
    c1.566-2.74,0.903-6.173-1.445-8.131l5.842-4.005l0.211-0.181c1.054-0.783,2.108-1.927,2.62-3.614
    c0.903-2.921,0.361-5.692-2.951-7.769l-0.181-0.12L192.683,33.186c-1.596-0.903-3.313-1.476-5.029-1.686
    c-1.777-0.241-3.553-0.09-5.21,0.331c-1.716,0.452-3.313,1.235-4.758,2.319c-1.205,0.934-2.319,2.108-3.162,3.523l-0.301,0.452
    l-25.416,43.996c-0.903,1.566-1.445,3.252-1.686,4.999c-0.211,1.656-0.12,3.313,0.271,4.909l0.09,0.391
    c0.452,1.686,1.235,3.282,2.319,4.728c0.753,0.964,1.626,1.867,2.68,2.62l-4.909,8.733c-0.873,1.536-1.415,3.222-1.626,4.909
    c-0.241,1.777-0.09,3.523,0.331,5.149c0.452,1.656,1.205,3.252,2.289,4.668c1.024,1.325,2.319,2.499,3.915,3.433l59.626,34.45
    l-3.975,6.836c-2.981-1.084-6.203-1.686-9.516-1.686c-3.764,0-7.348,0.753-10.69,2.138c-3.433,1.415-6.505,3.493-9.094,6.053
    l-0.03,0.03c-2.56,2.56-4.638,5.661-6.053,9.064c-0.964,2.349-1.626,4.848-1.927,7.408h-8.402v-28.247
    c0-2.801-0.542-5.511-1.536-8.01l-0.12-0.361c-1.114-2.68-2.74-5.089-4.758-7.107c-1.927-1.927-4.216-3.493-6.746-4.607
    l-0.361-0.151c-2.59-1.084-5.451-1.686-8.372-1.686h-9.305c-3.553,0-6.444,2.891-6.444,6.444v96.967
    c0,3.553,2.891,6.444,6.444,6.444h9.305c2.921,0,5.782-0.602,8.372-1.686c2.499-1.054,4.788-2.53,6.715-4.367l0.422-0.361
    c2.018-2.018,3.644-4.427,4.758-7.137c1.084-2.59,1.686-5.451,1.686-8.372v-24.814h9.938c0.151,0.361,0.271,0.723,0.422,1.084
    c1.445,3.463,3.523,6.565,6.083,9.125h0.03C181.42,216.58,184.492,218.657,187.925,220.073L187.925,220.073z"/>
  
  <path fill="#B2B2B2" d="M149.5,211.069v17.556c0,1.235-0.241,2.409-0.663,3.463c-0.452,1.084-1.144,2.108-1.988,2.951l-0.241,0.241
    c-0.783,0.753-1.716,1.325-2.71,1.747c-1.054,0.422-2.198,0.663-3.433,0.663h-2.861v-84.048h2.861c1.235,0,2.409,0.241,3.463,0.663
    l0.241,0.09c0.994,0.452,1.927,1.084,2.68,1.837c0.843,0.843,1.536,1.867,1.988,2.981l0.09,0.211
    c0.391,0.994,0.572,2.078,0.572,3.252V211.069z"/>
  
  <path fill="#F7D87A" d="M326.208,187.369l7.288-12.768l18.309-12.527l-17.406,30.024L326.208,187.369z"/>
  
  <path fill="#B2B2B2" d="M311.031,188.303c-3.313,5.842-6.143,10.69-6.444,10.961l-0.181,0.09l-0.181,0.03l-0.151-0.03
    l-145.209-83.867l-0.09-0.09l-0.06-0.181l-0.03-0.211c1.174-2.59,3.011-5.782,4.788-8.823l139.126,80.344
    c0.873,0.512,1.807,0.903,2.74,1.205l0.663,0.211c1.144,0.301,2.409,0.482,3.674,0.452
    C310.127,188.393,310.579,188.363,311.031,188.303z"/>
  
  <path fill="#F2F2F2" d="M198.615,209.322c-2.108,0-4.035-0.391-5.812-1.114c-1.837-0.753-3.493-1.897-4.878-3.282v-0.03
    c-1.415-1.415-2.53-3.072-3.282-4.878c-0.422-1.054-0.753-2.138-0.934-3.282c0-0.181-0.03-0.361-0.06-0.512
    c-0.09-0.663-0.12-1.325-0.12-2.018c0-2.078,0.391-4.035,1.114-5.812c0.753-1.807,1.867-3.493,3.252-4.878v-0.03
    c1.415-1.415,3.072-2.499,4.909-3.252c1.747-0.723,3.704-1.114,5.812-1.114c2.078,0,4.035,0.391,5.782,1.114
    c1.837,0.753,3.493,1.867,4.878,3.252l0.03,0.03c1.385,1.415,2.499,3.072,3.282,4.878c0.723,1.747,1.114,3.704,1.114,5.812
    s-0.391,4.035-1.114,5.812c-0.723,1.807-1.867,3.463-3.282,4.878l-0.271,0.271c-1.325,1.265-2.921,2.289-4.638,3.011l-0.241,0.12
    C202.47,208.961,200.603,209.322,198.615,209.322z M186.269,44.298l170.776,98.563l-47.64,32.674l-0.241-0.06
    C261.855,152.226,207.108,116.27,160.1,89.409l-0.09-0.09c-0.06-0.06-0.09-0.151-0.12-0.241l-0.06-0.301
    c0.03-0.06,0.06-0.151,0.12-0.271c7.98-14.786,17.225-29.301,25.416-44.027l0.09-0.09c0.06-0.06,0.151-0.09,0.211-0.12
    c0.12-0.03,0.241-0.03,0.361-0.03C186.118,44.238,186.208,44.268,186.269,44.298z"/>
</svg>