<?xml version="1.0" standalone="no"?>
<!DOCTYPE svg PUBLIC "-//W3C//DTD SVG 1.1//EN" "http://www.w3.org/Graphics/SVG/1.1/DTD/svg11.dtd"><svg t="1716620067647"
    class="icon" viewBox="0 0 1024 1024" version="1.1" xmlns="http://www.w3.org/2000/svg" p-id="4271"
    xmlns:xlink="http://www.w3.org/1999/xlink" width="200" height="200">
    <path
        d="M507.52 1013.76a26.88 26.88 0 0 1-15.36-4.48l-112-64a32 32 0 0 1-11.52-42.88 31.36 31.36 0 0 1 42.88-10.88l96 55.04 375.68-216.96v-128a31.36 31.36 0 0 1 31.36-31.36 30.72 30.72 0 0 1 31.36 31.36v147.84a32 32 0 0 1-15.36 27.52l-407.04 232.32a28.8 28.8 0 0 1-16 4.48zM197.76 832a28.8 28.8 0 0 1-16 0l-97.28-57.6a32 32 0 0 1-15.36-27.52V277.12a32 32 0 0 1 15.36-27.52L492.16 14.72a30.72 30.72 0 0 1 31.36 0l407.04 234.88a32 32 0 0 1 15.36 27.52v102.4a30.72 30.72 0 0 1-31.36 31.36 31.36 31.36 0 0 1-31.36-31.36V295.04L507.52 78.08 131.84 295.04v433.92l81.28 47.36a30.08 30.08 0 0 1 11.52 42.24 31.36 31.36 0 0 1-26.88 13.44z"
        p-id="4272"></path>
    <path
        d="M507.52 538.88a28.16 28.16 0 0 1-15.36-4.48l-407.04-230.4a30.72 30.72 0 0 1-12.16-42.24 31.36 31.36 0 0 1 42.88-12.16l407.04 230.4a31.36 31.36 0 0 1-15.36 58.88z"
        p-id="4273"></path>
    <path
        d="M520.32 529.92a31.36 31.36 0 0 1-15.36-58.88l384-216.96a31.36 31.36 0 0 1 42.88 12.16 32 32 0 0 1-11.52 42.88l-384 216.96a33.92 33.92 0 0 1-16 3.84z"
        p-id="4274"></path>
    <path
        d="M507.52 998.4a31.36 31.36 0 0 1-31.36-31.36V507.52a31.36 31.36 0 0 1 64 0v459.52a31.36 31.36 0 0 1-32.64 31.36z"
        p-id="4275"></path>
    <path d="M914.56 576.64m-72.96 0a72.96 72.96 0 1 0 145.92 0 72.96 72.96 0 1 0-145.92 0Z" p-id="4276"></path>
    <path d="M231.04 822.4m-72.96 0a72.96 72.96 0 1 0 145.92 0 72.96 72.96 0 1 0-145.92 0Z" p-id="4277"></path>
</svg>