<?xml version="1.0" standalone="no"?><!DOCTYPE svg PUBLIC "-//W3C//DTD SVG 1.1//EN" "http://www.w3.org/Graphics/SVG/1.1/DTD/svg11.dtd"><svg t="1724137140755" class="icon" viewBox="0 0 1024 1024" version="1.1" xmlns="http://www.w3.org/2000/svg" p-id="37608" xmlns:xlink="http://www.w3.org/1999/xlink" width="32" height="32"><path d="M122.944 569.6a181.888 181.888 0 1 1 181.888 315.008A181.888 181.888 0 0 1 122.88 569.536z m645.44 95.232a87.552 87.552 0 0 1 86.656 0c26.816 15.232 43.328 43.52 43.328 74.048 0 47.296-38.784 85.568-86.656 85.568a86.08 86.08 0 0 1-86.592-85.568c0-30.528 16.512-58.816 43.264-74.048zM557.76 483.84a64.576 64.576 0 1 1 0 129.152 64.576 64.576 0 0 1 0-129.152z m297.6-371.84a136.704 136.704 0 1 1 0 273.344 136.704 136.704 0 0 1 0-273.344z m-557.504 31.616a101.312 101.312 0 0 1 102.208 0c31.616 18.432 51.136 52.544 51.136 89.472s-19.52 71.04-51.136 89.472a101.312 101.312 0 0 1-102.208 0 103.552 103.552 0 0 1-51.2-89.472c0-36.928 19.52-71.04 51.2-89.472z" p-id="37609"></path></svg>