<?xml version="1.0" standalone="no"?>
<!DOCTYPE svg PUBLIC "-//W3C//DTD SVG 1.1//EN" "http://www.w3.org/Graphics/SVG/1.1/DTD/svg11.dtd"><svg t="1716615114519"
    class="icon" viewBox="0 0 1024 1024" version="1.1" xmlns="http://www.w3.org/2000/svg" p-id="42460"
    xmlns:xlink="http://www.w3.org/1999/xlink" width="200" height="200">
    <path
        d="M637.1 78.4c-79.4 0-143.8 64.4-143.8 143.8S557.7 366 637.1 366s143.8-64.2 143.8-143.8c0-79.4-64.4-143.8-143.8-143.8z m0 231.9c-48.6 0-88.2-39.5-88.2-88.2s39.5-88.2 88.2-88.2 88.2 39.5 88.2 88.2c0 48.8-39.6 88.2-88.2 88.2z m297.8 361.9c-5.2-18.5-24.3-29.2-42.7-24.1-18.5 5.2-29.2 24.3-24.1 42.7 5.2 18.5 24.3 29.2 42.7 24.1 18.4-5.1 29.2-24.2 24.1-42.7z m17.3 96.3c-0.1 0-0.1-0.1 0 0-0.9-5.8-3.2-10.8-6.5-14.8-10.2-12.4-29.7-15.9-43.9-4.2-7.2 5.9-11.4 14.7-11.3 24 0.5 30.1-11.4 60.1-35.1 81.7-1.4 1.3-2.8 2.5-4.3 3.7-1.4 1.2-2.9 2.3-4.4 3.4-46 34.3-111.3 26.6-148.1-18-35.8-43.5-32-106.9 7.4-145.8l1.2-1.2 1.3-1.3c0.3-0.3 0.6-0.6 1-0.9 0.1-0.1 0.2-0.2 0.4-0.3 0.4-0.4 0.8-0.7 1.2-1.1 1.4-1.2 2.8-2.4 4.3-3.5 25.4-19.9 57.1-26.7 86.6-21.2 4.6 0.9 9.2 0.7 13.6-0.4s8.5-3.1 12.1-6.1c19.2-15.9 12.7-46.3-10.2-53.4-7.4-1.6-14.9-2.7-22.4-3.2-20.5-1.6-41.4 0.5-61.4 6.4-18.6 5.5-36.6 14.3-53 26.5-2.3 1.7-4.5 3.5-6.7 5.3-2.3 1.9-4.5 3.8-6.6 5.7-13.1 11.9-23.8 25.4-32.3 40L408.5 580.9c3.1-12.8 4.7-26 4.7-39.7 0-36-11.2-69.4-30.3-97l72.2-51.4c14.1-9.6 25.6-26.3 9.7-46.4-14.4-18.3-32.8-12.9-44.9-4.7L338.2 400c-27.2-18.3-59.9-29-95.1-29-94 0-170.1 76.2-170.1 170.1s76 170.3 170 170.3c58.1 0 109.5-29.2 140.2-73.8L609 745.9c1.7 0.8 3.5 1.5 5.3 2-7.7 46.7 4.1 96.4 36.6 135.8 57.8 70.1 160.2 82 232.6 28.5 1.2-0.9 2.3-1.7 3.5-2.7 1-0.7 1.9-1.5 2.8-2.3 0.3-0.2 0.5-0.4 0.8-0.6 0.8-0.7 1.6-1.4 2.5-2.1 0.4-0.4 0.9-0.7 1.2-1.1 2-1.8 4-3.6 5.9-5.4 36.1-34.7 53.8-82.3 52-129.5zM238.3 658.9c-64.6 0-117.2-52.5-117.2-117.2s52.5-117.2 117.2-117.2S355.5 477 355.5 541.7s-52.7 117.2-117.2 117.2z"
        p-id="42461"></path>
</svg>