<?xml version="1.0" standalone="no"?><!DOCTYPE svg PUBLIC "-//W3C//DTD SVG 1.1//EN" "http://www.w3.org/Graphics/SVG/1.1/DTD/svg11.dtd"><svg class="icon" width="64px" height="64.00px" viewBox="0 0 1024 1024" version="1.1" xmlns="http://www.w3.org/2000/svg"><path d="M614.4 613.922133H341.6064v67.3792h272.384a68.1984 68.1984 0 0 0 68.266667-68.1984V341.1968h-67.9936v272.725333z"/><path d="M68.949333 613.922133v-545.450666H614.4v205.346133h67.857067V69.290667a68.1984 68.1984 0 0 0-68.130134-68.1984H69.2224a68.1984 68.1984 0 0 0-68.1984 68.1984V613.034667c0 37.6832 30.5152 68.1984 68.1984 68.1984H273.749333v-67.3792h-204.8z"  /><path d="M682.257067 410.8288v-69.632h-272.384a68.1984 68.1984 0 0 0-68.266667 68.1984V681.301333H409.6V410.8288h272.657067z" /><path d="M954.709333 341.1968H750.250667v69.632h204.8v545.450667H409.6v-207.598934h-67.857067v204.526934c0 37.614933 30.5152 68.130133 68.130134 68.130133h544.904533a68.1984 68.1984 0 0 0 68.1984-68.130133V409.3952a68.1984 68.1984 0 0 0-68.1984-68.266667z"  /></svg>