<?xml version="1.0" standalone="no"?>
<!DOCTYPE svg PUBLIC "-//W3C//DTD SVG 1.1//EN" "http://www.w3.org/Graphics/SVG/1.1/DTD/svg11.dtd"><svg t="1715497979409"
    class="icon" viewBox="0 0 1024 1024" version="1.1" xmlns="http://www.w3.org/2000/svg" p-id="1579"
    xmlns:xlink="http://www.w3.org/1999/xlink" width="200" height="200">
    <path
        d="M847 959H177a50 50 0 0 1-50-50V456a50 50 0 0 1 50-50h83.99v-91c0-138.071 111.929-250 250-250 137.81 0 249.562 111.5 249.99 249.208 0.007 0.264 0.02 0.526 0.02 0.792a30 30 0 0 1-60 0h-0.01c0-104.934-85.066-190-190-190s-190 85.066-190 190v91H847a50 50 0 0 1 50 50v453a50 50 0 0 1-50 50z m-10-473a20 20 0 0 0-20-20H207a20 20 0 0 0-20 20v393a20 20 0 0 0 20 20h610a20 20 0 0 0 20-20V486zM543 742.949V828a30 30 0 0 1-60 0v-84.536a120 120 0 1 1 60-0.515zM512 567a60 60 0 1 0 60 60 60 60 0 0 0-60-60z"
        p-id="1580"></path>
</svg>