<?xml version="1.0" standalone="no"?><!DOCTYPE svg PUBLIC "-//W3C//DTD SVG 1.1//EN" "http://www.w3.org/Graphics/SVG/1.1/DTD/svg11.dtd"><svg t="1712068476695" class="icon" viewBox="0 0 1024 1024" version="1.1" xmlns="http://www.w3.org/2000/svg" p-id="8647" xmlns:xlink="http://www.w3.org/1999/xlink" width="200" height="200"><path d="M550.4 435.2l-136-136L201.6 86.4c-14.4-14.4-38.4-14.4-52.8 0-14.4 14.4-14.4 38.4 0 52.8l222.4 222.4L662.4 656l228.8 228.8c14.4 14.4 38.4 14.4 52.8 0 14.4-14.4 14.4-38.4 0-52.8L550.4 435.2zM636.8 673.6L350.4 388.8l-33.6 46.4c-100.8-51.2-208-75.2-254.4-28.8l238.4 238.4L41.6 956.8c-14.4 17.6 4.8 38.4 25.6 25.6L376 720l241.6 241.6c46.4-46.4 20.8-153.6-30.4-254.4l49.6-33.6zM976 379.2L646.4 49.6c-16-16-41.6-16-52.8 1.6L432 273.6 752 592l222.4-160c17.6-11.2 17.6-36.8 1.6-52.8z" fill="" p-id="8648"></path></svg>