<?xml version="1.0" standalone="no"?>
<!DOCTYPE svg PUBLIC "-//W3C//DTD SVG 1.1//EN" "http://www.w3.org/Graphics/SVG/1.1/DTD/svg11.dtd"><svg t="1712147494613"
    class="icon" viewBox="0 0 1024 1024" version="1.1" xmlns="http://www.w3.org/2000/svg" p-id="46520"
    xmlns:xlink="http://www.w3.org/1999/xlink" width="200" height="200">
    <path
        d="M825.6 460.8c-12.8 0-32 6.4-44.8 12.8l-115.2-108.8c6.4-19.2 12.8-38.4 12.8-57.6 0-64-51.2-121.6-121.6-121.6-64 0-121.6 51.2-121.6 121.6 0 44.8 19.2 76.8 51.2 102.4L409.6 640h-6.4c-25.6 0-51.2 6.4-70.4 19.2L243.2 582.4c6.4-12.8 6.4-19.2 6.4-32 0-51.2-38.4-89.6-89.6-89.6-51.2 0-89.6 38.4-89.6 89.6 0 51.2 38.4 89.6 89.6 89.6 19.2 0 32-6.4 44.8-12.8L294.4 704c-6.4 12.8-12.8 32-12.8 51.2 0 64 51.2 121.6 121.6 121.6 64 0 121.6-51.2 121.6-121.6 0-44.8-19.2-76.8-51.2-102.4l76.8-230.4h6.4c25.6 0 44.8-6.4 64-19.2L736 512c-6.4 12.8-6.4 19.2-6.4 32 0 51.2 38.4 89.6 89.6 89.6 51.2 0 89.6-38.4 89.6-89.6s-32-83.2-83.2-83.2z m-409.6 352c-32 0-57.6-25.6-57.6-57.6s25.6-57.6 57.6-57.6 57.6 25.6 57.6 57.6-25.6 57.6-57.6 57.6z"
        p-id="46521"></path>
</svg>