<?xml version="1.0" standalone="no"?><!DOCTYPE svg PUBLIC "-//W3C//DTD SVG 1.1//EN" "http://www.w3.org/Graphics/SVG/1.1/DTD/svg11.dtd"><svg t="1716875688747" class="icon" viewBox="0 0 1024 1024" version="1.1" xmlns="http://www.w3.org/2000/svg" p-id="39678" xmlns:xlink="http://www.w3.org/1999/xlink" width="48" height="48"><path d="M184.661333 613.148444L331.662222 480.824889a17.066667 17.066667 0 0 1 28.444445 12.686222v107.918222h94.833777v48.753778H360.163556v107.975111a17.066667 17.066667 0 0 1-28.444445 12.686222l-147.057778-132.323555a17.066667 17.066667 0 0 1 0-25.372445zM839.111111 638.520889l-147.057778 132.380444a17.066667 17.066667 0 0 1-28.501333-12.686222V650.24H568.718222v-48.753778h94.833778V493.511111a17.066667 17.066667 0 0 1 28.444444-12.686222l147.057778 132.323555a17.066667 17.066667 0 0 1 0 25.372445z" p-id="39679"></path><path d="M853.333333 113.777778a56.888889 56.888889 0 0 1 56.888889 56.888889v682.666666a56.888889 56.888889 0 0 1-56.888889 56.888889H170.666667a56.888889 56.888889 0 0 1-56.888889-56.888889V344.974222a57.571556 57.571556 0 0 1-0.113778-3.584v-170.666666A56.888889 56.888889 0 0 1 170.666667 113.777778h682.666666zM170.666667 398.279111V796.444444a56.888889 56.888889 0 0 0 56.888889 56.888889h568.888888a56.888889 56.888889 0 0 0 56.888889-56.888889V398.279111H170.666667z" p-id="39680"></path></svg>