<?xml version="1.0" standalone="no"?>
<!DOCTYPE svg PUBLIC "-//W3C//DTD SVG 1.1//EN" "http://www.w3.org/Graphics/SVG/1.1/DTD/svg11.dtd"><svg t="1716615031587"
    class="icon" viewBox="0 0 1024 1024" version="1.1" xmlns="http://www.w3.org/2000/svg" p-id="40360"
    xmlns:xlink="http://www.w3.org/1999/xlink" width="200" height="200">
    <path
        d="M638.272 108.672l249.792 3.84c13.248 0.128 23.872 13.76 23.68 30.4-0.128 16.448-10.816 29.696-23.872 29.76h-0.384l-249.792-3.84c-13.248-0.192-23.872-13.824-23.68-30.464 0.128-16.448 10.816-29.632 23.872-29.696h0.384z"
        p-id="40361"></path>
    <path
        d="M897.6 111.616c16.448 0.128 29.632 10.816 29.696 23.872v0.384l-3.776 251.392c-0.192 13.248-13.824 23.872-30.464 23.68-16.448-0.128-29.632-10.752-29.76-23.808v-0.448l3.84-251.392c0.192-13.12 13.568-23.68 29.952-23.68h0.512z"
        p-id="40362"></path>
    <path
        d="M828.608 160.64a24 24 0 0 1 34.432 33.408l-0.256 0.32-206.976 209.472a24 24 0 0 1-34.432-33.408l0.256-0.32 206.976-209.472zM386.688 925.312l-249.728-3.84c-13.248-0.192-23.872-13.824-23.68-30.464 0.128-16.448 10.752-29.632 23.872-29.696h0.384l249.728 3.84c13.312 0.192 23.872 13.824 23.68 30.464-0.128 16.448-10.752 29.632-23.808 29.696h-0.448z"
        p-id="40363"></path>
    <path
        d="M140.352 909.44c-16.448-0.192-29.632-10.88-29.696-23.936v-0.384l3.84-251.392c0.128-13.248 13.76-23.872 30.4-23.68 16.448 0.128 29.696 10.752 29.76 23.872v0.384l-3.84 251.392c-0.192 13.12-13.568 23.68-29.952 23.68h-0.512z"
        p-id="40364"></path>
    <path
        d="M196.672 860.352a24 24 0 0 1-34.432-33.472l0.256-0.256 206.976-209.472a24 24 0 0 1 34.432 33.408l-0.256 0.32-206.976 209.472z"
        p-id="40365"></path>
</svg>