<?xml version="1.0" standalone="no"?><!DOCTYPE svg PUBLIC "-//W3C//DTD SVG 1.1//EN" "http://www.w3.org/Graphics/SVG/1.1/DTD/svg11.dtd"><svg class="icon" width="64px" height="64.00px" viewBox="0 0 1024 1024" version="1.1" xmlns="http://www.w3.org/2000/svg"><path d="M228.416 493.184l284.010667 145.493333 283.968-145.493333-283.989334-145.514667-283.989333 145.493334z m283.989333 211.050667c-8.021333 0-16.064-1.856-23.381333-5.589334L177.301333 538.88A51.2 51.2 0 0 1 149.333333 493.141333a51.157333 51.157333 0 0 1 27.968-45.674666l311.701334-159.722667a51.434667 51.434667 0 0 1 46.869333 0l311.658667 159.722667a51.114667 51.114667 0 0 1 27.925333 45.653333c0.021333 19.392-10.666667 36.906667-27.904 45.76h-0.021333l-311.722667 159.744c-7.338667 3.754667-15.36 5.610667-23.402667 5.610667zM512.384 875.029333c-8.021333 0-16.064-1.877333-23.381333-5.589333L177.28 709.653333A51.178667 51.178667 0 0 1 149.333333 663.957333a51.157333 51.157333 0 0 1 27.946667-45.674666l126.933333-65.066667a32 32 0 0 1 29.226667 56.96l-105.024 53.824 283.968 145.493333 284.010667-145.493333-107.178667-54.933333a32 32 0 1 1 29.162667-56.96l129.130666 66.176a51.072 51.072 0 0 1 27.946667 45.653333c0.021333 19.392-10.666667 36.906667-27.925333 45.738667l-311.722667 159.765333a51.669333 51.669333 0 0 1-23.424 5.610667zM533.248 153.813333l326.186667 150.186667c9.621333 4.437333 15.637333 13.056 15.637333 22.464 0 9.386667-6.016 18.026667-15.637333 22.442667l-326.186667 150.165333a50.453333 50.453333 0 0 1-41.706667 0l-326.186666-150.186667c-9.6-4.394667-15.616-13.034667-15.616-22.421333 0-9.408 5.994667-18.026667 15.616-22.464l326.186666-150.186667a50.602667 50.602667 0 0 1 41.706667 0z" /></svg>