<?xml version="1.0" standalone="no"?><!DOCTYPE svg PUBLIC "-//W3C//DTD SVG 1.1//EN" "http://www.w3.org/Graphics/SVG/1.1/DTD/svg11.dtd"><svg class="icon" width="64px" height="64.00px" viewBox="0 0 1024 1024" version="1.1" xmlns="http://www.w3.org/2000/svg"><path d="M228.416 333.482667l284.010667 126.954666 283.968-126.933333L512.405333 206.506667l-283.989333 126.954666z m283.989333 184.128c-8.021333 0-16.064-1.642667-23.381333-4.885334L177.301333 373.354667C160.021333 365.653333 149.333333 350.336 149.333333 333.461333c0.021333-16.896 10.730667-32.170667 27.968-39.850666l311.701334-139.349334a58.090667 58.090667 0 0 1 46.869333 0l311.658667 139.349334c17.216 7.68 27.925333 22.954667 27.925333 39.829333 0.021333 16.896-10.666667 32.213333-27.904 39.893333l-0.021333 0.021334-311.722667 139.349333c-7.338667 3.264-15.36 4.906667-23.402667 4.906667zM512.384 666.602667c-8.021333 0-16.064-1.621333-23.381333-4.885334L177.28 522.346667C160.021333 514.645333 149.333333 499.349333 149.333333 482.453333c0.021333-16.874667 10.730667-32.149333 27.946667-39.829333l126.933333-56.789333c15.808-7.04 35.029333-1.578667 43.093334 12.117333 8.064 13.717333 1.834667 30.570667-13.866667 37.589333l-105.024 46.933334 283.968 126.954666 284.010667-126.933333-107.178667-47.936c-15.722667-7.04-21.952-23.829333-13.866667-37.546667 8.042667-13.76 27.328-19.157333 43.029334-12.138666l129.130666 57.728c17.237333 7.68 27.946667 22.954667 27.946667 39.829333 0.021333 16.917333-10.666667 32.213333-27.925333 39.893333l-311.722667 139.370667a57.813333 57.813333 0 0 1-23.424 4.906667zM738.005333 616.725333l120.917334 56.32c9.6 4.48 15.594667 13.184 15.594666 22.677334 0 9.493333-5.994667 18.218667-15.594666 22.698666l-325.696 151.68a50.026667 50.026667 0 0 1-41.664 0l-325.696-151.68c-9.6-4.48-15.594667-13.226667-15.594667-22.698666 0-9.493333 5.994667-18.197333 15.594667-22.677334l121.173333-56.426666 183.957333 85.674666a99.946667 99.946667 0 0 0 83.285334 0l183.722666-85.568z" /></svg>