<?xml version="1.0" standalone="no"?>
<!DOCTYPE svg PUBLIC "-//W3C//DTD SVG 1.1//EN" "http://www.w3.org/Graphics/SVG/1.1/DTD/svg11.dtd"><svg class="icon"
    width="200px" height="200.00px" viewBox="0 0 1024 1024" version="1.1" xmlns="http://www.w3.org/2000/svg">
    <path
        d="M96 0a32 32 0 0 1 32 32v960a32 32 0 0 1-64 0V32A32 32 0 0 1 96 0z m128 192h448a32 32 0 0 1 32 32v192a32 32 0 0 1-32 32h-448a32 32 0 0 1-32-32v-192a32 32 0 0 1 32-32z m0 384h704a32 32 0 0 1 32 32v192a32 32 0 0 1-32 32h-704a32 32 0 0 1-32-32v-192a32 32 0 0 1 32-32z" />
</svg>