<svg xmlns="http://www.w3.org/2000/svg" xmlns:xlink="http://www.w3.org/1999/xlink" width="47" height="47" viewBox="0 0 47 47"><defs><linearGradient id="未命名的渐变_469" x1="2327.09" y1="1072.18" x2="2326.59" y2="1072.18" gradientTransform="matrix(94, 0, 0, -94, -218699.8, 100808.05)" gradientUnits="userSpaceOnUse"><stop offset="0" stop-color="#b3a593"/><stop offset="0.03" stop-color="#fdeeda"/><stop offset="0.08" stop-color="#e9d7bf"/><stop offset="0.64" stop-color="#e5d3bc"/><stop offset="0.95" stop-color="#e0ceb8"/><stop offset="1" stop-color="#a69988"/></linearGradient><linearGradient id="未命名的渐变_459" x1="1617.03" y1="1257.43" x2="1616.53" y2="1257.43" gradientTransform="matrix(3.7, 0, 0, -3.7, -5958.13, 4676.44)" gradientUnits="userSpaceOnUse"><stop offset="0" stop-color="#c4aa84"/><stop offset="0.15" stop-color="#ffe0b3"/><stop offset="0.25" stop-color="#ffeed7"/><stop offset="0.44" stop-color="#dfc297"/><stop offset="0.6" stop-color="#c7ad86"/><stop offset="0.8" stop-color="#a89170"/><stop offset="0.97" stop-color="#998566"/><stop offset="1" stop-color="#cbb189"/></linearGradient><linearGradient id="未命名的渐变_459-2" x1="1896.18" y1="1182.05" x2="1895.68" y2="1182.05" gradientTransform="matrix(5.9, 0, 0, -5.9, -11182.86, 6977.53)" xlink:href="#未命名的渐变_459"/><linearGradient id="未命名的渐变_459-3" x1="1896.18" y1="1188.83" x2="1895.68" y2="1188.83" gradientTransform="matrix(5.9, 0, 0, -5.9, -11182.86, 7057.5)" xlink:href="#未命名的渐变_459"/><linearGradient id="未命名的渐变_459-4" x1="1889.26" y1="1182.05" x2="1888.76" y2="1182.05" gradientTransform="matrix(5.9, 0, 0, -5.9, -11101.27, 6977.53)" xlink:href="#未命名的渐变_459"/><linearGradient id="未命名的渐变_459-5" x1="1889.26" y1="1188.83" x2="1888.76" y2="1188.83" gradientTransform="matrix(5.9, 0, 0, -5.9, -11101.27, 7057.5)" xlink:href="#未命名的渐变_459"/></defs><title>group489</title><g id="图层_2" data-name="图层 2"><g id="传感器"><g id="group489"><path id="shape490" d="M.1,0H46.85C47,0,47,0,47,.1V46.85a.13.13,0,0,1-.15.15H.1S0,47,0,46.85V.1C0,0,.05,0,.1,0Z" style="fill-rule:evenodd;fill:url(#未命名的渐变_469)"/><g id="group491"><path id="shape492" d="M2.24,23.7A21.18,21.18,0,1,1,23.39,44.9,21.17,21.17,0,0,1,2.24,23.7Z" style="stroke:#000;stroke-width:0.5px;fill-rule:evenodd"/><path id="shape493" d="M4,23.68A19.38,19.38,0,1,1,23.4,43.08,19.38,19.38,0,0,1,4,23.68Z" style="fill:#9e9f9f;fill-rule:evenodd"/><path id="shape494" d="M4.66,23.7A18.75,18.75,0,1,1,23.41,42.45,18.77,18.77,0,0,1,4.66,23.7Z" style="fill:#ebeae9;fill-rule:evenodd"/><path id="shape495" d="M11.08,34.73,22.43,24.39s3.75-3.15,4.55-6.05c0,0,.55-.9,1.45,0L30,20.39s.8,1.3-.6,1.3A17.63,17.63,0,0,0,23,25.34Z" style="stroke:#000;stroke-width:0.5px;fill-rule:evenodd"/><path id="shape496" d="M22.41,23.94A1.56,1.56,0,0,1,24,22.39a1.55,1.55,0,0,1,0,3.1A1.56,1.56,0,0,1,22.41,23.94Z" style="stroke:#000;stroke-width:0.5px;fill-rule:evenodd"/><path id="shape497" d="M23,23.91a.9.9,0,0,1,.9-.9.91.91,0,0,1,.95.9.92.92,0,0,1-.95.95A.91.91,0,0,1,23,23.91Z" style="fill-rule:evenodd;fill:url(#未命名的渐变_459)"/><path id="shape498" d="M31.62,8.39l-1.25,2.35" style="fill:none;stroke:#000;stroke-width:0.5px"/><path id="shape499" d="M15.63,8.39l1.2,2.35" style="fill:none;stroke:#000;stroke-width:0.5px"/><path id="shape500" d="M38.25,21.71l2.7-.5" style="fill:none;stroke:#000;stroke-width:0.5px"/><path id="shape501" d="M34,34.54l1.95,2" style="fill:none;stroke:#000;stroke-width:0.5px"/><path id="shape502" d="M12.84,33.4l-2.35,2" style="fill:none;stroke:#000;stroke-width:0.5px"/><path id="shape503" d="M9,21.73l-2.8-.4" style="fill:none;stroke:#000;stroke-width:0.5px"/><g id="group504"><path id="shape505" d="M19.47,36.35h7.9V40.1h-7.9Z" style="stroke:#000;stroke-width:0.5px;fill-rule:evenodd"/><path id="shape506" d="M20.13,36.91h6.55v2.65H20.13Z" style="fill:none;stroke:#fff;stroke-width:0.5px"/></g><path id="shape507" d="M32.47,29.77c8.45-12.9-1.3-23.9-1.3-23.9a19.42,19.42,0,0,1-7.75,37.2,19,19,0,0,1-11.25-3.6C12.62,39.92,24,42.67,32.47,29.77Z" style="fill:#fff;fill-opacity:0.730000019073486;fill-rule:evenodd"/></g><g id="group508"><g id="group509"><path id="shape510" d="M1.63,3.41A1.45,1.45,0,0,1,3.08,2a1.49,1.49,0,0,1,1.5,1.45,1.54,1.54,0,0,1-1.5,1.5A1.49,1.49,0,0,1,1.63,3.41Z" style="fill-rule:evenodd;fill:url(#未命名的渐变_459-2)"/><path id="shape511" d="M2.34,2.68h0a.23.23,0,0,1,.29,0l1.2,1.2a.23.23,0,0,1,0,.29h0a.21.21,0,0,1-.28,0L2.34,3A.21.21,0,0,1,2.34,2.68Z" style="fill:#bf793e;fill-rule:evenodd"/><path id="shape512" d="M3.84,2.71h0a.23.23,0,0,1,0,.29L2.63,4.2a.21.21,0,0,1-.28,0h0a.21.21,0,0,1,0-.28L3.56,2.71A.21.21,0,0,1,3.84,2.71Z" style="fill:#bf793e;fill-rule:evenodd"/></g><g id="group513"><path id="shape514" d="M1.63,43.39a1.45,1.45,0,0,1,1.45-1.45,1.49,1.49,0,0,1,1.5,1.45,1.54,1.54,0,0,1-1.5,1.5A1.49,1.49,0,0,1,1.63,43.39Z" style="fill-rule:evenodd;fill:url(#未命名的渐变_459-3)"/><path id="shape515" d="M2.34,42.66h0a.23.23,0,0,1,.29,0l1.2,1.21a.21.21,0,0,1,0,.28h0a.19.19,0,0,1-.28,0L2.34,43A.23.23,0,0,1,2.34,42.66Z" style="fill:#bf793e;fill-rule:evenodd"/><path id="shape516" d="M3.84,42.7h0a.21.21,0,0,1,0,.28L2.63,44.19a.21.21,0,0,1-.28,0h0a.23.23,0,0,1,0-.29l1.21-1.2A.21.21,0,0,1,3.84,42.7Z" style="fill:#bf793e;fill-rule:evenodd"/></g></g><g id="group517"><g id="group518"><path id="shape519" d="M42.42,3.41A1.45,1.45,0,0,1,43.87,2a1.49,1.49,0,0,1,1.5,1.45,1.54,1.54,0,0,1-1.5,1.5A1.49,1.49,0,0,1,42.42,3.41Z" style="fill-rule:evenodd;fill:url(#未命名的渐变_459-4)"/><path id="shape520" d="M43.14,2.68h0a.21.21,0,0,1,.28,0l1.21,1.2a.23.23,0,0,1,0,.29h0a.23.23,0,0,1-.29,0L43.14,3A.21.21,0,0,1,43.14,2.68Z" style="fill:#bf793e;fill-rule:evenodd"/><path id="shape521" d="M44.64,2.71h0a.23.23,0,0,1,0,.29L43.43,4.2a.21.21,0,0,1-.28,0h0a.19.19,0,0,1,0-.28l1.2-1.21A.23.23,0,0,1,44.64,2.71Z" style="fill:#bf793e;fill-rule:evenodd"/></g><g id="group522"><path id="shape523" d="M42.42,43.39a1.45,1.45,0,0,1,1.45-1.45,1.49,1.49,0,0,1,1.5,1.45,1.54,1.54,0,0,1-1.5,1.5A1.49,1.49,0,0,1,42.42,43.39Z" style="fill-rule:evenodd;fill:url(#未命名的渐变_459-5)"/><path id="shape524" d="M43.14,42.66h0a.21.21,0,0,1,.28,0l1.21,1.21a.21.21,0,0,1,0,.28h0a.21.21,0,0,1-.29,0L43.14,43A.23.23,0,0,1,43.14,42.66Z" style="fill:#bf793e;fill-rule:evenodd"/><path id="shape525" d="M44.64,42.7h0a.21.21,0,0,1,0,.28l-1.21,1.21a.21.21,0,0,1-.28,0h0a.21.21,0,0,1,0-.29l1.2-1.2A.23.23,0,0,1,44.64,42.7Z" style="fill:#bf793e;fill-rule:evenodd"/></g></g></g></g></g></svg>