<svg xmlns="http://www.w3.org/2000/svg" xmlns:xlink="http://www.w3.org/1999/xlink" width="75.98" height="38.02" viewBox="0 0 75.98 38.02"><defs><linearGradient id="未命名的渐变_486" x1="2473.72" y1="1199.65" x2="2473.22" y2="1199.65" gradientTransform="matrix(111.3, 0, 0, -56.6, -275259.61, 67914.54)" gradientUnits="userSpaceOnUse"><stop offset="0" stop-color="#9d938d"/><stop offset="0.03" stop-color="#e5dbd5"/><stop offset="0.08" stop-color="#ccc0b8"/><stop offset="0.64" stop-color="#c9bdb5"/><stop offset="0.95" stop-color="#c4b9b1"/><stop offset="1" stop-color="#918983"/></linearGradient><linearGradient id="未命名的渐变_494" x1="2479.8" y1="1207.43" x2="2479.8" y2="1206.93" gradientTransform="matrix(140.4, 0, 0, -30.8, -348125.56, 37195.39)" gradientUnits="userSpaceOnUse"><stop offset="0" stop-color="#b2a89e"/><stop offset="0.15" stop-color="#e9ded2"/><stop offset="0.25" stop-color="#f3ede6"/><stop offset="0.52" stop-color="#cbc0b5"/><stop offset="0.69" stop-color="#b5aba1"/><stop offset="0.8" stop-color="#aaa198"/><stop offset="0.97" stop-color="#a1988f"/><stop offset="1" stop-color="#b9afa5"/></linearGradient><linearGradient id="未命名的渐变_494-2" x1="2079.01" y1="1200.85" x2="2079.01" y2="1200.35" gradientTransform="matrix(8.1, 0, 0, -51.2, -16766.03, 61484.97)" xlink:href="#未命名的渐变_494"/><linearGradient id="未命名的渐变_469" x1="2453.41" y1="1209.24" x2="2452.91" y2="1209.24" gradientTransform="matrix(66.9, 0, 0, -28.3, -164078.82, 34252.34)" gradientUnits="userSpaceOnUse"><stop offset="0" stop-color="#b3a593"/><stop offset="0.03" stop-color="#fdeeda"/><stop offset="0.08" stop-color="#e9d7bf"/><stop offset="0.64" stop-color="#e5d3bc"/><stop offset="0.95" stop-color="#e0ceb8"/><stop offset="1" stop-color="#a69988"/></linearGradient><linearGradient id="未命名的渐变_495" x1="2449.2" y1="1212.13" x2="2448.7" y2="1212.13" gradientTransform="matrix(61.8, 0, 0, -23.7, -151308.01, 28741.67)" gradientUnits="userSpaceOnUse"><stop offset="0" stop-color="#9b958e"/><stop offset="0.03" stop-color="#e4ddd6"/><stop offset="0.08" stop-color="#cbc2ba"/><stop offset="0.64" stop-color="#c7bfb7"/><stop offset="0.95" stop-color="#c3bbb3"/><stop offset="1" stop-color="#908a84"/></linearGradient><linearGradient id="未命名的渐变_494-3" x1="2087.89" y1="1200.85" x2="2087.89" y2="1200.35" gradientTransform="matrix(8.1, 0, 0, -51.2, -16909.89, 61484.97)" xlink:href="#未命名的渐变_494"/><linearGradient id="未命名的渐变_494-4" x1="-886.68" y1="1696.23" x2="-889.18" y2="1692.23" gradientTransform="matrix(1, 0, 0, -1, 913.85, 1705.61)" xlink:href="#未命名的渐变_494"/><linearGradient id="未命名的渐变_494-5" x1="-886.68" y1="1701.74" x2="-889.18" y2="1697.74" gradientTransform="matrix(1, 0, 0, -1, 913.85, 1716.63)" xlink:href="#未命名的渐变_494"/><linearGradient id="未命名的渐变_494-6" x1="-894.29" y1="1696.23" x2="-896.79" y2="1692.23" gradientTransform="matrix(1, 0, 0, -1, 929.06, 1705.61)" xlink:href="#未命名的渐变_494"/><linearGradient id="未命名的渐变_494-7" x1="-894.29" y1="1701.74" x2="-896.79" y2="1697.74" gradientTransform="matrix(1, 0, 0, -1, 929.06, 1716.63)" xlink:href="#未命名的渐变_494"/><linearGradient id="未命名的渐变_494-8" x1="-901.72" y1="1696.23" x2="-904.22" y2="1692.23" gradientTransform="matrix(1, 0, 0, -1, 943.92, 1705.61)" xlink:href="#未命名的渐变_494"/><linearGradient id="未命名的渐变_494-9" x1="-901.72" y1="1701.74" x2="-904.22" y2="1697.74" gradientTransform="matrix(1, 0, 0, -1, 943.92, 1716.63)" xlink:href="#未命名的渐变_494"/><linearGradient id="未命名的渐变_494-10" x1="-909.5" y1="1696.23" x2="-912" y2="1692.23" gradientTransform="matrix(1, 0, 0, -1, 959.48, 1705.61)" xlink:href="#未命名的渐变_494"/><linearGradient id="未命名的渐变_494-11" x1="-909.5" y1="1701.74" x2="-912" y2="1697.74" gradientTransform="matrix(1, 0, 0, -1, 959.48, 1716.63)" xlink:href="#未命名的渐变_494"/></defs><title>group336</title><g id="图层_2" data-name="图层 2"><g id="传感器"><g id="group336"><path id="shape337" d="M9.5,0H65.15V28.3H9.5Z" style="fill-rule:evenodd;fill:url(#未命名的渐变_486)"/><path id="shape338" d="M3.5,6.44H73.7v15.4H3.5Z" style="fill-rule:evenodd;fill:url(#未命名的渐变_494)"/><path id="shape339" d="M73.18,1.36h1.55A1.24,1.24,0,0,1,76,2.61V25.66A1.28,1.28,0,0,1,74.73,27H73.18a1.28,1.28,0,0,1-1.25-1.3v-23A1.24,1.24,0,0,1,73.18,1.36Z" style="fill-rule:evenodd;fill:url(#未命名的渐变_494-2)"/><path id="shape340" d="M20.58,23.87H54V38H20.58Z" style="fill-rule:evenodd;fill:url(#未命名的渐变_469)"/><path id="shape341" d="M21.87,8.21h30.9V20.06H21.87Z" style="fill-rule:evenodd;fill:url(#未命名的渐变_495)"/><path id="shape342" d="M1.25,1.36H2.8A1.24,1.24,0,0,1,4.05,2.61V25.66A1.28,1.28,0,0,1,2.8,27H1.25A1.28,1.28,0,0,1,0,25.66v-23A1.24,1.24,0,0,1,1.25,1.36Z" style="fill-rule:evenodd;fill:url(#未命名的渐变_494-3)"/><g id="group343"><path id="shape344" d="M26.78,9.89l.85,1.5-.85,1.5H25l-.85-1.5L25,9.89Z" style="stroke:#b4866c;stroke-width:0.5px;fill-rule:evenodd;fill:url(#未命名的渐变_494-4)"/><path id="shape345" d="M26.78,15.4l.85,1.5-.85,1.5H25l-.85-1.5L25,15.4Z" style="stroke:#b4866c;stroke-width:0.5px;fill-rule:evenodd;fill:url(#未命名的渐变_494-5)"/><path id="shape346" d="M34.39,9.89l.85,1.5-.85,1.5H32.64l-.85-1.5.85-1.5Z" style="stroke:#b4866c;stroke-width:0.5px;fill-rule:evenodd;fill:url(#未命名的渐变_494-6)"/><path id="shape347" d="M34.39,15.4l.85,1.5-.85,1.5H32.64l-.85-1.5.85-1.5Z" style="stroke:#b4866c;stroke-width:0.5px;fill-rule:evenodd;fill:url(#未命名的渐变_494-7)"/><path id="shape348" d="M41.82,9.89l.85,1.5-.85,1.5H40.07l-.85-1.5.85-1.5Z" style="stroke:#b4866c;stroke-width:0.5px;fill-rule:evenodd;fill:url(#未命名的渐变_494-8)"/><path id="shape349" d="M41.82,15.4l.85,1.5-.85,1.5H40.07l-.85-1.5.85-1.5Z" style="stroke:#b4866c;stroke-width:0.5px;fill-rule:evenodd;fill:url(#未命名的渐变_494-9)"/><path id="shape350" d="M49.6,9.89l.85,1.5-.85,1.5H47.85L47,11.39l.85-1.5Z" style="stroke:#b4866c;stroke-width:0.5px;fill-rule:evenodd;fill:url(#未命名的渐变_494-10)"/><path id="shape351" d="M49.6,15.4l.85,1.5-.85,1.5H47.85L47,16.9l.85-1.5Z" style="stroke:#b4866c;stroke-width:0.5px;fill-rule:evenodd;fill:url(#未命名的渐变_494-11)"/></g></g></g></g></svg>