<svg xmlns="http://www.w3.org/2000/svg" xmlns:xlink="http://www.w3.org/1999/xlink" width="75.99" height="74.99" viewBox="0 0 75.99 74.99"><defs><linearGradient id="未命名的渐变_484" x1="2171.38" y1="1311.86" x2="2170.88" y2="1311.86" gradientTransform="matrix(4.8, 0, 0, -4.7, -10373.78, 6195.86)" gradientUnits="userSpaceOnUse"><stop offset="0" stop-color="#bac0c1"/><stop offset="0.15" stop-color="#f4fafc"/><stop offset="0.25" stop-color="#f8fcfd"/><stop offset="0.52" stop-color="#d5dbdd"/><stop offset="0.69" stop-color="#bdc3c4"/><stop offset="0.8" stop-color="#b3b8b9"/><stop offset="0.97" stop-color="#a9aeaf"/><stop offset="1" stop-color="#c2c7c9"/></linearGradient><linearGradient id="未命名的渐变_484-2" x1="2175.41" y1="1311.86" x2="2174.91" y2="1311.86" gradientTransform="matrix(4.8, 0, 0, -4.7, -10412.49, 6195.86)" xlink:href="#未命名的渐变_484"/><linearGradient id="未命名的渐变_484-3" x1="2468.24" y1="1266.37" x2="2468.24" y2="1265.87" gradientTransform="matrix(7.9, 0, 0, -7.9, -19475.41, 10013.02)" xlink:href="#未命名的渐变_484"/><linearGradient id="未命名的渐变_484-4" x1="2468.24" y1="1267.21" x2="2468.24" y2="1266.71" gradientTransform="matrix(7.9, 0, 0, -7.9, -19475.41, 10026.18)" xlink:href="#未命名的渐变_484"/><linearGradient id="未命名的渐变_484-5" x1="2866.02" y1="1214.53" x2="2866.02" y2="1214.03" gradientTransform="matrix(65.8, 0, 0, -57.6, -188546.3, 70002.86)" xlink:href="#未命名的渐变_484"/><linearGradient id="未命名的渐变_484-6" x1="1492.37" y1="1216.24" x2="1492.37" y2="1215.74" gradientTransform="matrix(2.5, 0, 0, -48.6, -3710.03, 59157.61)" xlink:href="#未命名的渐变_484"/><linearGradient id="未命名的渐变_484-7" x1="2820.24" y1="1218.24" x2="2820.24" y2="1217.74" gradientTransform="matrix(35.5, 0, 0, -41.1, -100106.98, 50119.89)" xlink:href="#未命名的渐变_484"/><linearGradient id="未命名的渐变_516" x1="-4221.78" y1="1214.53" x2="-4221.78" y2="1214.03" gradientTransform="matrix(0.5, 0, 0, -57.6, 2132.51, 70002.86)" gradientUnits="userSpaceOnUse"><stop offset="0" stop-color="#a2a7a8"/><stop offset="0.15" stop-color="#d7dcde"/><stop offset="0.25" stop-color="#e9eced"/><stop offset="0.52" stop-color="#b9bfc0"/><stop offset="0.69" stop-color="#a5aaab"/><stop offset="0.8" stop-color="#9ba0a1"/><stop offset="0.97" stop-color="#939798"/><stop offset="1" stop-color="#a9aeaf"/></linearGradient><linearGradient id="未命名的渐变_516-2" x1="-4218.78" y1="1218.24" x2="-4218.78" y2="1217.74" gradientTransform="matrix(0.5, 0, 0, -41.1, 2129.51, 50119.89)" xlink:href="#未命名的渐变_516"/><linearGradient id="未命名的渐变_484-8" x1="2818.74" y1="1218.24" x2="2818.74" y2="1217.74" gradientTransform="matrix(35.5, 0, 0, -41.1, -100000.65, 50119.89)" xlink:href="#未命名的渐变_484"/><linearGradient id="未命名的渐变_484-9" x1="1478.7" y1="1216.24" x2="1478.7" y2="1215.74" gradientTransform="matrix(2.5, 0, 0, -48.6, -3641.69, 59157.61)" xlink:href="#未命名的渐变_484"/><linearGradient id="未命名的渐变_516-3" x1="-4290.23" y1="1218.24" x2="-4290.23" y2="1217.74" gradientTransform="matrix(0.5, 0, 0, -41.1, 2200.96, 50119.89)" xlink:href="#未命名的渐变_516"/><linearGradient id="未命名的渐变_516-4" x1="-4287.18" y1="1214.53" x2="-4287.18" y2="1214.03" gradientTransform="matrix(0.5, 0, 0, -57.6, 2197.91, 70002.86)" xlink:href="#未命名的渐变_516"/><linearGradient id="未命名的渐变_484-10" x1="2680.02" y1="1223.01" x2="2679.52" y2="1223.01" gradientTransform="matrix(14.9, 0, 0, -28.5, -39890.54, 34896.29)" xlink:href="#未命名的渐变_484"/><linearGradient id="未命名的渐变_484-11" x1="2847.43" y1="1308.42" x2="2846.93" y2="1308.42" gradientTransform="matrix(48.9, 0, 0, -4.9, -139189.08, 6445.82)" xlink:href="#未命名的渐变_484"/><linearGradient id="未命名的渐变_517" x1="2847.43" y1="1307.92" x2="2846.93" y2="1307.92" gradientTransform="matrix(48.9, 0, 0, -4.9, -139189.08, 6440.97)" gradientUnits="userSpaceOnUse"><stop offset="0" stop-color="#9d9d9d"/><stop offset="0.15" stop-color="#d0d1d1"/><stop offset="0.25" stop-color="#e5e6e6"/><stop offset="0.52" stop-color="#b3b4b4"/><stop offset="0.69" stop-color="#9fa0a0"/><stop offset="0.8" stop-color="#969797"/><stop offset="0.97" stop-color="#8e8e8e"/><stop offset="1" stop-color="#a3a4a4"/></linearGradient><linearGradient id="未命名的渐变_484-12" x1="2224.31" y1="1215.02" x2="2224.31" y2="1214.52" gradientTransform="matrix(5.1, 0, 0, -54.7, -11342.68, 66508.29)" xlink:href="#未命名的渐变_484"/><linearGradient id="未命名的渐变_484-13" x1="2209.91" y1="1215.02" x2="2209.91" y2="1214.52" gradientTransform="matrix(5.1, 0, 0, -54.7, -11195.8, 66508.29)" xlink:href="#未命名的渐变_484"/><linearGradient id="未命名的渐变_517-2" x1="2735.87" y1="1257.18" x2="2735.37" y2="1257.18" gradientTransform="matrix(19.4, 0, 0, -9.6, -53033.02, 12097.51)" xlink:href="#未命名的渐变_517"/><linearGradient id="未命名的渐变_484-14" x1="2854.11" y1="1214.08" x2="2853.61" y2="1214.08" gradientTransform="matrix(53.8, 0, 0, -53.7, -153499.72, 65209.95)" xlink:href="#未命名的渐变_484"/></defs><title>group177</title><g id="图层_2" data-name="图层 2"><g id="传感器"><g id="group177"><path id="shape178" d="M48.84,29.32v1.95h-2.4V29.32a.37.37,0,0,1,.4-.4h1.6A.39.39,0,0,1,48.84,29.32Z" style="fill-rule:evenodd;fill:url(#未命名的渐变_484)"/><path id="shape179" d="M29.49,29.32v1.95h-2.4V29.32a.37.37,0,0,1,.4-.4h1.6A.39.39,0,0,1,29.49,29.32Z" style="fill-rule:evenodd;fill:url(#未命名的渐变_484-2)"/><path id="shape180" d="M22.35,8.65h3.3V12.6h-3.3A.66.66,0,0,1,21.7,12V9.3A.66.66,0,0,1,22.35,8.65Z" style="fill-rule:evenodd;fill:url(#未命名的渐变_484-3)"/><path id="shape181" d="M22.35,15.23h3.3v3.95h-3.3a.66.66,0,0,1-.65-.65V15.88A.66.66,0,0,1,22.35,15.23Z" style="fill-rule:evenodd;fill:url(#未命名的渐变_484-4)"/><path id="shape182" d="M21.54,46.19h32.9V75H21.54Z" style="fill-rule:evenodd;fill:url(#未命名的渐变_484-5)"/><path id="shape183" d="M21.52,48.44H20.27v24.3h1.25Z" style="fill-rule:evenodd;fill:url(#未命名的渐变_484-6)"/><path id="shape184" d="M20.28,50.31H2.53V70.86H20.28Z" style="fill-rule:evenodd;fill:url(#未命名的渐变_484-7)"/><path id="shape185" d="M21.5,46.19h.25V75H21.5Z" style="fill-rule:evenodd;fill:url(#未命名的渐变_516)"/><path id="shape186" d="M20.25,50.31H20V70.86h.25Z" style="fill-rule:evenodd;fill:url(#未命名的渐变_516-2)"/><path id="shape187" d="M73.44,50.31H55.69V70.86H73.44Z" style="fill-rule:evenodd;fill:url(#未命名的渐变_484-8)"/><path id="shape188" d="M55.69,48.44H54.44v24.3h1.25Z" style="fill-rule:evenodd;fill:url(#未命名的渐变_484-9)"/><path id="shape189" d="M56,50.31h-.25V70.86H56Z" style="fill-rule:evenodd;fill:url(#未命名的渐变_516-3)"/><path id="shape190" d="M54.19,46.19h.25V75h-.25Z" style="fill-rule:evenodd;fill:url(#未命名的渐变_516-4)"/><path id="shape191" d="M41.73,33.35H34.28V46.3s.1,1.3,3.8,1.3,3.65-1.3,3.65-1.3Z" style="fill-rule:evenodd;fill:url(#未命名的渐变_484-10)"/><path id="shape192" d="M26.42,33.35H49.57a.67.67,0,0,1,.66.65v1.15a.67.67,0,0,1-.66.65H26.42a.66.66,0,0,1-.65-.65V34A.66.66,0,0,1,26.42,33.35Z" style="fill-rule:evenodd;fill:url(#未命名的渐变_484-11)"/><path id="shape193" d="M26.42,30.92H49.57a.67.67,0,0,1,.66.65v1.15a.67.67,0,0,1-.66.65H26.42a.66.66,0,0,1-.65-.65V31.57A.66.66,0,0,1,26.42,30.92Z" style="fill-rule:evenodd;fill:url(#未命名的渐变_517)"/><path id="shape194" d="M.65,46.92H1.9a.66.66,0,0,1,.65.65V73.62a.66.66,0,0,1-.65.65H.65A.66.66,0,0,1,0,73.62V47.57A.66.66,0,0,1,.65,46.92Z" style="fill-rule:evenodd;fill:url(#未命名的渐变_484-12)"/><path id="shape195" d="M74.09,46.92h1.25a.66.66,0,0,1,.65.65V73.62a.66.66,0,0,1-.65.65H74.09a.66.66,0,0,1-.65-.65V47.57A.66.66,0,0,1,74.09,46.92Z" style="fill-rule:evenodd;fill:url(#未命名的渐变_484-13)"/><path id="shape196" d="M33.15,31h9.7L41.7,26.2H34.3Z" style="fill-rule:evenodd;fill:url(#未命名的渐变_517-2)"/><path id="shape197" d="M24.05,14a14,14,0,1,1,14,13.9A14,14,0,0,1,24.05,14Z" style="fill:#90999c;fill-rule:evenodd"/><path id="shape198" d="M24.56,13.91A13.45,13.45,0,1,1,38,27.36,13.41,13.41,0,0,1,24.56,13.91Z" style="fill-rule:evenodd;fill:url(#未命名的渐变_484-14)"/><path id="shape199" d="M28.94,13.93A9.05,9.05,0,1,1,38,23,9,9,0,0,1,28.94,13.93Z" style="fill-rule:evenodd"/><path id="shape200" d="M29.53,14.52A8.48,8.48,0,1,1,38,23,8.47,8.47,0,0,1,29.53,14.52Z" style="fill:#0e0d0d;fill-rule:evenodd"/><path id="shape201" d="M33,9.85h9.5v9.5H33Z" style="fill:#27342c;fill-rule:evenodd"/><path id="shape202" d="M33.42,10.27h8.7v8.65h-8.7Z" style="fill:#4c5444;fill-rule:evenodd"/><path id="shape203" d="M31.72,7.48a9.1,9.1,0,0,1,12.86,0c3.55,3.55-.5.49-6.61,6.1-4.83,4.83-2.7,10.3-6.25,6.75A9.08,9.08,0,0,1,31.72,7.48Z" style="fill:#fff;fill-opacity:0.219999998807907;fill-rule:evenodd"/></g></g></g></svg>