<svg xmlns="http://www.w3.org/2000/svg" xmlns:xlink="http://www.w3.org/1999/xlink" width="21.01" height="76.01" viewBox="0 0 21.01 76.01"><defs><linearGradient id="未命名的渐变_470" x1="2010.83" y1="1090.28" x2="2010.33" y2="1090.28" gradientTransform="matrix(41.5, 0, 0, -45.5, -83428.69, 49619.8)" gradientUnits="userSpaceOnUse"><stop offset="0" stop-color="#b3a593"/><stop offset="0.03" stop-color="#fdeeda"/><stop offset="0.05" stop-color="#e9d7bf"/><stop offset="0.64" stop-color="#e5d3bc"/><stop offset="0.95" stop-color="#e0ceb8"/><stop offset="1" stop-color="#a69988"/></linearGradient><linearGradient id="未命名的渐变_461" x1="1258.18" y1="1090.28" x2="1257.68" y2="1090.28" gradientTransform="matrix(2.9, 0, 0, -49, -3637.44, 53487.39)" gradientUnits="userSpaceOnUse"><stop offset="0" stop-color="#9e9e9e"/><stop offset="0.15" stop-color="#f6f6f6"/><stop offset="0.26" stop-color="#fff"/><stop offset="0.41" stop-color="#fff"/><stop offset="0.6" stop-color="#d1d1d1"/><stop offset="0.8" stop-color="#a8a8a8"/><stop offset="0.93" stop-color="#898989"/></linearGradient><linearGradient id="未命名的渐变_472" x1="1866.81" y1="1305.47" x2="1866.31" y2="1305.47" gradientTransform="matrix(11.7, 0, 0, -3, -21828.19, 3940.29)" gradientUnits="userSpaceOnUse"><stop offset="0" stop-color="#9c9080"/><stop offset="0.15" stop-color="#f4e1c8"/><stop offset="0.26" stop-color="#fdebd5"/><stop offset="0.41" stop-color="#fde9d1"/><stop offset="0.6" stop-color="#d0bfaa"/><stop offset="0.8" stop-color="#a69988"/><stop offset="0.93" stop-color="#887d6f"/></linearGradient><linearGradient id="未命名的渐变_461-2" x1="1794.51" y1="1088.42" x2="1794.01" y2="1088.42" gradientTransform="matrix(8.6, 0, 0, -54, -15420.12, 58813.05)" xlink:href="#未命名的渐变_461"/><linearGradient id="未命名的渐变_472-2" x1="2011.24" y1="1342.18" x2="2010.74" y2="1342.18" gradientTransform="matrix(41.8, 0, 0, -2.5, -84049.05, 3356.07)" xlink:href="#未命名的渐变_472"/><linearGradient id="未命名的渐变_471" x1="1989.93" y1="1116.73" x2="1989.43" y2="1116.73" gradientTransform="matrix(30.3, 0, 0, -16.4, -60276.83, 18326.31)" gradientUnits="userSpaceOnUse"><stop offset="0"/><stop offset="0.03" stop-color="#7c7c7c"/><stop offset="0.05"/><stop offset="0.64"/><stop offset="0.95"/><stop offset="1"/></linearGradient><linearGradient id="未命名的渐变_470-2" x1="2010.99" y1="1208" x2="2010.99" y2="1207.5" gradientTransform="matrix(41.8, 0, 0, -5.2, -84048.82, 6302.26)" xlink:href="#未命名的渐变_470"/></defs><title>group480</title><g id="图层_2" data-name="图层 2"><g id="传感器"><g id="group480"><path id="shape481" d="M.49.5H20.58a.38.38,0,0,1,.36.35V23c0,.15-.21.3-.36.3H.49a.32.32,0,0,1-.3-.3V.85A.33.33,0,0,1,.49.5Z" style="fill-rule:evenodd;fill:url(#未命名的渐变_470)"/><path id="shape482" d="M9.83,51.51h1.45V76H9.83Z" style="fill-rule:evenodd;fill:url(#未命名的渐变_461)"/><path id="shape483" d="M7.63,23.14h5.85v1.5H7.63Z" style="fill-rule:evenodd;fill:url(#未命名的渐变_472)"/><path id="shape484" d="M8.39,24.65h4.3v27H8.39Z" style="fill-rule:evenodd;fill:url(#未命名的渐变_461-2)"/><path id="shape485" d="M.35,0h20.2a.33.33,0,0,1,.35.3V.9a.34.34,0,0,1-.35.35H.35A.34.34,0,0,1,0,.9V.3A.33.33,0,0,1,.35,0Z" style="fill-rule:evenodd;fill:url(#未命名的渐变_472-2)"/><path id="shape486" d="M3.33,7.77H17.78a.34.34,0,0,1,.35.35v7.55a.33.33,0,0,1-.35.3H3.33a.33.33,0,0,1-.35-.3V8.12A.34.34,0,0,1,3.33,7.77Z" style="fill-rule:evenodd;fill:url(#未命名的渐变_471)"/><path id="shape487" d="M3.74,8.52h13.6v6.7H3.74Z" style="fill:#3e3938;fill-rule:evenodd"/><path id="shape488" d="M.22,20.66H20.87s.14.05.14.1v2.4c0,.05-.1.1-.14.1H.22a.11.11,0,0,1-.1-.1v-2.4A.11.11,0,0,1,.22,20.66Z" style="fill-rule:evenodd;fill:url(#未命名的渐变_470-2)"/></g></g></g></svg>