<svg xmlns="http://www.w3.org/2000/svg" xmlns:xlink="http://www.w3.org/1999/xlink" width="75.99" height="62" viewBox="0 0 75.99 62"><defs><linearGradient id="未命名的渐变_481" x1="2163.09" y1="1234.27" x2="2163.09" y2="1233.77" gradientTransform="matrix(13.8, 0, 0, -21.2, -29778.12, 26192.2)" gradientUnits="userSpaceOnUse"><stop offset="0" stop-color="#424141"/><stop offset="0.15" stop-color="#6d6c6c"/><stop offset="0.25" stop-color="#bcbcbc"/><stop offset="0.52" stop-color="#4d4b4b"/><stop offset="0.69" stop-color="#434242"/><stop offset="0.8" stop-color="#3f3e3e"/><stop offset="0.97" stop-color="#3b3a3a"/><stop offset="1" stop-color="#454444"/></linearGradient><linearGradient id="未命名的渐变_509" x1="2278.24" y1="1206.16" x2="2277.74" y2="1206.16" gradientTransform="matrix(31, 0, 0, -124, -70607.2, 149594.73)" gradientUnits="userSpaceOnUse"><stop offset="0" stop-color="#af8751"/><stop offset="0.15" stop-color="#e7b77c"/><stop offset="0.25" stop-color="#f1d9c1"/><stop offset="0.56" stop-color="#c89a5e"/><stop offset="0.72" stop-color="#b28953"/><stop offset="0.8" stop-color="#a8814d"/><stop offset="1" stop-color="#81633e"/></linearGradient><linearGradient id="未命名的渐变_508" x1="2301.91" y1="1208.09" x2="2301.41" y2="1208.09" gradientTransform="matrix(42.3, 0, 0, -92.8, -97349.51, 112141.84)" gradientUnits="userSpaceOnUse"><stop offset="0" stop-color="#9f8153"/><stop offset="0.03" stop-color="#e7c8a0"/><stop offset="0.08" stop-color="#cfa86e"/><stop offset="0.64" stop-color="#cca66c"/><stop offset="0.95" stop-color="#c7a26a"/><stop offset="1" stop-color="#93774d"/></linearGradient><linearGradient id="未命名的渐变_481-2" x1="2245.89" y1="1221.14" x2="2245.89" y2="1220.64" gradientTransform="matrix(23.1, 0, 0, -34.8, -51827.88, 42517.8)" xlink:href="#未命名的渐变_481"/><linearGradient id="未命名的渐变_481-3" x1="2244.87" y1="1228.17" x2="2244.87" y2="1227.67" gradientTransform="matrix(23, 0, 0, -25.9, -51568.13, 31834.14)" xlink:href="#未命名的渐变_481"/><linearGradient id="未命名的渐变_507" x1="2334.55" y1="1212.91" x2="2334.05" y2="1212.91" gradientTransform="matrix(85.5, 0, 0, -57, -199558.33, 69167)" gradientUnits="userSpaceOnUse"><stop offset="0" stop-color="#9f8153"/><stop offset="0.01" stop-color="#e7c8a0"/><stop offset="0.02" stop-color="#cfa86e"/><stop offset="0.64" stop-color="#cca66c"/><stop offset="0.99" stop-color="#c7a26a"/><stop offset="1" stop-color="#93774d"/></linearGradient><linearGradient id="未命名的渐变_481-4" x1="2245.89" y1="1494.31" x2="2245.89" y2="1493.81" gradientTransform="matrix(23.1, 0, 0, -2.4, -51827.88, 3609.07)" xlink:href="#未命名的渐变_481"/><linearGradient id="未命名的渐变_481-5" x1="2245.89" y1="1497.46" x2="2245.89" y2="1496.96" gradientTransform="matrix(23.1, 0, 0, -2.4, -51827.88, 3624.18)" xlink:href="#未命名的渐变_481"/><linearGradient id="未命名的渐变_481-6" x1="2245.89" y1="1500.69" x2="2245.89" y2="1500.19" gradientTransform="matrix(23.1, 0, 0, -2.4, -51827.88, 3639.72)" xlink:href="#未命名的渐变_481"/><linearGradient id="未命名的渐变_481-7" x1="2048.47" y1="1495.59" x2="2048.47" y2="1495.09" gradientTransform="matrix(8.8, 0, 0, -2.4, -17962.73, 3615.23)" xlink:href="#未命名的渐变_481"/><linearGradient id="未命名的渐变_481-8" x1="2048.47" y1="1497.5" x2="2048.47" y2="1497" gradientTransform="matrix(8.8, 0, 0, -2.4, -17962.73, 3624.39)" xlink:href="#未命名的渐变_481"/><linearGradient id="未命名的渐变_481-9" x1="2048.47" y1="1499.41" x2="2048.47" y2="1498.91" gradientTransform="matrix(8.8, 0, 0, -2.4, -17962.73, 3633.55)" xlink:href="#未命名的渐变_481"/></defs><title>group257</title><g id="图层_2" data-name="图层 2"><g id="传感器"><g id="group257"><path id="shape258" d="M69.09,25.7h6.3a.58.58,0,0,1,.6.6v9.4a.61.61,0,0,1-.6.61h-6.3Z" style="fill-rule:evenodd;fill:url(#未命名的渐变_481)"/><path id="shape259" d="M2.82,0h15.5V62H2.82Z" style="fill-rule:evenodd;fill:url(#未命名的渐变_509)"/><path id="shape260" d="M0,7.81H21.15v46.4H0Z" style="fill-rule:evenodd;fill:url(#未命名的渐变_508)"/><path id="shape261" d="M2,15.82H46.46V46.18H2Z" style="fill:#9f8153;fill-rule:evenodd"/><path id="shape262" d="M46.47,22.3H58V39.69H46.47Z" style="fill-rule:evenodd;fill:url(#未命名的渐变_481-2)"/><path id="shape263" d="M58,24.53h11.5V37.48H58Z" style="fill-rule:evenodd;fill:url(#未命名的渐变_481-3)"/><path id="shape264" d="M2.88,16.75H45.63v28.5H2.88Z" style="fill-rule:evenodd;fill:url(#未命名的渐变_507)"/><g id="group265"><path id="shape266" d="M46.47,22.73H58v1.2H46.47Z" style="fill-rule:evenodd;fill:url(#未命名的渐变_481-4)"/><path id="shape267" d="M46.47,30.28H58v1.2H46.47Z" style="fill-rule:evenodd;fill:url(#未命名的渐变_481-5)"/><path id="shape268" d="M46.47,38.05H58v1.2H46.47Z" style="fill-rule:evenodd;fill:url(#未命名的渐变_481-6)"/></g><g id="group269"><path id="shape270" d="M61.59,25.81H66V27h-4.4Z" style="fill-rule:evenodd;fill:url(#未命名的渐变_481-7)"/><path id="shape271" d="M61.59,30.39H66v1.2h-4.4Z" style="fill-rule:evenodd;fill:url(#未命名的渐变_481-8)"/><path id="shape272" d="M61.59,35H66v1.2h-4.4Z" style="fill-rule:evenodd;fill:url(#未命名的渐变_481-9)"/></g><path id="shape273" d="M18,21.39H41.55V41H18Z" style="fill:#3e3938;fill-rule:evenodd"/><path id="shape274" d="M18.74,22.18h22.1v18H18.74Z" style="fill:#eee;fill-opacity:0.899999976158142;fill-rule:evenodd"/><g id="group275"><path id="shape276" d="M27.19,23.45l-3,1s2.85,5.85,0,13.7l2.45.75" style="fill:none;stroke:#000;stroke-width:0.5px"/><path id="shape277" d="M25.09,34.39l1.5.35" style="fill:none;stroke:#000;stroke-width:0.5px"/><path id="shape278" d="M25.46,30.85h2.85" style="fill:none;stroke:#000;stroke-width:0.5px"/><path id="shape279" d="M25.22,27.56,27,27.21" style="fill:none;stroke:#000;stroke-width:0.5px"/></g><g id="group280"><path id="shape281" d="M32.19,23.85h2.6v9.6h-2.6Z" style="fill:#fff;stroke:#fff;stroke-width:0.5px;fill-rule:evenodd"/><path id="shape282" d="M32.68,24.47h1.6v8.4h-1.6Z" style="fill:#595757;fill-rule:evenodd"/></g><g id="group283"><path id="shape284" d="M36,23.85h2.6v9.6H36Z" style="fill:#fff;stroke:#fff;stroke-width:0.5px;fill-rule:evenodd"/><path id="shape285" d="M36.48,24.47h1.6v8.4h-1.6Z" style="fill:#595757;fill-rule:evenodd"/></g></g></g></g></svg>