<svg xmlns="http://www.w3.org/2000/svg" xmlns:xlink="http://www.w3.org/1999/xlink" width="94" height="44.01" viewBox="0 0 94 44.01"><defs><linearGradient id="未命名的渐变_541" x1="318.28" y1="16.69" x2="323.28" y2="19.69" gradientTransform="matrix(0.71, 0.71, 0.71, -0.71, -210.43, -207.44)" gradientUnits="userSpaceOnUse"><stop offset="0" stop-color="#5e5a5e"/><stop offset="0.22" stop-color="#726e72"/><stop offset="0.68" stop-color="#585458"/><stop offset="1" stop-color="#453f45"/></linearGradient><linearGradient id="未命名的渐变_541-2" x1="3038.56" y1="2736.97" x2="3043.56" y2="2739.97" gradientTransform="translate(4166.98 -207.44) rotate(135)" xlink:href="#未命名的渐变_541"/><linearGradient id="未命名的渐变_540" x1="1821.25" y1="1214.32" x2="1821.25" y2="1213.82" gradientTransform="matrix(188, 0, 0, -42, -342347.54, 51024.64)" gradientUnits="userSpaceOnUse"><stop offset="0" stop-color="#5e5a5e"/><stop offset="0.22" stop-color="#726e72"/><stop offset="0.39" stop-color="#726e72"/><stop offset="0.68" stop-color="#585458"/><stop offset="1" stop-color="#453f45"/></linearGradient><linearGradient id="未命名的渐变_540-2" x1="933.46" y1="1214.73" x2="932.96" y2="1214.73" gradientTransform="matrix(2.1, 0, 0, -37.8, -1957.81, 45949)" xlink:href="#未命名的渐变_540"/><linearGradient id="未命名的渐变_540-3" x1="932.09" y1="1214.73" x2="931.59" y2="1214.73" gradientTransform="matrix(2.1, 0, 0, -37.8, -1952.03, 45949)" xlink:href="#未命名的渐变_540"/><linearGradient id="未命名的渐变_540-4" x1="930.71" y1="1214.73" x2="930.21" y2="1214.73" gradientTransform="matrix(2.1, 0, 0, -37.8, -1946.25, 45949)" xlink:href="#未命名的渐变_540"/><linearGradient id="未命名的渐变_540-5" x1="929.33" y1="1214.73" x2="928.83" y2="1214.73" gradientTransform="matrix(2.1, 0, 0, -37.8, -1940.47, 45949)" xlink:href="#未命名的渐变_540"/><linearGradient id="未命名的渐变_540-6" x1="927.96" y1="1214.73" x2="927.46" y2="1214.73" gradientTransform="matrix(2.1, 0, 0, -37.8, -1934.69, 45949)" xlink:href="#未命名的渐变_540"/><linearGradient id="未命名的渐变_540-7" x1="926.58" y1="1214.73" x2="926.08" y2="1214.73" gradientTransform="matrix(2.1, 0, 0, -37.8, -1928.91, 45949)" xlink:href="#未命名的渐变_540"/><linearGradient id="未命名的渐变_540-8" x1="897.37" y1="1214.73" x2="896.87" y2="1214.73" gradientTransform="matrix(2.1, 0, 0, -37.8, -1806.24, 45949)" xlink:href="#未命名的渐变_540"/><linearGradient id="未命名的渐变_540-9" x1="896" y1="1214.73" x2="895.5" y2="1214.73" gradientTransform="matrix(2.1, 0, 0, -37.8, -1800.46, 45949)" xlink:href="#未命名的渐变_540"/><linearGradient id="未命名的渐变_540-10" x1="894.62" y1="1214.73" x2="894.12" y2="1214.73" gradientTransform="matrix(2.1, 0, 0, -37.8, -1794.68, 45949)" xlink:href="#未命名的渐变_540"/><linearGradient id="未命名的渐变_540-11" x1="893.24" y1="1214.73" x2="892.74" y2="1214.73" gradientTransform="matrix(2.1, 0, 0, -37.8, -1788.9, 45949)" xlink:href="#未命名的渐变_540"/><linearGradient id="未命名的渐变_540-12" x1="891.87" y1="1214.73" x2="891.37" y2="1214.73" gradientTransform="matrix(2.1, 0, 0, -37.8, -1783.12, 45949)" xlink:href="#未命名的渐变_540"/><linearGradient id="未命名的渐变_540-13" x1="890.49" y1="1214.73" x2="889.99" y2="1214.73" gradientTransform="matrix(2.1, 0, 0, -37.8, -1777.34, 45949)" xlink:href="#未命名的渐变_540"/><linearGradient id="未命名的渐变_540-14" x1="-37.25" y1="1437.7" x2="-76.75" y2="1390.7" gradientTransform="matrix(1, 0, 0, -1, 104, 1436.2)" xlink:href="#未命名的渐变_540"/><linearGradient id="未命名的渐变_541-3" x1="-86.88" y1="1412.94" x2="-47.38" y2="1435.94" gradientTransform="matrix(1, 0, 0, -1, 114.12, 1446.44)" xlink:href="#未命名的渐变_541"/><linearGradient id="未命名的渐变_541-4" x1="953.81" y1="1211.55" x2="953.31" y2="1211.55" gradientTransform="matrix(2.2, 0, 0, -67.5, -2050.86, 81801.81)" xlink:href="#未命名的渐变_541"/><linearGradient id="未命名的渐变_541-5" x1="1316.86" y1="1230.75" x2="1316.36" y2="1230.75" gradientTransform="matrix(1.63, -1.63, -47.64, -47.64, 56531.03, 60806.07)" xlink:href="#未命名的渐变_541"/><linearGradient id="未命名的渐变_541-6" x1="2499.67" y1="1190.2" x2="2499.17" y2="1190.2" gradientTransform="translate(-52573.98 60806.07) rotate(-135) scale(2.31 67.37)" xlink:href="#未命名的渐变_541"/><linearGradient id="未命名的渐变_541-7" x1="1940.39" y1="1236.81" x2="1939.89" y2="1236.81" gradientTransform="matrix(0, -2.3, -66.7, 0, 82542.15, 4484.3)" xlink:href="#未命名的渐变_541"/><linearGradient id="未命名的渐变_540-15" x1="-86.73" y1="1453.88" x2="-95.23" y2="1443.38" gradientTransform="matrix(1, 0, 0, -1, 138, 1470.59)" xlink:href="#未命名的渐变_540"/></defs><title>group1</title><g id="图层_2" data-name="图层 2"><g id="传感器"><g id="group1"><path id="shape2" d="M29.23,5.67a3.24,3.24,0,0,1,4.54,0l-4.54,4.55A3.25,3.25,0,0,1,29.23,5.67Z" style="fill-rule:evenodd;fill:url(#未命名的渐变_541)"/><path id="shape3" d="M64.52,5.67a3.24,3.24,0,0,0-4.54,0l4.54,4.55A3.25,3.25,0,0,0,64.52,5.67Z" style="fill-rule:evenodd;fill:url(#未命名的渐变_541-2)"/><path id="shape4" d="M.15,23h93.7c.15,0,.15,0,.15.15v18c0,.1,0,.2-.15.2l-22.35-.2A20.85,20.85,0,0,1,66.35,44H27.65a19,19,0,0,1-5.15-2.85l-22.35.2c-.15,0-.15-.1-.15-.2v-18C0,23.06,0,23,.15,23Z" style="fill-rule:evenodd;fill:url(#未命名的渐变_540)"/><g id="group5"><path id="shape6" d="M1.4,22.74H2.45v18.9H1.4V22.74Z" style="fill-rule:evenodd;fill:url(#未命名的渐变_540-2)"/><path id="shape7" d="M4.3,22.74h1v18.9h-1V22.74Z" style="fill-rule:evenodd;fill:url(#未命名的渐变_540-3)"/><path id="shape8" d="M7.19,22.74h1v18.9h-1V22.74Z" style="fill-rule:evenodd;fill:url(#未命名的渐变_540-4)"/><path id="shape9" d="M10.08,22.74h1.05v18.9H10.08V22.74Z" style="fill-rule:evenodd;fill:url(#未命名的渐变_540-5)"/><path id="shape10" d="M13,22.74h1v18.9H13V22.74Z" style="fill-rule:evenodd;fill:url(#未命名的渐变_540-6)"/><path id="shape11" d="M15.85,22.74h1v18.9h-1V22.74Z" style="fill-rule:evenodd;fill:url(#未命名的渐变_540-7)"/></g><g id="group12"><path id="shape13" d="M77.19,22.74h1v18.9h-1V22.74Z" style="fill-rule:evenodd;fill:url(#未命名的渐变_540-8)"/><path id="shape14" d="M80.08,22.74h1v18.9h-1V22.74Z" style="fill-rule:evenodd;fill:url(#未命名的渐变_540-9)"/><path id="shape15" d="M83,22.74h1v18.9H83V22.74Z" style="fill-rule:evenodd;fill:url(#未命名的渐变_540-10)"/><path id="shape16" d="M85.86,22.74h1v18.9h-1V22.74Z" style="fill-rule:evenodd;fill:url(#未命名的渐变_540-11)"/><path id="shape17" d="M88.75,22.74h1v18.9h-1V22.74Z" style="fill-rule:evenodd;fill:url(#未命名的渐变_540-12)"/><path id="shape18" d="M91.64,22.74h1v18.9h-1V22.74Z" style="fill-rule:evenodd;fill:url(#未命名的渐变_540-13)"/></g><g id="group19"><path id="shape20" d="M25.25,22a21.75,21.75,0,1,1,43.5,0,21.75,21.75,0,1,1-43.5,0Z" style="fill-rule:evenodd;fill:url(#未命名的渐变_540-14)"/><path id="shape21" d="M29.68,22A17.33,17.33,0,1,1,47,39.53,17.41,17.41,0,0,1,29.68,22Z" style="fill:#3a353a;fill-rule:evenodd"/><path id="shape22" d="M30.31,22a16.68,16.68,0,1,1,33.35,0,16.68,16.68,0,1,1-33.35,0Z" style="fill-rule:evenodd;fill:url(#未命名的渐变_541-3)"/><path id="shape23" d="M46.43,5.12h1.1V38.87h-1.1Z" style="fill-rule:evenodd;fill:url(#未命名的渐变_541-4)"/><path id="shape24" d="M34.75,10.55l.82-.82L59.39,33.55l-.82.82Z" style="fill-rule:evenodd;fill:url(#未命名的渐变_541-5)"/><path id="shape25" d="M59.25,10.55l-.82-.82L34.61,33.55l.82.82Z" style="fill-rule:evenodd;fill:url(#未命名的渐变_541-6)"/><path id="shape26" d="M30.3,22.55V21.4H63.65v1.15Z" style="fill-rule:evenodd;fill:url(#未命名的渐变_541-7)"/><path id="shape27" d="M41.93,22a5.05,5.05,0,1,1,5,5.15A5.08,5.08,0,0,1,41.93,22Z" style="fill:#3a353a;fill-rule:evenodd"/><path id="shape28" d="M42.25,22A4.75,4.75,0,1,1,47,26.8,4.79,4.79,0,0,1,42.25,22Z" style="fill-rule:evenodd;fill:url(#未命名的渐变_540-15)"/></g></g></g></g></svg>