<svg xmlns="http://www.w3.org/2000/svg" xmlns:xlink="http://www.w3.org/1999/xlink" width="75.99" height="42.01" viewBox="0 0 75.99 42.01"><defs><linearGradient id="未命名的渐变_480" x1="2200.82" y1="1199.88" x2="2200.82" y2="1199.38" gradientTransform="matrix(127.8, 0, 0, -57.4, -281226.54, 68882.17)" gradientUnits="userSpaceOnUse"><stop offset="0" stop-color="#b5bdc0"/><stop offset="0.15" stop-color="#edf7fa"/><stop offset="0.25" stop-color="#f5fbfc"/><stop offset="0.44" stop-color="#cfd8db"/><stop offset="0.6" stop-color="#b8c0c3"/><stop offset="0.8" stop-color="#9ba2a4"/><stop offset="0.97" stop-color="#8d9496"/><stop offset="1" stop-color="#bcc5c7"/></linearGradient><linearGradient id="未命名的渐变_478" x1="1484.94" y1="1284.14" x2="1484.94" y2="1283.64" gradientTransform="matrix(3.2, 0, 0, -8.3, -4682.94, 10665.98)" gradientUnits="userSpaceOnUse"><stop offset="0" stop-color="#a5a9ab"/><stop offset="0.15" stop-color="#dadfe1"/><stop offset="0.25" stop-color="#eaedee"/><stop offset="0.44" stop-color="#bcc1c3"/><stop offset="0.6" stop-color="#a7acae"/><stop offset="0.8" stop-color="#8d9192"/><stop offset="0.97" stop-color="#808485"/><stop offset="1" stop-color="#abb0b2"/></linearGradient><linearGradient id="未命名的渐变_478-2" x1="1484.94" y1="1285.78" x2="1484.94" y2="1285.28" gradientTransform="matrix(3.2, 0, 0, -8.3, -4682.94, 10693.17)" xlink:href="#未命名的渐变_478"/><linearGradient id="未命名的渐变_478-3" x1="1484.94" y1="1287.41" x2="1484.94" y2="1286.91" gradientTransform="matrix(3.2, 0, 0, -8.3, -4682.94, 10720.36)" xlink:href="#未命名的渐变_478"/><linearGradient id="未命名的渐变_478-4" x1="2166.03" y1="1199" x2="2166.03" y2="1198.5" gradientTransform="matrix(43.8, 0, 0, -61.2, -94834.29, 73387.5)" xlink:href="#未命名的渐变_478"/><linearGradient id="未命名的渐变_479" x1="2160.86" y1="1199" x2="2160.86" y2="1198.5" gradientTransform="matrix(39.9, 0, 0, -61.2, -86180.36, 73387.5)" gradientUnits="userSpaceOnUse"><stop offset="0" stop-color="#b3b6b7"/><stop offset="0.15" stop-color="#eaeef0"/><stop offset="0.25" stop-color="#f3f5f6"/><stop offset="0.44" stop-color="#cccfd1"/><stop offset="0.6" stop-color="#b5b9ba"/><stop offset="0.8" stop-color="#999c9d"/><stop offset="0.97" stop-color="#8c8e8f"/><stop offset="1" stop-color="#babdbe"/></linearGradient><linearGradient id="未命名的渐变_478-5" x1="1504.31" y1="1284.14" x2="1504.31" y2="1283.64" gradientTransform="matrix(3.2, 0, 0, -8.3, -4806.88, 10665.98)" xlink:href="#未命名的渐变_478"/><linearGradient id="未命名的渐变_478-6" x1="1504.31" y1="1285.78" x2="1504.31" y2="1285.28" gradientTransform="matrix(3.2, 0, 0, -8.3, -4806.88, 10693.17)" xlink:href="#未命名的渐变_478"/><linearGradient id="未命名的渐变_478-7" x1="1504.31" y1="1287.41" x2="1504.31" y2="1286.91" gradientTransform="matrix(3.2, 0, 0, -8.3, -4806.88, 10720.36)" xlink:href="#未命名的渐变_478"/><linearGradient id="未命名的渐变_475" x1="2037.76" y1="1196.48" x2="2037.76" y2="1195.98" gradientTransform="matrix(12.6, 0, 0, -75, -25672.58, 89740.17)" gradientUnits="userSpaceOnUse"><stop offset="0" stop-color="#bac0c1"/><stop offset="0.15" stop-color="#f4fafc"/><stop offset="0.25" stop-color="#f8fcfd"/><stop offset="0.44" stop-color="#d5dbdd"/><stop offset="0.6" stop-color="#bdc3c4"/><stop offset="0.8" stop-color="#a0a4a6"/><stop offset="0.97" stop-color="#929697"/><stop offset="1" stop-color="#c2c7c9"/></linearGradient><linearGradient id="未命名的渐变_475-2" x1="2032.23" y1="1196.48" x2="2032.23" y2="1195.98" gradientTransform="matrix(12.6, 0, 0, -75, -25533.19, 89740.17)" xlink:href="#未命名的渐变_475"/><linearGradient id="未命名的渐变_478-8" x1="2102.14" y1="1268.88" x2="2101.64" y2="1268.88" gradientTransform="matrix(19.8, 0, 0, -9.7, -41579.37, 12310.57)" xlink:href="#未命名的渐变_478"/><linearGradient id="未命名的渐变_475-3" x1="2183.04" y1="1271.14" x2="2182.54" y2="1271.14" gradientTransform="matrix(64.1, 0, 0, -9.5, -139879.07, 12082.94)" xlink:href="#未命名的渐变_475"/></defs><title>group456</title><g id="图层_2" data-name="图层 2"><g id="传感器"><g id="group456"><path id="shape457" d="M6.05,8.91H70v28.7H6.05Z" style="fill-rule:evenodd;fill:url(#未命名的渐变_480)"/><g id="group458"><path id="shape459" d="M68.08,7.64h1.6v4.15h-1.6Z" style="fill-rule:evenodd;fill:url(#未命名的渐变_478)"/><path id="shape460" d="M68.08,21.23h1.6v4.15h-1.6Z" style="fill-rule:evenodd;fill:url(#未命名的渐变_478-2)"/><path id="shape461" d="M68.08,34.83h1.6V39h-1.6Z" style="fill-rule:evenodd;fill:url(#未命名的渐变_478-3)"/></g><path id="shape462" d="M49,8.91V38.76a.78.78,0,0,1-.8.75H27.85a.78.78,0,0,1-.8-.75V8.91Z" style="fill-rule:evenodd;fill:url(#未命名的渐变_478-4)"/><path id="shape463" d="M48,8.91V38.76a.77.77,0,0,1-.75.75H28.78a.77.77,0,0,1-.75-.75V8.91Z" style="fill-rule:evenodd;fill:url(#未命名的渐变_479)"/><g id="group464"><path id="shape465" d="M6.11,7.64h1.6v4.15H6.11Z" style="fill-rule:evenodd;fill:url(#未命名的渐变_478-5)"/><path id="shape466" d="M6.11,21.23h1.6v4.15H6.11Z" style="fill-rule:evenodd;fill:url(#未命名的渐变_478-6)"/><path id="shape467" d="M6.11,34.83h1.6V39H6.11Z" style="fill-rule:evenodd;fill:url(#未命名的渐变_478-7)"/></g><path id="shape468" d="M.75,4.51h4.8a.77.77,0,0,1,.75.75v36a.77.77,0,0,1-.75.75H.75A.77.77,0,0,1,0,41.26v-36A.77.77,0,0,1,.75,4.51Z" style="fill-rule:evenodd;fill:url(#未命名的渐变_475)"/><path id="shape469" d="M70.44,4.51h4.8a.77.77,0,0,1,.75.75v36a.77.77,0,0,1-.75.75h-4.8a.77.77,0,0,1-.75-.75v-36A.77.77,0,0,1,70.44,4.51Z" style="fill-rule:evenodd;fill:url(#未命名的渐变_475-2)"/><path id="shape470" d="M33,4.85h9.9V0H33Z" style="fill-rule:evenodd;fill:url(#未命名的渐变_478-8)"/><g id="group471"><path id="shape472" d="M47.27,5h3.85V3.2H47.27Z" style="fill:#b6bbbd;fill-rule:evenodd"/><path id="shape473" d="M47.27,5h1V3.2h-1Z" style="fill:#a0a5a7;fill-rule:evenodd"/><path id="shape474" d="M50.48,5h.85V3.2h-.85Z" style="fill:#d1d7d9;fill-rule:evenodd"/></g><g id="group475"><path id="shape476" d="M24.59,5h3.85V3.2H24.59Z" style="fill:#b6bbbd;fill-rule:evenodd"/><path id="shape477" d="M24.59,5h1V3.2h-1Z" style="fill:#a0a5a7;fill-rule:evenodd"/><path id="shape478" d="M27.8,5h.85V3.2H27.8Z" style="fill:#d1d7d9;fill-rule:evenodd"/></g><path id="shape479" d="M22.73,4.74H53.28a.77.77,0,0,1,.75.75V8.74a.77.77,0,0,1-.75.75H22.73A.77.77,0,0,1,22,8.74V5.49A.77.77,0,0,1,22.73,4.74Z" style="fill-rule:evenodd;fill:url(#未命名的渐变_475-3)"/></g></g></g></svg>