<svg xmlns="http://www.w3.org/2000/svg" xmlns:xlink="http://www.w3.org/1999/xlink" width="65.99" height="76.01" viewBox="0 0 65.99 76.01"><defs><linearGradient id="未命名的渐变_475" x1="2607.78" y1="1220.58" x2="2607.78" y2="1220.08" gradientTransform="matrix(19.3, 0, 0, -39.2, -50321, 47892.69)" gradientUnits="userSpaceOnUse"><stop offset="0" stop-color="#bac0c1"/><stop offset="0.15" stop-color="#f4fafc"/><stop offset="0.25" stop-color="#f8fcfd"/><stop offset="0.44" stop-color="#d5dbdd"/><stop offset="0.6" stop-color="#bdc3c4"/><stop offset="0.8" stop-color="#a0a4a6"/><stop offset="0.97" stop-color="#929697"/><stop offset="1" stop-color="#c2c7c9"/></linearGradient><linearGradient id="未命名的渐变_506" x1="2680.17" y1="1225.7" x2="2680.17" y2="1225.2" gradientTransform="matrix(33.5, 0, 0, -30.7, -89750.86, 37677.05)" gradientUnits="userSpaceOnUse"><stop offset="0" stop-color="#b9bcbd"/><stop offset="0.15" stop-color="#f2f6f7"/><stop offset="0.25" stop-color="#f7fafa"/><stop offset="0.44" stop-color="#d3d6d7"/><stop offset="0.6" stop-color="#bcbfc0"/><stop offset="0.8" stop-color="#9ea1a2"/><stop offset="0.97" stop-color="#919394"/><stop offset="1" stop-color="#c0c3c4"/></linearGradient><linearGradient id="未命名的渐变_475-2" x1="2605.32" y1="1220.58" x2="2605.32" y2="1220.08" gradientTransform="matrix(19.3, 0, 0, -39.2, -50225.89, 47892.69)" xlink:href="#未命名的渐变_475"/><linearGradient id="未命名的渐变_505" x1="-547.37" y1="1918.18" x2="-550.87" y2="1896.68" gradientTransform="matrix(1, 0, 0, -1, 569.05, 1963.16)" gradientUnits="userSpaceOnUse"><stop offset="0" stop-color="#bac0c1"/><stop offset="0.26" stop-color="#f4fafc"/><stop offset="0.33" stop-color="#f8fcfd"/><stop offset="0.44" stop-color="#d5dbdd"/><stop offset="0.6" stop-color="#bdc3c4"/><stop offset="0.8" stop-color="#a0a4a6"/><stop offset="0.97" stop-color="#929697"/><stop offset="1" stop-color="#c2c7c9"/></linearGradient><linearGradient id="未命名的渐变_504" x1="-581.94" y1="1917.7" x2="-577.94" y2="1897.2" gradientTransform="matrix(1, 0, 0, -1, 627.77, 1963.16)" gradientUnits="userSpaceOnUse"><stop offset="0" stop-color="#bac0c1"/><stop offset="0.25" stop-color="#f4fafc"/><stop offset="0.31" stop-color="#f8fcfd"/><stop offset="0.44" stop-color="#d5dbdd"/><stop offset="0.6" stop-color="#bdc3c4"/><stop offset="0.8" stop-color="#a0a4a6"/><stop offset="0.97" stop-color="#929697"/><stop offset="1" stop-color="#c2c7c9"/></linearGradient><linearGradient id="未命名的渐变_503" x1="2518.4" y1="1226.62" x2="2517.9" y2="1226.62" gradientTransform="matrix(12.8, 0, 0, -28.3, -32197.61, 34745.86)" gradientUnits="userSpaceOnUse"><stop offset="0" stop-color="#adb1b3"/><stop offset="0.15" stop-color="#e4e9ea"/><stop offset="0.25" stop-color="#f0f2f3"/><stop offset="0.44" stop-color="#c6cacc"/><stop offset="0.6" stop-color="#b0b4b5"/><stop offset="0.8" stop-color="#949799"/><stop offset="0.97" stop-color="#878a8c"/><stop offset="1" stop-color="#b4b8ba"/></linearGradient><linearGradient id="未命名的渐变_475-3" x1="2596.2" y1="1298" x2="2595.7" y2="1298" gradientTransform="matrix(18.2, 0, 0, -7.4, -47211.52, 9647.98)" xlink:href="#未命名的渐变_475"/><linearGradient id="未命名的渐变_475-4" x1="2550.73" y1="1257.19" x2="2550.23" y2="1257.19" gradientTransform="matrix(14.6, 0, 0, -12.5, -37202.23, 15737.83)" xlink:href="#未命名的渐变_475"/><linearGradient id="未命名的渐变_475-5" x1="-562.67" y1="1910.6" x2="-571.67" y2="1909.1" gradientTransform="matrix(1, 0, 0, -1, 601.89, 1950.18)" xlink:href="#未命名的渐变_475"/><linearGradient id="未命名的渐变_475-6" x1="2596.2" y1="1252.33" x2="2595.7" y2="1252.33" gradientTransform="matrix(18.2, 0, 0, -14.2, -47211.52, 17831.29)" xlink:href="#未命名的渐变_475"/><linearGradient id="未命名的渐变_475-7" x1="2181.95" y1="1348.52" x2="2181.45" y2="1348.52" gradientTransform="matrix(5.6, 0, 0, -5, -12186.36, 6807.15)" xlink:href="#未命名的渐变_475"/><linearGradient id="未命名的渐变_475-8" x1="1962.92" y1="1424.72" x2="1962.42" y2="1424.72" gradientTransform="matrix(4.1, 0, 0, -3.3, -8015.75, 4768.24)" xlink:href="#未命名的渐变_475"/><linearGradient id="未命名的渐变_502" x1="2720.56" y1="1218.41" x2="2720.06" y2="1218.41" gradientTransform="matrix(55.9, 0, 0, -41, -152030.69, 49964.92)" gradientUnits="userSpaceOnUse"><stop offset="0" stop-color="#182830"/><stop offset="0.03" stop-color="#808689"/><stop offset="0.08" stop-color="#233742"/><stop offset="0.64" stop-color="#223640"/><stop offset="0.95" stop-color="#21353f"/><stop offset="1" stop-color="#16252c"/></linearGradient><linearGradient id="未命名的渐变_501" x1="701.53" y1="1220.58" x2="701.53" y2="1220.08" gradientTransform="matrix(1.6, 0, 0, -39.2, -1117.66, 47892.69)" gradientUnits="userSpaceOnUse"><stop offset="0" stop-color="#939798"/><stop offset="0.15" stop-color="#c5cacb"/><stop offset="0.25" stop-color="#dfe2e2"/><stop offset="0.44" stop-color="#a8adae"/><stop offset="0.6" stop-color="#959a9b"/><stop offset="0.8" stop-color="#7d8182"/><stop offset="0.97" stop-color="#727676"/><stop offset="1" stop-color="#999d9e"/></linearGradient><linearGradient id="未命名的渐变_501-2" x1="666.16" y1="1220.58" x2="666.16" y2="1220.08" gradientTransform="matrix(1.6, 0, 0, -39.2, -1004.47, 47892.69)" xlink:href="#未命名的渐变_501"/><linearGradient id="未命名的渐变_475-9" x1="2395.68" y1="1211.06" x2="2395.68" y2="1210.56" gradientTransform="matrix(8.8, 0, 0, -80.8, -21018.17, 97889.42)" xlink:href="#未命名的渐变_475"/><linearGradient id="未命名的渐变_475-10" x1="2402.68" y1="1211.06" x2="2402.68" y2="1210.56" gradientTransform="matrix(8.8, 0, 0, -80.8, -21141.35, 97889.42)" xlink:href="#未命名的渐变_475"/><linearGradient id="未命名的渐变_500" x1="-574.83" y1="1886.45" x2="-573.83" y2="1884.45" gradientTransform="matrix(1, 0, 0, -1, 609.08, 1901.78)" gradientUnits="userSpaceOnUse"><stop offset="0" stop-color="#fedea0"/><stop offset="1" stop-color="#e9c168"/></linearGradient><linearGradient id="未命名的渐变_499" x1="-572.21" y1="1886.45" x2="-571.21" y2="1884.45" gradientTransform="matrix(1, 0, 0, -1, 603.83, 1901.78)" gradientUnits="userSpaceOnUse"><stop offset="0" stop-color="#9f5153"/><stop offset="1" stop-color="#7b030d"/></linearGradient><linearGradient id="未命名的渐变_498" x1="-577.62" y1="1886.45" x2="-576.62" y2="1884.45" gradientTransform="matrix(1, 0, 0, -1, 614.66, 1901.78)" gradientUnits="userSpaceOnUse"><stop offset="0" stop-color="#91cfd1"/><stop offset="1" stop-color="#49aeb1"/></linearGradient></defs><title>group286</title><g id="图层_2" data-name="图层 2"><g id="传感器"><g id="group286"><path id="shape287" d="M4.38,46H14V65.6H4.38Z" style="fill-rule:evenodd;fill:url(#未命名的渐变_475)"/><path id="shape288" d="M26.38,48.13H43.13V63.49H26.38Z" style="fill-rule:evenodd;fill:url(#未命名的渐变_506)"/><path id="shape289" d="M51.93,46h9.65V65.6H51.93Z" style="fill-rule:evenodd;fill:url(#未命名的渐变_475-2)"/><path id="shape290" d="M13.78,46l12.6,2.15V63.5l-12.6,2.1Z" style="fill-rule:evenodd;fill:url(#未命名的渐变_505)"/><path id="shape291" d="M43.14,48.15l9-2.15V65.6l-9-2.1Z" style="fill-rule:evenodd;fill:url(#未命名的渐变_504)"/><path id="shape292" d="M31.57,25.35H38V39.5h-6.4Z" style="fill-rule:evenodd;fill:url(#未命名的渐变_503)"/><path id="shape293" d="M30.2,40.91h9.11v3.7H30.2Z" style="fill-rule:evenodd;fill:url(#未命名的渐变_475-3)"/><path id="shape294" d="M32,19.85h5.55a.89.89,0,0,1,.9.85v4.5a.9.9,0,0,1-.9.9H32a.89.89,0,0,1-.85-.9V20.7A.88.88,0,0,1,32,19.85Z" style="fill-rule:evenodd;fill:url(#未命名的渐变_475-4)"/><path id="shape295" d="M31.55,39.5H38l1.36,1.4H30.2Z" style="fill-rule:evenodd;fill:url(#未命名的渐变_475-5)"/><path id="shape296" d="M30.2,44.59h9.11v5.2s-.21,1.9-4.61,1.9-4.5-1.9-4.5-1.9Z" style="fill-rule:evenodd;fill:url(#未命名的渐变_475-6)"/><path id="shape297" d="M29.74,63.3h2.8v2.5h-2.8Z" style="fill-rule:evenodd;fill:url(#未命名的渐变_475-7)"/><path id="shape298" d="M30.15,65.84H32.2v1.65H30.15Z" style="fill-rule:evenodd;fill:url(#未命名的渐变_475-8)"/><path id="shape299" d="M21.08,0H48.43a.33.33,0,0,1,.31.3V20.2a.3.3,0,0,1-.31.3H21.08a.29.29,0,0,1-.3-.3V.3A.32.32,0,0,1,21.08,0Z" style="fill-rule:evenodd;fill:url(#未命名的渐变_502)"/><g id="group300"><path id="shape301" d="M22.1,1.13H47.4a.3.3,0,0,1,.3.31V19.09a.28.28,0,0,1-.3.29H22.1a.31.31,0,0,1-.3-.29V1.44A.33.33,0,0,1,22.1,1.13Z" style="fill:#6c6d71;fill-rule:evenodd"/><path id="shape302" d="M22.61,2.07h24.3V18.43H22.61Z" style="fill-rule:evenodd"/><path id="shape303" d="M22.92,2.39h23.7V18.14H22.92Z" style="fill:#fff;fill-opacity:0.150000005960464;fill-rule:evenodd"/><path id="shape304" d="M28.45,6.66H41.1v7.2H28.45Z" style="fill:#495253;fill-rule:evenodd"/><path id="shape305" d="M28.68,6.87H40.83v6.75H28.68Z" style="fill:#fff;fill-opacity:0.28999999165535;fill-rule:evenodd"/><path id="shape306" d="M26.33,3.48H43.18v.9H26.33Z" style="fill:#fff;fill-opacity:0.109999999403954;fill-rule:evenodd"/></g><path id="shape307" d="M4.38,46h.81V65.6H4.38Z" style="fill-rule:evenodd;fill:url(#未命名的渐变_501)"/><path id="shape308" d="M61,46h.8V65.6H61Z" style="fill-rule:evenodd;fill:url(#未命名的渐变_501-2)"/><path id="shape309" d="M62.49,35.61h2.6a.9.9,0,0,1,.9.9v38.6a.9.9,0,0,1-.9.9h-2.6a.9.9,0,0,1-.9-.9V36.51A.9.9,0,0,1,62.49,35.61Z" style="fill-rule:evenodd;fill:url(#未命名的渐变_475-9)"/><path id="shape310" d="M.9,35.61H3.5a.9.9,0,0,1,.9.9v38.6a.9.9,0,0,1-.9.9H.9a.9.9,0,0,1-.9-.9V36.51A.9.9,0,0,1,.9,35.61Z" style="fill-rule:evenodd;fill:url(#未命名的渐变_475-10)"/><g id="group311"><g id="group312"><path id="shape313" d="M33.6,16.2a1.08,1.08,0,1,1,2.15,0,1.06,1.06,0,0,1-1,1.05A1.07,1.07,0,0,1,33.6,16.2Z" style="fill:#fed372;fill-rule:evenodd"/><path id="shape314" d="M33.8,16.2a.9.9,0,0,1,.9-.9.89.89,0,0,1,.85.9.88.88,0,0,1-.85.85A.89.89,0,0,1,33.8,16.2Z" style="stroke:#fff;stroke-width:0.5px;fill-rule:evenodd;fill:url(#未命名的渐变_500)"/></g><g id="group315"><path id="shape316" d="M31,16.2a1.08,1.08,0,1,1,2.15,0,1.06,1.06,0,0,1-1.05,1.05A1.07,1.07,0,0,1,31,16.2Z" style="fill:#7d040f;fill-rule:evenodd"/><path id="shape317" d="M31.18,16.2a.9.9,0,0,1,.9-.9.89.89,0,0,1,.85.9.88.88,0,0,1-.85.85A.89.89,0,0,1,31.18,16.2Z" style="stroke:#fff;stroke-width:0.5px;fill-rule:evenodd;fill:url(#未命名的渐变_499)"/></g><g id="group318"><path id="shape319" d="M36.39,16.2a1.08,1.08,0,1,1,2.15,0,1.06,1.06,0,0,1-1,1.05A1.07,1.07,0,0,1,36.39,16.2Z" style="fill:#276f71;fill-rule:evenodd"/><path id="shape320" d="M36.59,16.2a.9.9,0,0,1,.9-.9.89.89,0,0,1,.85.9.88.88,0,0,1-.85.85A.89.89,0,0,1,36.59,16.2Z" style="stroke:#fff;stroke-width:0.5px;fill-rule:evenodd;fill:url(#未命名的渐变_498)"/></g></g></g></g></g></svg>