<svg xmlns="http://www.w3.org/2000/svg" xmlns:xlink="http://www.w3.org/1999/xlink" width="40" height="94.02" viewBox="0 0 40 94.02"><defs><linearGradient id="未命名的渐变_484" x1="1834.16" y1="1290.3" x2="1834.16" y2="1289.8" gradientTransform="matrix(9.8, 0, 0, -9.1, -17972.28, 11743.15)" gradientUnits="userSpaceOnUse"><stop offset="0" stop-color="#bac0c1"/><stop offset="0.15" stop-color="#f4fafc"/><stop offset="0.25" stop-color="#f8fcfd"/><stop offset="0.52" stop-color="#d5dbdd"/><stop offset="0.69" stop-color="#bdc3c4"/><stop offset="0.8" stop-color="#b3b8b9"/><stop offset="0.97" stop-color="#a9aeaf"/><stop offset="1" stop-color="#c2c7c9"/></linearGradient><linearGradient id="未命名的渐变_484-2" x1="2316.28" y1="1290.3" x2="2316.28" y2="1289.8" gradientTransform="translate(22737.13 11743.13) rotate(180) scale(9.8 9.1)" xlink:href="#未命名的渐变_484"/><linearGradient id="未命名的渐变_484-3" x1="2016.91" y1="1280.34" x2="2016.91" y2="1279.84" gradientTransform="matrix(41.8, 0, 0, -10.6, -84286.9, 13572.56)" xlink:href="#未命名的渐变_484"/><linearGradient id="未命名的渐变_484-4" x1="1826.09" y1="1263.2" x2="1826.09" y2="1262.7" gradientTransform="matrix(9.5, 0, 0, -14.8, -17340.59, 18695.34)" xlink:href="#未命名的渐变_484"/><linearGradient id="未命名的渐变_484-5" x1="1823.42" y1="1263.2" x2="1823.42" y2="1262.7" gradientTransform="matrix(9.5, 0, 0, -14.8, -17289.74, 18695.34)" xlink:href="#未命名的渐变_484"/><linearGradient id="未命名的渐变_484-6" x1="1919.27" y1="1296.78" x2="1918.77" y2="1296.78" gradientTransform="matrix(15.3, 0, 0, -8.6, -29341.03, 11178.68)" xlink:href="#未命名的渐变_484"/><linearGradient id="未命名的渐变_514" x1="2027.17" y1="1232.62" x2="2026.67" y2="1232.62" gradientTransform="matrix(50.8, 0, 0, -50.2, -102947.73, 61890.26)" gradientUnits="userSpaceOnUse"><stop offset="0" stop-color="#d3ccca"/><stop offset="0.53" stop-color="#b6aeaa"/><stop offset="1" stop-color="#afa7a3"/></linearGradient><linearGradient id="未命名的渐变_484-7" x1="1698.69" y1="1225.25" x2="1698.19" y2="1225.25" gradientTransform="matrix(6.3, 0, 0, -125.6, -10680.19, 153953.88)" xlink:href="#未命名的渐变_484"/><linearGradient id="未命名的渐变_484-8" x1="2021.98" y1="1334.71" x2="2021.48" y2="1334.71" gradientTransform="matrix(45.7, 0, 0, -5.9, -92373.28, 7916.77)" xlink:href="#未命名的渐变_484"/><linearGradient id="未命名的渐变_484-9" x1="1967.26" y1="1332.67" x2="1966.76" y2="1332.67" gradientTransform="matrix(22.2, 0, 0, -5.9, -43647.68, 7892.71)" xlink:href="#未命名的渐变_484"/><linearGradient id="未命名的渐变_513" x1="2024.15" y1="1233.47" x2="2023.65" y2="1233.47" gradientTransform="matrix(47.7, 0, 0, -47.1, -96520.11, 58109.22)" gradientUnits="userSpaceOnUse"><stop offset="0" stop-color="#e2d7d3"/><stop offset="0.53" stop-color="#c9bcb6"/><stop offset="1" stop-color="#c1b4af"/></linearGradient><linearGradient id="未命名的渐变_512" x1="2008.95" y1="1237.67" x2="2008.45" y2="1237.67" gradientTransform="matrix(36.5, 0, 0, -36.1, -73297.74, 44692.73)" gradientUnits="userSpaceOnUse"><stop offset="0" stop-color="#b7b8b8"/><stop offset="0.08" stop-color="#919292"/><stop offset="0.64" stop-color="#8f9090"/><stop offset="1" stop-color="#8b8c8c"/></linearGradient><linearGradient id="未命名的渐变_511" x1="2005" y1="1238.78" x2="2004.5" y2="1238.78" gradientTransform="matrix(34.4, 0, 0, -34, -68943.51, 42131.42)" gradientUnits="userSpaceOnUse"><stop offset="0" stop-color="#fff"/><stop offset="0.08" stop-color="#ebebeb"/><stop offset="0.64" stop-color="#e7e7e7"/><stop offset="1" stop-color="#e2e2e2"/></linearGradient><linearGradient id="未命名的渐变_500" x1="-286.75" y1="1873.24" x2="-285.75" y2="1871.24" gradientTransform="matrix(1, 0, 0, -1, 304.96, 1889.67)" gradientUnits="userSpaceOnUse"><stop offset="0" stop-color="#fedea0"/><stop offset="1" stop-color="#e9c168"/></linearGradient><linearGradient id="未命名的渐变_499" x1="-283.97" y1="1873.24" x2="-282.97" y2="1871.24" gradientTransform="matrix(1, 0, 0, -1, 299.4, 1889.67)" gradientUnits="userSpaceOnUse"><stop offset="0" stop-color="#9f5153"/><stop offset="1" stop-color="#7b030d"/></linearGradient><linearGradient id="未命名的渐变_498" x1="-292.3" y1="1873.24" x2="-291.3" y2="1871.24" gradientTransform="matrix(1, 0, 0, -1, 316.06, 1889.67)" gradientUnits="userSpaceOnUse"><stop offset="0" stop-color="#91cfd1"/><stop offset="1" stop-color="#49aeb1"/></linearGradient><linearGradient id="未命名的渐变_510" x1="-289.53" y1="1873.24" x2="-288.53" y2="1871.24" gradientTransform="matrix(1, 0, 0, -1, 310.51, 1889.67)" gradientUnits="userSpaceOnUse"><stop offset="0" stop-color="#5ccef8"/><stop offset="1" stop-color="#27a9d0"/></linearGradient></defs><title>group228</title><g id="图层_2" data-name="图层 2"><g id="传感器"><g id="group228"><path id="shape229" d="M1.15,1.42H4.9V6H1.15A1.13,1.13,0,0,1,0,4.83V2.57A1.13,1.13,0,0,1,1.15,1.42Z" style="fill-rule:evenodd;fill:url(#未命名的渐变_484)"/><path id="shape230" d="M38.86,1.41H35.1V6h3.76A1.13,1.13,0,0,0,40,4.82V2.56A1.13,1.13,0,0,0,38.86,1.41Z" style="fill-rule:evenodd;fill:url(#未命名的渐变_484-2)"/><path id="shape231" d="M9.54,1h20.9V6.3H9.54Z" style="fill-rule:evenodd;fill:url(#未命名的渐变_484-3)"/><path id="shape232" d="M6.06,0H8.5A1.13,1.13,0,0,1,9.66,1.15v5.1A1.13,1.13,0,0,1,8.5,7.4H6.06A1.13,1.13,0,0,1,4.91,6.25V1.15A1.13,1.13,0,0,1,6.06,0Z" style="fill-rule:evenodd;fill:url(#未命名的渐变_484-4)"/><path id="shape233" d="M31.48,0h2.45a1.13,1.13,0,0,1,1.15,1.15v5.1A1.13,1.13,0,0,1,33.93,7.4H31.48a1.13,1.13,0,0,1-1.15-1.15V1.15A1.13,1.13,0,0,1,31.48,0Z" style="fill-rule:evenodd;fill:url(#未命名的渐变_484-5)"/><path id="shape234" d="M16.18,24.23h7.65v4.3H16.18Z" style="fill-rule:evenodd;fill:url(#未命名的渐变_484-6)"/><path id="shape235" d="M7.31,12.8a12.7,12.7,0,0,1,25.4,0,12.7,12.7,0,0,1-25.4,0Z" style="fill-rule:evenodd;fill:url(#未命名的渐变_514)"/><path id="shape236" d="M18.42,31.22h3.15V94H18.42Z" style="fill-rule:evenodd;fill:url(#未命名的渐变_484-7)"/><path id="shape237" d="M9.72,40.52H30.27a1.13,1.13,0,0,1,1.15,1.15v.65a1.13,1.13,0,0,1-1.15,1.15H9.72a1.13,1.13,0,0,1-1.15-1.15v-.65A1.13,1.13,0,0,1,9.72,40.52Z" style="fill-rule:evenodd;fill:url(#未命名的渐变_484-8)"/><path id="shape238" d="M15.61,28.49h8.75a1.17,1.17,0,0,1,1.2,1.15v.65a1.17,1.17,0,0,1-1.2,1.15H15.61a1.13,1.13,0,0,1-1.15-1.15v-.65A1.13,1.13,0,0,1,15.61,28.49Z" style="fill-rule:evenodd;fill:url(#未命名的渐变_484-9)"/><path id="shape239" d="M8.08,12.82a11.93,11.93,0,0,1,23.86,0,11.93,11.93,0,0,1-23.86,0Z" style="fill-rule:evenodd;fill:url(#未命名的渐变_513)"/><path id="shape240" d="M10.87,12.82a9.13,9.13,0,1,1,9.15,9A9.09,9.09,0,0,1,10.87,12.82Z" style="fill-rule:evenodd;fill:url(#未命名的渐变_512)"/><path id="shape241" d="M11.41,12.8A8.6,8.6,0,1,1,20,21.3,8.55,8.55,0,0,1,11.41,12.8Z" style="fill-rule:evenodd;fill:url(#未命名的渐变_511)"/><path id="shape242" d="M12.08,9.91H27.94v4.6H12.08Z" style="fill:#717070;fill-rule:evenodd"/><path id="shape243" d="M13,10.8H27v2.85H13Z" style="fill:#cfebf6;fill-rule:evenodd"/><g id="group244"><g id="group245"><path id="shape246" d="M17.52,17.36a1.13,1.13,0,0,1,1.15-1.15,1.13,1.13,0,1,1,0,2.25A1.12,1.12,0,0,1,17.52,17.36Z" style="fill:#fed372;fill-rule:evenodd"/><path id="shape247" d="M17.73,17.32a.91.91,0,0,1,.95-.9.89.89,0,0,1,.9.9.9.9,0,0,1-.9.95A.92.92,0,0,1,17.73,17.32Z" style="stroke:#fff;stroke-width:0.5px;fill-rule:evenodd;fill:url(#未命名的渐变_500)"/></g><g id="group248"><path id="shape249" d="M14.75,17.36a1.13,1.13,0,0,1,1.14-1.15,1.13,1.13,0,1,1,0,2.25A1.12,1.12,0,0,1,14.75,17.36Z" style="fill:#7d040f;fill-rule:evenodd"/><path id="shape250" d="M15,17.32a.91.91,0,0,1,1-.9.9.9,0,0,1,.91.9.93.93,0,1,1-1.86,0Z" style="stroke:#fff;stroke-width:0.5px;fill-rule:evenodd;fill:url(#未命名的渐变_499)"/></g><g id="group251"><path id="shape252" d="M23.07,17.36a1.13,1.13,0,0,1,1.15-1.15,1.13,1.13,0,1,1,0,2.25A1.12,1.12,0,0,1,23.07,17.36Z" style="fill:#276f71;fill-rule:evenodd"/><path id="shape253" d="M23.28,17.32a.91.91,0,0,1,.95-.9.9.9,0,0,1,.9.9.91.91,0,0,1-.9.95A.92.92,0,0,1,23.28,17.32Z" style="stroke:#fff;stroke-width:0.5px;fill-rule:evenodd;fill:url(#未命名的渐变_498)"/></g><g id="group254"><path id="shape255" d="M20.3,17.36a1.13,1.13,0,0,1,1.15-1.15,1.13,1.13,0,1,1,0,2.25A1.12,1.12,0,0,1,20.3,17.36Z" style="fill:#30c9f7;fill-rule:evenodd"/><path id="shape256" d="M20.51,17.32a.91.91,0,0,1,.95-.9.9.9,0,0,1,.9.9.91.91,0,0,1-.9.95A.92.92,0,0,1,20.51,17.32Z" style="stroke:#fff;stroke-width:0.5px;fill-rule:evenodd;fill:url(#未命名的渐变_510)"/></g></g></g></g></g></svg>