<svg xmlns="http://www.w3.org/2000/svg" xmlns:xlink="http://www.w3.org/1999/xlink" width="92.48" height="80" viewBox="0 0 92.48 80"><defs><linearGradient id="未命名的渐变_608" x1="45.77" y1="48.4" x2="45.77" y2="22.43" gradientUnits="userSpaceOnUse"><stop offset="0" stop-color="#494645"/><stop offset="0.01" stop-color="#4e4b4a"/><stop offset="0.14" stop-color="#858383"/><stop offset="0.26" stop-color="#b0b0af"/><stop offset="0.37" stop-color="#cfd0cf"/><stop offset="0.46" stop-color="#e2e3e3"/><stop offset="0.53" stop-color="#e9eaea"/><stop offset="0.6" stop-color="#e4e5e5"/><stop offset="0.7" stop-color="#d5d6d6"/><stop offset="0.8" stop-color="#bdbdbd"/><stop offset="0.91" stop-color="#9c9b9b"/><stop offset="1" stop-color="#7a7878"/></linearGradient><linearGradient id="未命名的渐变_608-2" x1="2.79" y1="51.24" x2="2.79" y2="21.25" xlink:href="#未命名的渐变_608"/><linearGradient id="未命名的渐变_608-3" x1="1800.44" y1="51.24" x2="1800.44" y2="21.25" gradientTransform="matrix(-1, 0, 0, 1, 1890.13, 0)" xlink:href="#未命名的渐变_608"/><radialGradient id="未命名的渐变_647" cx="46.8" cy="4.18" r="72.17" gradientUnits="userSpaceOnUse"><stop offset="0.71" stop-color="#231815"/><stop offset="0.73" stop-color="#281d1a"/><stop offset="0.76" stop-color="#352b28"/><stop offset="0.79" stop-color="#4b4240"/><stop offset="0.82" stop-color="#6a6361"/><stop offset="0.86" stop-color="#918d8c"/><stop offset="0.89" stop-color="#c1bfbf"/><stop offset="0.92" stop-color="#e9eaea"/><stop offset="0.93" stop-color="#dadada"/><stop offset="0.94" stop-color="#b4b2b1"/><stop offset="0.97" stop-color="#76706f"/><stop offset="1" stop-color="#231815"/></radialGradient><radialGradient id="未命名的渐变_643" cx="46.54" cy="40" r="40" gradientUnits="userSpaceOnUse"><stop offset="0.66" stop-color="#5e5b5a"/><stop offset="0.73" stop-color="#848281"/><stop offset="0.89" stop-color="#e3e3e3"/><stop offset="0.9" stop-color="#e9eaea"/><stop offset="0.92" stop-color="#dadada"/><stop offset="0.96" stop-color="#b1b1b2"/><stop offset="1" stop-color="#807f80"/></radialGradient></defs><title>资源 2604</title><g id="图层_2" data-name="图层 2"><g id="传感器"><rect x="2.79" y="22.43" width="85.96" height="25.97" style="fill:url(#未命名的渐变_608)"/><path d="M3.78,36.25c0-8.28.8-15,1.8-15H1.8c-1,0-1.8,6.72-1.8,15s.81,15,1.8,15H5.58C4.58,51.24,3.78,44.52,3.78,36.25Z" style="fill:url(#未命名的渐变_608-2)"/><path d="M88.71,36.25c0-8.28-.81-15-1.8-15h3.77c1,0,1.8,6.72,1.8,15s-.8,15-1.8,15H86.91C87.9,51.24,88.71,44.52,88.71,36.25Z" style="fill:url(#未命名的渐变_608-3)"/><circle cx="46.54" cy="40" r="32.82" style="fill:#f4f5f7"/><path d="M46.54,72.06A32.06,32.06,0,1,1,78.6,40,32.09,32.09,0,0,1,46.54,72.06Zm0-62.84A30.78,30.78,0,1,0,77.32,40,30.82,30.82,0,0,0,46.54,9.22Z" style="fill:url(#未命名的渐变_647)"/><path d="M16.19,5.73h2.48A1.24,1.24,0,0,1,19.91,7v5.69a0,0,0,0,1,0,0H15a0,0,0,0,1,0,0V7A1.24,1.24,0,0,1,16.19,5.73Z" transform="translate(-1.4 15.02) rotate(-45)" style="fill:#949599"/><circle cx="16.69" cy="8.45" r="1.51" style="fill:#fff"/><path d="M14.5,65.64H17a1.24,1.24,0,0,1,1.24,1.24v5.69a0,0,0,0,1,0,0h-5a0,0,0,0,1,0,0V66.88A1.24,1.24,0,0,1,14.5,65.64Z" transform="translate(-22 129.11) rotate(-135)" style="fill:#949599"/><circle cx="14.99" cy="69.86" r="1.51" style="fill:#fff"/><path d="M74.41,67.34h2.48a1.24,1.24,0,0,1,1.24,1.24v5.69a0,0,0,0,1,0,0h-5a0,0,0,0,1,0,0V68.58a1.24,1.24,0,0,1,1.24-1.24Z" transform="translate(179.22 67.37) rotate(135)" style="fill:#949599"/><circle cx="76.4" cy="71.55" r="1.51" style="fill:#fff"/><path d="M76.11,7.42h2.48a1.24,1.24,0,0,1,1.24,1.24v5.69a0,0,0,0,1,0,0h-5a0,0,0,0,1,0,0V8.66A1.24,1.24,0,0,1,76.11,7.42Z" transform="translate(30.36 -51.5) rotate(45)" style="fill:#949599"/><circle cx="78.09" cy="10.14" r="1.51" style="fill:#fff"/><path d="M46.54,80a40,40,0,1,1,40-40A40,40,0,0,1,46.54,80Zm0-71.87A31.87,31.87,0,1,0,78.41,40,31.9,31.9,0,0,0,46.54,8.13Z" style="fill:url(#未命名的渐变_643)"/><rect x="30.67" y="25.7" width="31.75" height="12.04" style="fill:#666"/><rect x="30.67" y="25.72" width="31.73" height="12.02" style="fill:#696969"/><rect x="30.67" y="25.75" width="31.7" height="11.99" style="fill:#6c6c6d"/><rect x="30.67" y="25.77" width="31.67" height="11.97" style="fill:#6f7070"/><rect x="30.67" y="25.79" width="31.64" height="11.95" style="fill:#727374"/><rect x="30.67" y="25.81" width="31.62" height="11.93" style="fill:#757677"/><rect x="30.67" y="25.84" width="31.59" height="11.9" style="fill:#78797a"/><rect x="30.67" y="25.86" width="31.56" height="11.88" style="fill:#7b7d7e"/><rect x="30.67" y="25.88" width="31.54" height="11.86" style="fill:#7e8081"/><rect x="30.67" y="25.91" width="31.51" height="11.84" style="fill:#818384"/><rect x="30.67" y="25.93" width="31.48" height="11.81" style="fill:#848688"/><rect x="30.67" y="25.95" width="31.45" height="11.79" style="fill:#888a8b"/><rect x="30.67" y="25.97" width="31.43" height="11.77" style="fill:#8b8d8f"/><rect x="30.67" y="26" width="31.4" height="11.74" style="fill:#8e9092"/><rect x="30.67" y="26.02" width="31.37" height="11.72" style="fill:#919395"/><rect x="30.67" y="26.04" width="31.34" height="11.7" style="fill:#949799"/><rect x="30.67" y="26.06" width="31.32" height="11.68" style="fill:#979a9c"/><rect x="30.67" y="26.09" width="31.29" height="11.65" style="fill:#9a9d9f"/><rect x="30.67" y="26.11" width="31.26" height="11.63" style="fill:#9da0a3"/><rect x="30.67" y="26.13" width="31.23" height="11.61" style="fill:#a0a4a6"/><rect x="30.67" y="26.16" width="31.21" height="11.58" style="fill:#a3a7aa"/><rect x="30.67" y="26.18" width="31.18" height="11.56" style="fill:#a6aaad"/><circle cx="26.93" cy="49.9" r="3.28" style="fill:#154c2e"/><circle cx="27.01" cy="49.75" r="3.34" style="fill:#12a650"/><path d="M27.47,48.7v1.86H27V49.34a2.56,2.56,0,0,1-.25.16l-.29.11v-.42a1.24,1.24,0,0,0,.4-.2.8.8,0,0,0,.23-.29Z" style="fill:#fff"/><path d="M23.47,47.62,23,46.78l.08-.11,1,.27-.09.11L23.63,47l-.24.3.16.25Zm-.14-.44.2-.25-.26-.08-.19-.06a.71.71,0,0,1,.1.14Z" style="fill:#12a650"/><path d="M24.32,46.24l.12-.05a.49.49,0,0,1,0,.26.36.36,0,0,1-.14.21.31.31,0,0,1-.22.11.36.36,0,0,1-.22,0,.55.55,0,0,1-.19-.15.43.43,0,0,1-.12-.23.33.33,0,0,1,0-.22.5.5,0,0,1,.13-.19.35.35,0,0,1,.22-.09.32.32,0,0,1,.23.06l-.07.1a.3.3,0,0,0-.17,0,.2.2,0,0,0-.14.06.26.26,0,0,0-.1.16.22.22,0,0,0,0,.16.51.51,0,0,0,.09.16.48.48,0,0,0,.16.13.23.23,0,0,0,.16,0,.26.26,0,0,0,.15-.07.24.24,0,0,0,.09-.15A.3.3,0,0,0,24.32,46.24Z" style="fill:#12a650"/><path d="M25.13,45.77l.12,0a.37.37,0,0,1,0,.26.39.39,0,0,1-.17.19.6.6,0,0,1-.24.06.43.43,0,0,1-.21-.09.74.74,0,0,1-.16-.19.63.63,0,0,1-.07-.25.43.43,0,0,1,.06-.22.61.61,0,0,1,.17-.15.42.42,0,0,1,.24-.05.36.36,0,0,1,.21.11L25,45.5a.3.3,0,0,0-.15-.09.23.23,0,0,0-.16,0,.32.32,0,0,0-.13.13.25.25,0,0,0,0,.17.58.58,0,0,0,.06.17.7.7,0,0,0,.13.16.24.24,0,0,0,.15.06.22.22,0,0,0,.16,0,.25.25,0,0,0,.12-.13A.27.27,0,0,0,25.13,45.77Z" style="fill:#12a650"/><path d="M25.8,44.92l.12,0,.14.5a.48.48,0,0,1,0,.22.26.26,0,0,1-.07.16.43.43,0,0,1-.19.11.42.42,0,0,1-.22,0,.24.24,0,0,1-.15-.09.69.69,0,0,1-.09-.21l-.15-.51.12,0,.14.51a1.44,1.44,0,0,0,.07.16.21.21,0,0,0,.1.06h.14c.08,0,.14-.06.16-.11a.29.29,0,0,0,0-.24Z" style="fill:#12a650"/><path d="M26.31,45.73l0-.91h.18l.25.64,0,.13s0-.08.05-.15l.19-.64h.16l0,.92h-.12l0-.77-.23.78h-.11l-.3-.77,0,.78Z" style="fill:#12a650"/><path d="M27.36,45.73v-.12h.13l0,.13Z" style="fill:#12a650"/><path d="M27.88,45.82l.2-.78L27.79,45l0-.11.7.18,0,.11-.29-.08-.2.78Z" style="fill:#12a650"/><path d="M28.51,45.53a.46.46,0,0,1,.26-.27.47.47,0,0,1,.35,0,.44.44,0,0,1,.17.16.36.36,0,0,1,.07.22.53.53,0,0,1-.06.24.54.54,0,0,1-.16.2.37.37,0,0,1-.22.08.34.34,0,0,1-.22,0,.38.38,0,0,1-.18-.15.44.44,0,0,1-.07-.22A.46.46,0,0,1,28.51,45.53Zm.11,0a.4.4,0,0,0,0,.28.31.31,0,0,0,.16.18.28.28,0,0,0,.25,0,.39.39,0,0,0,.2-.2.49.49,0,0,0,0-.19.33.33,0,0,0,0-.17.28.28,0,0,0-.13-.11.29.29,0,0,0-.24,0A.41.41,0,0,0,28.62,45.58Z" style="fill:#12a650"/><path d="M29.36,46.52l.49-.64-.24-.18.07-.09.57.45-.06.08L30,46l-.5.64Z" style="fill:#12a650"/><path d="M29.61,46.7l.92-.36.08.1-.42.89-.09-.1.13-.27L30,46.68l-.27.12Zm.46-.06.21.23.12-.24.1-.18-.16.08Z" style="fill:#12a650"/><path d="M30.21,47.38,31,46.9l.06.1-.68.43.24.38-.09.06Z" style="fill:#12a650"/><circle cx="39.56" cy="49.9" r="3.28" style="fill:#154c2e"/><circle cx="39.64" cy="49.75" r="3.34" style="fill:#12a650"/><path d="M40.44,50.56H38.91a1,1,0,0,1,.16-.43,2.1,2.1,0,0,1,.5-.47,1.24,1.24,0,0,0,.28-.25.25.25,0,0,0,.07-.16.18.18,0,0,0-.07-.15.25.25,0,0,0-.15-.05.21.21,0,0,0-.16.06.34.34,0,0,0-.08.21l-.51,0a.71.71,0,0,1,.11-.33.51.51,0,0,1,.22-.19,1.11,1.11,0,0,1,.41-.06,1.15,1.15,0,0,1,.41.06.5.5,0,0,1,.24.19.54.54,0,0,1,.08.28.62.62,0,0,1-.09.32,1.49,1.49,0,0,1-.36.33l-.21.15-.12.11h.8Z" style="fill:#fff"/><path d="M36.05,47.7l-.74-.53.23-.33a.52.52,0,0,1,.13-.13.2.2,0,0,1,.13,0,.29.29,0,0,1,.13,0,.22.22,0,0,1,.1.15.34.34,0,0,1,0,.21l.08,0h.15l.3,0-.09.12H36l-.06,0,0,.06-.08.11.33.24Zm-.35-.39.16-.21.06-.12a.14.14,0,0,0,0-.09.18.18,0,0,0,0-.07.14.14,0,0,0-.11,0,.21.21,0,0,0-.12.1l-.17.23Z" style="fill:#12a650"/><path d="M36.57,47,36,46.33l.49-.45.07.08-.4.37.19.2.38-.34.07.08-.37.34.21.23.41-.38.07.08Z" style="fill:#12a650"/><path d="M37,46.24l.09-.07a.25.25,0,0,0,.1.08.2.2,0,0,0,.11,0,.27.27,0,0,0,.14,0,.34.34,0,0,0,.09-.08.36.36,0,0,0,0-.09.19.19,0,0,0,0-.08l-.06-.05h-.1l-.16,0L37,46a.25.25,0,0,1-.13,0,.14.14,0,0,1-.09-.08.28.28,0,0,1,0-.13.24.24,0,0,1,0-.13.34.34,0,0,1,.12-.12.44.44,0,0,1,.17-.06.22.22,0,0,1,.16,0,.26.26,0,0,1,.11.1l-.09.06a.26.26,0,0,0-.13-.08.29.29,0,0,0-.16.05.24.24,0,0,0-.11.12.11.11,0,0,0,0,.11.13.13,0,0,0,.07.05l.19,0,.2-.06a.24.24,0,0,1,.15,0,.22.22,0,0,1,.1.09.23.23,0,0,1,0,.14.3.3,0,0,1,0,.15.37.37,0,0,1-.13.12.64.64,0,0,1-.2.08.25.25,0,0,1-.17,0A.33.33,0,0,1,37,46.24Z" style="fill:#12a650"/><path d="M37.87,46.06l-.31-.86.62-.23,0,.11-.51.18.1.26.47-.17,0,.1-.48.17.11.3.53-.19,0,.1Z" style="fill:#12a650"/><path d="M38.86,45.77l-.13-.8-.3.05v-.11l.71-.11,0,.1-.3.05.13.8Z" style="fill:#12a650"/><path d="M39.89,45.72l.07-.8-.3,0v-.11l.73.07V45l-.31,0-.07.8Z" style="fill:#12a650"/><path d="M40.45,45.33a.49.49,0,0,1,.22-.31A.4.4,0,0,1,41,45a.46.46,0,0,1,.2.13.38.38,0,0,1,.1.2.53.53,0,0,1,0,.25.58.58,0,0,1-.13.23.36.36,0,0,1-.2.11.6.6,0,0,1-.23,0,.46.46,0,0,1-.2-.13.51.51,0,0,1-.1-.21A.6.6,0,0,1,40.45,45.33Zm.12,0a.36.36,0,0,0,0,.27.31.31,0,0,0,.18.16.28.28,0,0,0,.25,0,.37.37,0,0,0,.16-.23.47.47,0,0,0,0-.2.33.33,0,0,0-.07-.16.28.28,0,0,0-.14-.09.33.33,0,0,0-.24,0A.44.44,0,0,0,40.57,45.37Z" style="fill:#12a650"/><path d="M41.48,46.18l.07-.1.71-.23.14,0L42,45.53l.06-.09.55.36-.06.09-.78.25-.08,0,.49.33-.06.09Z" style="fill:#12a650"/><path d="M42.15,46.63l.64-.65.47.46-.07.07-.39-.37-.2.2.37.35-.08.08-.36-.36-.22.23.4.39-.07.08Z" style="fill:#12a650"/><path d="M42.72,47.21l.76-.51.23.34a.63.63,0,0,1,.08.17.2.2,0,0,1,0,.13.27.27,0,0,1-.1.11.21.21,0,0,1-.17,0,.32.32,0,0,1-.18-.12.34.34,0,0,1,0,.09.88.88,0,0,1-.05.15l-.12.27-.08-.13.09-.2,0-.14a.18.18,0,0,0,0-.09.13.13,0,0,0,0-.06.16.16,0,0,1,0-.06l-.08-.11-.34.22Zm.5-.18.14.21a.3.3,0,0,0,.09.1.11.11,0,0,0,.08,0l.08,0a.17.17,0,0,0,.07-.1.26.26,0,0,0,0-.15l-.16-.24Z" style="fill:#12a650"/><path d="M43.59,47.74a.51.51,0,0,1,.38,0,.41.41,0,0,1,.23.25.5.5,0,0,1,0,.24.42.42,0,0,1-.1.2.6.6,0,0,1-.47.18.4.4,0,0,1-.21-.09.5.5,0,0,1-.16-.43.4.4,0,0,1,.11-.2A.5.5,0,0,1,43.59,47.74Zm0,.11a.32.32,0,0,0-.21.18.26.26,0,0,0,0,.24.28.28,0,0,0,.17.18.35.35,0,0,0,.28,0,.4.4,0,0,0,.17-.1.37.37,0,0,0,.08-.15.33.33,0,0,0,0-.17.35.35,0,0,0-.16-.18A.43.43,0,0,0,43.64,47.85Z" style="fill:#12a650"/><circle cx="52.45" cy="49.88" r="3.28" style="fill:#154c2e"/><circle cx="52.54" cy="49.73" r="3.34" style="fill:#12a650"/><path d="M52.34,49.24l-.48-.09a.57.57,0,0,1,.23-.35,1.06,1.06,0,0,1,1,0,.46.46,0,0,1,.16.34.31.31,0,0,1-.07.21.45.45,0,0,1-.19.17l.16.06a.4.4,0,0,1,.14.15.51.51,0,0,1,.05.22.68.68,0,0,1-.08.31.56.56,0,0,1-.24.22.88.88,0,0,1-.42.08,1,1,0,0,1-.39-.06.46.46,0,0,1-.24-.17.74.74,0,0,1-.14-.28l.51-.07a.37.37,0,0,0,.09.21.23.23,0,0,0,.16.06.21.21,0,0,0,.17-.07.27.27,0,0,0,.07-.2.26.26,0,0,0-.07-.2.24.24,0,0,0-.17-.07l-.17,0,0-.36h.06a.25.25,0,0,0,.17-.06.21.21,0,0,0,.07-.15.17.17,0,0,0-.19-.18.2.2,0,0,0-.15,0A.38.38,0,0,0,52.34,49.24Z" style="fill:#fff"/><path d="M48.2,49.15l0-.12a.45.45,0,0,1,.22.15.36.36,0,0,1,.06.25.43.43,0,0,1-.07.24.43.43,0,0,1-.19.13,1,1,0,0,1-.25,0,.61.61,0,0,1-.24-.07.35.35,0,0,1-.15-.17.41.41,0,0,1,0-.22.36.36,0,0,1,.08-.23.37.37,0,0,1,.21-.12l0,.12a.27.27,0,0,0-.15.09.23.23,0,0,0-.06.15.34.34,0,0,0,0,.18.27.27,0,0,0,.13.1.33.33,0,0,0,.17,0,.47.47,0,0,0,.21,0,.34.34,0,0,0,.14-.09.3.3,0,0,0,.05-.16.26.26,0,0,0-.05-.17A.27.27,0,0,0,48.2,49.15Z" style="fill:#12a650"/><path d="M48.56,49l-.88-.26,0-.11.36.1.13-.45-.36-.11,0-.12.88.26,0,.12-.41-.12-.13.45.41.12Z" style="fill:#12a650"/><path d="M48.77,48.21l-.64-.75.06-.11,1,.1-.06.12-.3,0-.18.33.2.22Zm-.21-.41.15-.28-.27,0-.2,0,.13.13Z" style="fill:#12a650"/><path d="M49.2,47.42l-.7-.58.08-.1.86.09-.55-.46.07-.09.7.59-.08.1-.86-.1.56.46Z" style="fill:#12a650"/><path d="M49.9,46.21l-.07-.08.31-.24.21.27a.61.61,0,0,1-.09.2.47.47,0,0,1-.13.15.67.67,0,0,1-.23.1.45.45,0,0,1-.23,0,.62.62,0,0,1-.2-.16.64.64,0,0,1-.1-.24.36.36,0,0,1,0-.23.48.48,0,0,1,.16-.19.4.4,0,0,1,.16-.08.3.3,0,0,1,.16,0,.41.41,0,0,1,.14.08l-.07.09-.1-.06h-.11a.34.34,0,0,0-.12.06.52.52,0,0,0-.1.11.23.23,0,0,0,0,.11.21.21,0,0,0,0,.11.51.51,0,0,0,.24.3.25.25,0,0,0,.17,0,.48.48,0,0,0,.16-.08.35.35,0,0,0,.1-.11.28.28,0,0,0,.05-.12l-.1-.14Z" style="fill:#12a650"/><path d="M50.54,46.21l-.39-.83.6-.28,0,.09-.49.23.12.26.46-.22,0,.1-.46.22.13.28.51-.24,0,.1Z" style="fill:#12a650"/><path d="M52.19,45.37l.12,0a.38.38,0,0,1-.1.24.42.42,0,0,1-.23.12.45.45,0,0,1-.24,0,.35.35,0,0,1-.17-.15.62.62,0,0,1-.08-.24.42.42,0,0,1,0-.25.27.27,0,0,1,.13-.18.4.4,0,0,1,.21-.09.47.47,0,0,1,.24,0,.38.38,0,0,1,.15.18l-.11,0a.33.33,0,0,0-.11-.14.29.29,0,0,0-.16,0,.3.3,0,0,0-.17.08.28.28,0,0,0-.08.15.48.48,0,0,0,0,.17.52.52,0,0,0,.06.2.27.27,0,0,0,.13.11.22.22,0,0,0,.16,0,.25.25,0,0,0,.16-.08A.33.33,0,0,0,52.19,45.37Z" style="fill:#12a650"/><path d="M52.36,45.67l.4-.89h.13l.32.93h-.13L53,45.43l-.39,0-.11.27Zm.28-.36.31,0-.08-.26c0-.07,0-.14,0-.19a.49.49,0,0,1-.06.17Z" style="fill:#12a650"/><path d="M53.25,45.74l.21-.88.12,0-.19.79.44.11,0,.1Z" style="fill:#12a650"/><path d="M54.18,46l.43-.81.55.29,0,.1-.44-.24-.14.25.38.2,0,.1-.38-.2-.19.37Z" style="fill:#12a650"/><path d="M54.68,46.28l.84-.51.1.08-.27.95-.1-.08.08-.29L55,46.2l-.25.16Zm.44-.14.24.19.08-.26.07-.19-.15.11Z" style="fill:#12a650"/><path d="M56.05,47.13l.06.11a.35.35,0,0,1-.26,0,.34.34,0,0,1-.22-.13.38.38,0,0,1-.11-.22.35.35,0,0,1,0-.22.62.62,0,0,1,.16-.2.53.53,0,0,1,.22-.12.33.33,0,0,1,.22,0,.36.36,0,0,1,.19.13.4.4,0,0,1,.1.22.41.41,0,0,1-.07.23l-.1-.08a.2.2,0,0,0,0-.16.24.24,0,0,0-.06-.15.44.44,0,0,0-.15-.1.33.33,0,0,0-.17,0,.56.56,0,0,0-.15.1.64.64,0,0,0-.14.15.26.26,0,0,0,0,.17.51.51,0,0,0,.07.15.29.29,0,0,0,.16.09A.28.28,0,0,0,56.05,47.13Z" style="fill:#12a650"/><path d="M56.05,47.72l.7-.39-.14-.26.09,0,.35.63L57,47.7l-.15-.26-.7.39Z" style="fill:#12a650"/><path d="M56.69,48a.54.54,0,0,1,.38,0,.44.44,0,0,1,.22.26.49.49,0,0,1,0,.24.41.41,0,0,1-.12.2.52.52,0,0,1-.22.12.43.43,0,0,1-.25,0,.35.35,0,0,1-.21-.1.62.62,0,0,1-.12-.19.5.5,0,0,1,0-.24.37.37,0,0,1,.12-.2A.41.41,0,0,1,56.69,48Zm0,.12a.4.4,0,0,0-.23.16.31.31,0,0,0,0,.25.31.31,0,0,0,.16.18.36.36,0,0,0,.29,0,.39.39,0,0,0,.17-.09.24.24,0,0,0,.09-.15.25.25,0,0,0,0-.17.34.34,0,0,0-.15-.18A.41.41,0,0,0,56.73,48.09Z" style="fill:#12a650"/><path d="M56.54,49.05l.91-.07,0,.4a.59.59,0,0,1,0,.19.28.28,0,0,1-.08.11.34.34,0,0,1-.14,0,.26.26,0,0,1-.17,0,.38.38,0,0,1-.1-.19.2.2,0,0,1,0,.08l-.11.11-.24.17V49.7l.18-.13.12-.1L57,49.4l0,0v-.21l-.41,0Zm.52.08,0,.26a.23.23,0,0,0,0,.13.13.13,0,0,0,.06.07h.08a.12.12,0,0,0,.1-.05.19.19,0,0,0,0-.15l0-.29Z" style="fill:#12a650"/><circle cx="65.18" cy="49.9" r="3.28" style="fill:#154c2e"/><circle cx="65.27" cy="49.75" r="3.34" style="fill:#12a650"/><path d="M65.44,50.22h-.92V49.8l.92-1.1h.45v1.12h.23v.4h-.23v.34h-.45Zm0-.4v-.58l-.49.58Z" style="fill:#fff"/><path d="M61.33,48.76l-.87-.3,0-.12.84-.21-.68-.24,0-.11.86.3,0,.12-.83.22.68.23Z" style="fill:#12a650"/><path d="M61.22,47.75a.51.51,0,0,1-.23-.3.43.43,0,0,1,0-.33.48.48,0,0,1,.18-.17.41.41,0,0,1,.22,0,.59.59,0,0,1,.24.09.52.52,0,0,1,.18.18.43.43,0,0,1,.06.22.57.57,0,0,1-.07.22.46.46,0,0,1-.18.16.34.34,0,0,1-.22,0A.62.62,0,0,1,61.22,47.75Zm.07-.11a.36.36,0,0,0,.27.06.26.26,0,0,0,.2-.14.29.29,0,0,0,0-.24.48.48,0,0,0-.19-.22.45.45,0,0,0-.18-.07.25.25,0,0,0-.17,0,.33.33,0,0,0-.13.11.33.33,0,0,0,0,.24A.42.42,0,0,0,61.29,47.64Z" style="fill:#12a650"/><path d="M62.65,46.24l.11-.05a.42.42,0,0,1,.05.26.38.38,0,0,1-.14.22.46.46,0,0,1-.22.11.35.35,0,0,1-.22,0,.74.74,0,0,1-.2-.16.53.53,0,0,1-.12-.22.37.37,0,0,1,0-.23.38.38,0,0,1,.13-.18.4.4,0,0,1,.22-.1.41.41,0,0,1,.23.07l-.08.09a.37.37,0,0,0-.16,0,.34.34,0,0,0-.15.07.31.31,0,0,0-.1.15.25.25,0,0,0,0,.17.46.46,0,0,0,.09.15.48.48,0,0,0,.16.13.23.23,0,0,0,.16,0,.34.34,0,0,0,.15-.06.29.29,0,0,0,.09-.16A.3.3,0,0,0,62.65,46.24Z" style="fill:#12a650"/><path d="M62.79,46a.51.51,0,0,1-.06-.37.41.41,0,0,1,.22-.26.46.46,0,0,1,.23-.06.45.45,0,0,1,.22.08.77.77,0,0,1,.16.19.57.57,0,0,1,.06.25.33.33,0,0,1-.06.22.35.35,0,0,1-.17.15.49.49,0,0,1-.23.06.45.45,0,0,1-.22-.08A.65.65,0,0,1,62.79,46Zm.11-.06a.37.37,0,0,0,.2.19.29.29,0,0,0,.24,0,.31.31,0,0,0,.16-.19.42.42,0,0,0,0-.28.39.39,0,0,0-.13-.15.33.33,0,0,0-.16-.07.34.34,0,0,0-.32.22A.45.45,0,0,0,62.9,45.92Z" style="fill:#12a650"/><path d="M64.21,44.9l.12,0,.14.51a.6.6,0,0,1,0,.22.23.23,0,0,1-.07.15.39.39,0,0,1-.2.11.51.51,0,0,1-.21,0,.29.29,0,0,1-.15-.09,1,1,0,0,1-.09-.22l-.14-.51.12,0,.14.51a.8.8,0,0,0,.06.17.21.21,0,0,0,.1.06.33.33,0,0,0,.14,0c.08,0,.14-.06.16-.11a.32.32,0,0,0,0-.24Z" style="fill:#12a650"/><path d="M64.72,45.73l0-.92h.12l.52.69,0-.71h.12l0,.92h-.12L64.8,45l0,.72Z" style="fill:#12a650"/><path d="M65.82,45.74l.12-.79-.29-.05v-.11l.72.11,0,.11-.3,0-.12.8Z" style="fill:#12a650"/><path d="M66.44,46.16a1,1,0,0,1-.07-.31.74.74,0,0,1,0-.33.91.91,0,0,1,.13-.26,1.18,1.18,0,0,1,.25-.25l.08,0-.15.15a.91.91,0,0,0-.11.16.85.85,0,0,0-.09.22,1.09,1.09,0,0,0,0,.62Z" style="fill:#12a650"/><path d="M66.7,46l.39-.83.56.26-.05.1-.45-.21-.12.26.39.18,0,.09L67,45.63l-.18.38Z" style="fill:#12a650"/><path d="M67.35,46.28l.52-.76.1.07-.46.67.37.25-.06.09Z" style="fill:#12a650"/><path d="M69,46.46l.08.08-.37.37a.56.56,0,0,1-.18.13.22.22,0,0,1-.18,0,.35.35,0,0,1-.18-.11.47.47,0,0,1-.12-.18.37.37,0,0,1,0-.18.89.89,0,0,1,.14-.18l.38-.37.09.08-.38.37a.49.49,0,0,0-.11.14.17.17,0,0,0,0,.12.19.19,0,0,0,.07.11.24.24,0,0,0,.17.1.33.33,0,0,0,.21-.12Z" style="fill:#12a650"/><path d="M68.73,47.11l.07.09a.25.25,0,0,0-.08.1.37.37,0,0,0,0,.11.5.5,0,0,0,.05.13l.09.1.09,0a.12.12,0,0,0,.08,0,.1.1,0,0,0,0-.06.17.17,0,0,0,0-.1s0-.08,0-.16a1.32,1.32,0,0,1,0-.18A.27.27,0,0,1,69,47l.08-.08a.2.2,0,0,1,.13,0,.24.24,0,0,1,.14.05.68.68,0,0,1,.12.12.77.77,0,0,1,.07.17.24.24,0,0,1,0,.15.23.23,0,0,1-.1.12l-.07-.09a.2.2,0,0,0,.08-.13.29.29,0,0,0,0-.16.24.24,0,0,0-.12-.11.14.14,0,0,0-.11,0,.12.12,0,0,0,0,.07.7.7,0,0,0,0,.19.65.65,0,0,1,.06.2.24.24,0,0,1-.1.26.22.22,0,0,1-.14,0,.28.28,0,0,1-.15,0,.37.37,0,0,1-.12-.13.5.5,0,0,1-.09-.2.34.34,0,0,1,0-.17A.33.33,0,0,1,68.73,47.11Z" style="fill:#12a650"/><path d="M68.92,48l.86-.32,0,.11-.35.13.17.45.35-.13,0,.11-.85.32-.05-.11.41-.15L69.37,48l-.4.15Z" style="fill:#12a650"/><path d="M69,48.94v-.08a1.12,1.12,0,0,0,.62.06l.22-.07a1,1,0,0,0,.17-.1l.16-.13,0,.07a1.23,1.23,0,0,1-.28.24.79.79,0,0,1-.27.1.74.74,0,0,1-.33,0A1.32,1.32,0,0,1,69,48.94Z" style="fill:#12a650"/><path d="M25.79,42.29v-.95h-.35v-.12h.84v.12h-.35v.95Z" style="fill:#12a650"/><path d="M26.36,41.76a.55.55,0,0,1,.14-.41.48.48,0,0,1,.37-.15.44.44,0,0,1,.26.07.52.52,0,0,1,.19.2.64.64,0,0,1,.06.28.54.54,0,0,1-.07.29.44.44,0,0,1-.18.2.58.58,0,0,1-.26.06.5.5,0,0,1-.27-.07.44.44,0,0,1-.18-.2A.6.6,0,0,1,26.36,41.76Zm.14,0a.41.41,0,0,0,.11.3.31.31,0,0,0,.26.11.36.36,0,0,0,.26-.11.44.44,0,0,0,.1-.32.56.56,0,0,0,0-.23.37.37,0,0,0-.13-.15.41.41,0,0,0-.19,0,.35.35,0,0,0-.26.1A.49.49,0,0,0,26.5,41.77Z" style="fill:#12a650"/><path d="M27.78,42.29l.41-1.07h.15l.43,1.07h-.16L28.49,42H28l-.11.33Zm.3-.44h.37l-.12-.3a1.76,1.76,0,0,1-.07-.22,1.17,1.17,0,0,1-.06.2Z" style="fill:#12a650"/><path d="M29.65,41.91l.14,0a.46.46,0,0,1-.16.26.45.45,0,0,1-.28.09.47.47,0,0,1-.28-.07.42.42,0,0,1-.17-.2.88.88,0,0,1,0-.29.65.65,0,0,1,.06-.29.47.47,0,0,1,.18-.19.58.58,0,0,1,.26-.06.46.46,0,0,1,.27.08.42.42,0,0,1,.15.23l-.14,0a.4.4,0,0,0-.1-.17.35.35,0,0,0-.18,0,.37.37,0,0,0-.21.06.31.31,0,0,0-.11.16.45.45,0,0,0,0,.2A.86.86,0,0,0,29,42a.28.28,0,0,0,.13.15.27.27,0,0,0,.18,0,.29.29,0,0,0,.2-.07A.35.35,0,0,0,29.65,41.91Z" style="fill:#12a650"/><path d="M30.24,42.29v-.95h-.36v-.12h.85v.12h-.35v.95Z" style="fill:#12a650"/><path d="M30.9,42.29V41.22H31v1.07Z" style="fill:#12a650"/><path d="M31.6,42.29l-.42-1.07h.16l.27.77a1.89,1.89,0,0,1,.06.18,1.27,1.27,0,0,1,.06-.18l.28-.77h.15l-.42,1.07Z" style="fill:#12a650"/><path d="M32.06,42.29l.41-1.07h.15l.44,1.07H32.9L32.77,42h-.44l-.12.33Zm.31-.44h.36l-.11-.3a2.11,2.11,0,0,1-.08-.22.66.66,0,0,1-.06.2Z" style="fill:#12a650"/><path d="M33.33,42.29v-.95H33v-.12h.85v.12h-.36v.95Z" style="fill:#12a650"/><path d="M34,42.29V41.22h.78v.12h-.63v.33h.59v.13h-.59v.36h.65v.13Z" style="fill:#12a650"/><path d="M35.39,42.29V41.22h.72v.12h-.58v.33H36v.13h-.5v.49Z" style="fill:#12a650"/><path d="M37,41.22h.14v.61a.88.88,0,0,1,0,.26.37.37,0,0,1-.13.15.49.49,0,0,1-.25.06.47.47,0,0,1-.25,0,.29.29,0,0,1-.14-.15.85.85,0,0,1,0-.27v-.61h.15v.61a.59.59,0,0,0,0,.21.22.22,0,0,0,.09.1.33.33,0,0,0,.15,0,.35.35,0,0,0,.23-.07.46.46,0,0,0,.06-.28Z" style="fill:#12a650"/><path d="M37.37,42.29V41.22h.14l.56.84v-.84h.14v1.07h-.15l-.56-.84v.84Z" style="fill:#12a650"/><path d="M39.21,41.91l.14,0a.46.46,0,0,1-.16.26.45.45,0,0,1-.28.09.47.47,0,0,1-.28-.07.38.38,0,0,1-.17-.2.68.68,0,0,1-.05-.29.65.65,0,0,1,.06-.29.47.47,0,0,1,.18-.19.58.58,0,0,1,.26-.06.46.46,0,0,1,.27.08.42.42,0,0,1,.15.23l-.14,0a.34.34,0,0,0-.11-.17.29.29,0,0,0-.17,0,.37.37,0,0,0-.21.06.31.31,0,0,0-.11.16.45.45,0,0,0,0,.2.61.61,0,0,0,0,.24.31.31,0,0,0,.12.15.32.32,0,0,0,.19,0,.29.29,0,0,0,.2-.07A.35.35,0,0,0,39.21,41.91Z" style="fill:#12a650"/><path d="M39.8,42.29v-.95h-.36v-.12h.85v.12h-.35v.95Z" style="fill:#12a650"/><path d="M40.46,42.29V41.22h.14v1.07Z" style="fill:#12a650"/><path d="M40.81,41.76a.55.55,0,0,1,.14-.41.48.48,0,0,1,.37-.15.44.44,0,0,1,.26.07.52.52,0,0,1,.19.2.64.64,0,0,1,.06.28.54.54,0,0,1-.07.29.44.44,0,0,1-.18.2.58.58,0,0,1-.26.06.5.5,0,0,1-.27-.07.44.44,0,0,1-.18-.2A.6.6,0,0,1,40.81,41.76Zm.14,0a.41.41,0,0,0,.11.3.31.31,0,0,0,.26.11.36.36,0,0,0,.26-.11.44.44,0,0,0,.1-.32.56.56,0,0,0,0-.23.37.37,0,0,0-.13-.15.41.41,0,0,0-.19,0,.35.35,0,0,0-.26.1A.49.49,0,0,0,41,41.77Z" style="fill:#12a650"/><path d="M42,42.29V41.22h.14l.56.84v-.84h.14v1.07h-.14l-.57-.84v.84Z" style="fill:#12a650"/><path d="M43.5,42.29V41.22h.57a.29.29,0,0,1,.13.05.45.45,0,0,1,.09.1.36.36,0,0,1-.06.38.43.43,0,0,1-.31.09h-.28v.44Zm.14-.57h.28c.09,0,.16,0,.19,0a.17.17,0,0,0,.06-.14.2.2,0,0,0,0-.11.13.13,0,0,0-.09-.07h-.41Z" style="fill:#12a650"/><path d="M44.5,42.29V41.22H45a.61.61,0,0,1,.22,0,.23.23,0,0,1,.12.1.29.29,0,0,1,0,.16.26.26,0,0,1-.07.19.38.38,0,0,1-.23.1l.09.05a.76.76,0,0,1,.11.14l.19.3h-.18l-.14-.23a1,1,0,0,0-.1-.14L45,41.84l-.07,0h-.24v.48Zm.14-.6h.3l.16,0a.18.18,0,0,0,.08-.07.16.16,0,0,0,0-.09.18.18,0,0,0-.06-.13.25.25,0,0,0-.17,0h-.34Z" style="fill:#12a650"/><path d="M45.58,42.29V41.22h.77v.12h-.63v.33h.59v.13h-.59v.36h.65v.13Z" style="fill:#12a650"/><path d="M46.52,41.94h.13a.39.39,0,0,0,.05.13.19.19,0,0,0,.11.08.29.29,0,0,0,.16,0,.32.32,0,0,0,.14,0,.24.24,0,0,0,.1-.06.16.16,0,0,0,0-.09.12.12,0,0,0,0-.09.2.2,0,0,0-.1-.07l-.19-.05-.21-.06a.36.36,0,0,1-.11-.1.33.33,0,0,1,0-.14.3.3,0,0,1,0-.15.27.27,0,0,1,.13-.1.45.45,0,0,1,.2,0,.46.46,0,0,1,.21,0,.3.3,0,0,1,.14.11.34.34,0,0,1,.05.17H47.2a.18.18,0,0,0-.07-.15.25.25,0,0,0-.19-.06.3.3,0,0,0-.18,0,.14.14,0,0,0-.06.11.13.13,0,0,0,0,.1.61.61,0,0,0,.21.07l.24.07a.4.4,0,0,1,.14.11.28.28,0,0,1,0,.15.24.24,0,0,1,0,.16.33.33,0,0,1-.14.12.45.45,0,0,1-.2,0,.62.62,0,0,1-.25,0,.37.37,0,0,1-.15-.13A.31.31,0,0,1,46.52,41.94Z" style="fill:#12a650"/><path d="M47.52,41.94h.13a.4.4,0,0,0,0,.13.23.23,0,0,0,.11.08.31.31,0,0,0,.17,0,.32.32,0,0,0,.14,0,.2.2,0,0,0,.09-.06.16.16,0,0,0,0-.09.12.12,0,0,0,0-.09.22.22,0,0,0-.09-.07l-.19-.05-.21-.06a.27.27,0,0,1-.11-.1.23.23,0,0,1,0-.14.28.28,0,0,1,0-.15.3.3,0,0,1,.14-.1.41.41,0,0,1,.19,0,.46.46,0,0,1,.21,0,.26.26,0,0,1,.14.11.26.26,0,0,1,0,.17H48.2a.21.21,0,0,0-.07-.15.29.29,0,0,0-.19-.06.31.31,0,0,0-.19,0,.13.13,0,0,0,0,.21.47.47,0,0,0,.21.07l.23.07a.33.33,0,0,1,.14.11.3.3,0,0,1,0,.15.3.3,0,0,1,0,.16.33.33,0,0,1-.14.12.46.46,0,0,1-.21,0,.57.57,0,0,1-.24,0,.28.28,0,0,1-.15-.13A.31.31,0,0,1,47.52,41.94Z" style="fill:#12a650"/><path d="M49,42.29V41.22h.4a.56.56,0,0,1,.2,0,.21.21,0,0,1,.11.1.23.23,0,0,1,0,.14.28.28,0,0,1,0,.13.4.4,0,0,1-.12.1.27.27,0,0,1,.15.09.25.25,0,0,1,.06.17.28.28,0,0,1,0,.13.2.2,0,0,1-.07.1.27.27,0,0,1-.12.06l-.17,0Zm.14-.62h.23l.14,0,.08,0a.13.13,0,0,0,0-.09.16.16,0,0,0,0-.1.18.18,0,0,0-.07,0l-.17,0h-.21Zm0,.49h.36a.11.11,0,0,0,.08,0s0,0,.06,0a.29.29,0,0,0,0-.09.2.2,0,0,0,0-.11.15.15,0,0,0-.09-.06l-.15,0h-.25Z" style="fill:#12a650"/><path d="M50.67,41.22h.14v.61a.88.88,0,0,1,0,.26.33.33,0,0,1-.14.15.44.44,0,0,1-.25.06.43.43,0,0,1-.24,0A.29.29,0,0,1,50,42.1a.85.85,0,0,1,0-.27v-.61h.14v.61a.55.55,0,0,0,0,.21.22.22,0,0,0,.09.1.33.33,0,0,0,.15,0,.3.3,0,0,0,.22-.07.39.39,0,0,0,.07-.28Z" style="fill:#12a650"/><path d="M51.32,42.29v-.95H51v-.12h.84v.12h-.35v.95Z" style="fill:#12a650"/><path d="M52.23,42.29v-.95h-.35v-.12h.84v.12h-.35v.95Z" style="fill:#12a650"/><path d="M52.8,41.76a.6.6,0,0,1,.14-.41.54.54,0,0,1,.64-.08.44.44,0,0,1,.18.2.64.64,0,0,1,.06.28.65.65,0,0,1-.06.29.52.52,0,0,1-.19.2.58.58,0,0,1-.26.06.5.5,0,0,1-.27-.07.44.44,0,0,1-.18-.2A.6.6,0,0,1,52.8,41.76Zm.15,0a.4.4,0,0,0,.1.3.33.33,0,0,0,.26.11.35.35,0,0,0,.26-.11.44.44,0,0,0,.11-.32.56.56,0,0,0,0-.23.37.37,0,0,0-.13-.15.38.38,0,0,0-.19,0,.37.37,0,0,0-.26.1A.49.49,0,0,0,53,41.77Z" style="fill:#12a650"/><path d="M54,42.29V41.22h.15l.56.84v-.84h.13v1.07H54.7l-.56-.84v.84Z" style="fill:#12a650"/><path d="M55.5,42.29V41.22H56a.61.61,0,0,1,.22,0,.23.23,0,0,1,.12.1.29.29,0,0,1,0,.16.26.26,0,0,1-.07.19.38.38,0,0,1-.23.1l.09.05a.76.76,0,0,1,.11.14l.19.3h-.18l-.14-.23-.1-.14L56,41.84l-.07,0h-.24v.48Zm.14-.6h.3l.15,0a.16.16,0,0,0,.09-.07.16.16,0,0,0,0-.09.18.18,0,0,0-.06-.13.27.27,0,0,0-.17,0h-.34Z" style="fill:#12a650"/><path d="M56.53,41.76a.6.6,0,0,1,.14-.41.54.54,0,0,1,.64-.08.44.44,0,0,1,.18.2.64.64,0,0,1,.06.28.65.65,0,0,1-.06.29.52.52,0,0,1-.19.2.58.58,0,0,1-.26.06.5.5,0,0,1-.27-.07.44.44,0,0,1-.18-.2A.6.6,0,0,1,56.53,41.76Zm.15,0a.4.4,0,0,0,.1.3.33.33,0,0,0,.26.11.35.35,0,0,0,.26-.11.44.44,0,0,0,.11-.32.56.56,0,0,0,0-.23.37.37,0,0,0-.13-.15.38.38,0,0,0-.19,0,.37.37,0,0,0-.26.1A.49.49,0,0,0,56.68,41.77Z" style="fill:#12a650"/><path d="M57.74,42.29V41.22h.47a.65.65,0,0,1,.22,0,.18.18,0,0,1,.11.1.3.3,0,0,1,.05.16.32.32,0,0,1-.07.19.38.38,0,0,1-.23.1l.08.05.12.14.19.3H58.5l-.14-.23-.1-.14-.08-.08-.06,0h-.24v.48Zm.14-.6h.3l.15,0a.11.11,0,0,0,.08-.07.16.16,0,0,0,0-.09.21.21,0,0,0,0-.13.3.3,0,0,0-.18,0h-.33Z" style="fill:#12a650"/><path d="M59.17,42l.14,0a.21.21,0,0,0,.07.15.18.18,0,0,0,.13.06.23.23,0,0,0,.17-.08.27.27,0,0,0,.06-.19.24.24,0,0,0-.06-.17.21.21,0,0,0-.17-.07.2.2,0,0,0-.11,0,.2.2,0,0,0-.08.08l-.12,0,.1-.55h.53v.13H59.4l0,.28a.36.36,0,0,1,.2-.06.32.32,0,0,1,.23.09.33.33,0,0,1,.1.25.41.41,0,0,1-.08.25.35.35,0,0,1-.29.13.33.33,0,0,1-.34-.29Z" style="fill:#12a650"/><path d="M60.42,41.94h.13a.39.39,0,0,0,.05.13.19.19,0,0,0,.11.08.27.27,0,0,0,.16,0,.32.32,0,0,0,.14,0,.2.2,0,0,0,.09-.06.13.13,0,0,0,0-.18.26.26,0,0,0-.1-.07l-.19-.05-.21-.06a.27.27,0,0,1-.11-.1.23.23,0,0,1,0-.14.3.3,0,0,1,0-.15.27.27,0,0,1,.13-.1.45.45,0,0,1,.2,0,.46.46,0,0,1,.21,0,.3.3,0,0,1,.14.11.34.34,0,0,1,.05.17H61.1a.18.18,0,0,0-.07-.15.25.25,0,0,0-.19-.06.3.3,0,0,0-.18,0,.14.14,0,0,0-.06.11.13.13,0,0,0,0,.1.61.61,0,0,0,.21.07l.24.07a.4.4,0,0,1,.14.11.28.28,0,0,1,0,.15.3.3,0,0,1-.05.16.33.33,0,0,1-.14.12.45.45,0,0,1-.2,0,.62.62,0,0,1-.25,0,.37.37,0,0,1-.15-.13A.31.31,0,0,1,60.42,41.94Z" style="fill:#12a650"/><path d="M61.47,42.29V41.22h.77v.12h-.63v.33h.59v.13h-.59v.36h.65v.13Z" style="fill:#12a650"/><path d="M63.22,41.91l.14,0a.46.46,0,0,1-.16.26.43.43,0,0,1-.28.09.49.49,0,0,1-.28-.07.36.36,0,0,1-.16-.2.68.68,0,0,1-.06-.29.65.65,0,0,1,.06-.29.55.55,0,0,1,.18-.19.58.58,0,0,1,.26-.06.46.46,0,0,1,.27.08.34.34,0,0,1,.15.23l-.13,0a.56.56,0,0,0-.11-.17.35.35,0,0,0-.18,0,.37.37,0,0,0-.21.06.31.31,0,0,0-.11.16.65.65,0,0,0,0,.2.86.86,0,0,0,0,.24.28.28,0,0,0,.13.15.33.33,0,0,0,.38,0A.35.35,0,0,0,63.22,41.91Z" style="fill:#12a650"/><path d="M63.49,41.76a.56.56,0,0,1,.15-.41A.47.47,0,0,1,64,41.2a.48.48,0,0,1,.26.07.44.44,0,0,1,.18.2.64.64,0,0,1,.07.28.65.65,0,0,1-.07.29.46.46,0,0,1-.19.2.55.55,0,0,1-.26.06.5.5,0,0,1-.27-.07.59.59,0,0,1-.18-.2A.6.6,0,0,1,63.49,41.76Zm.15,0a.4.4,0,0,0,.1.3.33.33,0,0,0,.26.11.37.37,0,0,0,.27-.11.49.49,0,0,0,.1-.32.79.79,0,0,0,0-.23.47.47,0,0,0-.13-.15.41.41,0,0,0-.19,0,.35.35,0,0,0-.26.1A.49.49,0,0,0,63.64,41.77Z" style="fill:#12a650"/><path d="M64.7,42.29V41.22h.14l.56.84v-.84h.14v1.07h-.15l-.56-.84v.84Z" style="fill:#12a650"/><path d="M65.77,42.29V41.22h.56a.4.4,0,0,1,.16.08.46.46,0,0,1,.13.18,1,1,0,0,1,0,.26.66.66,0,0,1,0,.21.59.59,0,0,1-.07.16.41.41,0,0,1-.1.09.52.52,0,0,1-.13.06l-.17,0Zm.15-.13h.22l.17,0a.21.21,0,0,0,.1-.06.32.32,0,0,0,.07-.13.66.66,0,0,0,0-.21.55.55,0,0,0-.05-.25.27.27,0,0,0-.14-.12.39.39,0,0,0-.18,0h-.22Z" style="fill:#12a650"/><path d="M66.8,41.94h.14a.25.25,0,0,0,0,.13.19.19,0,0,0,.11.08.29.29,0,0,0,.16,0,.37.37,0,0,0,.15,0,.2.2,0,0,0,.09-.06.16.16,0,0,0,0-.09.12.12,0,0,0,0-.09.2.2,0,0,0-.1-.07l-.19-.05a.81.81,0,0,1-.2-.06.4.4,0,0,1-.12-.1.33.33,0,0,1,0-.14.3.3,0,0,1,0-.15.32.32,0,0,1,.13-.1.45.45,0,0,1,.2,0,.46.46,0,0,1,.21,0,.26.26,0,0,1,.14.11.34.34,0,0,1,.05.17h-.13a.22.22,0,0,0-.08-.15.24.24,0,0,0-.18-.06.31.31,0,0,0-.19,0,.14.14,0,0,0-.06.11.13.13,0,0,0,0,.1.61.61,0,0,0,.22.07l.23.07a.4.4,0,0,1,.14.11.28.28,0,0,1,0,.15.29.29,0,0,1,0,.16.41.41,0,0,1-.14.12.49.49,0,0,1-.21,0,.55.55,0,0,1-.24,0,.34.34,0,0,1-.16-.13A.53.53,0,0,1,66.8,41.94Z" style="fill:#12a650"/><text transform="translate(36.25 34.51)" style="font-size:9.437799453735352px;fill:#2174a3;font-family:LCDMonoBold, LCDMono">88.88</text><text transform="translate(31.55 33.34)" style="font-size:1.751979947090149px;fill:#2174a3;font-family:ArialMT, Arial">CA<tspan x="2.43" y="0" style="letter-spacing:-0.036788734429894436em">L</tspan></text><text transform="translate(49.38 37.09)" style="font-size:1.751979947090149px;fill:#2174a3;font-family:ArialMT, Arial">GA<tspan x="2.53" y="0" style="letter-spacing:-0.03706743696345425em">L</tspan></text><text transform="translate(33.19 37.34)" style="font-size:4.262639999389648px;fill:#2174a3;font-family:LCDMonoBold, LCDMono">8</text></g></g></svg>