<svg xmlns="http://www.w3.org/2000/svg" xmlns:xlink="http://www.w3.org/1999/xlink" width="25.06" height="76.09" viewBox="0 0 25.06 76.09"><defs><linearGradient id="未命名的渐变_461" x1="1059.22" y1="1218.76" x2="1058.72" y2="1218.76" gradientTransform="matrix(2.8, 0, 0, -48.5, -2954.77, 59173.72)" gradientUnits="userSpaceOnUse"><stop offset="0" stop-color="#9e9e9e"/><stop offset="0.15" stop-color="#f6f6f6"/><stop offset="0.26" stop-color="#fff"/><stop offset="0.41" stop-color="#fff"/><stop offset="0.6" stop-color="#d1d1d1"/><stop offset="0.8" stop-color="#a8a8a8"/><stop offset="0.93" stop-color="#898989"/></linearGradient><linearGradient id="未命名的渐变_463" x1="1871.27" y1="1352.73" x2="1870.77" y2="1352.73" gradientTransform="matrix(40.9, 0, 0, -5.4, -76514.48, 7327.2)" gradientUnits="userSpaceOnUse"><stop offset="0" stop-color="#7e8e7a"/><stop offset="0.15" stop-color="#c6dec0"/><stop offset="0.26" stop-color="#d3e9ce"/><stop offset="0.41" stop-color="#cee6c8"/><stop offset="0.6" stop-color="#a8bda3"/><stop offset="0.8" stop-color="#869782"/><stop offset="0.93" stop-color="#6d7b6a"/></linearGradient><linearGradient id="未命名的渐变_468" x1="1861.8" y1="1229.36" x2="1861.3" y2="1229.36" gradientTransform="matrix(35.3, 0, 0, -28.6, -65702.45, 35173.5)" gradientUnits="userSpaceOnUse"><stop offset="0" stop-color="#7e8e7a"/><stop offset="0.3" stop-color="#c6dec0"/><stop offset="0.34" stop-color="#d3e9ce"/><stop offset="0.41" stop-color="#cee6c8"/><stop offset="0.6" stop-color="#a8bda3"/><stop offset="0.8" stop-color="#869782"/><stop offset="1" stop-color="#6d7b6a"/></linearGradient><linearGradient id="未命名的渐变_464" x1="1881.54" y1="1247.57" x2="1881.54" y2="1247.07" gradientTransform="matrix(49.7, 0, 0, -17.3, -93499.95, 21583.06)" gradientUnits="userSpaceOnUse"><stop offset="0" stop-color="#90a38c"/><stop offset="0.03" stop-color="#d8ebd4"/><stop offset="0.05" stop-color="#bdd4b7"/><stop offset="0.64" stop-color="#bad0b4"/><stop offset="0.95" stop-color="#b5ccb0"/><stop offset="1" stop-color="#869782"/></linearGradient><linearGradient id="未命名的渐变_463-2" x1="1716.84" y1="1474.81" x2="1716.34" y2="1474.81" gradientTransform="matrix(11.4, 0, 0, -3, -19558.78, 4448.96)" xlink:href="#未命名的渐变_463"/><linearGradient id="未命名的渐变_461-2" x1="1640.37" y1="1216.65" x2="1639.87" y2="1216.65" gradientTransform="matrix(8.4, 0, 0, -53.4, -13766.69, 65007.97)" xlink:href="#未命名的渐变_461"/><linearGradient id="未命名的渐变_460" x1="1785.67" y1="2006.71" x2="1785.17" y2="2006.71" gradientTransform="matrix(16.8, 0, 0, -1, -29984.93, 2015.57)" gradientUnits="userSpaceOnUse"><stop offset="0" stop-color="#6c8566"/><stop offset="0.3" stop-color="#abd0a2"/><stop offset="0.34" stop-color="#bcdcb3"/><stop offset="0.41" stop-color="#b3d8a9"/><stop offset="0.6" stop-color="#91b189"/><stop offset="0.8" stop-color="#748d6d"/><stop offset="1" stop-color="#5e7358"/></linearGradient><linearGradient id="未命名的渐变_459" x1="-505.62" y1="2003.83" x2="-506.12" y2="2003.83" gradientTransform="matrix(1, 0, 0, -1, 511.93, 2009.81)" gradientUnits="userSpaceOnUse"><stop offset="0" stop-color="#c4aa84"/><stop offset="0.15" stop-color="#ffe0b3"/><stop offset="0.25" stop-color="#ffeed7"/><stop offset="0.44" stop-color="#dfc297"/><stop offset="0.6" stop-color="#c7ad86"/><stop offset="0.8" stop-color="#a89170"/><stop offset="0.97" stop-color="#998566"/><stop offset="1" stop-color="#cbb189"/></linearGradient></defs><title>group526</title><g id="图层_2" data-name="图层 2"><g id="传感器"><g id="group526"><path id="shape527" d="M9.64,51.84H11V76.09H9.64Z" style="fill-rule:evenodd;fill:url(#未命名的渐变_461)"/><path id="shape528" d="M.57,21.1H20a.47.47,0,0,1,.5.5v1.65a.51.51,0,0,1-.5.55H.57a.51.51,0,0,1-.5-.55V21.6A.47.47,0,0,1,.57,21.1Z" style="fill-rule:evenodd;fill:url(#未命名的渐变_463)"/><path id="shape529" d="M1.53,21.05H19.18c-4,0-4.8-14.3-4.8-14.3h-8S5.48,21.05,1.53,21.05Z" style="fill-rule:evenodd;fill:url(#未命名的渐变_468)"/><path id="shape530" d="M.46.05h24.4c.15,0,.2.1.2.25V8.41c0,.14,0,.29-.2.29H.46a.28.28,0,0,1-.25-.29V.3A.24.24,0,0,1,.46.05Z" style="fill-rule:evenodd;fill:url(#未命名的渐变_464)"/><path id="shape531" d="M7.48,23.79h5.7v1.5H7.48Z" style="fill-rule:evenodd;fill:url(#未命名的渐变_463-2)"/><path id="shape532" d="M8.23,25.27h4.2V52H8.23Z" style="fill-rule:evenodd;fill:url(#未命名的渐变_461-2)"/><path id="shape533" d="M14.35,8.6H6v.5h8.4Z" style="fill-rule:evenodd;fill:url(#未命名的渐变_460)"/><g id="group534"><path id="shape535" d="M.25,5.9a5.65,5.65,0,0,1,11.3,0,5.65,5.65,0,0,1-11.3,0Z" style="stroke:#000;stroke-width:0.5px;fill-rule:evenodd"/><path id="shape536" d="M.73,5.93a5.18,5.18,0,1,1,5.2,5.15A5.16,5.16,0,0,1,.73,5.93Z" style="fill:#9e9f9f;fill-rule:evenodd"/><path id="shape537" d="M.89,5.89a5,5,0,1,1,5,5.06A5,5,0,0,1,.89,5.89Z" style="fill:#ebeae9;fill-rule:evenodd"/><path id="shape538" d="M2.61,8.87l3.05-2.8a3.81,3.81,0,0,0,1.2-1.6s.15-.25.4,0L7.67,5s.25.35-.16.35a4.21,4.21,0,0,0-1.7,1Z" style="stroke:#000;stroke-width:0.5px;fill-rule:evenodd"/><path id="shape539" d="M5.65,6a.43.43,0,0,1,.4-.4.39.39,0,0,1,.4.4.37.37,0,0,1-.4.4A.39.39,0,0,1,5.65,6Z" style="stroke:#000;stroke-width:0.5px;fill-rule:evenodd"/><path id="shape540" d="M5.8,6a.25.25,0,1,1,.25.25A.24.24,0,0,1,5.8,6Z" style="fill-rule:evenodd;fill:url(#未命名的渐变_459)"/><path id="shape541" d="M8.13,1.82l-.35.65" style="fill:none;stroke:#000;stroke-width:0.5px"/><path id="shape542" d="M3.83,1.82l.35.65" style="fill:none;stroke:#000;stroke-width:0.5px"/><path id="shape543" d="M9.88,5.39l.7-.15" style="fill:none;stroke:#000;stroke-width:0.5px"/><path id="shape544" d="M8.73,8.81l.5.5" style="fill:none;stroke:#000;stroke-width:0.5px"/><path id="shape545" d="M3.11,8.5l-.65.55" style="fill:none;stroke:#000;stroke-width:0.5px"/><path id="shape546" d="M2,5.38l-.75-.1" style="fill:none;stroke:#000;stroke-width:0.5px"/><g id="group547"><path id="shape548" d="M4.86,9.29H7v1H4.86Z" style="stroke:#000;stroke-width:0.5px;fill-rule:evenodd"/><path id="shape549" d="M5,9.44H6.78v.7H5Z" style="fill:none;stroke:#fff;stroke-width:0.5px"/></g><path id="shape550" d="M8.35,7.55A5.4,5.4,0,0,0,8,1.14a5.2,5.2,0,0,1-2.1,10,5.15,5.15,0,0,1-3-.95C3,10.25,6.06,11,8.35,7.55Z" style="fill:#fff;fill-opacity:0.730000019073486;fill-rule:evenodd"/></g></g></g></g></svg>