<svg xmlns="http://www.w3.org/2000/svg" xmlns:xlink="http://www.w3.org/1999/xlink" width="65.99" height="76" viewBox="0 0 65.99 76"><defs><linearGradient id="未命名的渐变_475" x1="3020.3" y1="1220.29" x2="3020.3" y2="1219.79" gradientTransform="matrix(115.5, 0, 0, -43.7, -348811.35, 53375.64)" gradientUnits="userSpaceOnUse"><stop offset="0" stop-color="#bac0c1"/><stop offset="0.15" stop-color="#f4fafc"/><stop offset="0.25" stop-color="#f8fcfd"/><stop offset="0.44" stop-color="#d5dbdd"/><stop offset="0.6" stop-color="#bdc3c4"/><stop offset="0.8" stop-color="#a0a4a6"/><stop offset="0.97" stop-color="#929697"/><stop offset="1" stop-color="#c2c7c9"/></linearGradient><linearGradient id="未命名的渐变_475-2" x1="2622.68" y1="1216.53" x2="2622.68" y2="1216.03" gradientTransform="matrix(8.2, 0, 0, -63.6, -21503.9, 77415.67)" xlink:href="#未命名的渐变_475"/><linearGradient id="未命名的渐变_475-3" x1="2615.13" y1="1216.53" x2="2615.13" y2="1216.03" gradientTransform="matrix(8.2, 0, 0, -63.6, -21380.12, 77415.67)" xlink:href="#未命名的渐变_475"/><linearGradient id="未命名的渐变_502" x1="3008.02" y1="1215.97" x2="3007.52" y2="1215.97" gradientTransform="matrix(82, 0, 0, -60.4, -246603.79, 73459.94)" gradientUnits="userSpaceOnUse"><stop offset="0" stop-color="#182830"/><stop offset="0.03" stop-color="#808689"/><stop offset="0.08" stop-color="#233742"/><stop offset="0.64" stop-color="#223640"/><stop offset="0.95" stop-color="#21353f"/><stop offset="1" stop-color="#16252c"/></linearGradient><linearGradient id="未命名的渐变_501" x1="1098.45" y1="1220.29" x2="1098.45" y2="1219.79" gradientTransform="matrix(1.8, 0, 0, -43.7, -1972.65, 53375.64)" gradientUnits="userSpaceOnUse"><stop offset="0" stop-color="#939798"/><stop offset="0.15" stop-color="#c5cacb"/><stop offset="0.25" stop-color="#dfe2e2"/><stop offset="0.44" stop-color="#a8adae"/><stop offset="0.6" stop-color="#959a9b"/><stop offset="0.8" stop-color="#7d8182"/><stop offset="0.97" stop-color="#727676"/><stop offset="1" stop-color="#999d9e"/></linearGradient><linearGradient id="未命名的渐变_501-2" x1="1066.88" y1="1220.29" x2="1066.88" y2="1219.79" gradientTransform="matrix(1.8, 0, 0, -43.7, -1858.98, 53375.64)" xlink:href="#未命名的渐变_501"/><linearGradient id="未命名的渐变_475-4" x1="2867.65" y1="1220.08" x2="2867.15" y2="1220.08" gradientTransform="matrix(19.3, 0, 0, -41.9, -55307.79, 51161.99)" xlink:href="#未命名的渐变_475"/></defs><title>group159</title><g id="图层_2" data-name="图层 2"><g id="传感器"><g id="group159"><path id="shape160" d="M4.13,49.17H61.88V71H4.13Z" style="fill-rule:evenodd;fill:url(#未命名的渐变_475)"/><path id="shape161" d="M.9,44.2H3.2a.9.9,0,0,1,.9.9v30a.9.9,0,0,1-.9.9H.9a.9.9,0,0,1-.9-.9v-30A.9.9,0,0,1,.9,44.2Z" style="fill-rule:evenodd;fill:url(#未命名的渐变_475-2)"/><path id="shape162" d="M62.79,44.2h2.3a.9.9,0,0,1,.9.9v30a.9.9,0,0,1-.9.9h-2.3a.9.9,0,0,1-.9-.9v-30A.9.9,0,0,1,62.79,44.2Z" style="fill-rule:evenodd;fill:url(#未命名的渐变_475-3)"/><g id="group163"><path id="shape164" d="M12.94,0H53a.45.45,0,0,1,.45.45v29.3a.45.45,0,0,1-.45.45H12.94a.45.45,0,0,1-.45-.45V.45A.45.45,0,0,1,12.94,0Z" style="fill-rule:evenodd;fill:url(#未命名的渐变_502)"/><g id="group165"><path id="shape166" d="M14.43,1.66H51.58a.45.45,0,0,1,.45.45v26a.46.46,0,0,1-.45.46H14.43a.46.46,0,0,1-.45-.46V2.11A.45.45,0,0,1,14.43,1.66Z" style="fill:#6c6d71;fill-rule:evenodd"/><path id="shape167" d="M15.17,3H50.82V27.15H15.17Z" style="fill-rule:evenodd"/><path id="shape168" d="M15.62,3.51H50.37V26.66H15.62Z" style="fill:#fff;fill-opacity:0.150000005960464;fill-rule:evenodd"/><path id="shape169" d="M23.73,9.8H42.28V20.4H23.73Z" style="fill:#495253;fill-rule:evenodd"/><path id="shape170" d="M24.08,10.1H41.93v10H24.08Z" style="fill:#fff;fill-opacity:0.28999999165535;fill-rule:evenodd"/><path id="shape171" d="M20.62,5.13H45.37V6.42H20.62Z" style="fill:#fff;fill-opacity:0.109999999403954;fill-rule:evenodd"/><path id="shape172" d="M20.62,22.46H45.37v1.3H20.62Z" style="fill:#fff;fill-opacity:0.109999999403954;fill-rule:evenodd"/><path id="shape173" d="M20.62,24.65H45.37v.8H20.62Z" style="fill:#fff;fill-opacity:0.109999999403954;fill-rule:evenodd"/></g></g><path id="shape174" d="M4.11,49.17H5V71h-.9Z" style="fill-rule:evenodd;fill:url(#未命名的渐变_501)"/><path id="shape175" d="M61,49.17h.9V71H61Z" style="fill-rule:evenodd;fill:url(#未命名的渐变_501-2)"/><path id="shape176" d="M28.17,30h9.65v19.7S37.72,51,33.07,51s-4.9-1.25-4.9-1.25Z" style="fill-rule:evenodd;fill:url(#未命名的渐变_475-4)"/></g></g></g></svg>