<svg xmlns="http://www.w3.org/2000/svg" xmlns:xlink="http://www.w3.org/1999/xlink" width="75.98" height="38" viewBox="0 0 75.98 38"><defs><linearGradient id="未命名的渐变_524" x1="1929.9" y1="1057.35" x2="1929.9" y2="1056.85" gradientTransform="matrix(126.9, 0, 0, -48.1, -244866.52, 50865.73)" gradientUnits="userSpaceOnUse"><stop offset="0" stop-color="#949990"/><stop offset="0.15" stop-color="#cdd2c7"/><stop offset="0.25" stop-color="#e3e6e1"/><stop offset="0.52" stop-color="#b0b5aa"/><stop offset="0.69" stop-color="#9ca197"/><stop offset="0.8" stop-color="#93988f"/><stop offset="0.97" stop-color="#8b8f86"/><stop offset="1" stop-color="#a0a59b"/></linearGradient><linearGradient id="未命名的渐变_529" x1="1927.53" y1="1058.02" x2="1927.53" y2="1057.52" gradientTransform="matrix(114.8, 0, 0, -40.4, -221242.43, 42753.01)" gradientUnits="userSpaceOnUse"><stop offset="0" stop-color="#4f5547"/><stop offset="0.15" stop-color="#939c86"/><stop offset="0.25" stop-color="#b1b7aa"/><stop offset="0.52" stop-color="#768069"/><stop offset="0.69" stop-color="#69715d"/><stop offset="0.8" stop-color="#626b57"/><stop offset="0.97" stop-color="#545b4b"/><stop offset="1" stop-color="#666e5c"/></linearGradient><linearGradient id="未命名的渐变_527" x1="1321.92" y1="1061.38" x2="1321.42" y2="1061.38" gradientTransform="matrix(4.5, 0, 0, -20.8, -5926.6, 22088.91)" gradientUnits="userSpaceOnUse"><stop offset="0" stop-color="#9c8561"/><stop offset="0.15" stop-color="#d6ba90"/><stop offset="0.25" stop-color="#e8dac8"/><stop offset="0.52" stop-color="#b89d74"/><stop offset="0.69" stop-color="#a48b66"/><stop offset="0.8" stop-color="#9b8360"/><stop offset="0.92" stop-color="#927c5a"/><stop offset="1" stop-color="#a88f69"/></linearGradient><linearGradient id="未命名的渐变_527-2" x1="1662.75" y1="1075.48" x2="1662.75" y2="1074.98" gradientTransform="matrix(9.8, 0, 0, -7.8, -16273.68, 8405.91)" xlink:href="#未命名的渐变_527"/><linearGradient id="未命名的渐变_527-3" x1="899.9" y1="1071.24" x2="899.9" y2="1070.74" gradientTransform="matrix(2.7, 0, 0, -9.7, -2405.38, 10407.77)" xlink:href="#未命名的渐变_527"/><linearGradient id="未命名的渐变_528" x1="-884.92" y1="1215.79" x2="-879.42" y2="1195.79" gradientTransform="matrix(1, 0, 0, -1, 915.53, 1224.56)" gradientUnits="userSpaceOnUse"><stop offset="0" stop-color="#877456"/><stop offset="0.25" stop-color="#d6ba90"/><stop offset="0.29" stop-color="#e8dac8"/><stop offset="0.48" stop-color="#b89d74"/><stop offset="0.69" stop-color="#a48b66"/><stop offset="0.8" stop-color="#9b8360"/><stop offset="0.92" stop-color="#927c5a"/><stop offset="1" stop-color="#a88f69"/></linearGradient><linearGradient id="未命名的渐变_527-4" x1="-647.81" y1="1076.05" x2="-647.81" y2="1075.55" gradientTransform="matrix(1.1, 0, 0, -7.6, 755.43, 8195.21)" xlink:href="#未命名的渐变_527"/><linearGradient id="未命名的渐变_526" x1="-900.88" y1="1213.9" x2="-909.38" y2="1203.4" gradientTransform="matrix(1, 0, 0, -1, 945.85, 1227.95)" gradientUnits="userSpaceOnUse"><stop offset="0" stop-color="#9c8561"/><stop offset="0.22" stop-color="#d6ba90"/><stop offset="0.31" stop-color="#e8dac8"/><stop offset="0.52" stop-color="#b89d74"/><stop offset="0.69" stop-color="#a48b66"/><stop offset="0.8" stop-color="#9b8360"/><stop offset="0.92" stop-color="#927c5a"/><stop offset="1" stop-color="#a88f69"/></linearGradient><linearGradient id="未命名的渐变_524-2" x1="1480.56" y1="1088.14" x2="1480.06" y2="1088.14" gradientTransform="matrix(6, 0, 0, -4.5, -8866.75, 4902.44)" xlink:href="#未命名的渐变_524"/><linearGradient id="未命名的渐变_524-3" x1="1479.6" y1="1088.14" x2="1479.1" y2="1088.14" gradientTransform="matrix(6, 0, 0, -4.5, -8855.19, 4902.44)" xlink:href="#未命名的渐变_524"/><linearGradient id="未命名的渐变_525" x1="348.57" y1="1057.35" x2="348.57" y2="1056.85" gradientTransform="matrix(1.8, 0, 0, -48.1, -557.93, 50865.73)" gradientUnits="userSpaceOnUse"><stop offset="0" stop-color="#7a8071"/><stop offset="0.15" stop-color="#adb4a2"/><stop offset="0.25" stop-color="#d4d7d0"/><stop offset="0.52" stop-color="#919886"/><stop offset="0.69" stop-color="#808777"/><stop offset="0.8" stop-color="#797f70"/><stop offset="0.97" stop-color="#727869"/><stop offset="1" stop-color="#838a7a"/></linearGradient><linearGradient id="未命名的渐变_525-2" x1="383.58" y1="1057.35" x2="383.58" y2="1056.85" gradientTransform="matrix(1.8, 0, 0, -48.1, -683.96, 50865.73)" xlink:href="#未命名的渐变_525"/><linearGradient id="未命名的渐变_524-4" x1="1364.39" y1="1056.91" x2="1364.39" y2="1056.41" gradientTransform="matrix(4.8, 0, 0, -55, -6544.01, 58135.58)" xlink:href="#未命名的渐变_524"/><linearGradient id="未命名的渐变_525-3" x1="384.91" y1="1056.92" x2="384.91" y2="1056.42" gradientTransform="matrix(1.8, 0, 0, -54.9, -688.74, 58030.19)" xlink:href="#未命名的渐变_525"/><linearGradient id="未命名的渐变_524-5" x1="1586.26" y1="1056.07" x2="1586.26" y2="1055.57" gradientTransform="matrix(7.7, 0, 0, -76, -12212.26, 80261.16)" xlink:href="#未命名的渐变_524"/><linearGradient id="未命名的渐变_524-6" x1="1350.67" y1="1056.91" x2="1350.67" y2="1056.41" gradientTransform="matrix(4.8, 0, 0, -55, -6412.28, 58135.58)" xlink:href="#未命名的渐变_524"/><linearGradient id="未命名的渐变_525-4" x1="507.72" y1="1056.92" x2="507.72" y2="1056.42" gradientTransform="matrix(2, 0, 0, -54.9, -943.45, 58030.19)" xlink:href="#未命名的渐变_525"/><linearGradient id="未命名的渐变_524-7" x1="1576.89" y1="1056.07" x2="1576.89" y2="1055.57" gradientTransform="matrix(7.7, 0, 0, -76, -12067.99, 80261.16)" xlink:href="#未命名的渐变_524"/></defs><title>group94</title><g id="图层_2" data-name="图层 2"><g id="传感器"><g id="group94"><path id="shape95" d="M6.28,7H69.73V31H6.28Z" style="fill-rule:evenodd;fill:url(#未命名的渐变_524)"/><path id="shape96" d="M9.32,8.9h57.4V29.1H9.32Z" style="fill-rule:evenodd;fill:url(#未命名的渐变_529)"/><path id="shape97" d="M19.79,7H22v10.4H19.79Z" style="fill-rule:evenodd;fill:url(#未命名的渐变_527)"/><path id="shape98" d="M19.89,17.17h3.8v3.9h-3.8a1.11,1.11,0,0,1-1.1-1.1v-1.7A1.11,1.11,0,0,1,19.89,17.17Z" style="fill-rule:evenodd;fill:url(#未命名的渐变_527-2)"/><path id="shape99" d="M23.68,16.7H25v4.85H23.68Z" style="fill-rule:evenodd;fill:url(#未命名的渐变_527-3)"/><path id="shape100" d="M25,16.68v4.85l15.15,6.25V10.43Z" style="fill-rule:evenodd;fill:url(#未命名的渐变_528)"/><path id="shape101" d="M42.57,17.23h.55V21h-.55Z" style="fill-rule:evenodd;fill:url(#未命名的渐变_527-4)"/><path id="shape102" d="M40.18,12.13l2.4,5.09V21l-2.4,6.8Z" style="fill-rule:evenodd;fill:url(#未命名的渐变_526)"/><path id="shape103" d="M13.94,4.7h2.4a.32.32,0,0,1,.3.3V7h-3V5A.32.32,0,0,1,13.94,4.7Z" style="fill-rule:evenodd;fill:url(#未命名的渐变_524-2)"/><path id="shape104" d="M19.71,4.7h2.4a.32.32,0,0,1,.3.3V7h-3V5A.32.32,0,0,1,19.71,4.7Z" style="fill-rule:evenodd;fill:url(#未命名的渐变_524-3)"/><path id="shape105" d="M69.05,7H70V31h-.9Z" style="fill-rule:evenodd;fill:url(#未命名的渐变_525)"/><path id="shape106" d="M6,7h.9V31H6Z" style="fill-rule:evenodd;fill:url(#未命名的渐变_525-2)"/><path id="shape107" d="M6.26,5.26H3.86v27.5h2.4Z" style="fill-rule:evenodd;fill:url(#未命名的渐变_524-4)"/><path id="shape108" d="M3.65,5.26h.9V32.72h-.9Z" style="fill-rule:evenodd;fill:url(#未命名的渐变_525-3)"/><path id="shape109" d="M1.1,0H2.75a1.08,1.08,0,0,1,1.1,1.1V36.9A1.08,1.08,0,0,1,2.75,38H1.1A1.11,1.11,0,0,1,0,36.9V1.1A1.11,1.11,0,0,1,1.1,0Z" style="fill-rule:evenodd;fill:url(#未命名的渐变_524-5)"/><path id="shape110" d="M72.13,5.26h-2.4v27.5h2.4Z" style="fill-rule:evenodd;fill:url(#未命名的渐变_524-6)"/><path id="shape111" d="M71.48,5.26h1V32.72h-1Z" style="fill-rule:evenodd;fill:url(#未命名的渐变_525-4)"/><path id="shape112" d="M73.23,0h1.65A1.08,1.08,0,0,1,76,1.1V36.9a1.08,1.08,0,0,1-1.1,1.1H73.23a1.11,1.11,0,0,1-1.1-1.1V1.1A1.11,1.11,0,0,1,73.23,0Z" style="fill-rule:evenodd;fill:url(#未命名的渐变_524-7)"/><path id="shape113" d="M9.32,8.9h57.4V29.1H9.32Z" style="fill:#fff;fill-opacity:0.209999993443489;fill-rule:evenodd"/></g></g></g></svg>