<svg xmlns="http://www.w3.org/2000/svg" xmlns:xlink="http://www.w3.org/1999/xlink" width="50.98" height="76.02" viewBox="0 0 50.98 76.02"><defs><linearGradient id="未命名的渐变_486" x1="2590.55" y1="1213.2" x2="2590.05" y2="1213.2" gradientTransform="matrix(82.5, 0, 0, -118.6, -213675.09, 143931.79)" gradientUnits="userSpaceOnUse"><stop offset="0" stop-color="#9d938d"/><stop offset="0.03" stop-color="#e5dbd5"/><stop offset="0.08" stop-color="#ccc0b8"/><stop offset="0.64" stop-color="#c9bdb5"/><stop offset="0.95" stop-color="#c4b9b1"/><stop offset="1" stop-color="#918983"/></linearGradient><linearGradient id="未命名的渐变_494" x1="2070.25" y1="1225.16" x2="2070.25" y2="1224.66" gradientTransform="matrix(6, 0, 0, -37.9, -12419.99, 46433.62)" gradientUnits="userSpaceOnUse"><stop offset="0" stop-color="#b2a89e"/><stop offset="0.15" stop-color="#e9ded2"/><stop offset="0.25" stop-color="#f3ede6"/><stop offset="0.52" stop-color="#cbc0b5"/><stop offset="0.69" stop-color="#b5aba1"/><stop offset="0.8" stop-color="#aaa198"/><stop offset="0.97" stop-color="#a1988f"/><stop offset="1" stop-color="#b9afa5"/></linearGradient><linearGradient id="未命名的渐变_494-2" x1="2283.89" y1="1278.74" x2="2283.89" y2="1278.24" gradientTransform="matrix(9.7, 0, 0, -9.4, -22148.26, 12027.26)" xlink:href="#未命名的渐变_494"/><linearGradient id="未命名的渐变_494-3" x1="2583.64" y1="1258.23" x2="2583.64" y2="1257.73" gradientTransform="matrix(71, 0, 0, -13.2, -183412.56, 16614.74)" xlink:href="#未命名的渐变_494"/><linearGradient id="未命名的渐变_494-4" x1="2279.73" y1="1278.74" x2="2279.73" y2="1278.24" gradientTransform="matrix(9.7, 0, 0, -9.4, -22067.65, 12027.26)" xlink:href="#未命名的渐变_494"/><linearGradient id="未命名的渐变_494-5" x1="2103.9" y1="1276.77" x2="2103.4" y2="1276.77" gradientTransform="matrix(6.4, 0, 0, -9.7, -13451.18, 12398.9)" xlink:href="#未命名的渐变_494"/><linearGradient id="未命名的渐变_494-6" x1="2099.72" y1="1276.77" x2="2099.22" y2="1276.77" gradientTransform="matrix(6.4, 0, 0, -9.7, -13397.71, 12398.93)" xlink:href="#未命名的渐变_494"/><linearGradient id="未命名的渐变_494-7" x1="2101.9" y1="1276.77" x2="2101.4" y2="1276.77" gradientTransform="matrix(6.4, 0, 0, -9.7, -13425.59, 12398.9)" xlink:href="#未命名的渐变_494"/><linearGradient id="未命名的渐变_497" x1="2479.37" y1="1237.11" x2="2479.37" y2="1236.61" gradientTransform="matrix(22.3, 0, 0, -22.5, -55265.02, 27835.45)" gradientUnits="userSpaceOnUse"><stop offset="0" stop-color="#a18f7d"/><stop offset="0.15" stop-color="#d6c1ab"/><stop offset="0.25" stop-color="#e8ddd3"/><stop offset="0.52" stop-color="#b8a48f"/><stop offset="0.69" stop-color="#a4927f"/><stop offset="0.8" stop-color="#9b8977"/><stop offset="0.97" stop-color="#928170"/><stop offset="1" stop-color="#a89582"/></linearGradient><linearGradient id="未命名的渐变_496" x1="-745.96" y1="1870.17" x2="-752.96" y2="1858.67" gradientTransform="matrix(1, 0, 0, -1, 774.45, 1870.39)" gradientUnits="userSpaceOnUse"><stop offset="0" stop-color="#e9ded2"/><stop offset="0.45" stop-color="#f3ede6"/><stop offset="1" stop-color="#b5aba1"/></linearGradient><linearGradient id="未命名的渐变_494-8" x1="2062.25" y1="1225.16" x2="2062.25" y2="1224.66" gradientTransform="matrix(6, 0, 0, -37.9, -12324.04, 46433.62)" xlink:href="#未命名的渐变_494"/></defs><title>group321</title><g id="图层_2" data-name="图层 2"><g id="传感器"><g id="group321"><path id="shape322" d="M4.25,16.73H45.5V76H4.25Z" style="fill-rule:evenodd;fill:url(#未命名的渐变_486)"/><path id="shape323" d="M1,0H2.1A.91.91,0,0,1,3,1V18a.94.94,0,0,1-.9.95H1A1,1,0,0,1,0,18V1A.92.92,0,0,1,1,0Z" style="fill-rule:evenodd;fill:url(#未命名的渐变_494)"/><path id="shape324" d="M3,7.13H7.87v4.7H3Z" style="fill-rule:evenodd;fill:url(#未命名的渐变_494-2)"/><path id="shape325" d="M7.86,6.17h35.5v6.6H7.86Z" style="fill-rule:evenodd;fill:url(#未命名的渐变_494-3)"/><path id="shape326" d="M43.33,7.13h4.85v4.7H43.33Z" style="fill-rule:evenodd;fill:url(#未命名的渐变_494-4)"/><path id="shape327" d="M10.58,11.79h3.2v4.85h-3.2Z" style="fill-rule:evenodd;fill:url(#未命名的渐变_494-5)"/><path id="shape328" d="M37.32,11.81h3.2v4.85h-3.2Z" style="fill-rule:evenodd;fill:url(#未命名的渐变_494-6)"/><path id="shape329" d="M23.38,11.79h3.2v4.85h-3.2Z" style="fill-rule:evenodd;fill:url(#未命名的渐变_494-7)"/><path id="shape330" d="M17.35,37h15V55.8h-15Z" style="fill:#fff;fill-opacity:0.370000004768372;fill-rule:evenodd"/><path id="shape331" d="M19.3,6.12a5.58,5.58,0,1,1,5.6,5.65A5.59,5.59,0,0,1,19.3,6.12Z" style="fill-rule:evenodd;fill:url(#未命名的渐变_497)"/><path id="shape332" d="M20,6.16a4.9,4.9,0,1,1,4.9,4.91A4.92,4.92,0,0,1,20,6.16Z" style="fill-rule:evenodd;fill:url(#未命名的渐变_496)"/><path id="shape333" d="M22.75,3.05H27A1,1,0,0,1,28,4V8.3a.94.94,0,0,1-.95.9H22.75a.91.91,0,0,1-.95-.9V4A.92.92,0,0,1,22.75,3.05Z" style="fill-rule:evenodd"/><path id="shape334" d="M48.93,0h1.15A.91.91,0,0,1,51,1V18a.94.94,0,0,1-.9.95H48.93A1,1,0,0,1,48,18V1A.92.92,0,0,1,48.93,0Z" style="fill-rule:evenodd;fill:url(#未命名的渐变_494-8)"/><path id="shape335" d="M22.21,6.11a2.67,2.67,0,0,1,2.65-2.65,2.64,2.64,0,0,1,2.65,2.65,2.65,2.65,0,0,1-2.65,2.7A2.68,2.68,0,0,1,22.21,6.11Z" style="fill:#3e3938;fill-rule:evenodd"/></g></g></g></svg>