<svg xmlns="http://www.w3.org/2000/svg" xmlns:xlink="http://www.w3.org/1999/xlink" width="50" height="76.01" viewBox="0 0 50 76.01"><defs><linearGradient id="未命名的渐变_484" x1="2232.34" y1="1088.2" x2="2232.34" y2="1087.7" gradientTransform="matrix(5.4, 0, 0, -58.3, -12053.28, 63488.19)" gradientUnits="userSpaceOnUse"><stop offset="0" stop-color="#bac0c1"/><stop offset="0.15" stop-color="#f4fafc"/><stop offset="0.25" stop-color="#f8fcfd"/><stop offset="0.52" stop-color="#d5dbdd"/><stop offset="0.69" stop-color="#bdc3c4"/><stop offset="0.8" stop-color="#b3b8b9"/><stop offset="0.97" stop-color="#a9aeaf"/><stop offset="1" stop-color="#c2c7c9"/></linearGradient><linearGradient id="未命名的渐变_484-2" x1="2223.58" y1="1088.2" x2="2223.58" y2="1087.7" gradientTransform="matrix(5.4, 0, 0, -58.3, -11958.67, 63488.19)" xlink:href="#未命名的渐变_484"/><linearGradient id="未命名的渐变_484-3" x1="2376.37" y1="1096.66" x2="2376.37" y2="1096.16" gradientTransform="matrix(7.4, 0, 0, -30.9, -17580.65, 33939.69)" xlink:href="#未命名的渐变_484"/><linearGradient id="未命名的渐变_484-4" x1="2370.83" y1="1096.66" x2="2370.83" y2="1096.16" gradientTransform="matrix(7.4, 0, 0, -30.9, -17498.66, 33939.69)" xlink:href="#未命名的渐变_484"/><linearGradient id="未命名的渐变_484-5" x1="1640.75" y1="1089.4" x2="1640.75" y2="1088.9" gradientTransform="matrix(2.6, 0, 0, -51.8, -4223, 56478.51)" xlink:href="#未命名的渐变_484"/><linearGradient id="未命名的渐变_484-6" x1="2724.88" y1="1087.72" x2="2724.88" y2="1087.22" gradientTransform="matrix(69.4, 0, 0, -61.4, -189081.93, 66831.27)" xlink:href="#未命名的渐变_484"/><linearGradient id="未命名的渐变_516" x1="-160.29" y1="1087.72" x2="-160.29" y2="1087.22" gradientTransform="matrix(1, 0, 0, -61.4, 202.59, 66831.27)" gradientUnits="userSpaceOnUse"><stop offset="0" stop-color="#a2a7a8"/><stop offset="0.15" stop-color="#d7dcde"/><stop offset="0.25" stop-color="#e9eced"/><stop offset="0.52" stop-color="#b9bfc0"/><stop offset="0.69" stop-color="#a5aaab"/><stop offset="0.8" stop-color="#9ba0a1"/><stop offset="0.97" stop-color="#939798"/><stop offset="1" stop-color="#a9aeaf"/></linearGradient><linearGradient id="未命名的渐变_484-7" x1="2581.72" y1="1096.06" x2="2581.22" y2="1096.06" gradientTransform="matrix(15.7, 0, 0, -30.3, -40504.11, 33249.74)" xlink:href="#未命名的渐变_484"/><linearGradient id="未命名的渐变_484-8" x1="2710.56" y1="1180.02" x2="2710.06" y2="1180.02" gradientTransform="matrix(51.5, 0, 0, -5.2, -139556.02, 6169.05)" xlink:href="#未命名的渐变_484"/><linearGradient id="未命名的渐变_484-9" x1="1654.6" y1="1089.4" x2="1654.6" y2="1088.9" gradientTransform="matrix(2.6, 0, 0, -51.8, -4295.01, 56478.51)" xlink:href="#未命名的渐变_484"/><linearGradient id="未命名的渐变_516-2" x1="-125.88" y1="1087.72" x2="-125.88" y2="1087.22" gradientTransform="matrix(1, 0, 0, -61.4, 133.76, 66831.27)" xlink:href="#未命名的渐变_516"/><linearGradient id="未命名的渐变_515" x1="2711.6" y1="1101.66" x2="2711.6" y2="1101.16" gradientTransform="matrix(52.7, 0, 0, -24.5, -142876.18, 27052.53)" gradientUnits="userSpaceOnUse"><stop offset="0" stop-color="#f2f9fb"/><stop offset="0.52" stop-color="#d5dbdd"/><stop offset="1" stop-color="#bdc3c4"/></linearGradient><linearGradient id="未命名的渐变_484-10" x1="2710.56" y1="1179.49" x2="2710.06" y2="1179.49" gradientTransform="matrix(51.5, 0, 0, -5.2, -139556.02, 6163.53)" xlink:href="#未命名的渐变_484"/><linearGradient id="未命名的渐变_484-11" x1="2422.2" y1="1138.99" x2="2422.2" y2="1138.49" gradientTransform="matrix(8.4, 0, 0, -8.4, -20336.59, 9576.72)" xlink:href="#未命名的渐变_484"/><linearGradient id="未命名的渐变_484-12" x1="2422.2" y1="1139.82" x2="2422.2" y2="1139.32" gradientTransform="matrix(8.4, 0, 0, -8.4, -20336.59, 9590.73)" xlink:href="#未命名的渐变_484"/><linearGradient id="未命名的渐变_484-13" x1="2715.74" y1="1087.33" x2="2715.24" y2="1087.33" gradientTransform="matrix(56.7, 0, 0, -57.2, -153943.4, 62210.29)" xlink:href="#未命名的渐变_484"/></defs><title>group204</title><g id="图层_2" data-name="图层 2"><g id="传感器"><g id="group204"><path id="shape205" d="M.65,46.09H2a.68.68,0,0,1,.7.7V74.54a.72.72,0,0,1-.7.7H.65a.71.71,0,0,1-.65-.7V46.79A.67.67,0,0,1,.65,46.09Z" style="fill-rule:evenodd;fill:url(#未命名的渐变_484)"/><path id="shape206" d="M48,46.09H49.3a.68.68,0,0,1,.7.7V74.54a.72.72,0,0,1-.7.7H48a.71.71,0,0,1-.65-.7V46.79A.67.67,0,0,1,48,46.09Z" style="fill-rule:evenodd;fill:url(#未命名的渐变_484-2)"/><path id="shape207" d="M6.33,52.94H2.63V68.39h3.7Z" style="fill-rule:evenodd;fill:url(#未命名的渐变_484-3)"/><path id="shape208" d="M43.62,52.94h3.7V68.39h-3.7Z" style="fill-rule:evenodd;fill:url(#未命名的渐变_484-4)"/><path id="shape209" d="M43.6,47.72H42.3V73.61h1.3Z" style="fill-rule:evenodd;fill:url(#未命名的渐变_484-5)"/><path id="shape210" d="M7.66,45.31h34.7V76H7.66Z" style="fill-rule:evenodd;fill:url(#未命名的渐变_484-6)"/><path id="shape211" d="M42.05,45.31h.5V76h-.5Z" style="fill-rule:evenodd;fill:url(#未命名的渐变_516)"/><path id="shape212" d="M28.94,31.64H21.09V45.39s.1,1.4,4,1.4,3.85-1.4,3.85-1.4Z" style="fill-rule:evenodd;fill:url(#未命名的渐变_484-7)"/><path id="shape213" d="M12.77,31.65H37.22a.67.67,0,0,1,.65.7v1.2a.67.67,0,0,1-.65.7H12.77a.67.67,0,0,1-.65-.7v-1.2A.67.67,0,0,1,12.77,31.65Z" style="fill-rule:evenodd;fill:url(#未命名的渐变_484-8)"/><path id="shape214" d="M7.6,47.72H6.3V73.61H7.6Z" style="fill-rule:evenodd;fill:url(#未命名的渐变_484-9)"/><path id="shape215" d="M7.64,45.31h.5V76h-.5Z" style="fill-rule:evenodd;fill:url(#未命名的渐变_516-2)"/><path id="shape216" d="M11.83,61.88H38.18V74.13H11.83Z" style="fill-rule:evenodd;fill:url(#未命名的渐变_515)"/><path id="shape217" d="M13.57,70.12v-4.2h10.7l1.6,1.6h8.3v-1.6l2.3,2.1-2.3,2.1V68.47l-8.3,0-1.7,1.6Z" style="fill-opacity:0.629999995231628;fill-rule:evenodd"/><path id="shape218" d="M12.77,28.89H37.22a.67.67,0,0,1,.65.7v1.2a.67.67,0,0,1-.65.7H12.77a.67.67,0,0,1-.65-.7v-1.2A.67.67,0,0,1,12.77,28.89Z" style="fill-rule:evenodd;fill:url(#未命名的渐变_484-10)"/><path id="shape219" d="M8.46,9.22H12v4.2H8.46a.66.66,0,0,1-.65-.65V9.92A.67.67,0,0,1,8.46,9.22Z" style="fill-rule:evenodd;fill:url(#未命名的渐变_484-11)"/><path id="shape220" d="M8.46,16.23H12v4.2H8.46a.66.66,0,0,1-.65-.65V16.93A.67.67,0,0,1,8.46,16.23Z" style="fill-rule:evenodd;fill:url(#未命名的渐变_484-12)"/><path id="shape221" d="M10.31,14.85A14.7,14.7,0,1,1,25,29.65,14.79,14.79,0,0,1,10.31,14.85Z" style="fill:#90999c;fill-rule:evenodd"/><path id="shape222" d="M10.84,14.84A14.18,14.18,0,1,1,25,29.14,14.23,14.23,0,0,1,10.84,14.84Z" style="fill-rule:evenodd;fill:url(#未命名的渐变_484-13)"/><path id="shape223" d="M15.45,14.84A9.56,9.56,0,1,1,25,24.45,9.6,9.6,0,0,1,15.45,14.84Z" style="fill-rule:evenodd"/><path id="shape224" d="M16.09,15.47a8.93,8.93,0,1,1,8.9,9A9,9,0,0,1,16.09,15.47Z" style="fill:#0e0d0d;fill-rule:evenodd"/><path id="shape225" d="M19.71,10.49H29.76v10.1h-10Z" style="fill:#27342c;fill-rule:evenodd"/><path id="shape226" d="M20.15,10.94H29.3v9.2H20.15Z" style="fill:#4c5444;fill-rule:evenodd"/><path id="shape227" d="M18.39,8a9.42,9.42,0,0,1,13.5,0c3.75,3.75-.55.5-6.9,6.45-5.1,5.15-2.9,10.9-6.6,7.15A9.63,9.63,0,0,1,18.39,8Z" style="fill:#fff;fill-opacity:0.219999998807907;fill-rule:evenodd"/></g></g></g></svg>