<svg xmlns="http://www.w3.org/2000/svg" xmlns:xlink="http://www.w3.org/1999/xlink" width="59" height="43" viewBox="0 0 59 43"><defs><linearGradient id="未命名的渐变_457" x1="2181.98" y1="1072.91" x2="2181.48" y2="1072.91" gradientTransform="matrix(109.5, 0, 0, -85.3, -238872.06, 91540.86)" gradientUnits="userSpaceOnUse"><stop offset="0" stop-color="#92a6ae"/><stop offset="0.02" stop-color="#daeff8"/><stop offset="0.02" stop-color="#bed8e3"/><stop offset="0.64" stop-color="#bbd5df"/><stop offset="0.95" stop-color="#b7d0da"/><stop offset="1" stop-color="#879aa2"/></linearGradient><linearGradient id="未命名的渐变_455" x1="2183.57" y1="1073.09" x2="2183.57" y2="1072.59" gradientTransform="matrix(118, 0, 0, -86, -257631.41, 92285.88)" gradientUnits="userSpaceOnUse"><stop offset="0" stop-color="#a8a8a8"/><stop offset="0.03" stop-color="#f2f2f2"/><stop offset="0.08" stop-color="#dbdbdb"/><stop offset="0.64" stop-color="#d8d8d8"/><stop offset="0.95" stop-color="#d3d3d3"/><stop offset="1" stop-color="#9c9c9c"/></linearGradient></defs><title>group551</title><g id="图层_2" data-name="图层 2"><g id="传感器"><g id="group551"><path id="shape552" d="M3.22.19h48.7c1.7,0,3,1,3,2.2V40.64c0,1.2-1.35,2.2-3,2.2H3.22c-1.65,0-3-1-3-2.2V2.39C.22,1.19,1.57.19,3.22.19Z" style="fill-rule:evenodd;fill:url(#未命名的渐变_457)"/><path id="shape553" d="M.25,0h58.5A.27.27,0,0,1,59,.25v42.5a.27.27,0,0,1-.25.25H.25A.24.24,0,0,1,0,42.75V.25A.24.24,0,0,1,.25,0Z" style="fill-rule:evenodd;fill:url(#未命名的渐变_455)"/><path id="shape554" d="M2.77,2.54H56.22v38H2.77Z" style="fill-rule:evenodd"/><path id="shape555" d="M12.75,6.24H46.2a.91.91,0,0,1,.95.9V30a.92.92,0,0,1-.95.91H12.75a.9.9,0,0,1-.9-.91V7.14A.9.9,0,0,1,12.75,6.24Z" style="fill:#717070;fill-rule:evenodd"/><g id="group556"><path id="shape557" d="M14.6,9H44.4v16.3H14.6Z" style="fill:#595757;stroke:#595757;stroke-width:0.5px;fill-rule:evenodd"/><path id="shape558" d="M15.37,9.68H43.62v15H15.37Z" style="stroke:#000;stroke-width:0.5px;fill-rule:evenodd"/></g><path id="shape559" d="M36.87,9.69h6.75v15H15.37Z" style="fill:#fff;fill-opacity:0.330000013113022;fill-rule:evenodd"/></g></g></g></svg>