<svg xmlns="http://www.w3.org/2000/svg" xmlns:xlink="http://www.w3.org/1999/xlink" width="76" height="69.98" viewBox="0 0 76 69.98"><defs><linearGradient id="未命名的渐变_523" x1="2861.32" y1="1097.36" x2="2860.82" y2="1097.36" gradientTransform="matrix(51.3, 0, 0, -6.6, -146734.65, 7264.85)" gradientUnits="userSpaceOnUse"><stop offset="0" stop-color="#21313a"/><stop offset="0.15" stop-color="#546068"/><stop offset="0.25" stop-color="#6e777c"/><stop offset="0.52" stop-color="#293c46"/><stop offset="0.69" stop-color="#23343d"/><stop offset="0.8" stop-color="#203139"/><stop offset="0.97" stop-color="#1e2e35"/><stop offset="1" stop-color="#24363f"/></linearGradient><linearGradient id="未命名的渐变_502" x1="2881.45" y1="1081.48" x2="2880.95" y2="1081.48" gradientTransform="matrix(75.4, 0, 0, -44.3, -217204.24, 47920.6)" gradientUnits="userSpaceOnUse"><stop offset="0" stop-color="#182830"/><stop offset="0.03" stop-color="#808689"/><stop offset="0.08" stop-color="#233742"/><stop offset="0.64" stop-color="#223640"/><stop offset="0.95" stop-color="#21353f"/><stop offset="1" stop-color="#16252c"/></linearGradient><linearGradient id="未命名的渐变_522" x1="2860.7" y1="1084.07" x2="2860.2" y2="1084.07" gradientTransform="matrix(50.8, 0, 0, -22, -145272.62, 23862.07)" gradientUnits="userSpaceOnUse"><stop offset="0.03" stop-color="#fad682"/><stop offset="0.08" stop-color="#e5ba2c"/><stop offset="0.64" stop-color="#e2b72b"/><stop offset="0.95" stop-color="#ddb32a"/></linearGradient><linearGradient id="未命名的渐变_521" x1="2799.06" y1="1086.14" x2="2798.56" y2="1086.14" gradientTransform="matrix(25.8, 0, 0, -17.8, -72171.43, 19361.34)" gradientUnits="userSpaceOnUse"><stop offset="0" stop-color="#354953"/><stop offset="0.15" stop-color="#647681"/><stop offset="0.25" stop-color="#79868e"/><stop offset="0.52" stop-color="#415763"/><stop offset="0.69" stop-color="#384d57"/><stop offset="0.8" stop-color="#354852"/><stop offset="1" stop-color="#222b31"/></linearGradient><linearGradient id="未命名的渐变_518" x1="2846.63" y1="1084.29" x2="2846.13" y2="1084.29" gradientTransform="matrix(41.6, 0, 0, -27.1, -118371.4, 29428.53)" gradientUnits="userSpaceOnUse"><stop offset="0" stop-color="#bc9c53"/><stop offset="0.15" stop-color="#fed681"/><stop offset="0.25" stop-color="#fed889"/><stop offset="0.52" stop-color="#deb863"/><stop offset="0.69" stop-color="#c6a457"/><stop offset="0.8" stop-color="#bb9b52"/><stop offset="1" stop-color="#6f5b2e"/></linearGradient><linearGradient id="未命名的渐变_518-2" x1="2902.79" y1="1083.83" x2="2902.79" y2="1083.33" gradientTransform="matrix(152, 0, 0, -34.6, -441186.39, 37551.83)" xlink:href="#未命名的渐变_518"/><linearGradient id="未命名的渐变_518-3" x1="2886.74" y1="1083.15" x2="2886.74" y2="1082.65" gradientTransform="matrix(86.6, 0, 0, -40.7, -249953.57, 44133.69)" xlink:href="#未命名的渐变_518"/><linearGradient id="未命名的渐变_520" x1="2862.99" y1="1091.89" x2="2862.49" y2="1091.89" gradientTransform="matrix(52.7, 0, 0, -10.4, -150828.33, 11390.8)" gradientUnits="userSpaceOnUse"><stop offset="0" stop-color="#252d32"/><stop offset="0.15" stop-color="#565c61"/><stop offset="0.25" stop-color="#666b6e"/><stop offset="0.52" stop-color="#2d373d"/><stop offset="0.69" stop-color="#273035"/><stop offset="0.8" stop-color="#242c32"/><stop offset="1" stop-color="#11161a"/></linearGradient><linearGradient id="未命名的渐变_519" x1="600.47" y1="1083.83" x2="600.47" y2="1083.33" gradientTransform="matrix(1.4, 0, 0, -34.6, -780.7, 37551.83)" gradientUnits="userSpaceOnUse"><stop offset="0" stop-color="#9e873a"/><stop offset="0.15" stop-color="#d9bc68"/><stop offset="0.25" stop-color="#dbc074"/><stop offset="0.52" stop-color="#bba046"/><stop offset="0.69" stop-color="#a68e3d"/><stop offset="0.8" stop-color="#9d8639"/><stop offset="1" stop-color="#5c4e1e"/></linearGradient><linearGradient id="未命名的渐变_519-2" x1="631.85" y1="1083.83" x2="631.85" y2="1083.33" gradientTransform="matrix(1.4, 0, 0, -34.6, -868.57, 37551.83)" xlink:href="#未命名的渐变_519"/><linearGradient id="未命名的渐变_518-4" x1="642.27" y1="1083.38" x2="641.77" y2="1083.38" gradientTransform="matrix(1.4, 0, 0, -36.2, -897.04, 39278.2)" xlink:href="#未命名的渐变_518"/><linearGradient id="未命名的渐变_518-5" x1="640.56" y1="1083.38" x2="640.06" y2="1083.38" gradientTransform="matrix(1.4, 0, 0, -36.2, -892.25, 39278.2)" xlink:href="#未命名的渐变_518"/><linearGradient id="未命名的渐变_518-6" x1="638.95" y1="1083.38" x2="638.45" y2="1083.38" gradientTransform="matrix(1.4, 0, 0, -36.2, -887.73, 39278.2)" xlink:href="#未命名的渐变_518"/><linearGradient id="未命名的渐变_518-7" x1="637.28" y1="1083.38" x2="636.78" y2="1083.38" gradientTransform="matrix(1.4, 0, 0, -36.2, -883.07, 39278.2)" xlink:href="#未命名的渐变_518"/><linearGradient id="未命名的渐变_518-8" x1="635.62" y1="1083.38" x2="635.12" y2="1083.38" gradientTransform="matrix(1.4, 0, 0, -36.2, -878.41, 39278.2)" xlink:href="#未命名的渐变_518"/><linearGradient id="未命名的渐变_518-9" x1="597.02" y1="1083.38" x2="596.52" y2="1083.38" gradientTransform="matrix(1.4, 0, 0, -36.2, -770.35, 39278.2)" xlink:href="#未命名的渐变_518"/><linearGradient id="未命名的渐变_518-10" x1="595.31" y1="1083.38" x2="594.81" y2="1083.38" gradientTransform="matrix(1.4, 0, 0, -36.2, -765.56, 39278.2)" xlink:href="#未命名的渐变_518"/><linearGradient id="未命名的渐变_518-11" x1="593.7" y1="1083.38" x2="593.2" y2="1083.38" gradientTransform="matrix(1.4, 0, 0, -36.2, -761.04, 39278.2)" xlink:href="#未命名的渐变_518"/><linearGradient id="未命名的渐变_518-12" x1="592.04" y1="1083.38" x2="591.54" y2="1083.38" gradientTransform="matrix(1.4, 0, 0, -36.2, -756.38, 39278.2)" xlink:href="#未命名的渐变_518"/><linearGradient id="未命名的渐变_518-13" x1="590.37" y1="1083.38" x2="589.87" y2="1083.38" gradientTransform="matrix(1.4, 0, 0, -36.2, -751.72, 39278.2)" xlink:href="#未命名的渐变_518"/></defs><title>group29</title><g id="图层_2" data-name="图层 2"><g id="传感器"><g id="group29"><path id="shape30" d="M25.18,20.59H50.83v3.3H25.18Z" style="fill-rule:evenodd;fill:url(#未命名的渐变_523)"/><path id="shape31" d="M19.16,0h37.7V22.15H19.16Z" style="fill-rule:evenodd;fill:url(#未命名的渐变_502)"/><path id="shape32" d="M22.91,1.68H53.06a.62.62,0,0,1,.65.6V19.83a.66.66,0,0,1-.65.65H22.91a.65.65,0,0,1-.6-.65V2.28A.61.61,0,0,1,22.91,1.68Z" style="fill:#8c959b;fill-rule:evenodd"/><path id="shape33" d="M25.31,7.1h25.4v11H25.31Z" style="fill-rule:evenodd;fill:url(#未命名的渐变_522)"/><path id="shape34" d="M27.29,9.24h21.4a.58.58,0,0,1,.6.6v5.5a.58.58,0,0,1-.6.6H27.29a.61.61,0,0,1-.6-.6V9.84A.61.61,0,0,1,27.29,9.24Z" style="fill:#dcdcdd;fill-rule:evenodd"/><path id="shape35" d="M31.54,23.67h12.9v8.9H31.54Z" style="fill-rule:evenodd;fill:url(#未命名的渐变_521)"/><path id="shape36" d="M27.59,37.62h20.8V51.17H27.59Z" style="fill-rule:evenodd;fill:url(#未命名的渐变_518)"/><path id="shape37" d="M0,51.17H76v17.3H0Z" style="fill-rule:evenodd;fill:url(#未命名的渐变_518-2)"/><path id="shape38" d="M16.36,49.63h43.3V70H16.36Z" style="fill-rule:evenodd;fill:url(#未命名的渐变_518-3)"/><path id="shape39" d="M25.43,32.53H50.58a.61.61,0,0,1,.6.6v4a.65.65,0,0,1-.6.6H25.43a.61.61,0,0,1-.6-.6v-4A.58.58,0,0,1,25.43,32.53Z" style="fill-rule:evenodd;fill:url(#未命名的渐变_520)"/><path id="shape40" d="M59.61,51.17h.7v17.3h-.7Z" style="fill-rule:evenodd;fill:url(#未命名的渐变_519)"/><path id="shape41" d="M15.68,51.17h.7v17.3h-.7Z" style="fill-rule:evenodd;fill:url(#未命名的渐变_519-2)"/><g id="group42"><path id="shape43" d="M1.44,50.76h.7v18.1h-.7Z" style="fill-rule:evenodd;fill:url(#未命名的渐变_518-4)"/><path id="shape44" d="M3.84,50.76h.7v18.1h-.7Z" style="fill-rule:evenodd;fill:url(#未命名的渐变_518-5)"/><path id="shape45" d="M6.1,50.76h.7v18.1H6.1Z" style="fill-rule:evenodd;fill:url(#未命名的渐变_518-6)"/><path id="shape46" d="M8.43,50.76h.7v18.1h-.7Z" style="fill-rule:evenodd;fill:url(#未命名的渐变_518-7)"/><path id="shape47" d="M10.75,50.76h.7v18.1h-.7Z" style="fill-rule:evenodd;fill:url(#未命名的渐变_518-8)"/></g><g id="group48"><path id="shape49" d="M64.79,50.76h.7v18.1h-.7Z" style="fill-rule:evenodd;fill:url(#未命名的渐变_518-9)"/><path id="shape50" d="M67.18,50.76h.7v18.1h-.7Z" style="fill-rule:evenodd;fill:url(#未命名的渐变_518-10)"/><path id="shape51" d="M69.44,50.76h.7v18.1h-.7Z" style="fill-rule:evenodd;fill:url(#未命名的渐变_518-11)"/><path id="shape52" d="M71.77,50.76h.7v18.1h-.7Z" style="fill-rule:evenodd;fill:url(#未命名的渐变_518-12)"/><path id="shape53" d="M74.1,50.76h.7v18.1h-.7Z" style="fill-rule:evenodd;fill:url(#未命名的渐变_518-13)"/></g></g></g></g></svg>