<svg xmlns="http://www.w3.org/2000/svg" xmlns:xlink="http://www.w3.org/1999/xlink" width="50" height="76" viewBox="0 0 50 76"><defs><linearGradient id="未命名的渐变_491" x1="2347.95" y1="1248.44" x2="2347.45" y2="1248.44" gradientTransform="matrix(12.6, 0, 0, -3.3, -29574.04, 4190.76)" gradientUnits="userSpaceOnUse"><stop offset="0" stop-color="#947a66"/><stop offset="0.15" stop-color="#c6a992"/><stop offset="0.25" stop-color="#e0d2c9"/><stop offset="0.52" stop-color="#a98c75"/><stop offset="0.69" stop-color="#977c68"/><stop offset="0.8" stop-color="#8e7562"/><stop offset="0.97" stop-color="#866e5c"/><stop offset="1" stop-color="#9a7f6a"/></linearGradient><linearGradient id="未命名的渐变_492" x1="2347.95" y1="1705.76" x2="2347.45" y2="1705.76" gradientTransform="matrix(12.6, 0, 0, -0.9, -29574.04, 1606.71)" gradientUnits="userSpaceOnUse"><stop offset="0" stop-color="#866850"/><stop offset="0.15" stop-color="#b6957a"/><stop offset="0.25" stop-color="#d8cac0"/><stop offset="0.52" stop-color="#9a785c"/><stop offset="0.69" stop-color="#886a51"/><stop offset="0.8" stop-color="#80644c"/><stop offset="0.97" stop-color="#795e47"/><stop offset="1" stop-color="#8c6d53"/></linearGradient><linearGradient id="未命名的渐变_491-2" x1="2374.25" y1="1230.36" x2="2373.75" y2="1230.36" gradientTransform="matrix(13.9, 0, 0, -3.7, -32991.61, 4624.84)" xlink:href="#未命名的渐变_491"/><linearGradient id="未命名的渐变_492-2" x1="2374.25" y1="1786.5" x2="2373.75" y2="1786.5" gradientTransform="matrix(13.9, 0, 0, -0.8, -32991.61, 1502.46)" xlink:href="#未命名的渐变_492"/><linearGradient id="未命名的渐变_491-3" x1="2374.25" y1="1216.02" x2="2373.75" y2="1216.02" gradientTransform="matrix(13.9, 0, 0, -4.1, -32991.61, 5060.65)" xlink:href="#未命名的渐变_491"/><linearGradient id="未命名的渐变_492-3" x1="2374.25" y1="1593.76" x2="2373.75" y2="1593.76" gradientTransform="matrix(13.9, 0, 0, -1.1, -32991.62, 1827.16)" xlink:href="#未命名的渐变_492"/><linearGradient id="未命名的渐变_491-4" x1="2396.05" y1="1593.42" x2="2395.55" y2="1593.42" gradientTransform="matrix(15.2, 0, 0, -1.1, -36409.13, 1826.42)" xlink:href="#未命名的渐变_491"/><linearGradient id="未命名的渐变_491-5" x1="2347.01" y1="1248.44" x2="2346.51" y2="1248.44" gradientTransform="matrix(12.6, 0, 0, -3.3, -29550.31, 4190.76)" xlink:href="#未命名的渐变_491"/><linearGradient id="未命名的渐变_492-4" x1="2347.01" y1="1705.76" x2="2346.51" y2="1705.76" gradientTransform="matrix(12.6, 0, 0, -0.9, -29550.31, 1606.71)" xlink:href="#未命名的渐变_492"/><linearGradient id="未命名的渐变_491-6" x1="2373.4" y1="1230.36" x2="2372.9" y2="1230.36" gradientTransform="matrix(13.9, 0, 0, -3.7, -32967.88, 4624.84)" xlink:href="#未命名的渐变_491"/><linearGradient id="未命名的渐变_492-5" x1="2373.4" y1="1786.5" x2="2372.9" y2="1786.5" gradientTransform="matrix(13.9, 0, 0, -0.8, -32967.88, 1502.46)" xlink:href="#未命名的渐变_492"/><linearGradient id="未命名的渐变_491-7" x1="2373.4" y1="1216.02" x2="2372.9" y2="1216.02" gradientTransform="matrix(13.9, 0, 0, -4.1, -32967.88, 5060.65)" xlink:href="#未命名的渐变_491"/><linearGradient id="未命名的渐变_492-6" x1="2373.4" y1="1593.76" x2="2372.9" y2="1593.76" gradientTransform="matrix(13.9, 0, 0, -1.1, -32967.89, 1827.16)" xlink:href="#未命名的渐变_492"/><linearGradient id="未命名的渐变_491-8" x1="2395.27" y1="1593.42" x2="2394.77" y2="1593.42" gradientTransform="matrix(15.2, 0, 0, -1.1, -36385.4, 1826.42)" xlink:href="#未命名的渐变_491"/><linearGradient id="未命名的渐变_491-9" x1="2346.07" y1="1248.44" x2="2345.57" y2="1248.44" gradientTransform="matrix(12.6, 0, 0, -3.3, -29526.58, 4190.76)" xlink:href="#未命名的渐变_491"/><linearGradient id="未命名的渐变_492-7" x1="2346.07" y1="1705.76" x2="2345.57" y2="1705.76" gradientTransform="matrix(12.6, 0, 0, -0.9, -29526.58, 1606.71)" xlink:href="#未命名的渐变_492"/><linearGradient id="未命名的渐变_491-10" x1="2372.54" y1="1230.36" x2="2372.04" y2="1230.36" gradientTransform="matrix(13.9, 0, 0, -3.7, -32944.15, 4624.84)" xlink:href="#未命名的渐变_491"/><linearGradient id="未命名的渐变_492-8" x1="2372.54" y1="1786.5" x2="2372.04" y2="1786.5" gradientTransform="matrix(13.9, 0, 0, -0.8, -32944.15, 1502.46)" xlink:href="#未命名的渐变_492"/><linearGradient id="未命名的渐变_491-11" x1="2372.54" y1="1216.02" x2="2372.04" y2="1216.02" gradientTransform="matrix(13.9, 0, 0, -4.1, -32944.15, 5060.65)" xlink:href="#未命名的渐变_491"/><linearGradient id="未命名的渐变_492-9" x1="2372.54" y1="1593.76" x2="2372.04" y2="1593.76" gradientTransform="matrix(13.9, 0, 0, -1.1, -32944.16, 1827.16)" xlink:href="#未命名的渐变_492"/><linearGradient id="未命名的渐变_491-12" x1="2394.49" y1="1593.42" x2="2393.99" y2="1593.42" gradientTransform="matrix(15.2, 0, 0, -1.1, -36361.67, 1826.42)" xlink:href="#未命名的渐变_491"/><linearGradient id="未命名的渐变_491-13" x1="2345.13" y1="1248.44" x2="2344.63" y2="1248.44" gradientTransform="matrix(12.6, 0, 0, -3.3, -29502.85, 4190.76)" xlink:href="#未命名的渐变_491"/><linearGradient id="未命名的渐变_492-10" x1="2345.13" y1="1705.76" x2="2344.63" y2="1705.76" gradientTransform="matrix(12.6, 0, 0, -0.9, -29502.85, 1606.71)" xlink:href="#未命名的渐变_492"/><linearGradient id="未命名的渐变_491-14" x1="2371.69" y1="1230.36" x2="2371.19" y2="1230.36" gradientTransform="matrix(13.9, 0, 0, -3.7, -32920.42, 4624.84)" xlink:href="#未命名的渐变_491"/><linearGradient id="未命名的渐变_492-11" x1="2371.69" y1="1786.5" x2="2371.19" y2="1786.5" gradientTransform="matrix(13.9, 0, 0, -0.8, -32920.42, 1502.46)" xlink:href="#未命名的渐变_492"/><linearGradient id="未命名的渐变_491-15" x1="2371.69" y1="1216.02" x2="2371.19" y2="1216.02" gradientTransform="matrix(13.9, 0, 0, -4.1, -32920.42, 5060.65)" xlink:href="#未命名的渐变_491"/><linearGradient id="未命名的渐变_492-12" x1="2371.69" y1="1593.76" x2="2371.19" y2="1593.76" gradientTransform="matrix(13.9, 0, 0, -1.1, -32920.43, 1827.16)" xlink:href="#未命名的渐变_492"/><linearGradient id="未命名的渐变_491-16" x1="2393.71" y1="1593.42" x2="2393.21" y2="1593.42" gradientTransform="matrix(15.2, 0, 0, -1.1, -36337.94, 1826.42)" xlink:href="#未命名的渐变_491"/><linearGradient id="未命名的渐变_490" x1="2593.53" y1="1082.69" x2="2593.03" y2="1082.69" gradientTransform="matrix(100, 0, 0, -94.2, -259302.78, 102013.29)" gradientUnits="userSpaceOnUse"><stop offset="0" stop-color="#9a7f6a"/><stop offset="0.03" stop-color="#e2c7b3"/><stop offset="0.08" stop-color="#c9a68c"/><stop offset="0.64" stop-color="#c5a489"/><stop offset="0.95" stop-color="#c1a086"/><stop offset="1" stop-color="#8f7662"/></linearGradient><linearGradient id="未命名的渐变_490-2" x1="2593.53" y1="1089.24" x2="2593.03" y2="1089.24" gradientTransform="matrix(100, 0, 0, -45.9, -259302.78, 50054.8)" xlink:href="#未命名的渐变_490"/><linearGradient id="未命名的渐变_488" x1="-905.27" y1="1617.94" x2="-908.77" y2="1619.44" gradientTransform="matrix(1, 0, 0, -1, 909.04, 1668)" gradientUnits="userSpaceOnUse"><stop offset="0" stop-color="#d6c8be"/><stop offset="0.52" stop-color="#957253"/><stop offset="0.69" stop-color="#846549"/><stop offset="0.8" stop-color="#7d5f44"/><stop offset="0.97" stop-color="#755940"/><stop offset="1" stop-color="#88674b"/></linearGradient><linearGradient id="未命名的渐变_488-2" x1="-905.27" y1="1636.91" x2="-908.77" y2="1638.41" gradientTransform="matrix(1, 0, 0, -1, 909.04, 1705.93)" xlink:href="#未命名的渐变_488"/><linearGradient id="未命名的渐变_488-3" x1="-950.99" y1="1636.91" x2="-954.49" y2="1638.41" gradientTransform="matrix(1, 0, 0, -1, 1000.48, 1705.93)" xlink:href="#未命名的渐变_488"/><linearGradient id="未命名的渐变_488-4" x1="-950.99" y1="1617.94" x2="-954.49" y2="1619.44" gradientTransform="matrix(1, 0, 0, -1, 1000.48, 1668)" xlink:href="#未命名的渐变_488"/><linearGradient id="未命名的渐变_488-5" x1="-950.98" y1="1613.49" x2="-954.48" y2="1614.99" gradientTransform="matrix(1, 0, 0, -1, 1000.46, 1659.09)" xlink:href="#未命名的渐变_488"/><linearGradient id="未命名的渐变_488-6" x1="-905.26" y1="1613.49" x2="-908.76" y2="1614.99" gradientTransform="matrix(1, 0, 0, -1, 909.02, 1659.09)" xlink:href="#未命名的渐变_488"/><linearGradient id="未命名的渐变_488-7" x1="-950.98" y1="1570.66" x2="-954.48" y2="1572.16" gradientTransform="matrix(1, 0, 0, -1, 1000.46, 1573.43)" xlink:href="#未命名的渐变_488"/><linearGradient id="未命名的渐变_488-8" x1="-905.26" y1="1570.66" x2="-908.76" y2="1572.16" gradientTransform="matrix(1, 0, 0, -1, 909.02, 1573.43)" xlink:href="#未命名的渐变_488"/><linearGradient id="未命名的渐变_487" x1="2572.34" y1="1085.56" x2="2571.84" y2="1085.56" gradientTransform="matrix(62.7, 0, 0, -61.9, -161245.31, 67219.79)" gradientUnits="userSpaceOnUse"><stop offset="0" stop-color="#967b66"/><stop offset="0.03" stop-color="#ddc3af"/><stop offset="0.08" stop-color="#c3a186"/><stop offset="0.64" stop-color="#c09e84"/><stop offset="0.95" stop-color="#bc9b81"/><stop offset="1" stop-color="#8b725e"/></linearGradient></defs><title>group352</title><g id="图层_2" data-name="图层 2"><g id="传感器"><g id="group352"><g id="group353"><path id="shape354" d="M3.88,70.09h6.3v1.65H3.88Z" style="fill-rule:evenodd;fill:url(#未命名的渐变_491)"/><path id="shape355" d="M3.88,71.3h6.3v.45H3.88Z" style="fill-rule:evenodd;fill:url(#未命名的渐变_492)"/><path id="shape356" d="M3.54,71.59h7v1.85H3.54Z" style="fill-rule:evenodd;fill:url(#未命名的渐变_491-2)"/><path id="shape357" d="M3.54,73.06h7v.4H3.54Z" style="fill-rule:evenodd;fill:url(#未命名的渐变_492-2)"/><path id="shape358" d="M3.54,74h7V75.1s-.2.9-3.5.9-3.45-.9-3.45-.9Z" style="fill-rule:evenodd;fill:url(#未命名的渐变_491-3)"/><path id="shape359" d="M3.54,73.76h6.94v.55H3.54Z" style="fill-rule:evenodd;fill:url(#未命名的渐变_492-3)"/><path id="shape360" d="M3.23,73.39h7.6v.55H3.23Z" style="fill-rule:evenodd;fill:url(#未命名的渐变_491-4)"/></g><g id="group361"><path id="shape362" d="M15.74,70.09H22v1.65h-6.3Z" style="fill-rule:evenodd;fill:url(#未命名的渐变_491-5)"/><path id="shape363" d="M15.74,71.3H22v.45h-6.3Z" style="fill-rule:evenodd;fill:url(#未命名的渐变_492-4)"/><path id="shape364" d="M15.41,71.59h7v1.85H15.41Z" style="fill-rule:evenodd;fill:url(#未命名的渐变_491-6)"/><path id="shape365" d="M15.41,73.06h7v.4H15.41Z" style="fill-rule:evenodd;fill:url(#未命名的渐变_492-5)"/><path id="shape366" d="M15.41,74h7V75.1s-.2.9-3.5.9-3.45-.9-3.45-.9Z" style="fill-rule:evenodd;fill:url(#未命名的渐变_491-7)"/><path id="shape367" d="M15.4,73.76h7v.55h-7Z" style="fill-rule:evenodd;fill:url(#未命名的渐变_492-6)"/><path id="shape368" d="M15.1,73.39h7.6v.55H15.1Z" style="fill-rule:evenodd;fill:url(#未命名的渐变_491-8)"/></g><g id="group369"><path id="shape370" d="M27.6,70.09h6.3v1.65H27.6Z" style="fill-rule:evenodd;fill:url(#未命名的渐变_491-9)"/><path id="shape371" d="M27.6,71.3h6.3v.45H27.6Z" style="fill-rule:evenodd;fill:url(#未命名的渐变_492-7)"/><path id="shape372" d="M27.27,71.59h7v1.85H27.27Z" style="fill-rule:evenodd;fill:url(#未命名的渐变_491-10)"/><path id="shape373" d="M27.27,73.06h7v.4H27.27Z" style="fill-rule:evenodd;fill:url(#未命名的渐变_492-8)"/><path id="shape374" d="M27.27,74h7V75.1s-.2.9-3.5.9-3.45-.9-3.45-.9Z" style="fill-rule:evenodd;fill:url(#未命名的渐变_491-11)"/><path id="shape375" d="M27.26,73.76h7v.55H27.26Z" style="fill-rule:evenodd;fill:url(#未命名的渐变_492-9)"/><path id="shape376" d="M27,73.39h7.6v.55H27Z" style="fill-rule:evenodd;fill:url(#未命名的渐变_491-12)"/></g><g id="group377"><path id="shape378" d="M39.47,70.09h6.3v1.65h-6.3Z" style="fill-rule:evenodd;fill:url(#未命名的渐变_491-13)"/><path id="shape379" d="M39.47,71.3h6.3v.45h-6.3Z" style="fill-rule:evenodd;fill:url(#未命名的渐变_492-10)"/><path id="shape380" d="M39.14,71.59h7v1.85h-7Z" style="fill-rule:evenodd;fill:url(#未命名的渐变_491-14)"/><path id="shape381" d="M39.14,73.06h7v.4h-7Z" style="fill-rule:evenodd;fill:url(#未命名的渐变_492-11)"/><path id="shape382" d="M39.14,74h7V75.1s-.2.9-3.5.9-3.45-.9-3.45-.9Z" style="fill-rule:evenodd;fill:url(#未命名的渐变_491-15)"/><path id="shape383" d="M39.13,73.76h6.95v.55H39.13Z" style="fill-rule:evenodd;fill:url(#未命名的渐变_492-12)"/><path id="shape384" d="M38.83,73.39h7.6v.55h-7.6Z" style="fill-rule:evenodd;fill:url(#未命名的渐变_491-16)"/></g><path id="shape385" d="M.75,0h48.5A.77.77,0,0,1,50,.75V46.3a.78.78,0,0,1-.75.8H.75A.78.78,0,0,1,0,46.3V.75A.77.77,0,0,1,.75,0Z" style="fill-rule:evenodd;fill:url(#未命名的渐变_490)"/><path id="shape386" d="M.75,47.15h48.5a.77.77,0,0,1,.75.75V69.35a.77.77,0,0,1-.75.75H.75A.77.77,0,0,1,0,69.35V47.9A.77.77,0,0,1,.75,47.15Z" style="fill-rule:evenodd;fill:url(#未命名的渐变_490-2)"/><path id="shape387" d="M10.23,53.44h29a.76.76,0,0,1,.75.75v9.75a.76.76,0,0,1-.75.75h-29a.77.77,0,0,1-.75-.75V54.19A.77.77,0,0,1,10.23,53.44Z" style="fill:#fff;fill-opacity:0.239999994635582;fill-rule:evenodd"/><path id="shape388" d="M.77,49.3A1.24,1.24,0,0,1,2,48.05a1.25,1.25,0,1,1,0,2.5A1.24,1.24,0,0,1,.77,49.3Z" style="fill-rule:evenodd;fill:url(#未命名的渐变_488)"/><path id="shape389" d="M.77,68.27A1.24,1.24,0,0,1,2,67a1.25,1.25,0,0,1,0,2.5A1.24,1.24,0,0,1,.77,68.27Z" style="fill-rule:evenodd;fill:url(#未命名的渐变_488-2)"/><path id="shape390" d="M46.49,68.27a1.25,1.25,0,1,1,1.25,1.25A1.24,1.24,0,0,1,46.49,68.27Z" style="fill-rule:evenodd;fill:url(#未命名的渐变_488-3)"/><path id="shape391" d="M46.49,49.3a1.25,1.25,0,1,1,1.25,1.25A1.24,1.24,0,0,1,46.49,49.3Z" style="fill-rule:evenodd;fill:url(#未命名的渐变_488-4)"/><g id="group392"><path id="shape393" d="M2,48.48H2a.22.22,0,0,1,.2.2v1.25a.22.22,0,0,1-.2.2H2c-.1,0-.15-.1-.15-.2V48.68C1.85,48.58,1.9,48.48,2,48.48Z" style="fill:#6b5849;fill-rule:evenodd"/><path id="shape394" d="M1.21,49.32h0c0-.1.05-.2.15-.2h1.3a.22.22,0,0,1,.2.2h0c0,.1-.11.15-.2.15H1.36A.13.13,0,0,1,1.21,49.32Z" style="fill:#6b5849;fill-rule:evenodd"/></g><g id="group395"><path id="shape396" d="M47.72,48.48h0a.22.22,0,0,1,.2.2v1.25a.22.22,0,0,1-.2.2h0c-.1,0-.15-.1-.15-.2V48.68C47.57,48.58,47.62,48.48,47.72,48.48Z" style="fill:#6b5849;fill-rule:evenodd"/><path id="shape397" d="M46.92,49.32h0c0-.1,0-.2.15-.2h1.3a.22.22,0,0,1,.2.2h0c0,.1-.1.15-.2.15h-1.3A.13.13,0,0,1,46.92,49.32Z" style="fill:#6b5849;fill-rule:evenodd"/></g><g id="group398"><path id="shape399" d="M47.72,67.45h0a.22.22,0,0,1,.2.2V68.9a.22.22,0,0,1-.2.2h0c-.1,0-.15-.1-.15-.2V67.65C47.57,67.55,47.62,67.45,47.72,67.45Z" style="fill:#6b5849;fill-rule:evenodd"/><path id="shape400" d="M46.92,68.29h0c0-.1,0-.2.15-.2h1.3a.22.22,0,0,1,.2.2h0c0,.1-.1.15-.2.15h-1.3A.13.13,0,0,1,46.92,68.29Z" style="fill:#6b5849;fill-rule:evenodd"/></g><g id="group401"><path id="shape402" d="M2,67.45H2a.22.22,0,0,1,.2.2V68.9a.22.22,0,0,1-.2.2H2c-.1,0-.15-.1-.15-.2V67.65C1.85,67.55,1.9,67.45,2,67.45Z" style="fill:#6b5849;fill-rule:evenodd"/><path id="shape403" d="M1.21,68.29h0c0-.1.05-.2.15-.2h1.3a.22.22,0,0,1,.2.2h0c0,.1-.11.15-.2.15H1.36A.13.13,0,0,1,1.21,68.29Z" style="fill:#6b5849;fill-rule:evenodd"/></g><path id="shape404" d="M46.48,44.85a1.25,1.25,0,1,1,1.25,1.25A1.24,1.24,0,0,1,46.48,44.85Z" style="fill-rule:evenodd;fill:url(#未命名的渐变_488-5)"/><g id="group405"><path id="shape406" d="M47.71,44h0a.22.22,0,0,1,.2.2v1.25a.22.22,0,0,1-.2.2h0c-.1,0-.15-.1-.15-.2V44.23C47.56,44.13,47.61,44,47.71,44Z" style="fill:#6b5849;fill-rule:evenodd"/><path id="shape407" d="M46.92,44.87h0c0-.1,0-.2.15-.2h1.3a.22.22,0,0,1,.2.2h0c0,.1-.1.15-.2.15h-1.3A.13.13,0,0,1,46.92,44.87Z" style="fill:#6b5849;fill-rule:evenodd"/></g><path id="shape408" d="M.76,44.85A1.24,1.24,0,0,1,2,43.6a1.25,1.25,0,0,1,0,2.5A1.24,1.24,0,0,1,.76,44.85Z" style="fill-rule:evenodd;fill:url(#未命名的渐变_488-6)"/><g id="group409"><path id="shape410" d="M2,44H2a.22.22,0,0,1,.2.2v1.25a.22.22,0,0,1-.2.2H2c-.1,0-.15-.1-.15-.2V44.23C1.84,44.13,1.89,44,2,44Z" style="fill:#6b5849;fill-rule:evenodd"/><path id="shape411" d="M1.2,44.87h0c0-.1.05-.2.15-.2h1.3a.22.22,0,0,1,.2.2h0c0,.1-.1.15-.2.15H1.35A.13.13,0,0,1,1.2,44.87Z" style="fill:#6b5849;fill-rule:evenodd"/></g><path id="shape412" d="M46.48,2A1.25,1.25,0,0,1,49,2a1.25,1.25,0,1,1-2.5,0Z" style="fill-rule:evenodd;fill:url(#未命名的渐变_488-7)"/><g id="group413"><path id="shape414" d="M47.71,1.2h0a.22.22,0,0,1,.2.2V2.65a.22.22,0,0,1-.2.2h0c-.1,0-.15-.1-.15-.2V1.4C47.56,1.3,47.61,1.2,47.71,1.2Z" style="fill:#6b5849;fill-rule:evenodd"/><path id="shape415" d="M46.92,2.05h0c0-.1,0-.2.15-.2h1.3a.22.22,0,0,1,.2.2h0c0,.1-.1.15-.2.15h-1.3A.13.13,0,0,1,46.92,2.05Z" style="fill:#6b5849;fill-rule:evenodd"/></g><path id="shape416" d="M.76,2A1.24,1.24,0,0,1,2,.77,1.24,1.24,0,0,1,3.26,2,1.24,1.24,0,0,1,2,3.27,1.24,1.24,0,0,1,.76,2Z" style="fill-rule:evenodd;fill:url(#未命名的渐变_488-8)"/><g id="group417"><path id="shape418" d="M2,1.2H2a.22.22,0,0,1,.2.2V2.65a.22.22,0,0,1-.2.2H2c-.1,0-.15-.1-.15-.2V1.4C1.84,1.3,1.89,1.2,2,1.2Z" style="fill:#6b5849;fill-rule:evenodd"/><path id="shape419" d="M1.2,2.05h0c0-.1.05-.2.15-.2h1.3a.22.22,0,0,1,.2.2h0c0,.1-.1.15-.2.15H1.35A.13.13,0,0,1,1.2,2.05Z" style="fill:#6b5849;fill-rule:evenodd"/></g><path id="shape420" d="M9.92,8.07H40a.63.63,0,0,1,.65.6V38.42A.63.63,0,0,1,40,39H9.92a.58.58,0,0,1-.6-.6V8.67A.58.58,0,0,1,9.92,8.07Z" style="fill-rule:evenodd;fill:url(#未命名的渐变_487)"/><path id="shape421" d="M11.41,9.71H38.26a.56.56,0,0,1,.56.55v26.5a.56.56,0,0,1-.56.55H11.41a.55.55,0,0,1-.55-.55V10.26A.55.55,0,0,1,11.41,9.71Z" style="fill:#f1ece6;fill-rule:evenodd"/><path id="shape422" d="M14.17,13h21.2a.62.62,0,0,1,.65.6V25.58a.66.66,0,0,1-.65.65H14.17a.62.62,0,0,1-.6-.65V13.63A.58.58,0,0,1,14.17,13Z" style="fill:#598294;fill-rule:evenodd"/><path id="shape423" d="M14.63,13.55h20.3a.6.6,0,0,1,.6.6v11a.6.6,0,0,1-.6.6H14.63a.58.58,0,0,1-.6-.6v-11A.58.58,0,0,1,14.63,13.55Z" style="fill:#565656;fill-rule:evenodd"/><path id="shape424" d="M13.24,30.75h3a.62.62,0,0,1,.65.61v2.49a.66.66,0,0,1-.65.65h-3a.65.65,0,0,1-.6-.65V31.36A.61.61,0,0,1,13.24,30.75Z" style="fill:#dcdcdd;fill-rule:evenodd"/><path id="shape425" d="M20.1,30.75h3a.62.62,0,0,1,.65.61v2.49a.66.66,0,0,1-.65.65h-3a.65.65,0,0,1-.6-.65V31.36A.61.61,0,0,1,20.1,30.75Z" style="fill:#dcdcdd;fill-rule:evenodd"/><path id="shape426" d="M26.43,30.75h3.05a.62.62,0,0,1,.65.61v2.49a.66.66,0,0,1-.65.65H26.43a.65.65,0,0,1-.6-.65V31.36A.61.61,0,0,1,26.43,30.75Z" style="fill:#dcdcdd;fill-rule:evenodd"/><path id="shape427" d="M33.5,30.75h3a.62.62,0,0,1,.65.61v2.49a.66.66,0,0,1-.65.65h-3a.65.65,0,0,1-.6-.65V31.36A.61.61,0,0,1,33.5,30.75Z" style="fill:#dcdcdd;fill-rule:evenodd"/><path id="shape428" d="M20.33,10.15h9V12.6h-9Z" style="fill:#888889;fill-opacity:0.25;fill-rule:evenodd"/></g></g></g></svg>