<svg xmlns="http://www.w3.org/2000/svg" xmlns:xlink="http://www.w3.org/1999/xlink" width="76.02" height="74.99" viewBox="0 0 76.02 74.99"><defs><linearGradient id="未命名的渐变_481" x1="2192.17" y1="1155.01" x2="2192.17" y2="1154.51" gradientTransform="matrix(11.4, 0, 0, -7.8, -24975.59, 9059.49)" gradientUnits="userSpaceOnUse"><stop offset="0" stop-color="#424141"/><stop offset="0.15" stop-color="#6d6c6c"/><stop offset="0.25" stop-color="#bcbcbc"/><stop offset="0.52" stop-color="#4d4b4b"/><stop offset="0.69" stop-color="#434242"/><stop offset="0.8" stop-color="#3f3e3e"/><stop offset="0.97" stop-color="#3b3a3a"/><stop offset="1" stop-color="#454444"/></linearGradient><linearGradient id="未命名的渐变_482" x1="2456.72" y1="1087.8" x2="2456.22" y2="1087.8" gradientTransform="matrix(82.1, 0, 0, -91.4, -201638.12, 99467)" gradientUnits="userSpaceOnUse"><stop offset="0" stop-color="#292525"/><stop offset="0.03" stop-color="#868584"/><stop offset="0.08" stop-color="#383433"/><stop offset="0.64" stop-color="#373332"/><stop offset="0.95" stop-color="#363130"/><stop offset="1" stop-color="#252221"/></linearGradient><linearGradient id="未命名的渐变_486" x1="2459.3" y1="1109.77" x2="2459.3" y2="1109.27" gradientTransform="matrix(87.9, 0, 0, -21.1, -216134.71, 23480.67)" gradientUnits="userSpaceOnUse"><stop offset="0" stop-color="#9d938d"/><stop offset="0.03" stop-color="#e5dbd5"/><stop offset="0.08" stop-color="#ccc0b8"/><stop offset="0.64" stop-color="#c9bdb5"/><stop offset="0.95" stop-color="#c4b9b1"/><stop offset="1" stop-color="#918983"/></linearGradient><linearGradient id="未命名的渐变_485" x1="2019.73" y1="1119.99" x2="2019.73" y2="1119.49" gradientTransform="matrix(7.3, 0, 0, -15.4, -14729.69, 17312.21)" gradientUnits="userSpaceOnUse"><stop offset="0" stop-color="#978f88"/><stop offset="0.15" stop-color="#cac0b9"/><stop offset="0.25" stop-color="#e2ddda"/><stop offset="0.52" stop-color="#ada39c"/><stop offset="0.69" stop-color="#9a918b"/><stop offset="0.8" stop-color="#918983"/><stop offset="0.97" stop-color="#89817b"/><stop offset="1" stop-color="#9d948e"/></linearGradient><linearGradient id="未命名的渐变_485-2" x1="2013.2" y1="1119.99" x2="2013.2" y2="1119.49" gradientTransform="matrix(7.3, 0, 0, -15.4, -14634.44, 17312.21)" xlink:href="#未命名的渐变_485"/><linearGradient id="未命名的渐变_484" x1="1885.65" y1="1160.06" x2="1885.65" y2="1159.56" gradientTransform="matrix(5.7, 0, 0, -7.5, -10737.17, 8766.89)" gradientUnits="userSpaceOnUse"><stop offset="0" stop-color="#bac0c1"/><stop offset="0.15" stop-color="#f4fafc"/><stop offset="0.25" stop-color="#f8fcfd"/><stop offset="0.52" stop-color="#d5dbdd"/><stop offset="0.69" stop-color="#bdc3c4"/><stop offset="0.8" stop-color="#b3b8b9"/><stop offset="0.97" stop-color="#a9aeaf"/><stop offset="1" stop-color="#c2c7c9"/></linearGradient><linearGradient id="未命名的渐变_485-3" x1="2135.39" y1="1119.99" x2="2135.39" y2="1119.49" gradientTransform="matrix(9.6, 0, 0, -15.4, -20492.49, 17312.21)" xlink:href="#未命名的渐变_485"/><linearGradient id="未命名的渐变_484-2" x1="2135.89" y1="1232.19" x2="2135.89" y2="1231.69" gradientTransform="matrix(9.6, 0, 0, -3.9, -20502.15, 4872.86)" xlink:href="#未命名的渐变_484"/><linearGradient id="未命名的渐变_484-3" x1="1876.15" y1="1160.06" x2="1876.15" y2="1159.56" gradientTransform="matrix(5.7, 0, 0, -7.5, -10628.85, 8766.89)" xlink:href="#未命名的渐变_484"/><linearGradient id="未命名的渐变_485-4" x1="2128.96" y1="1119.99" x2="2128.96" y2="1119.49" gradientTransform="matrix(9.6, 0, 0, -15.4, -20369.1, 17312.21)" xlink:href="#未命名的渐变_485"/><linearGradient id="未命名的渐变_484-4" x1="2128.47" y1="1232.19" x2="2128.47" y2="1231.69" gradientTransform="matrix(9.6, 0, 0, -3.9, -20359.71, 4872.86)" xlink:href="#未命名的渐变_484"/><linearGradient id="未命名的渐变_483" x1="-966.47" y1="1618.18" x2="-1004.47" y2="1604.68" gradientTransform="matrix(1, 0, 0, -1, 1023.71, 1628.24)" gradientUnits="userSpaceOnUse"><stop offset="0" stop-color="#292525"/><stop offset="0.07" stop-color="#868584"/><stop offset="0.13" stop-color="#383433"/><stop offset="0.64" stop-color="#373332"/><stop offset="0.95" stop-color="#363130"/><stop offset="1" stop-color="#252221"/></linearGradient><linearGradient id="未命名的渐变_482-2" x1="2451.96" y1="1100.16" x2="2451.46" y2="1100.16" gradientTransform="matrix(73.9, 0, 0, -28.4, -181142.98, 31251.74)" xlink:href="#未命名的渐变_482"/><linearGradient id="未命名的渐变_481-2" x1="1885.65" y1="1143.89" x2="1885.65" y2="1143.39" gradientTransform="matrix(5.7, 0, 0, -9.2, -10737.13, 10573.85)" xlink:href="#未命名的渐变_481"/></defs><title>group429</title><g id="图层_2" data-name="图层 2"><g id="传感器"><g id="group429"><path id="shape430" d="M18,50.38H12.3v3.9H18Z" style="fill-rule:evenodd;fill:url(#未命名的渐变_481)"/><path id="shape431" d="M18,36.41H15.27V46.66H18Z" style="fill:#595757;fill-rule:evenodd"/><path id="shape432" d="M17.6,18.8H58.65V64.5h-41Z" style="fill-rule:evenodd;fill:url(#未命名的渐变_482)"/><path id="shape433" d="M16.16,64.44h44V75H16.16Z" style="fill-rule:evenodd;fill:url(#未命名的渐变_486)"/><path id="shape434" d="M12.48,64.44h3.65v7.7H12.48Z" style="fill-rule:evenodd;fill:url(#未命名的渐变_485)"/><path id="shape435" d="M60.1,64.44h3.65v7.7H60.1Z" style="fill-rule:evenodd;fill:url(#未命名的渐变_485-2)"/><path id="shape436" d="M9.61,66.41h2.85v3.75H9.61Z" style="fill-rule:evenodd;fill:url(#未命名的渐变_484)"/><path id="shape437" d="M4.83,64.44h4.8v7.7H4.83Z" style="fill-rule:evenodd;fill:url(#未命名的渐变_485-3)"/><path id="shape438" d="M0,67.32H4.8v2H0Z" style="fill-rule:evenodd;fill:url(#未命名的渐变_484-2)"/><path id="shape439" d="M63.77,66.41h2.85v3.75H63.77Z" style="fill-rule:evenodd;fill:url(#未命名的渐变_484-3)"/><path id="shape440" d="M66.53,64.44h4.8v7.7h-4.8Z" style="fill-rule:evenodd;fill:url(#未命名的渐变_485-4)"/><path id="shape441" d="M71.22,67.32H76v2h-4.8Z" style="fill-rule:evenodd;fill:url(#未命名的渐变_484-4)"/><path id="shape442" d="M27.87,64.44H48.42V75H27.87Z" style="fill:#fff;fill-opacity:0.300000011920929;fill-rule:evenodd"/><path id="shape443" d="M19.65,14.19h36.8l2.2,4.6h-41Z" style="fill-rule:evenodd;fill:url(#未命名的渐变_483)"/><path id="shape444" d="M19.64,14.2h37V0H19.64Z" style="fill-rule:evenodd;fill:url(#未命名的渐变_482-2)"/><path id="shape445" d="M22.74,25.55H54.29a.66.66,0,0,1,.65.65V56.55a.66.66,0,0,1-.65.65H22.74a.66.66,0,0,1-.65-.65V26.2A.66.66,0,0,1,22.74,25.55Z" style="fill:#bdc1cd;fill-rule:evenodd"/><path id="shape446" d="M23.67,1.59H52.32v8.69H23.67Z" style="fill:#b4b5b5;fill-rule:evenodd"/><path id="shape447" d="M24.13,2.08H51.88V9.83H24.13Z" style="fill:#718278;fill-rule:evenodd"/><path id="shape448" d="M12.48,50H9.63v4.6h2.85Z" style="fill-rule:evenodd;fill:url(#未命名的渐变_481-2)"/><path id="shape449" d="M22.74,25.38s10.8.5,13.4,6.15,1.75,14.6,9.45,17.2,9.35,7.8,9.35,7.8a.66.66,0,0,1-.65.65H22.74a.66.66,0,0,1-.65-.65V26.18C22.09,25.83,22.39,25.38,22.74,25.38Z" style="fill:#fff;fill-opacity:0.109999999403954;fill-rule:evenodd"/><path id="shape450" d="M25.33,52.57a3.38,3.38,0,1,1,3.4,3.35A3.36,3.36,0,0,1,25.33,52.57Z" style="fill:#fff;fill-opacity:0.230000004172325;fill-rule:evenodd"/><path id="shape451" d="M27.2,46.16a1.85,1.85,0,0,1,1.85-1.85,1.81,1.81,0,0,1,1.85,1.85A1.84,1.84,0,0,1,29.05,48,1.88,1.88,0,0,1,27.2,46.16Z" style="fill:#fff;fill-opacity:0.230000004172325;fill-rule:evenodd"/><path id="shape452" d="M35.55,54.65a1.47,1.47,0,0,1,1.5-1.5,1.48,1.48,0,1,1,0,3A1.46,1.46,0,0,1,35.55,54.65Z" style="fill:#fff;fill-opacity:0.230000004172325;fill-rule:evenodd"/><path id="shape453" d="M36.26,50.4a.79.79,0,0,1,.8-.8.78.78,0,0,1,.75.8.77.77,0,0,1-.75.75A.78.78,0,0,1,36.26,50.4Z" style="fill:#fff;fill-opacity:0.230000004172325;fill-rule:evenodd"/><path id="shape454" d="M22.17,41.66a1.15,1.15,0,1,1,1.15,1.15A1.13,1.13,0,0,1,22.17,41.66Z" style="fill:#fff;fill-opacity:0.230000004172325;fill-rule:evenodd"/><path id="shape455" d="M23.67,49.2a.79.79,0,0,1,.8-.8.83.83,0,0,1,.85.8.88.88,0,0,1-.85.85A.83.83,0,0,1,23.67,49.2Z" style="fill:#fff;fill-opacity:0.230000004172325;fill-rule:evenodd"/></g></g></g></svg>