<svg xmlns="http://www.w3.org/2000/svg" xmlns:xlink="http://www.w3.org/1999/xlink" width="74" height="75.99" viewBox="0 0 74 75.99"><defs><linearGradient id="未命名的渐变_538" x1="3027.06" y1="1086.22" x2="3027.06" y2="1085.72" gradientTransform="matrix(128.4, 0, 0, -42, -388637.36, 45667.33)" gradientUnits="userSpaceOnUse"><stop offset="0" stop-color="#918884"/><stop offset="0.15" stop-color="#c9beb9"/><stop offset="0.25" stop-color="#e2dcda"/><stop offset="0.52" stop-color="#aca29c"/><stop offset="0.69" stop-color="#998f8b"/><stop offset="0.8" stop-color="#908783"/><stop offset="0.92" stop-color="#887f7b"/><stop offset="1" stop-color="#9d938e"/></linearGradient><linearGradient id="未命名的渐变_538-2" x1="2695.92" y1="1084.49" x2="2695.92" y2="1083.99" gradientTransform="matrix(9.8, 0, 0, -77.2, -26417.6, 83760.21)" xlink:href="#未命名的渐变_538"/><linearGradient id="未命名的渐变_538-3" x1="2688.87" y1="1084.49" x2="2688.87" y2="1083.99" gradientTransform="matrix(9.8, 0, 0, -77.2, -26279.39, 83760.21)" xlink:href="#未命名的渐变_538"/><linearGradient id="未命名的渐变_538-4" x1="2957.95" y1="1097.12" x2="2957.45" y2="1097.12" gradientTransform="matrix(36.7, 0, 0, -9.8, -108501.08, 10796.03)" xlink:href="#未命名的渐变_538"/><linearGradient id="未命名的渐变_538-5" x1="2964.83" y1="1133.35" x2="2964.33" y2="1133.35" gradientTransform="matrix(39.5, 0, 0, -2.8, -117054.24, 3214.46)" xlink:href="#未命名的渐变_538"/><linearGradient id="未命名的渐变_538-6" x1="2939.37" y1="1092.58" x2="2938.87" y2="1092.58" gradientTransform="matrix(30.8, 0, 0, -13.4, -90478.24, 14677.81)" xlink:href="#未命名的渐变_538"/><linearGradient id="未命名的渐变_539" x1="2846.76" y1="1128.82" x2="2846.26" y2="1128.82" gradientTransform="matrix(17.1, 0, 0, -2.9, -48628.68, 3306.68)" gradientUnits="userSpaceOnUse"><stop offset="0" stop-color="#7a6c66"/><stop offset="0.15" stop-color="#ad9c95"/><stop offset="0.25" stop-color="#d4cdca"/><stop offset="0.52" stop-color="#918079"/><stop offset="0.69" stop-color="#80716b"/><stop offset="0.8" stop-color="#796b65"/><stop offset="0.92" stop-color="#72645f"/><stop offset="1" stop-color="#83746e"/></linearGradient><linearGradient id="未命名的渐变_538-7" x1="2874.24" y1="1091.02" x2="2873.74" y2="1091.02" gradientTransform="matrix(19.7, 0, 0, -14.8, -56570.93, 16175.79)" xlink:href="#未命名的渐变_538"/><linearGradient id="未命名的渐变_538-8" x1="2992.69" y1="1090.73" x2="2992.69" y2="1090.23" gradientTransform="matrix(57.4, 0, 0, -12.7, -171733.59, 13852.25)" xlink:href="#未命名的渐变_538"/><linearGradient id="未命名的渐变_538-9" x1="1741.66" y1="1091.76" x2="1741.66" y2="1091.26" gradientTransform="matrix(2.7, 0, 0, -11.3, -4670.9, 12337.23)" xlink:href="#未命名的渐变_538"/><linearGradient id="未命名的渐变_538-10" x1="1730.52" y1="1091.76" x2="1730.52" y2="1091.26" gradientTransform="matrix(2.7, 0, 0, -11.3, -4610.78, 12337.23)" xlink:href="#未命名的渐变_538"/><linearGradient id="未命名的渐变_535" x1="-472.69" y1="1188.09" x2="-489.69" y2="1158.59" gradientTransform="matrix(1, 0, 0, -1, 527.75, 1187.25)" gradientUnits="userSpaceOnUse"><stop offset="0" stop-color="#ccc7c4"/><stop offset="0.52" stop-color="#7c6f68"/><stop offset="0.69" stop-color="#6e625c"/><stop offset="0.8" stop-color="#685c56"/><stop offset="0.92" stop-color="#625751"/><stop offset="1" stop-color="#71655e"/></linearGradient><linearGradient id="未命名的渐变_537" x1="-473.71" y1="1188.58" x2="-490.21" y2="1160.08" gradientTransform="matrix(1, 0, 0, -1, 528.59, 1188.11)" gradientUnits="userSpaceOnUse"><stop offset="0" stop-color="#e2dcda"/><stop offset="0.52" stop-color="#aca29c"/><stop offset="0.69" stop-color="#998f8b"/><stop offset="0.8" stop-color="#908783"/><stop offset="0.92" stop-color="#887f7b"/><stop offset="1" stop-color="#9d938e"/></linearGradient><linearGradient id="未命名的渐变_535-2" x1="-483.75" y1="1191.74" x2="-495.25" y2="1171.74" gradientTransform="matrix(1, 0, 0, -1, 536.05, 1195.65)" xlink:href="#未命名的渐变_535"/><linearGradient id="未命名的渐变_534" x1="-484.76" y1="1192.22" x2="-495.76" y2="1173.22" gradientTransform="matrix(1, 0, 0, -1, 536.9, 1196.51)" gradientUnits="userSpaceOnUse"><stop offset="0" stop-color="#aca29c"/><stop offset="0.69" stop-color="#998f8b"/><stop offset="0.8" stop-color="#908783"/><stop offset="0.92" stop-color="#887f7b"/><stop offset="1" stop-color="#9d938e"/></linearGradient><linearGradient id="未命名的渐变_533" x1="-499.35" y1="1202.64" x2="-500.85" y2="1200.14" gradientTransform="matrix(1, 0, 0, -1, 542.99, 1220.3)" gradientUnits="userSpaceOnUse"><stop offset="0" stop-color="#c7c2c1"/><stop offset="0.52" stop-color="#6f635d"/><stop offset="0.69" stop-color="#625752"/><stop offset="0.8" stop-color="#5c524d"/><stop offset="0.92" stop-color="#574d48"/><stop offset="1" stop-color="#655954"/></linearGradient><clipPath id="clip-path"><path id="SVGID" d="M41.94,18.86a1,1,0,0,1,1-.95,1,1,0,0,1,1,.95,1,1,0,0,1-1,1A1,1,0,0,1,41.94,18.86Z" style="fill:none"/></clipPath><linearGradient id="未命名的渐变_532" x1="2118.77" y1="1112.97" x2="2118.77" y2="1113.47" gradientTransform="matrix(3.8, 0, 0, -3.9, -8008.44, 4360.45)" gradientUnits="userSpaceOnUse"><stop offset="0" stop-color="#c3c2c1"/><stop offset="0.31" stop-color="#a9a9a8"/><stop offset="0.31" stop-color="#b3b3b2"/><stop offset="0.31" stop-color="#bebdbd"/><stop offset="1" stop-color="#d6d5d4"/></linearGradient><linearGradient id="未命名的渐变_532-2" x1="2118.42" y1="1112.97" x2="2118.42" y2="1113.47" xlink:href="#未命名的渐变_532"/><linearGradient id="未命名的渐变_532-3" x1="2119.02" y1="1113.22" x2="2118.52" y2="1113.22" xlink:href="#未命名的渐变_532"/><linearGradient id="未命名的渐变_532-4" x1="2119.02" y1="1113.57" x2="2118.52" y2="1113.57" xlink:href="#未命名的渐变_532"/><linearGradient id="未命名的渐变_533-2" x1="-503.06" y1="1202.64" x2="-504.56" y2="1200.14" gradientTransform="matrix(1, 0, 0, -1, 550.4, 1220.3)" xlink:href="#未命名的渐变_533"/><clipPath id="clip-path-3"><path id="SVGID-3" data-name="SVGID" d="M45.65,18.86a1,1,0,0,1,1-.95,1,1,0,0,1,.95.95,1,1,0,0,1-.95,1A1,1,0,0,1,45.65,18.86Z" style="fill:none"/></clipPath><linearGradient id="未命名的渐变_532-5" x1="2117.8" y1="1112.97" x2="2117.8" y2="1113.47" gradientTransform="matrix(3.8, 0, 0, -3.9, -8001.03, 4360.45)" xlink:href="#未命名的渐变_532"/><linearGradient id="未命名的渐变_532-6" x1="2117.44" y1="1112.97" x2="2117.44" y2="1113.47" gradientTransform="matrix(3.8, 0, 0, -3.9, -8001.03, 4360.45)" xlink:href="#未命名的渐变_532"/><linearGradient id="未命名的渐变_532-7" x1="2118.05" y1="1113.22" x2="2117.55" y2="1113.22" gradientTransform="matrix(3.8, 0, 0, -3.9, -8001.03, 4360.45)" xlink:href="#未命名的渐变_532"/><linearGradient id="未命名的渐变_532-8" x1="2118.05" y1="1113.57" x2="2117.55" y2="1113.57" gradientTransform="matrix(3.8, 0, 0, -3.9, -8001.03, 4360.45)" xlink:href="#未命名的渐变_532"/><linearGradient id="未命名的渐变_533-3" x1="-506.76" y1="1202.64" x2="-508.26" y2="1200.14" gradientTransform="matrix(1, 0, 0, -1, 557.8, 1220.3)" xlink:href="#未命名的渐变_533"/><clipPath id="clip-path-5"><path id="SVGID-5" data-name="SVGID" d="M49.35,18.86a1,1,0,0,1,.95-.95,1,1,0,0,1,1,.95,1,1,0,0,1-1,1A1,1,0,0,1,49.35,18.86Z" style="fill:none"/></clipPath><linearGradient id="未命名的渐变_532-9" x1="2116.82" y1="1112.97" x2="2116.82" y2="1113.47" gradientTransform="matrix(3.8, 0, 0, -3.9, -7993.63, 4360.45)" xlink:href="#未命名的渐变_532"/><linearGradient id="未命名的渐变_532-10" x1="2116.47" y1="1112.97" x2="2116.47" y2="1113.47" gradientTransform="matrix(3.8, 0, 0, -3.9, -7993.63, 4360.45)" xlink:href="#未命名的渐变_532"/><linearGradient id="未命名的渐变_532-11" x1="2117.07" y1="1113.22" x2="2116.57" y2="1113.22" gradientTransform="matrix(3.8, 0, 0, -3.9, -7993.63, 4360.45)" xlink:href="#未命名的渐变_532"/><linearGradient id="未命名的渐变_532-12" x1="2117.07" y1="1113.57" x2="2116.57" y2="1113.57" gradientTransform="matrix(3.8, 0, 0, -3.9, -7993.63, 4360.45)" xlink:href="#未命名的渐变_532"/></defs><title>group54</title><g id="图层_2" data-name="图层 2"><g id="传感器"><g id="group54"><path id="shape55" d="M4.91,46.2h64.2v21H4.91Z" style="fill-rule:evenodd;fill:url(#未命名的渐变_538)"/><path id="shape56" d="M1.3,37.39H3.6a1.32,1.32,0,0,1,1.3,1.3v36A1.32,1.32,0,0,1,3.6,76H1.3A1.32,1.32,0,0,1,0,74.69v-36A1.32,1.32,0,0,1,1.3,37.39Z" style="fill-rule:evenodd;fill:url(#未命名的渐变_538-2)"/><path id="shape57" d="M70.4,37.39h2.3a1.32,1.32,0,0,1,1.3,1.3v36A1.32,1.32,0,0,1,72.7,76H70.4a1.32,1.32,0,0,1-1.3-1.3v-36A1.32,1.32,0,0,1,70.4,37.39Z" style="fill-rule:evenodd;fill:url(#未命名的渐变_538-3)"/><path id="shape58" d="M37.42,41.78H55.77v4.9H37.42Z" style="fill-rule:evenodd;fill:url(#未命名的渐变_538-4)"/><path id="shape59" d="M36.74,41.8H56.49V40.4H36.74Z" style="fill-rule:evenodd;fill:url(#未命名的渐变_538-5)"/><path id="shape60" d="M38.91,40.54h15.4v-6.7H38.91Z" style="fill-rule:evenodd;fill:url(#未命名的渐变_538-6)"/><path id="shape61" d="M42.33,33.82h8.55V32.37H42.33Z" style="fill-rule:evenodd;fill:url(#未命名的渐变_539)"/><path id="shape62" d="M41.69,32.35h9.85V25H41.69Z" style="fill-rule:evenodd;fill:url(#未命名的渐变_538-7)"/><g id="group63"><path id="shape64" d="M33.56,0h26.1A1.32,1.32,0,0,1,61,1.3V5.05a1.29,1.29,0,0,1-1.3,1.3H33.56a1.29,1.29,0,0,1-1.3-1.3V1.3A1.32,1.32,0,0,1,33.56,0Z" style="fill-rule:evenodd;fill:url(#未命名的渐变_538-8)"/><path id="shape65" d="M31.39.37h.4a.46.46,0,0,1,.45.5V5.52a.49.49,0,0,1-.45.5h-.4a.5.5,0,0,1-.5-.5V.87A.47.47,0,0,1,31.39.37Z" style="fill-rule:evenodd;fill:url(#未命名的渐变_538-9)"/><path id="shape66" d="M61.45.37h.4a.46.46,0,0,1,.45.5V5.52a.49.49,0,0,1-.45.5h-.4a.5.5,0,0,1-.5-.5V.87A.47.47,0,0,1,61.45.37Z" style="fill-rule:evenodd;fill:url(#未命名的渐变_538-10)"/></g><path id="shape67" d="M34.14,13.81A12.48,12.48,0,1,1,46.59,26.46,12.56,12.56,0,0,1,34.14,13.81Z" style="fill-rule:evenodd;fill:url(#未命名的渐变_535)"/><path id="shape68" d="M34.56,13.83a12.05,12.05,0,1,1,12,12.2A12.11,12.11,0,0,1,34.56,13.83Z" style="fill-rule:evenodd;fill:url(#未命名的渐变_537)"/><path id="shape69" d="M38.29,13.8a8.33,8.33,0,1,1,16.65,0,8.33,8.33,0,1,1-16.65,0Z" style="fill-rule:evenodd;fill:url(#未命名的渐变_535-2)"/><path id="shape70" d="M38.72,13.84a7.9,7.9,0,1,1,7.9,7.94A8,8,0,0,1,38.72,13.84Z" style="fill-rule:evenodd;fill:url(#未命名的渐变_534)"/><path id="shape71" d="M39.69,10.21H53.54v7.2H39.69Z" style="fill-rule:evenodd"/><path id="shape72" d="M40.08,10.57H53.13v6.5H40.08Z" style="fill:#fff;fill-opacity:0.230000004172325;fill-rule:evenodd"/><g id="group73"><g id="group74"><path id="shape75" d="M41.76,18.88a1.13,1.13,0,0,1,1.15-1.15,1.15,1.15,0,0,1,0,2.3A1.13,1.13,0,0,1,41.76,18.88Z" style="fill-rule:evenodd;fill:url(#未命名的渐变_533)"/><g id="shape76"><g style="clip-path:url(#clip-path)"><path d="M41.94,17.91h1.9v1.95Z" style="fill:url(#未命名的渐变_532);stroke:url(#未命名的渐变_532-2)"/></g><g style="clip-path:url(#clip-path)"><path d="M41.94,17.91v1.95h1.9Z" style="fill:url(#未命名的渐变_532-3);stroke:url(#未命名的渐变_532-4)"/></g></g></g><g id="group77"><path id="shape78" d="M45.47,18.88a1.13,1.13,0,0,1,1.15-1.15,1.15,1.15,0,1,1,0,2.3A1.13,1.13,0,0,1,45.47,18.88Z" style="fill-rule:evenodd;fill:url(#未命名的渐变_533-2)"/><g id="shape79"><g style="clip-path:url(#clip-path-3)"><path d="M45.65,17.91h1.9v1.95Z" style="fill:url(#未命名的渐变_532-5);stroke:url(#未命名的渐变_532-6)"/></g><g style="clip-path:url(#clip-path-3)"><path d="M45.65,17.91v1.95h1.9Z" style="fill:url(#未命名的渐变_532-7);stroke:url(#未命名的渐变_532-8)"/></g></g></g><g id="group80"><path id="shape81" d="M49.17,18.88a1.13,1.13,0,0,1,1.15-1.15,1.15,1.15,0,1,1,0,2.3A1.13,1.13,0,0,1,49.17,18.88Z" style="fill-rule:evenodd;fill:url(#未命名的渐变_533-3)"/><g id="shape82"><g style="clip-path:url(#clip-path-5)"><path d="M49.35,17.91h1.9v1.95Z" style="fill:url(#未命名的渐变_532-9);stroke:url(#未命名的渐变_532-10)"/></g><g style="clip-path:url(#clip-path-5)"><path d="M49.35,17.91v1.95h1.9Z" style="fill:url(#未命名的渐变_532-11);stroke:url(#未命名的渐变_532-12)"/></g></g></g></g><path id="shape83" d="M51.44,10.2h2.1v7.25H39.69Z" style="fill:#fff;fill-opacity:0.059999998658895;fill-rule:evenodd"/></g></g></g></svg>