<svg xmlns="http://www.w3.org/2000/svg" width="76.5" height="76.5" viewBox="0 0 76.5 76.5"><title>资源 2668</title><g id="图层_2" data-name="图层 2"><g id="安全标志"><path id="shape106" d="M3.5.25H73A3.24,3.24,0,0,1,76.25,3.5V73A3.24,3.24,0,0,1,73,76.25H3.5A3.24,3.24,0,0,1,.25,73V3.5A3.24,3.24,0,0,1,3.5.25Z" style="fill:#fff;stroke:#9e9f9f;stroke-width:0.5px;fill-rule:evenodd"/><path d="M5.31,3H71.16a2.39,2.39,0,0,1,2.4,2.35V71.2a2.38,2.38,0,0,1-2.4,2.35H5.31A2.34,2.34,0,0,1,3,71.2V5.3A2.35,2.35,0,0,1,5.31,3Z" style="fill:#e90000;fill-rule:evenodd"/><text transform="translate(16.76 10)" style="isolation:isolate;font-size:6px;fill:#fff;font-family:ArialMT, Arial">I ONG-HALRFD</text><text transform="translate(13.47 20.5)" style="isolation:isolate;font-size:6px;fill:#fff;font-family:ArialMT, Arial">FREAK<tspan x="20" y="0" style="letter-spacing:-0.01806640625em">Y</tspan><tspan x="23.9" y="0" xml:space="preserve"> PEOPLE</tspan></text><text transform="translate(22.98 36.5)" style="isolation:isolate;font-size:10px;fill:#fff;font-family:ArialMT, Arial">NEED </text><text transform="translate(27.8 54)" style="isolation:isolate;font-size:10px;fill:#fff;font-family:ArialMT, Arial">NO<tspan x="15" y="0" style="letter-spacing:-0.01806640625em">T</tspan></text><text transform="translate(22.55 71.5)" style="isolation:isolate;font-size:10px;fill:#fff;font-family:ArialMT, Arial">APP<tspan x="20.01" y="0" style="letter-spacing:-0.07421875em">L</tspan><tspan x="24.83" y="0" style="letter-spacing:-0.01806640625em">Y</tspan></text></g></g></svg>