<svg xmlns="http://www.w3.org/2000/svg" width="76.47" height="76.47" viewBox="0 0 76.47 76.47"><title>资源 2652</title><g id="图层_2" data-name="图层 2"><g id="安全标志"><path id="shape312" d="M.59,37.39,37.39.59a1.24,1.24,0,0,1,1.7,0l36.8,36.8a1.24,1.24,0,0,1,0,1.7l-36.8,36.8a1.24,1.24,0,0,1-1.7,0L.59,39.09A1.24,1.24,0,0,1,.59,37.39Z" style="fill:#ffec00;stroke:#ffec00;stroke-width:0.5px;fill-rule:evenodd"/><path id="shape313" d="M3.39,37.56,37.54,3.41a1,1,0,0,1,1.35-.05l34.2,34.2a.91.91,0,0,1,0,1.35L38.94,73.11a1.06,1.06,0,0,1-1.4,0L3.39,38.91A.91.91,0,0,1,3.39,37.56Z" style="fill-rule:evenodd"/><path d="M4.28,37.83,37.83,4.28a.68.68,0,0,1,.85,0L72.23,37.83a.86.86,0,0,1,0,.85L38.68,72.23a.86.86,0,0,1-.85,0L4.28,38.68A.68.68,0,0,1,4.28,37.83Z" style="fill:#ffec00;stroke:#ffec00;stroke-width:0.5px;fill-rule:evenodd"/><g style="isolation:isolate"><text transform="translate(17.24 42.46)" style="isolation:isolate;font-size:12px;font-family:SimHei">CAUTION</text></g></g></g></svg>