<svg xmlns="http://www.w3.org/2000/svg" width="75.97" height="75.97" viewBox="0 0 75.97 75.97"><title>group108</title><g id="图层_2" data-name="图层 2"><g id="安全标志"><g id="group108"><path id="shape109" d="M.34,37.14,37.14.34a1.24,1.24,0,0,1,1.7,0l36.8,36.8a1.24,1.24,0,0,1,0,1.7l-36.8,36.8a1.24,1.24,0,0,1-1.7,0L.34,38.84A1.24,1.24,0,0,1,.34,37.14Z" style="fill:#ec6901;fill-rule:evenodd"/><path id="shape110" d="M3.15,37.3,37.3,3.15a.91.91,0,0,1,1.35,0L72.85,37.3a1,1,0,0,1,0,1.35l-34.2,34.2a1,1,0,0,1-1.35,0L3.15,38.65A.91.91,0,0,1,3.15,37.3Z" style="fill-rule:evenodd"/><path id="shape111" d="M4,37.58,37.58,4a.68.68,0,0,1,.85,0L72,37.58a.86.86,0,0,1,0,.85L38.43,72a.86.86,0,0,1-.85,0L4,38.43A.68.68,0,0,1,4,37.58Z" style="fill:#ec6901;fill-rule:evenodd"/></g></g></g></svg>