<svg xmlns="http://www.w3.org/2000/svg" width="76.51" height="66.5" viewBox="0 0 76.51 66.5"><title>group329</title><g id="图层_2" data-name="图层 2"><g id="安全标志"><g id="group329"><path id="shape330" d="M75.81,1.25a3.37,3.37,0,0,1,.45,1.65L40.31,65a3.19,3.19,0,0,1-2.05,1.25,2.87,2.87,0,0,1-2-1L.26,3.1a3.07,3.07,0,0,1,.5-1.8,2.69,2.69,0,0,1,1.9-1H73.81A2.39,2.39,0,0,1,75.81,1.25Z" style="fill:#fff;stroke:#000;stroke-width:0.5px;fill-rule:evenodd"/><path id="shape331" d="M73.78,2.08a2.93,2.93,0,0,1,.45,1.75l-34,59s-.95,1.65-2,1.65S36.38,63,36.38,63L2.43,4a2,2,0,0,1,.1-1.8,2.9,2.9,0,0,1,2.15-.9H71.83A2.78,2.78,0,0,1,73.78,2.08Z" style="fill:#e90000;stroke:#e90000;stroke-width:0.5px;fill-rule:evenodd"/><path id="shape332" d="M62.47,8.73a1.81,1.81,0,0,1,.3,1.2L39.62,50.13s-.65,1.15-1.35,1.15c-.85,0-1.3-1-1.3-1L13.82,10.08a1.26,1.26,0,0,1,.1-1.2c.35-.65,1.45-.65,1.45-.65h45.8S62.12,8.23,62.47,8.73Z" style="fill:#fff;stroke:#e90000;stroke-width:0.5px;fill-rule:evenodd"/></g></g></g></svg>