<svg xmlns="http://www.w3.org/2000/svg" xmlns:xlink="http://www.w3.org/1999/xlink" width="62" height="76" viewBox="0 0 62 76"><defs><linearGradient id="未命名的渐变_384" x1="-566.73" y1="-392.41" x2="-634.73" y2="-410.91" gradientTransform="matrix(1, 0, 0, -1, 632.46, -362.66)" gradientUnits="userSpaceOnUse"><stop offset="0" stop-color="#a65d24"/><stop offset="0.3" stop-color="#f18f45"/><stop offset="0.35" stop-color="#f4bca3"/><stop offset="0.44" stop-color="#ed8638"/><stop offset="0.64" stop-color="#d27200"/><stop offset="1" stop-color="#bb6500"/></linearGradient><linearGradient id="未命名的渐变_380" x1="2886.53" y1="117.66" x2="2886.03" y2="117.66" gradientTransform="matrix(124, 0, 0, -7, -357868.04, 897.85)" gradientUnits="userSpaceOnUse"><stop offset="0" stop-color="#aa5b00"/><stop offset="0.01" stop-color="#f3a67c"/><stop offset="0.02" stop-color="#dd7800"/><stop offset="0.64" stop-color="#d97600"/><stop offset="0.99" stop-color="#d57300"/><stop offset="1" stop-color="#9e5400"/></linearGradient><linearGradient id="未命名的渐变_374" x1="-586.21" y1="-321" x2="-632.21" y2="-333.5" gradientTransform="matrix(1, 0, 0, -1, 640.29, -274.98)" gradientUnits="userSpaceOnUse"><stop offset="0" stop-color="#b1b1b1"/><stop offset="0.18" stop-color="#fff"/><stop offset="0.2" stop-color="#fff"/><stop offset="0.3" stop-color="#fcfcfc"/><stop offset="0.64" stop-color="#dfdfdf"/><stop offset="1" stop-color="#c7c7c7"/></linearGradient><linearGradient id="未命名的渐变_373" x1="-610.61" y1="-350.43" x2="-641.11" y2="-358.93" gradientTransform="matrix(1, 0, 0, -1, 657.09, -329.85)" gradientUnits="userSpaceOnUse"><stop offset="0" stop-color="#b1b1b1"/><stop offset="0.24" stop-color="#fff"/><stop offset="0.28" stop-color="#fff"/><stop offset="0.36" stop-color="#fcfcfc"/><stop offset="0.64" stop-color="#dfdfdf"/><stop offset="1" stop-color="#c7c7c7"/></linearGradient></defs><title>group112</title><g id="图层_2" data-name="图层 2"><g id="安全标志"><g id="group112"><path id="shape113" d="M4.48,72.45H57.53L36,0H26.33Z" style="fill-rule:evenodd;fill:url(#未命名的渐变_384)"/><path id="shape114" d="M.6,72.5H61.4a.61.61,0,0,1,.6.6v2.3a.65.65,0,0,1-.6.6H.6a.61.61,0,0,1-.6-.6V73.1A.58.58,0,0,1,.6,72.5Z" style="fill-rule:evenodd;fill:url(#未命名的渐变_380)"/><path id="shape115" d="M8.4,59.49H53.6L49.1,43.84h-36Z" style="fill-rule:evenodd;fill:url(#未命名的渐变_374)"/><path id="shape116" d="M16.8,32.06H45.4L40.8,16.41H21.35Z" style="fill-rule:evenodd;fill:url(#未命名的渐变_373)"/></g></g></g></svg>