<svg xmlns="http://www.w3.org/2000/svg" xmlns:xlink="http://www.w3.org/1999/xlink" width="89.98" height="76.7" viewBox="0 0 89.98 76.7"><defs><clipPath id="clip-path" transform="translate(0 0)"><rect id="SVGID" width="90.03" height="76.8" style="fill:none"/></clipPath></defs><title>资源 2641</title><g id="图层_2" data-name="图层 2"><g id="安全标志"><g style="clip-path:url(#clip-path)"><path d="M52.23,4.05,88.74,63.8A8.48,8.48,0,0,1,81.5,76.7h-73A8.48,8.48,0,0,1,1.24,63.8L37.76,4.06a8.48,8.48,0,0,1,14-.67ZM81.84,68,45.33,8.27l0-.08-.08-.06a.4.4,0,0,0-.55.14L8.14,68a.4.4,0,0,0,0,.41.42.42,0,0,0,.36.21h73a.39.39,0,0,0,.35-.21.4.4,0,0,0,0-.41Z" transform="translate(0 0)" style="fill:#e01313"/></g><path d="M45,24.19a5.65,5.65,0,0,1,5.63,6l-1.3,18.2a4.34,4.34,0,0,1-8.66,0l-1.3-18.2a5.65,5.65,0,0,1,5.63-6Z" transform="translate(0 0)" style="fill:#e01313"/><path d="M41,60.55a4,4,0,1,0,4-4,4,4,0,0,0-4,4Z" transform="translate(0 0)" style="fill:#e01313"/></g></g></svg>