<svg xmlns="http://www.w3.org/2000/svg" width="94.85" height="10.29" viewBox="0 0 94.85 10.29"><title>资源 2676</title><g id="图层_2" data-name="图层 2"><g id="安全标志"><g id="图层_28" data-name="图层 28"><g id="OSHA_tape_oasa胶带_" data-name="OSHA tape oasa胶带 "><rect x="0.03" y="0.03" width="4.99" height="5.3" style="fill:#e90000"/><rect x="0.03" y="5.33" width="4.99" height="4.94" style="fill:#fff"/><rect x="5.01" y="0.03" width="4.99" height="5.3" style="fill:#fff"/><rect x="5.01" y="5.33" width="4.99" height="4.94" style="fill:#e90000"/><rect x="10" y="0.03" width="4.99" height="5.3" style="fill:#e90000"/><rect x="10" y="5.33" width="4.99" height="4.94" style="fill:#fff"/><rect x="14.99" y="0.03" width="4.99" height="5.3" style="fill:#fff"/><rect x="14.99" y="5.33" width="4.99" height="4.94" style="fill:#e90000"/><rect x="19.98" y="0.03" width="4.99" height="5.3" style="fill:#e90000"/><rect x="19.98" y="5.33" width="5.37" height="4.94" style="fill:#fff"/><rect x="24.97" y="0.03" width="4.99" height="5.3" style="fill:#fff"/><rect x="24.97" y="5.33" width="4.99" height="4.94" style="fill:#e90000"/><rect x="29.96" y="0.03" width="4.99" height="5.3" style="fill:#e90000"/><rect x="29.96" y="5.33" width="4.99" height="4.94" style="fill:#fff"/><rect x="34.95" y="0.03" width="4.99" height="5.3" style="fill:#fff"/><rect x="34.95" y="5.33" width="4.99" height="4.94" style="fill:#e90000"/><rect x="39.94" y="0.03" width="4.99" height="5.3" style="fill:#e90000"/><rect x="39.94" y="5.33" width="4.99" height="4.94" style="fill:#fff"/><rect x="44.93" y="0.03" width="4.99" height="5.3" style="fill:#fff"/><rect x="44.93" y="5.33" width="4.99" height="4.94" style="fill:#e90000"/><rect x="49.92" y="0.03" width="4.99" height="5.3" style="fill:#e90000"/><rect x="49.92" y="5.33" width="4.99" height="4.94" style="fill:#fff"/><rect x="54.91" y="0.03" width="4.99" height="5.3" style="fill:#fff"/><rect x="54.91" y="5.33" width="4.99" height="4.94" style="fill:#e90000"/><rect x="59.9" y="0.03" width="4.99" height="5.3" style="fill:#e90000"/><rect x="59.9" y="5.33" width="4.99" height="4.94" style="fill:#fff"/><rect x="64.89" y="0.03" width="4.99" height="5.3" style="fill:#fff"/><rect x="64.89" y="5.33" width="4.99" height="4.94" style="fill:#e90000"/><rect x="69.88" y="0.03" width="4.99" height="5.3" style="fill:#e90000"/><rect x="69.88" y="5.33" width="4.99" height="4.94" style="fill:#fff"/><rect x="74.87" y="0.03" width="4.99" height="5.3" style="fill:#fff"/><rect x="74.87" y="5.33" width="4.99" height="4.94" style="fill:#e90000"/><rect x="79.86" y="0.03" width="4.99" height="5.3" style="fill:#e90000"/><rect x="79.86" y="5.33" width="4.99" height="4.94" style="fill:#fff"/><rect x="84.84" y="0.03" width="4.99" height="5.3" style="fill:#fff"/><rect x="84.84" y="5.33" width="4.99" height="4.94" style="fill:#e90000"/><rect x="89.84" y="0.03" width="4.99" height="5.3" style="fill:#e90000"/><rect x="89.84" y="5.33" width="4.99" height="4.94" style="fill:#fff"/><rect x="0.03" y="0.03" width="94.8" height="10.24" style="fill:none;stroke:#e2e2e2;stroke-miterlimit:10;stroke-width:0.050000000745058px"/></g></g></g></g></svg>