<svg xmlns="http://www.w3.org/2000/svg" width="85.51" height="64.47" viewBox="0 0 85.51 64.47"><title>资源 2673</title><g id="图层_2" data-name="图层 2"><g id="安全标志"><g id="图层_28" data-name="图层 28"><g id="White_danger_sign_白色危险标志_" data-name="White danger sign 白色危险标志 "><rect x="0.06" y="0.06" width="85.38" height="64.34" style="fill:#fff;stroke:#000;stroke-miterlimit:10;stroke-width:0.125px"/><rect x="2.11" y="2.28" width="80.54" height="24.65" style="fill:#ffec00"/><rect x="4.22" y="4.76" width="76.31" height="19.12" rx="1.83" style="fill:#e90000;stroke:#fff;stroke-miterlimit:10;stroke-width:0.125px"/><path d="M29.33,14.32a3,3,0,0,1-1,2.53,3.94,3.94,0,0,1-2.55.78H24.17V11h1.65a3.82,3.82,0,0,1,2.63.77A3.32,3.32,0,0,1,29.33,14.32Zm-1.14,0a2.81,2.81,0,0,0-.57-2,2.37,2.37,0,0,0-1.75-.57h-.53v5.15h.53a2.4,2.4,0,0,0,1.75-.57,2.68,2.68,0,0,0,.54-2Z" style="fill:#fff"/><path d="M35.85,17.63H34.68l-.69-2H31.86l-.68,2H30l2.39-6.72h1Zm-2.1-2.79L33,12.46h-.1l-.77,2.36Z" style="fill:#fff"/><path d="M41.63,17.63H40.4l-2.67-4.8h0v4.8H36.54V11h1.24l2.68,4.8h0V11h1.14Z" style="fill:#fff"/><path d="M47.85,17.69H47l-.14-.55a1.42,1.42,0,0,1-.61.39,2.62,2.62,0,0,1-2.73-.6,3.24,3.24,0,0,1-.79-2.42,4.15,4.15,0,0,1,.73-2.71,2.44,2.44,0,0,1,2-.89,2.27,2.27,0,0,1,1.76.66,2.33,2.33,0,0,1,.63,1.7H46.78a1.91,1.91,0,0,0-.34-1.22,1.15,1.15,0,0,0-1-.4,1.27,1.27,0,0,0-1.17.63,4.45,4.45,0,0,0-.39,2.15,3,3,0,0,0,.48,2,1.46,1.46,0,0,0,1.13.54,1.34,1.34,0,0,0,1-.37,1.61,1.61,0,0,0,.36-1.14V15H45.37v-.74h2.48Z" style="fill:#fff"/><path d="M54.17,17.63h-5V11h4.72v.73h-3.6v2h3.31v.74H50.33v2.36h3.84Z" style="fill:#fff"/><path d="M60.59,17.63H59.45L57.7,14.79H56.41v2.84H55.27V11H57.7a3.6,3.6,0,0,1,1.9.44,1.59,1.59,0,0,1,.72,1.46,1.46,1.46,0,0,1-.49,1.19,2.14,2.14,0,0,1-1.13.57Zm-1.36-4.72a1,1,0,0,0-.41-.85,2.34,2.34,0,0,0-1.34-.32H56.41V14h1.36a2,2,0,0,0,1-.25.94.94,0,0,0,.44-.88Z" style="fill:#fff"/></g></g></g></g></svg>