<svg xmlns="http://www.w3.org/2000/svg" width="89.71" height="60.09" viewBox="0 0 89.71 60.09"><title>资源 2675</title><g id="图层_2" data-name="图层 2"><g id="安全标志"><g id="图层_28" data-name="图层 28"><g id="OSHA_tape_oasa胶带_" data-name="OSHA tape oasa胶带 "><rect width="89.71" height="60.09" style="fill:#f08300"/><rect x="1.22" y="2.28" width="87.26" height="18" style="fill:none;stroke:#000;stroke-miterlimit:10;stroke-width:0.125px"/><path d="M30.33,7.87l-1,5.89h-.9L27.6,9.39h-.09l-.82,4.37h-.92l-1-5.86h1l.5,3.69h.09l.69-3.69h1l.69,3.69h.09l.48-3.72Z"/><path d="M36.17,13.66H35.08l-.64-1.79h-2l-.64,1.79H30.7L33,7.77h.91Zm-2-2.44-.72-2.06H33.4l-.75,2.06Z"/><path d="M41.86,13.66H40.78l-1.65-2.51H37.94v2.51h-1V7.87h2.28A3.58,3.58,0,0,1,41,8.26a1.35,1.35,0,0,1,.69,1.27,1.29,1.29,0,0,1-.46,1.05,2.14,2.14,0,0,1-1.05.47ZM40.59,9.53a.9.9,0,0,0-.39-.75A2.29,2.29,0,0,0,39,8.51H38v2h1.27a2,2,0,0,0,1-.22.78.78,0,0,0,.41-.76Z"/><path d="M47.43,13.66H46.29L43.78,9.47h0v4.19H42.69V7.87h1.14l2.51,4.19h0V7.87h1Z"/><path d="M51.43,13.66h-1V7.87h1Z"/><path d="M59.11,13.66H58L55.46,9.47h-.05v4.19h-1V7.87H55.5L58,12.06h0V7.87h1.06Z"/><path d="M64.94,13.76h-.77L64,13.28a1.21,1.21,0,0,1-.6.34,2.69,2.69,0,0,1-.84.14,2.58,2.58,0,0,1-1.71-.66A2.69,2.69,0,0,1,60.12,11a3.6,3.6,0,0,1,.69-2.39,2.36,2.36,0,0,1,1.87-.78,2.27,2.27,0,0,1,1.64.6,2,2,0,0,1,.59,1.49h-1a1.56,1.56,0,0,0-.32-1.07,1.16,1.16,0,0,0-.91-.36,1.22,1.22,0,0,0-1.1.56,3.6,3.6,0,0,0-.36,1.88,2.47,2.47,0,0,0,.45,1.73,1.46,1.46,0,0,0,1.06.48,1.16,1.16,0,0,0,1.27-1,1.31,1.31,0,0,0,0-.28v-.43H62.62v-.59h2.32Z"/></g></g></g></g></svg>