<svg xmlns="http://www.w3.org/2000/svg" width="73.21" height="75.13" viewBox="0 0 73.21 75.13"><title>资源 2674</title><g id="图层_2" data-name="图层 2"><g id="安全标志"><g id="图层_28" data-name="图层 28"><g id="Stop_sign_停车标志_" data-name="Stop sign 停车标志 "><polygon points="51.74 0.06 21.47 0.06 0.06 22.03 0.06 53.09 21.47 75.06 51.74 75.06 73.15 53.09 73.15 22.03 51.74 0.06" style="fill:#fff;stroke:#000;stroke-miterlimit:10;stroke-width:0.125px"/><polygon points="50.6 2.88 22.61 2.88 2.81 23.2 2.81 51.93 22.61 72.24 50.6 72.24 70.4 51.93 70.4 23.2 50.6 2.88" style="fill:#e90000"/><path d="M24.08,40.52a3.58,3.58,0,0,1-1.3,2.89,5.52,5.52,0,0,1-3.55,1.09,5.09,5.09,0,0,1-3.5-1.11,3.47,3.47,0,0,1-1.26-2.76v-.58h2.06v.5a2.18,2.18,0,0,0,.81,1.81,2.94,2.94,0,0,0,1.89.64,2.91,2.91,0,0,0,2.11-.68A2.19,2.19,0,0,0,22,40.68a1.92,1.92,0,0,0-.81-1.46A7.7,7.7,0,0,0,18.87,38a8.6,8.6,0,0,1-3.1-1.58,2.68,2.68,0,0,1-.94-2.05,3.22,3.22,0,0,1,1.3-2.69,4.89,4.89,0,0,1,3.1-1,4.18,4.18,0,0,1,3.37,1.23,4.08,4.08,0,0,1,1,2.62H21.56A2,2,0,0,0,21,32.92a2.28,2.28,0,0,0-1.79-.71,2.61,2.61,0,0,0-1.71.5,1.69,1.69,0,0,0-.63,1.38,1.72,1.72,0,0,0,.5,1.22A7.48,7.48,0,0,0,20,36.54,8.9,8.9,0,0,1,23,38.24,3,3,0,0,1,24.08,40.52Z" style="fill:#fff"/><path d="M35.39,32.31H31.8v12H29.73v-12H26.14v-1.5h9.25Z" style="fill:#fff"/><path d="M47.25,37.52c0,2.5-.44,4.26-1.31,5.33a4.41,4.41,0,0,1-3.63,1.65,4.55,4.55,0,0,1-3.68-1.62c-.9-1.08-1.35-2.85-1.35-5.33s.45-4.24,1.35-5.3a4.57,4.57,0,0,1,3.68-1.58,4.46,4.46,0,0,1,3.63,1.58Q47.25,33.8,47.25,37.52Zm-2.16,0c0-2.21-.27-3.66-.81-4.34a2.42,2.42,0,0,0-2-1,2.52,2.52,0,0,0-2,1c-.58.68-.86,2.13-.86,4.34s.28,3.67.86,4.38a2.46,2.46,0,0,0,2,1.07,2.41,2.41,0,0,0,2-1.07Q45.09,40.83,45.09,37.52Z" style="fill:#fff"/><path d="M58.74,34.91a3.8,3.8,0,0,1-1.26,3A5.09,5.09,0,0,1,54,39h-2.6v5.29H49.31V30.81H54a5.1,5.1,0,0,1,3.5,1.11A3.77,3.77,0,0,1,58.74,34.91Zm-2.06,0a2.31,2.31,0,0,0-.81-2,4.29,4.29,0,0,0-2.43-.55H51.38v5.21h2.06A4.38,4.38,0,0,0,55.87,37,2.33,2.33,0,0,0,56.68,34.91Z" style="fill:#fff"/></g></g></g></g></svg>