<svg xmlns="http://www.w3.org/2000/svg" xmlns:xlink="http://www.w3.org/1999/xlink" width="73.75" height="76" viewBox="0 0 73.75 76"><defs><linearGradient id="未命名的渐变_394" x1="2343.72" y1="146.03" x2="2343.22" y2="146.03" gradientTransform="matrix(17.6, 0, 0, -17.8, -41181.72, 2603.79)" gradientUnits="userSpaceOnUse"><stop offset="0" stop-color="#ffb545"/><stop offset="0.11" stop-color="#ffbc65"/><stop offset="0.52" stop-color="#df9900"/><stop offset="0.72" stop-color="#c78800"/><stop offset="0.87" stop-color="#bc8000"/><stop offset="1" stop-color="#b17800"/></linearGradient><linearGradient id="未命名的渐变_392" x1="-386.61" y1="-519.01" x2="-381.61" y2="-525.01" gradientTransform="matrix(1, 0, 0, -1, 449.34, -519.07)" gradientUnits="userSpaceOnUse"><stop offset="0" stop-color="#fff" stop-opacity="0.82"/><stop offset="0.36" stop-color="#fff" stop-opacity="0.47"/><stop offset="1" stop-color="#fff" stop-opacity="0"/></linearGradient><linearGradient id="未命名的渐变_391" x1="-387.42" y1="-518.41" x2="-382.92" y2="-523.41" gradientTransform="matrix(1, 0, 0, -1, 450.53, -518.46)" gradientUnits="userSpaceOnUse"><stop offset="0" stop-color="#fff" stop-opacity="0.86"/><stop offset="0.36" stop-color="#fff" stop-opacity="0.47"/><stop offset="1" stop-color="#fff" stop-opacity="0"/></linearGradient><linearGradient id="未命名的渐变_387" x1="-378.86" y1="-521.77" x2="-385.86" y2="-517.77" gradientTransform="matrix(1, 0, 0, -1, 444.15, -513.46)" gradientUnits="userSpaceOnUse"><stop offset="0" stop-color="#fff" stop-opacity="0.16"/><stop offset="0.44" stop-color="#fff" stop-opacity="0.09"/><stop offset="1" stop-color="#fff" stop-opacity="0.51"/></linearGradient><linearGradient id="未命名的渐变_394-2" x1="2346.83" y1="146.03" x2="2346.33" y2="146.03" gradientTransform="matrix(17.6, 0, 0, -17.8, -41290.87, 2603.79)" xlink:href="#未命名的渐变_394"/><linearGradient id="未命名的渐变_392-2" x1="-332.04" y1="-519.01" x2="-327.04" y2="-525.01" gradientTransform="matrix(1, 0, 0, -1, 340.19, -519.07)" xlink:href="#未命名的渐变_392"/><linearGradient id="未命名的渐变_391-2" x1="-332.85" y1="-518.41" x2="-328.35" y2="-523.41" gradientTransform="matrix(1, 0, 0, -1, 341.38, -518.46)" xlink:href="#未命名的渐变_391"/><linearGradient id="未命名的渐变_387-2" x1="-324.28" y1="-521.77" x2="-331.28" y2="-517.77" gradientTransform="matrix(1, 0, 0, -1, 335, -513.46)" xlink:href="#未命名的渐变_387"/><linearGradient id="未命名的渐变_386" x1="2327.29" y1="180.26" x2="2326.79" y2="180.26" gradientTransform="matrix(15.7, 0, 0, -128.3, -36525.69, 23171.6)" gradientUnits="userSpaceOnUse"><stop offset="0" stop-color="#bdaf00"/><stop offset="0.15" stop-color="#ffed45"/><stop offset="0.25" stop-color="#fff5b3"/><stop offset="0.52" stop-color="#dfcf00"/><stop offset="0.69" stop-color="#c7b800"/><stop offset="0.8" stop-color="#bcad00"/><stop offset="0.92" stop-color="#b1a400"/><stop offset="1" stop-color="#cbbc00"/></linearGradient><linearGradient id="未命名的渐变_386-2" x1="2323.81" y1="180.26" x2="2323.31" y2="180.26" gradientTransform="matrix(15.7, 0, 0, -128.3, -36416.41, 23171.6)" xlink:href="#未命名的渐变_386"/><linearGradient id="未命名的渐变_385" x1="2345.91" y1="117.82" x2="2345.41" y2="117.82" gradientTransform="matrix(17.5, 0, 0, -10.3, -41040.2, 1222.94)" gradientUnits="userSpaceOnUse"><stop offset="0" stop-color="#bda000"/><stop offset="0.15" stop-color="#ffdc45"/><stop offset="0.25" stop-color="#ffebb3"/><stop offset="0.52" stop-color="#dfbe00"/><stop offset="0.69" stop-color="#c7a900"/><stop offset="0.8" stop-color="#bc9f00"/><stop offset="0.92" stop-color="#b19600"/><stop offset="1" stop-color="#cbad00"/></linearGradient><linearGradient id="未命名的渐变_385-2" x1="2342.78" y1="117.82" x2="2342.28" y2="117.82" gradientTransform="matrix(17.5, 0, 0, -10.3, -40930.92, 1222.94)" xlink:href="#未命名的渐变_385"/></defs><title>group46</title><g id="图层_2" data-name="图层 2"><g id="安全标志"><g id="group46"><g id="group47"><path id="shape48" d="M59.33,4.45A4.13,4.13,0,0,1,63.43.3a4.34,4.34,0,0,1,1.4.25,4.08,4.08,0,0,1,2.7,3.9,4.13,4.13,0,0,1-4.1,4.15,4.06,4.06,0,0,1-3.85-2.75A4.34,4.34,0,0,1,59.33,4.45Z" style="fill:#fff;fill-opacity:0.300000011920929;fill-rule:evenodd"/><path id="shape49" d="M59,4.45a4.4,4.4,0,1,1,8.8,0,4.4,4.4,0,1,1-8.8,0Z" style="fill-rule:evenodd;fill:url(#未命名的渐变_394)"/><path id="shape50" d="M67.54,4.45A4.14,4.14,0,0,0,63.44.29,4.34,4.34,0,0,0,62,.54c-1.6.55,4.7,6.91,5.25,5.31A4.39,4.39,0,0,0,67.54,4.45Z" style="fill-rule:evenodd;fill:url(#未命名的渐变_392)"/><path id="shape51" d="M67.19,4.25A3.63,3.63,0,0,0,63.59.6a3.36,3.36,0,0,0-1.2.2C65.54,1,67,2.7,67,5.45,67,5.85,67.19,4.65,67.19,4.25Z" style="fill-rule:evenodd;fill:url(#未命名的渐变_391)"/><path id="shape52" d="M59.2,4.3a4.13,4.13,0,0,0,4.1,4.15A6.43,6.43,0,0,0,65.55,8a7.05,7.05,0,0,1-6-4.9A2.13,2.13,0,0,0,59.2,4.3Z" style="fill-rule:evenodd;fill:url(#未命名的渐变_387)"/><path id="shape53" d="M59,4.45a4.4,4.4,0,1,1,8.8,0,4.4,4.4,0,1,1-8.8,0Z" style="fill:#fff;fill-opacity:0.180000007152557;fill-rule:evenodd"/></g><g id="group54"><path id="shape55" d="M4.76,4.45A4.13,4.13,0,0,1,8.86.3a4.34,4.34,0,0,1,1.4.25A4.08,4.08,0,0,1,13,4.45,4.13,4.13,0,0,1,8.86,8.6,4.06,4.06,0,0,1,5,5.85,4.34,4.34,0,0,1,4.76,4.45Z" style="fill:#fff;fill-opacity:0.300000011920929;fill-rule:evenodd"/><path id="shape56" d="M4.46,4.45a4.4,4.4,0,1,1,8.8,0,4.4,4.4,0,1,1-8.8,0Z" style="fill-rule:evenodd;fill:url(#未命名的渐变_394-2)"/><path id="shape57" d="M13,4.45A4.14,4.14,0,0,0,8.87.29a4.34,4.34,0,0,0-1.4.25c-1.6.55,4.7,6.91,5.25,5.31A4.39,4.39,0,0,0,13,4.45Z" style="fill-rule:evenodd;fill:url(#未命名的渐变_392-2)"/><path id="shape58" d="M12.61,4.25A3.63,3.63,0,0,0,9,.6a3.36,3.36,0,0,0-1.2.2c3.15.15,4.6,1.9,4.6,4.65C12.41,5.85,12.61,4.65,12.61,4.25Z" style="fill-rule:evenodd;fill:url(#未命名的渐变_391-2)"/><path id="shape59" d="M4.62,4.3a4.13,4.13,0,0,0,4.1,4.15A6.43,6.43,0,0,0,11,8,7.05,7.05,0,0,1,4.92,3.1,2.13,2.13,0,0,0,4.62,4.3Z" style="fill-rule:evenodd;fill:url(#未命名的渐变_387-2)"/><path id="shape60" d="M4.46,4.45a4.4,4.4,0,1,1,8.8,0,4.4,4.4,0,1,1-8.8,0Z" style="fill:#fff;fill-opacity:0.180000007152557;fill-rule:evenodd"/></g><path id="shape61" d="M12.78,58.16H59.53v4.25H12.78Z" style="fill:#ffec00;stroke:#ffec00;stroke-width:0.5px;fill-rule:evenodd"/><path id="shape62" d="M4.87,11.85h7.85V76H4.87Z" style="fill-rule:evenodd;fill:url(#未命名的渐变_386)"/><path id="shape63" d="M59.51,11.85h7.85V76H59.51Z" style="fill-rule:evenodd;fill:url(#未命名的渐变_386-2)"/><path id="shape64" d="M4.42,11.93h8.75V6.78H4.42Z" style="fill-rule:evenodd;fill:url(#未命名的渐变_385)"/><path id="shape65" d="M59.06,11.93h8.75V6.78H59.06Z" style="fill-rule:evenodd;fill:url(#未命名的渐变_385-2)"/><path id="shape66" d="M.37,11.92h73v16.3H.37Z" style="fill:#ffec00;stroke:#ffec00;stroke-width:0.5px;fill-rule:evenodd"/><g id="group67"><path id="shape68" d="M7.12,11.92h4.4L4.77,28.22H.37Z" style="stroke:#000;stroke-width:0.5px;fill-rule:evenodd"/><path id="shape69" d="M17.43,11.92h4.4l-6.75,16.3h-4.4Z" style="stroke:#000;stroke-width:0.5px;fill-rule:evenodd"/><path id="shape70" d="M27.74,11.92h4.4l-6.75,16.3H21Z" style="stroke:#000;stroke-width:0.5px;fill-rule:evenodd"/><path id="shape71" d="M38.05,11.92h4.4L35.7,28.22H31.3Z" style="stroke:#000;stroke-width:0.5px;fill-rule:evenodd"/><path id="shape72" d="M48.35,11.92h4.4L46,28.22H41.6Z" style="stroke:#000;stroke-width:0.5px;fill-rule:evenodd"/><path id="shape73" d="M58.66,11.92h4.4l-6.75,16.3h-4.4Z" style="stroke:#000;stroke-width:0.5px;fill-rule:evenodd"/><path id="shape74" d="M69,11.92h4.4l-6.75,16.3h-4.4Z" style="stroke:#000;stroke-width:0.5px;fill-rule:evenodd"/></g></g></g></g></svg>