<svg xmlns="http://www.w3.org/2000/svg" width="90.62" height="27.77" viewBox="0 0 90.62 27.77"><title>资源 2659</title><g id="图层_2" data-name="图层 2"><g id="安全标志"><path id="shape288" d="M.25.25H90.37V27.52H.25Z" style="fill:#ffec00;stroke:#ffec00;stroke-width:0.5px;fill-rule:evenodd"/><path id="shape289" d="M13.2,1.94H77.41A11.32,11.32,0,0,1,88.68,13.32v1.13A11.32,11.32,0,0,1,77.41,25.83H13.2A11.32,11.32,0,0,1,1.94,14.45V13.32A11.32,11.32,0,0,1,13.2,1.94Z" style="fill:#fff;fill-rule:evenodd"/><path d="M14,3.33H76.73A10.64,10.64,0,0,1,87.4,13.89h0A10.6,10.6,0,0,1,76.73,24.44H14A10.62,10.62,0,0,1,3.21,13.89h0A10.67,10.67,0,0,1,14,3.33Z" style="fill:#e90000;fill-rule:evenodd"/><g style="isolation:isolate"><text transform="translate(25.74 18.47)" style="isolation:isolate;font-size:13.043379783630371px;fill:#fff;font-family:SimHei">DANGER</text></g></g></g></svg>