<svg xmlns="http://www.w3.org/2000/svg" width="58.67" height="90.26" viewBox="0 0 58.67 90.26"><title>资源 2677</title><g id="图层_2" data-name="图层 2"><g id="安全标志"><g id="图层_28" data-name="图层 28"><g id="Lockout_tag_锁定标签_" data-name="Lockout tag 锁定标签 "><rect width="58.67" height="89.73" rx="0.91" style="fill:#fff"/><polygon points="58.67 11.23 0 69.9 0 80.96 58.67 22.3 58.67 11.23" style="fill:#e80000"/><path d="M47,.51l-47,47V58.59L57.17,1.45A5,5,0,0,0,53.59,0H46.52Z" style="fill:#e80000"/><polygon points="36.92 89.73 58.67 67.98 58.67 56.65 25.59 89.73 36.92 89.73" style="fill:#e80000"/><path d="M13.84,0H5.07A5.07,5.07,0,0,0,0,5.07v8.77Z" style="fill:#e80000"/><polygon points="0 25.16 0 36.22 36.22 0 25.16 0 0 25.16" style="fill:#e80000"/><polygon points="58.67 44.95 58.67 34.6 2.12 90.26 13.24 90.26 58.67 44.95" style="fill:#e80000"/><rect x="4.72" y="32.72" width="49.58" height="50.87" style="fill:#fff"/><rect x="4.72" y="12.94" width="49.58" height="13.29"/><rect x="8.81" y="14.22" width="41.15" height="10.07" rx="0.9" style="fill:#e90000;stroke:#fff;stroke-miterlimit:10;stroke-width:0.125px"/><path d="M22,19.68a1.72,1.72,0,0,1-.6,1.5,2.55,2.55,0,0,1-1.59.45h-1V17.7h1a2.44,2.44,0,0,1,1.65.46A1.9,1.9,0,0,1,22,19.68Zm-.72,0a1.65,1.65,0,0,0-.37-1.21,1.53,1.53,0,0,0-1.09-.34h-.34v3.06h.34a1.59,1.59,0,0,0,1.09-.33A1.6,1.6,0,0,0,21.24,19.68Z"/><path d="M26,21.66h-.76l-.42-1.2H23.54l-.43,1.2h-.72l1.51-4h.6ZM24.73,20l-.49-1.4h-.06L23.69,20Z"/><path d="M29.64,21.66h-.75l-1.68-2.85h0v2.85h-.73v-4h.76l1.67,2.85h0V17.7h.7Z"/><path d="M33.52,21.66H33l-.09-.31a1,1,0,0,1-.38.22,1.35,1.35,0,0,1-.56.09,1.62,1.62,0,0,1-1.14-.44,1.82,1.82,0,0,1-.5-1.44,2.5,2.5,0,0,1,.45-1.61A1.57,1.57,0,0,1,32,17.64a1.5,1.5,0,0,1,1.09.39,1.32,1.32,0,0,1,.39,1h-.66a1.15,1.15,0,0,0-.21-.72.75.75,0,0,0-.61-.24.78.78,0,0,0-.72.38,2.32,2.32,0,0,0-.24,1.27,1.71,1.71,0,0,0,.3,1.18.92.92,0,0,0,.69.32.85.85,0,0,0,.61-.22.93.93,0,0,0,.22-.68v-.25H32v-.44h1.54Z"/><path d="M37.47,21.66h-3.1v-4h2.94v.43H35.07v1.21h2.07v.43H35.07v1.41h2.41Z"/><path d="M41.48,21.66h-.73l-1.09-1.73h-.79v1.73h-.7v-4h1.55a2.39,2.39,0,0,1,1.2.26.92.92,0,0,1,.45.86.86.86,0,0,1-.3.72,1.37,1.37,0,0,1-.75.32Zm-.85-2.81a.59.59,0,0,0-.26-.5,1.5,1.5,0,0,0-.83-.19h-.67v1.36h.85a1.15,1.15,0,0,0,.63-.15.55.55,0,0,0,.28-.55Z"/><polygon points="48.23 89.73 58.67 89.73 58.67 79.3 48.23 89.73" style="fill:#e80000"/></g></g></g></g></svg>