<svg xmlns="http://www.w3.org/2000/svg" xmlns:xlink="http://www.w3.org/1999/xlink" width="78.19" height="68.04" viewBox="0 0 78.19 68.04"><defs><clipPath id="clip-path" transform="translate(0 -0.02)"><rect id="SVGID" width="78.2" height="68.15" style="fill:none"/></clipPath></defs><title>资源 2642</title><g id="图层_2" data-name="图层 2"><g id="安全标志"><g style="clip-path:url(#clip-path)"><path d="M76.61,56c3.74,6.5.58,12-6.7,12H8.47C1,68.05-2.16,62.74,1.58,56L32.3,5c3.74-6.7,9.84-6.7,13.59,0Zm-40-38.24V43.91a2.45,2.45,0,1,0,4.89,0V17.8a2.45,2.45,0,0,0-4.89,0Zm0,35.9V57a2.45,2.45,0,1,0,4.89,0V53.7a2.45,2.45,0,1,0-4.89,0Z" transform="translate(0 -0.02)" style="fill:#faad14"/></g></g></g></svg>