<svg xmlns="http://www.w3.org/2000/svg" width="98.39" height="10.8" viewBox="0 0 98.39 10.8"><title>group121</title><g id="图层_2" data-name="图层 2"><g id="安全标志"><g id="group121"><path id="shape122" d="M98.14,10.55H.25V.25H98.14Z" style="fill:#fff;stroke:#000;stroke-width:0.5px;fill-rule:evenodd"/><g id="group123"><path id="shape124" d="M.33,5.36H5.49v5H.33Z" style="fill:#fff;stroke:#fff;stroke-width:0.5px;fill-rule:evenodd"/><path id="shape125" d="M10.61,5.36h5.15v5H10.61Z" style="fill:#fff;stroke:#fff;stroke-width:0.5px;fill-rule:evenodd"/><path id="shape126" d="M20.79,5.36h5.15v5H20.79Z" style="fill:#fff;stroke:#fff;stroke-width:0.5px;fill-rule:evenodd"/><path id="shape127" d="M31.07,5.36h5.15v5H31.07Z" style="fill:#fff;stroke:#fff;stroke-width:0.5px;fill-rule:evenodd"/><path id="shape128" d="M41.33,5.36h5.15v5H41.33Z" style="fill:#fff;stroke:#fff;stroke-width:0.5px;fill-rule:evenodd"/><path id="shape129" d="M51.61,5.36h5.15v5H51.61Z" style="fill:#fff;stroke:#fff;stroke-width:0.5px;fill-rule:evenodd"/><path id="shape130" d="M61.79,5.36h5.15v5H61.79Z" style="fill:#fff;stroke:#fff;stroke-width:0.5px;fill-rule:evenodd"/><path id="shape131" d="M72.07,5.36h5.15v5H72.07Z" style="fill:#fff;stroke:#fff;stroke-width:0.5px;fill-rule:evenodd"/><path id="shape132" d="M92.93,5.36h5.15v5H92.93Z" style="fill:#fff;stroke:#fff;stroke-width:0.5px;fill-rule:evenodd"/><path id="shape133" d="M82.65,5.36H87.8v5H82.65Z" style="fill:#fff;stroke:#fff;stroke-width:0.5px;fill-rule:evenodd"/></g><g id="group134"><path id="shape135" d="M5.47,5.36h5.16v5H5.47Z" style="stroke:#000;stroke-width:0.5px;fill-rule:evenodd"/><path id="shape136" d="M15.75,5.36H20.9v5H15.75Z" style="stroke:#000;stroke-width:0.5px;fill-rule:evenodd"/><path id="shape137" d="M25.93,5.36h5.15v5H25.93Z" style="stroke:#000;stroke-width:0.5px;fill-rule:evenodd"/><path id="shape138" d="M36.21,5.36h5.15v5H36.21Z" style="stroke:#000;stroke-width:0.5px;fill-rule:evenodd"/><path id="shape139" d="M46.47,5.36h5.15v5H46.47Z" style="stroke:#000;stroke-width:0.5px;fill-rule:evenodd"/><path id="shape140" d="M56.75,5.36H61.9v5H56.75Z" style="stroke:#000;stroke-width:0.5px;fill-rule:evenodd"/><path id="shape141" d="M66.93,5.36h5.15v5H66.93Z" style="stroke:#000;stroke-width:0.5px;fill-rule:evenodd"/><path id="shape142" d="M77.21,5.36h5.15v5H77.21Z" style="stroke:#000;stroke-width:0.5px;fill-rule:evenodd"/><path id="shape143" d="M87.79,5.36h5.15v5H87.79Z" style="stroke:#000;stroke-width:0.5px;fill-rule:evenodd"/><path id="shape144" d="M87.79,5.36h5.15v5H87.79Z" style="stroke:#000;stroke-width:0.5px;fill-rule:evenodd"/></g><g id="group145"><path id="shape146" d="M.33.36H5.49v5H.33Z" style="stroke:#000;stroke-width:0.5px;fill-rule:evenodd"/><path id="shape147" d="M10.61.36h5.15v5H10.61Z" style="stroke:#000;stroke-width:0.5px;fill-rule:evenodd"/><path id="shape148" d="M20.79.36h5.15v5H20.79Z" style="stroke:#000;stroke-width:0.5px;fill-rule:evenodd"/><path id="shape149" d="M31.07.36h5.15v5H31.07Z" style="stroke:#000;stroke-width:0.5px;fill-rule:evenodd"/><path id="shape150" d="M41.33.36h5.15v5H41.33Z" style="stroke:#000;stroke-width:0.5px;fill-rule:evenodd"/><path id="shape151" d="M51.61.36h5.15v5H51.61Z" style="stroke:#000;stroke-width:0.5px;fill-rule:evenodd"/><path id="shape152" d="M61.79.36h5.15v5H61.79Z" style="stroke:#000;stroke-width:0.5px;fill-rule:evenodd"/><path id="shape153" d="M72.07.36h5.15v5H72.07Z" style="stroke:#000;stroke-width:0.5px;fill-rule:evenodd"/><path id="shape154" d="M92.93.36h5.15v5H92.93Z" style="stroke:#000;stroke-width:0.5px;fill-rule:evenodd"/><path id="shape155" d="M82.65.36H87.8v5H82.65Z" style="stroke:#000;stroke-width:0.5px;fill-rule:evenodd"/></g><g id="group156"><path id="shape157" d="M5.47.36h5.16v5H5.47Z" style="fill:#fff;stroke:#fff;stroke-width:0.5px;fill-rule:evenodd"/><path id="shape158" d="M15.75.36H20.9v5H15.75Z" style="fill:#fff;stroke:#fff;stroke-width:0.5px;fill-rule:evenodd"/><path id="shape159" d="M25.93.36h5.15v5H25.93Z" style="fill:#fff;stroke:#fff;stroke-width:0.5px;fill-rule:evenodd"/><path id="shape160" d="M36.21.36h5.15v5H36.21Z" style="fill:#fff;stroke:#fff;stroke-width:0.5px;fill-rule:evenodd"/><path id="shape161" d="M46.63.36h5.16v5H46.63Z" style="fill:#fff;stroke:#fff;stroke-width:0.5px;fill-rule:evenodd"/><path id="shape162" d="M56.75.36H61.9v5H56.75Z" style="fill:#fff;stroke:#fff;stroke-width:0.5px;fill-rule:evenodd"/><path id="shape163" d="M66.93.36h5.15v5H66.93Z" style="fill:#fff;stroke:#fff;stroke-width:0.5px;fill-rule:evenodd"/><path id="shape164" d="M77.21.36h5.15v5H77.21Z" style="fill:#fff;stroke:#fff;stroke-width:0.5px;fill-rule:evenodd"/><path id="shape165" d="M87.79.36h5.15v5H87.79Z" style="fill:#fff;stroke:#fff;stroke-width:0.5px;fill-rule:evenodd"/><path id="shape166" d="M87.79.36h5.15v5H87.79Z" style="fill:#fff;stroke:#fff;stroke-width:0.5px;fill-rule:evenodd"/></g></g></g></g></svg>