<svg xmlns="http://www.w3.org/2000/svg" xmlns:xlink="http://www.w3.org/1999/xlink" width="70.59" height="69.86" viewBox="0 0 70.59 69.86"><defs><clipPath id="clip-path" transform="translate(0 -0.02)"><rect id="SVGID" width="70.57" height="69.97" style="fill:none"/></clipPath></defs><title>资源 2640</title><g id="图层_2" data-name="图层 2"><g id="安全标志"><g style="clip-path:url(#clip-path)"><path d="M37.29,2.08a3.64,3.64,0,0,1,3.77,1.83L70,54.1c1.68,2.9-.43,7.11-3.78,7.59L8.14,69.85c-3.35.47-5.44-3.16-3.76-6.53L33.51,5a5.12,5.12,0,0,1,3.78-2.89Z" transform="translate(0 -0.02)" style="fill:#ff5b5b"/></g><path d="M38,2.05h.47a1.91,1.91,0,0,1,.33.06h.08l.25.08.1,0,.21.09.19.09L35.8.4,35.67.33H35.6L35.4.24,35.29.17,35.05.1H35L34.65,0h-.82l-.36,0a4,4,0,0,0-.5.1h-.09a4.43,4.43,0,0,0-.47.17l-.09,0-.15.06-.28.15-.06,0-.36.22-.06.05-.29.23L31,1.24l0,.05c-.07.06-.13.13-.2.2a1.7,1.7,0,0,0-.19.19l-.05.06L30.3,2a1.66,1.66,0,0,0-.16.21l-.05.08c-.07.09-.12.2-.19.3s-.09.13-.13.21l-.08.16L.55,61.23a5.55,5.55,0,0,0-.24.56v.05L.25,62l-.06.19a1.28,1.28,0,0,1-.07.28c0,.09,0,.11,0,.17s0,.21,0,.32a.41.41,0,0,0,0,.12,3.15,3.15,0,0,1,0,.44v.58a2.48,2.48,0,0,0,0,.27l0,.16a1.11,1.11,0,0,0,.05.25L.16,65a.57.57,0,0,0,.07.22.58.58,0,0,0,.06.17,1.19,1.19,0,0,0,.08.2l.07.16.11.19a1,1,0,0,0,.08.15l.13.19a1.13,1.13,0,0,0,.1.13,2.09,2.09,0,0,0,.14.17.69.69,0,0,0,.1.12l.17.16.11.11.2.15.1.08a2.63,2.63,0,0,0,.33.2l3.83,2.08-.33-.19-.1-.08L5.21,69l-.11-.1-.16-.16-.11-.12a2.09,2.09,0,0,1-.14-.17l-.1-.14-.12-.18L4.36,68a1.86,1.86,0,0,1-.1-.2l-.08-.16a1.19,1.19,0,0,1-.08-.2L4,67.27A.94.94,0,0,0,4,67.05l-.05-.17a1.06,1.06,0,0,0,0-.23l0-.17,0-.26v-.58a3.15,3.15,0,0,1,0-.44v-.13s0-.21.05-.31,0-.12,0-.18A2.68,2.68,0,0,1,4,64.31a.7.7,0,0,1,.06-.19,2.5,2.5,0,0,1,.09-.25,5.31,5.31,0,0,1,.23-.55L33.51,5c.07-.13.14-.26.22-.38l.18-.3L34.13,4l.17-.22.24-.25a1.88,1.88,0,0,1,.2-.2,1.51,1.51,0,0,1,.2-.17l.3-.23a4.36,4.36,0,0,1,.42-.28l.08,0,.42-.21.08,0,.47-.16h.08a4.59,4.59,0,0,1,.51-.1c.17,0,.23,0,.35,0H38Z" transform="translate(0 -0.02)" style="fill:#d83a3a"/><path d="M41.28,18.75a.54.54,0,0,1,.18,0l.09,0a.49.49,0,0,1,.17.06l.1,0L41,18.41h-.1a.49.49,0,0,0-.17-.06h-.09a.54.54,0,0,0-.18,0h-.08a1.31,1.31,0,0,0-.28,0L34.63,19l-.32.08-.09,0-.09,0-.11.06a.41.41,0,0,0-.11.07l0,0a1.16,1.16,0,0,0-.21.16l-.17.17,0,.07,0,.06-.05.06a2.72,2.72,0,0,0-.11.25c0,.09-.09.19-.13.28v.09a1.87,1.87,0,0,0-.08.34v0a2.16,2.16,0,0,0,0,.36L33.64,42a2.52,2.52,0,0,0,1.24,2.11l.87.47a2.45,2.45,0,0,1-1.23-2.1L33.8,21.68a2.16,2.16,0,0,1,0-.36v0c0-.11.05-.22.08-.33v0a3.45,3.45,0,0,1,.14-.34l.18-.27,0-.07a2.55,2.55,0,0,1,.23-.24l.25-.19.11-.06.21-.1.13,0a1.16,1.16,0,0,1,.32-.08l5.42-.77h.28Zm-.43,31.46L40,49.73l0,0a.94.94,0,0,0-.28-.1h0a2.13,2.13,0,0,0-.44-.07,9.23,9.23,0,0,0-1.89.11,10.31,10.31,0,0,0-1.89.42l-.3.12a2.37,2.37,0,0,0-.36.17l-.16.12,0,0c-.05,0-.1.1-.15.15a.1.1,0,0,0,0,0l-.11.14-.06.1,0,.06v0l0,.12-.06.14v0s0,.11,0,.17l0,.1c0,.12,0,.23-.07.35a13.7,13.7,0,0,0-.14,1.93,13,13,0,0,0,.1,1.87,1.86,1.86,0,0,0,.47,1.07,1.54,1.54,0,0,0,.29.21l.87.47a1,1,0,0,1-.29-.21,1.83,1.83,0,0,1-.47-1.07,13,13,0,0,1-.1-1.87,14.07,14.07,0,0,1,.14-1.94c0-.11,0-.23.06-.34l0-.1a1.18,1.18,0,0,1,.07-.2l.06-.14.07-.15,0-.06a1.2,1.2,0,0,1,.13-.21,1.89,1.89,0,0,1,.2-.2l.05,0,.18-.14a1.74,1.74,0,0,1,.33-.18l.31-.14a9.52,9.52,0,0,1,1.89-.41A8.57,8.57,0,0,1,40.05,50a1.62,1.62,0,0,1,.44.07h0a1.3,1.3,0,0,1,.32.14Z" transform="translate(0 -0.02)" style="fill:#ddd"/><path d="M40.92,18.75l-5.42.77a2.1,2.1,0,0,0-1.7,2.16l.72,20.79a2.34,2.34,0,0,0,2.67,2.34l2-.27a3.32,3.32,0,0,0,2.68-3.11l.79-21a1.51,1.51,0,0,0-1.69-1.69Zm.19,31.64A1.68,1.68,0,0,0,40,50a8.57,8.57,0,0,0-1.89.11,9.52,9.52,0,0,0-1.89.41,2.13,2.13,0,0,0-1.53,1.9,13.74,13.74,0,0,0-.11,1.92,13.09,13.09,0,0,0,.1,1.88,1.86,1.86,0,0,0,.47,1.07,1.69,1.69,0,0,0,1.07.42,10,10,0,0,0,1.89-.12A10.31,10.31,0,0,0,40,57.17a2.3,2.3,0,0,0,1.07-.71,2.51,2.51,0,0,0,.47-1.2,17.24,17.24,0,0,0,0-3.8,1.77,1.77,0,0,0-.47-1.07Z" transform="translate(0 -0.02)" style="fill:#fff"/></g></g></svg>