<svg xmlns="http://www.w3.org/2000/svg" width="96.83" height="10.64" viewBox="0 0 96.83 10.64"><title>group231</title><g id="图层_2" data-name="图层 2"><g id="安全标志"><g id="group231"><path id="shape232" d="M96.58,10.39H.25V.25H96.58Z" style="fill:#fff;stroke:#000;stroke-width:0.5px;fill-rule:evenodd"/><g id="group233"><path id="shape234" d="M.33,5.28H5.4v4.94H.33Z" style="fill:#ffec00;stroke:#ffec00;stroke-width:0.5px;fill-rule:evenodd"/><path id="shape235" d="M10.45,5.28h5.07v4.94H10.45Z" style="fill:#ffec00;stroke:#ffec00;stroke-width:0.5px;fill-rule:evenodd"/><path id="shape236" d="M20.46,5.28h5.07v4.94H20.46Z" style="fill:#ffec00;stroke:#ffec00;stroke-width:0.5px;fill-rule:evenodd"/><path id="shape237" d="M30.58,5.28h5.07v4.94H30.58Z" style="fill:#ffec00;stroke:#ffec00;stroke-width:0.5px;fill-rule:evenodd"/><path id="shape238" d="M40.68,5.28h5.07v4.94H40.68Z" style="fill:#ffec00;stroke:#ffec00;stroke-width:0.5px;fill-rule:evenodd"/><path id="shape239" d="M50.79,5.28h5.07v4.94H50.79Z" style="fill:#ffec00;stroke:#ffec00;stroke-width:0.5px;fill-rule:evenodd"/><path id="shape240" d="M60.8,5.28h5.07v4.94H60.8Z" style="fill:#ffec00;stroke:#ffec00;stroke-width:0.5px;fill-rule:evenodd"/><path id="shape241" d="M70.92,5.28H76v4.94H70.92Z" style="fill:#ffec00;stroke:#ffec00;stroke-width:0.5px;fill-rule:evenodd"/><path id="shape242" d="M91.45,5.28h5.07v4.94H91.45Z" style="fill:#ffec00;stroke:#ffec00;stroke-width:0.5px;fill-rule:evenodd"/><path id="shape243" d="M81.33,5.28H86.4v4.94H81.33Z" style="fill:#ffec00;stroke:#ffec00;stroke-width:0.5px;fill-rule:evenodd"/></g><g id="group244"><path id="shape245" d="M5.39,5.28h5.07v4.94H5.39Z" style="stroke:#000;stroke-width:0.5px;fill-rule:evenodd"/><path id="shape246" d="M15.5,5.28h5.07v4.94H15.5Z" style="stroke:#000;stroke-width:0.5px;fill-rule:evenodd"/><path id="shape247" d="M25.52,5.28h5.07v4.94H25.52Z" style="stroke:#000;stroke-width:0.5px;fill-rule:evenodd"/><path id="shape248" d="M35.63,5.28H40.7v4.94H35.63Z" style="stroke:#000;stroke-width:0.5px;fill-rule:evenodd"/><path id="shape249" d="M45.73,5.28H50.8v4.94H45.73Z" style="stroke:#000;stroke-width:0.5px;fill-rule:evenodd"/><path id="shape250" d="M55.85,5.28h5.07v4.94H55.85Z" style="stroke:#000;stroke-width:0.5px;fill-rule:evenodd"/><path id="shape251" d="M65.86,5.28h5.07v4.94H65.86Z" style="stroke:#000;stroke-width:0.5px;fill-rule:evenodd"/><path id="shape252" d="M76,5.28h5.07v4.94H76Z" style="stroke:#000;stroke-width:0.5px;fill-rule:evenodd"/><path id="shape253" d="M86.39,5.28h5.07v4.94H86.39Z" style="stroke:#000;stroke-width:0.5px;fill-rule:evenodd"/><path id="shape254" d="M86.39,5.28h5.07v4.94H86.39Z" style="stroke:#000;stroke-width:0.5px;fill-rule:evenodd"/></g><g id="group255"><path id="shape256" d="M.33.36H5.4V5.3H.33Z" style="stroke:#000;stroke-width:0.5px;fill-rule:evenodd"/><path id="shape257" d="M10.45.36h5.07V5.3H10.45Z" style="stroke:#000;stroke-width:0.5px;fill-rule:evenodd"/><path id="shape258" d="M20.46.36h5.07V5.3H20.46Z" style="stroke:#000;stroke-width:0.5px;fill-rule:evenodd"/><path id="shape259" d="M30.58.36h5.07V5.3H30.58Z" style="stroke:#000;stroke-width:0.5px;fill-rule:evenodd"/><path id="shape260" d="M40.68.36h5.07V5.3H40.68Z" style="stroke:#000;stroke-width:0.5px;fill-rule:evenodd"/><path id="shape261" d="M50.79.36h5.07V5.3H50.79Z" style="stroke:#000;stroke-width:0.5px;fill-rule:evenodd"/><path id="shape262" d="M60.8.36h5.07V5.3H60.8Z" style="stroke:#000;stroke-width:0.5px;fill-rule:evenodd"/><path id="shape263" d="M70.92.36H76V5.3H70.92Z" style="stroke:#000;stroke-width:0.5px;fill-rule:evenodd"/><path id="shape264" d="M91.45.36h5.07V5.3H91.45Z" style="stroke:#000;stroke-width:0.5px;fill-rule:evenodd"/><path id="shape265" d="M81.33.36H86.4V5.3H81.33Z" style="stroke:#000;stroke-width:0.5px;fill-rule:evenodd"/></g><g id="group266"><path id="shape267" d="M5.39.36h5.07V5.3H5.39Z" style="fill:#ffec00;stroke:#ffec00;stroke-width:0.5px;fill-rule:evenodd"/><path id="shape268" d="M15.5.36h5.07V5.3H15.5Z" style="fill:#ffec00;stroke:#ffec00;stroke-width:0.5px;fill-rule:evenodd"/><path id="shape269" d="M25.52.36h5.07V5.3H25.52Z" style="fill:#ffec00;stroke:#ffec00;stroke-width:0.5px;fill-rule:evenodd"/><path id="shape270" d="M35.63.36H40.7V5.3H35.63Z" style="fill:#ffec00;stroke:#ffec00;stroke-width:0.5px;fill-rule:evenodd"/><path id="shape271" d="M45.89.36H51V5.3H45.89Z" style="fill:#ffec00;stroke:#ffec00;stroke-width:0.5px;fill-rule:evenodd"/><path id="shape272" d="M55.85.36h5.07V5.3H55.85Z" style="fill:#ffec00;stroke:#ffec00;stroke-width:0.5px;fill-rule:evenodd"/><path id="shape273" d="M65.86.36h5.07V5.3H65.86Z" style="fill:#ffec00;stroke:#ffec00;stroke-width:0.5px;fill-rule:evenodd"/><path id="shape274" d="M76,.36h5.07V5.3H76Z" style="fill:#ffec00;stroke:#ffec00;stroke-width:0.5px;fill-rule:evenodd"/><path id="shape275" d="M86.39.36h5.07V5.3H86.39Z" style="fill:#ffec00;stroke:#ffec00;stroke-width:0.5px;fill-rule:evenodd"/><path id="shape276" d="M86.39.36h5.07V5.3H86.39Z" style="fill:#ffec00;stroke:#ffec00;stroke-width:0.5px;fill-rule:evenodd"/></g></g></g></g></svg>