<svg xmlns="http://www.w3.org/2000/svg" width="61.43" height="84.68" viewBox="0 0 61.43 84.68"><title>资源 2678</title><g id="图层_2" data-name="图层 2"><g id="安全标志"><g id="图层_28" data-name="图层 28"><g id="Lockout_tag_background_锁定标签背景_" data-name="Lockout tag background 锁定标签背景 "><rect x="0.14" y="0.07" width="61.29" height="84.61" style="fill:#fff"/><polygon points="51.41 0 45.98 0 0 69.57 0 77.78 51.41 0" style="fill:#e90000"/><polygon points="35.75 0 30.32 0 0 45.88 0 54.09 35.75 0" style="fill:#e90000"/><polygon points="13.89 0 0 21.02 0 30.39 20.09 0 13.89 0" style="fill:#e90000"/><polygon points="61.43 8.43 61.43 0.33 5.67 84.68 11.03 84.68 61.43 8.43" style="fill:#e90000"/><polygon points="55.87 84.68 61.43 84.68 61.43 76.27 55.87 84.68" style="fill:#e90000"/><polygon points="61.43 35.89 61.43 27.39 23.56 84.68 29.18 84.68 61.43 35.89" style="fill:#e90000"/><polygon points="5.72 0 0 0 0 8.64 5.72 0" style="fill:#e90000"/><polygon points="61.43 61.84 61.43 53.21 40.63 84.68 46.33 84.68 61.43 61.84" style="fill:#e90000"/><rect x="6.67" y="6.13" width="48.22" height="72.49" style="fill:#fff"/></g></g></g></g></svg>