<svg xmlns="http://www.w3.org/2000/svg" xmlns:xlink="http://www.w3.org/1999/xlink" width="59.46" height="59.95" viewBox="0 0 59.46 59.95"><defs><clipPath id="clip-path" transform="translate(0 0)"><rect id="SVGID" width="59.49" height="60.02" style="fill:none"/></clipPath></defs><title>资源 2643</title><g id="图层_2" data-name="图层 2"><g id="安全标志"><g style="clip-path:url(#clip-path)"><path d="M29.69,9.9A19.5,19.5,0,0,1,49.17,28.56l0,.84V48.24h2a5.85,5.85,0,0,1,0,11.7H8.23a5.85,5.85,0,0,1,0-11.7h1.95V29.4A19.5,19.5,0,0,1,28.84,9.92ZM49.9,52.67H46.38l-.36,0a2,2,0,0,0,.36,3.87H49.9l.35,0a2,2,0,0,0-.35-3.87Zm-14.73,0H9.54l-.35,0a2,2,0,0,0,.35,3.87H35.17l.35,0a2,2,0,0,0-.35-3.87ZM32.79,19.5,21.89,33.82l4.85,1.75L24.07,47.19,35,33.61l-5.11-1.84L32.79,19.5Z" transform="translate(0 0)" style="fill:#d81e06"/><path d="M59.36,21.56A2,2,0,0,1,58.11,24l-4.2,1.36a1.95,1.95,0,0,1-1.21-3.7l4.2-1.37a2,2,0,0,1,2.46,1.25ZM2.47,20.31l4.2,1.37a1.95,1.95,0,0,1-1.21,3.7L1.26,24a2,2,0,0,1,1.21-3.71ZM48,6a1.93,1.93,0,0,1,.78,1.27,2,2,0,0,1-.36,1.46l-2.59,3.57A1.95,1.95,0,1,1,42.71,10L45.3,6.39A2,2,0,0,1,48,6Zm-34,.43L16.67,10a2,2,0,0,1-3.16,2.29l-2.6-3.58a2,2,0,0,1,3.16-2.29ZM29.69,0a2,2,0,0,1,1.95,2V6.37a1.95,1.95,0,1,1-3.9,0V2a2,2,0,0,1,2-1.95Z" transform="translate(0 0)" style="fill:#d81e06"/></g></g></g></svg>