<svg xmlns="http://www.w3.org/2000/svg" xmlns:xlink="http://www.w3.org/1999/xlink" width="94.43" height="45.99" viewBox="0 0 94.43 45.99"><defs><linearGradient id="未命名的渐变_400" x1="2370.09" y1="214.09" x2="2369.59" y2="214.09" gradientTransform="matrix(159.6, 0, 0, -5.9, -378172.47, 1306.03)" gradientUnits="userSpaceOnUse"><stop offset="0" stop-color="#b4a02e"/><stop offset="0.01" stop-color="#fee988"/><stop offset="0.02" stop-color="#ead13f"/><stop offset="0.64" stop-color="#e6ce3e"/><stop offset="0.99" stop-color="#e1c93c"/><stop offset="1" stop-color="#a7952a"/></linearGradient><linearGradient id="未命名的渐变_399" x1="2370.09" y1="152.5" x2="2369.59" y2="152.5" gradientTransform="matrix(159.6, 0, 0, -3.5, -378172.47, 578.87)" gradientUnits="userSpaceOnUse"><stop offset="0" stop-color="#b59900"/><stop offset="0.01" stop-color="#ffe17c"/><stop offset="0.02" stop-color="#ebc800"/><stop offset="0.64" stop-color="#e7c400"/><stop offset="0.99" stop-color="#e2c000"/><stop offset="1" stop-color="#a88e00"/></linearGradient><linearGradient id="未命名的渐变_399-2" x1="2269.09" y1="244.83" x2="2268.59" y2="244.83" gradientTransform="matrix(21.3, 0, 0, -9.6, -48321.04, 2352.79)" xlink:href="#未命名的渐变_399"/><linearGradient id="未命名的渐变_375" x1="2269.09" y1="298.09" x2="2268.59" y2="298.09" gradientTransform="matrix(21.3, 0, 0, -82.3, -48321.04, 24558.17)" gradientUnits="userSpaceOnUse"><stop offset="0" stop-color="#b5a700"/><stop offset="0.01" stop-color="#fff07c"/><stop offset="0.02" stop-color="#ebd900"/><stop offset="0.64" stop-color="#e7d600"/><stop offset="0.99" stop-color="#e2d100"/><stop offset="1" stop-color="#a89b00"/></linearGradient><linearGradient id="未命名的渐变_375-2" x1="2269.09" y1="-332.72" x2="2268.59" y2="-332.72" gradientTransform="matrix(21.3, 0, 0, -0.9, -48321.04, -295.03)" xlink:href="#未命名的渐变_375"/></defs><title>group1</title><g id="图层_2" data-name="图层 2"><g id="安全标志"><g id="group1"><path id="shape2" d="M.28,4.64H94v4H.28Z" style="fill:#ffec00;stroke:#ffec00;stroke-width:0.5px;fill-rule:evenodd"/><path id="shape3" d="M14.37,41.44h79.5c.15,0,.15.05.15.1v2.75c0,.1,0,.1-.15.1H14.37c-.15,0-.15,0-.15-.1V41.54S14.22,41.44,14.37,41.44Z" style="fill-rule:evenodd;fill:url(#未命名的渐变_400)"/><path id="shape4" d="M14.37,44.24h79.5c.15,0,.15,0,.15.15v1.45c0,.1,0,.15-.15.15H14.37c-.15,0-.15-.05-.15-.15V44.39C14.22,44.29,14.22,44.24,14.37,44.24Z" style="fill-rule:evenodd;fill:url(#未命名的渐变_399)"/><path id="shape5" d="M16.22,41.45H92V19.25H16.22Z" style="fill:#ffec00;stroke:#ffec00;stroke-width:0.5px;fill-rule:evenodd"/><path id="shape6" d="M90.91,4.64H94l-2.1,4h-3Z" style="stroke:#000;stroke-width:0.5px;fill-rule:evenodd"/><path id="shape7" d="M83.8,4.64h3.1l-2.1,4h-3Z" style="stroke:#000;stroke-width:0.5px;fill-rule:evenodd"/><path id="shape8" d="M76.69,4.64h3.1l-2.1,4h-3Z" style="stroke:#000;stroke-width:0.5px;fill-rule:evenodd"/><path id="shape9" d="M69.59,4.64h3.1l-2.1,4h-3Z" style="stroke:#000;stroke-width:0.5px;fill-rule:evenodd"/><path id="shape10" d="M62.47,4.64h3.1l-2.1,4h-3Z" style="stroke:#000;stroke-width:0.5px;fill-rule:evenodd"/><path id="shape11" d="M55.36,4.64h3.1l-2.1,4h-3Z" style="stroke:#000;stroke-width:0.5px;fill-rule:evenodd"/><path id="shape12" d="M48.18,4.64h3.1l-2.1,4h-3Z" style="stroke:#000;stroke-width:0.5px;fill-rule:evenodd"/><path id="shape13" d="M41.15,4.64h3.1l-2.1,4h-3Z" style="stroke:#000;stroke-width:0.5px;fill-rule:evenodd"/><path id="shape14" d="M34,4.64h3.1l-2.1,4H32Z" style="stroke:#000;stroke-width:0.5px;fill-rule:evenodd"/><path id="shape15" d="M26.93,4.64H30l-2.1,4H24.88Z" style="stroke:#000;stroke-width:0.5px;fill-rule:evenodd"/><path id="shape16" d="M19.82,4.64h3.1l-2.1,4H17.77Z" style="stroke:#000;stroke-width:0.5px;fill-rule:evenodd"/><path id="shape17" d="M12.71,4.64h3.1l-2.1,4H10.66Z" style="stroke:#000;stroke-width:0.5px;fill-rule:evenodd"/><path id="shape18" d="M16.24,41.4l10.7-22.15h-2l-8.75,18Z" style="stroke:#000;stroke-width:0.5px;fill-rule:evenodd"/><path id="shape19" d="M19.36,41.4h2.05l10.7-22.15H30.06Z" style="stroke:#000;stroke-width:0.5px;fill-rule:evenodd"/><path id="shape20" d="M24.52,41.4h2.05l10.7-22.15H35.22Z" style="stroke:#000;stroke-width:0.5px;fill-rule:evenodd"/><path id="shape21" d="M29.67,41.4h2l10.7-22.15H40.37Z" style="stroke:#000;stroke-width:0.5px;fill-rule:evenodd"/><path id="shape22" d="M34.83,41.4h2.05l10.7-22.15h-2Z" style="stroke:#000;stroke-width:0.5px;fill-rule:evenodd"/><path id="shape23" d="M40,41.4h2l10.7-22.15H50.69Z" style="stroke:#000;stroke-width:0.5px;fill-rule:evenodd"/><path id="shape24" d="M45.14,41.4h2l10.7-22.15h-2Z" style="stroke:#000;stroke-width:0.5px;fill-rule:evenodd"/><path id="shape25" d="M50.15,41.4H52.2L62.9,19.25h-2Z" style="stroke:#000;stroke-width:0.5px;fill-rule:evenodd"/><path id="shape26" d="M55.45,41.4h2L68.2,19.25h-2Z" style="stroke:#000;stroke-width:0.5px;fill-rule:evenodd"/><path id="shape27" d="M60.6,41.4h2l10.7-22.15h-2Z" style="stroke:#000;stroke-width:0.5px;fill-rule:evenodd"/><path id="shape28" d="M65.76,41.4h2l10.7-22.15H76.46Z" style="stroke:#000;stroke-width:0.5px;fill-rule:evenodd"/><path id="shape29" d="M70.92,41.4h2l10.7-22.15h-2Z" style="stroke:#000;stroke-width:0.5px;fill-rule:evenodd"/><path id="shape30" d="M76.07,41.4h2.05l10.7-22.15h-2Z" style="stroke:#000;stroke-width:0.5px;fill-rule:evenodd"/><path id="shape31" d="M81.22,41.4h2l8.7-18v-4.1Z" style="stroke:#000;stroke-width:0.5px;fill-rule:evenodd"/><path id="shape32" d="M16.2,30.8l5.6-11.55H19.75l-3.55,7.3Z" style="stroke:#000;stroke-width:0.5px;fill-rule:evenodd"/><path id="shape33" d="M86.38,41.37h2.05l3.6-7.5v-4.2Z" style="stroke:#000;stroke-width:0.5px;fill-rule:evenodd"/><path id="shape34" d="M.1,0H10.55s.1.1.1.2V4.6c0,.1-.05.2-.1.2H.1S0,4.7,0,4.6V.2C0,.1.05,0,.1,0Z" style="fill-rule:evenodd;fill:url(#未命名的渐变_399-2)"/><path id="shape35" d="M.1,4.64H10.55s.1.05.1.15V45.64c0,.1-.05.16-.1.16H.1s-.1-.06-.1-.16V4.79C0,4.69.05,4.64.1,4.64Z" style="fill-rule:evenodd;fill:url(#未命名的渐变_375)"/><path id="shape36" d="M10.68,9.52v2.85L.08,18.62V15.77Z" style="fill-rule:evenodd"/><path id="shape37" d="M10.68,15.08v2.85L.08,24.18V21.33Z" style="fill-rule:evenodd"/><path id="shape38" d="M10.68,20.65V23.5L.08,29.75V26.9Z" style="fill-rule:evenodd"/><path id="shape39" d="M10.68,26.22v2.85L.08,35.32V32.47Z" style="fill-rule:evenodd"/><path id="shape40" d="M10.68,31.79v2.85L.08,40.89V38Z" style="fill-rule:evenodd"/><path id="shape41" d="M10.68,37.36v2.85L1.23,45.76H.08V43.61Z" style="fill-rule:evenodd"/><path id="shape42" d="M10.67,42.93v2.85H5.82Z" style="fill-rule:evenodd"/><path id="shape43" d="M10.68,4.65V6.8L.08,13.05V10.2l9.5-5.6Z" style="fill-rule:evenodd"/><path id="shape44" d="M4.93,4.59.08,7.44V4.59Z" style="fill-rule:evenodd"/><path id="shape45" d="M.1,4.19H10.65v.45H0V4.19Z" style="fill-rule:evenodd;fill:url(#未命名的渐变_375-2)"/></g></g></g></svg>