<svg id="图层_1" data-name="图层 1" xmlns="http://www.w3.org/2000/svg" xmlns:xlink="http://www.w3.org/1999/xlink" width="44.02" height="79.35" viewBox="0 0 44.02 79.35"><defs><radialGradient id="未命名的渐变" cx="569.55" cy="8941.26" r="31.07" gradientTransform="matrix(1, 0, 0, -1, 35.5, 9236.11)" gradientUnits="userSpaceOnUse"><stop offset="0" stop-color="#3c3736"/><stop offset="0.91" stop-color="#3b3635"/><stop offset="0.91" stop-color="#7a7877"/><stop offset="0.91" stop-color="#3b3635"/></radialGradient><linearGradient id="未命名的渐变_2" x1="567.13" y1="8964.79" x2="541.17" y2="8949.35" gradientTransform="matrix(1, 0, 0, -1, 50.77, 9251.7)" gradientUnits="userSpaceOnUse"><stop offset="0.41" stop-color="#191919"/><stop offset="0.6"/><stop offset="0.8"/><stop offset="0.93"/><stop offset="1"/></linearGradient><linearGradient id="未命名的渐变_3" x1="2081.45" y1="5315.05" x2="2080.75" y2="5315.05" gradientTransform="matrix(31, 0, 0, -84.3, -63909.03, 448381.8)" gradientUnits="userSpaceOnUse"><stop offset="0" stop-color="#292525"/><stop offset="0.03" stop-color="#868584"/><stop offset="0.08" stop-color="#383433"/><stop offset="0.64" stop-color="#373332"/><stop offset="0.95" stop-color="#363130"/><stop offset="1" stop-color="#252221"/></linearGradient><linearGradient id="未命名的渐变_4" x1="2081.91" y1="7599.1" x2="2081.91" y2="7598.4" gradientTransform="matrix(31.5, 0, 0, -1.6, -64975.27, 12506.15)" gradientUnits="userSpaceOnUse"><stop offset="0" stop-color="#343232"/><stop offset="0.15" stop-color="#555454"/><stop offset="0.26" stop-color="#797777"/><stop offset="0.41" stop-color="#5d5b5b"/><stop offset="0.6" stop-color="#484646"/><stop offset="0.8" stop-color="#383636"/><stop offset="0.93" stop-color="#2c2b2b"/><stop offset="1" stop-color="#535151"/></linearGradient><linearGradient id="未命名的渐变_5" x1="2071.91" y1="8135.31" x2="2071.91" y2="8134.61" gradientTransform="matrix(26.3, 0, 0, -1.3, -53886.3, 10920.61)" xlink:href="#未命名的渐变_4"/><linearGradient id="未命名的渐变_6" x1="2071.91" y1="8134.37" x2="2071.91" y2="8133.67" gradientTransform="matrix(26.3, 0, 0, -1.3, -53886.3, 10916.53)" xlink:href="#未命名的渐变_4"/><linearGradient id="未命名的渐变_7" x1="2071.91" y1="8133.43" x2="2071.91" y2="8132.73" gradientTransform="matrix(26.3, 0, 0, -1.3, -53886.3, 10912.44)" xlink:href="#未命名的渐变_4"/><linearGradient id="未命名的渐变_8" x1="2071.91" y1="8132.5" x2="2071.91" y2="8131.8" gradientTransform="matrix(26.3, 0, 0, -1.3, -53886.3, 10908.35)" xlink:href="#未命名的渐变_4"/><linearGradient id="未命名的渐变_9" x1="2071.91" y1="8131.56" x2="2071.91" y2="8130.86" gradientTransform="matrix(26.3, 0, 0, -1.3, -53886.3, 10904.27)" xlink:href="#未命名的渐变_4"/><linearGradient id="未命名的渐变_10" x1="2071.91" y1="8130.62" x2="2071.91" y2="8129.92" gradientTransform="matrix(26.3, 0, 0, -1.3, -53886.3, 10900.19)" xlink:href="#未命名的渐变_4"/><linearGradient id="未命名的渐变_11" x1="2071.91" y1="8129.77" x2="2071.91" y2="8129.07" gradientTransform="matrix(26.3, 0, 0, -1.3, -53886.3, 10896.48)" xlink:href="#未命名的渐变_4"/><linearGradient id="未命名的渐变_12" x1="2071.91" y1="8128.83" x2="2071.91" y2="8128.13" gradientTransform="matrix(26.3, 0, 0, -1.3, -53886.3, 10892.37)" xlink:href="#未命名的渐变_4"/><linearGradient id="未命名的渐变_13" x1="2071.91" y1="8127.76" x2="2071.91" y2="8127.05" gradientTransform="matrix(26.3, 0, 0, -1.3, -53886.3, 10887.71)" xlink:href="#未命名的渐变_4"/><linearGradient id="未命名的渐变_14" x1="2071.91" y1="8126.86" x2="2071.91" y2="8126.16" gradientTransform="matrix(26.3, 0, 0, -1.3, -53886.3, 10883.83)" xlink:href="#未命名的渐变_4"/><linearGradient id="未命名的渐变_15" x1="2071.91" y1="8125.94" x2="2071.91" y2="8125.22" gradientTransform="matrix(26.3, 0, 0, -1.3, -53886.3, 10879.75)" xlink:href="#未命名的渐变_4"/></defs><title>13_0</title><g id="开关区"><g id="group1"><path id="shape2" d="M583.3,294.59A21.76,21.76,0,1,1,605,316.83,22,22,0,0,1,583.3,294.59Z" transform="translate(-583.04 -273.06)" style="stroke:#3e3938;stroke-width:0.5px;fill-rule:evenodd;fill:url(#未命名的渐变)"/><g id="group3"><path id="shape4" d="M589,294.59a16.31,16.31,0,1,1,0,.06Z" transform="translate(-583.04 -273.06)" style="fill:#595757;fill-rule:evenodd"/><path id="shape5" d="M591.34,294.59a13.74,13.74,0,0,1,27.46-1q0,.52,0,1a13.74,13.74,0,0,1-27.46,1.05A9.19,9.19,0,0,1,591.34,294.59Z" transform="translate(-583.04 -273.06)" style="stroke:#000;stroke-width:0.5px;fill-rule:evenodd"/><path id="shape6" d="M592.48,294.63A12.56,12.56,0,1,1,605,307.41,12.7,12.7,0,0,1,592.48,294.63Z" transform="translate(-583.04 -273.06)" style="fill:#5d5b5b;fill-rule:evenodd"/><path id="shape7" d="M594,294.67a11.15,11.15,0,0,1,11-11.26h0a11.26,11.26,0,0,1,0,22.5,11.11,11.11,0,0,1-11-11.2Z" transform="translate(-583.04 -273.06)" style="fill-rule:evenodd;fill:url(#未命名的渐变_2)"/></g><path id="shape8" d="M595.92,293.27h18.24l1.76,54.58s-.42,4.56-10.74,4.56c-10.74,0-11-4.56-11-4.56Z" transform="translate(-583.04 -273.06)" style="fill-rule:evenodd;fill:url(#未命名的渐变_3)"/><path id="shape9" d="M594.36,347.59h21.38a.47.47,0,0,1,.36.42v.28a.47.47,0,0,1-.36.42H594.36a.39.39,0,0,1-.36-.42V348a.37.37,0,0,1,.33-.42Z" transform="translate(-583.04 -273.06)" style="fill-rule:evenodd;fill:url(#未命名的渐变_4)"/><g id="group10"><path id="shape11" d="M596.08,344.71H614a.35.35,0,0,1,.28.36v.2a.35.35,0,0,1-.28.36h-17.9a.31.31,0,0,1-.28-.36h0v-.2a.31.31,0,0,1,.27-.36Z" transform="translate(-583.04 -273.06)" style="fill-rule:evenodd;fill:url(#未命名的渐变_5)"/><path id="shape12" d="M596.08,341.85H614a.35.35,0,0,1,.28.36v.2a.35.35,0,0,1-.28.36h-17.9a.31.31,0,0,1-.28-.36h0v-.2a.31.31,0,0,1,.27-.36Z" transform="translate(-583.04 -273.06)" style="fill-rule:evenodd;fill:url(#未命名的渐变_6)"/><path id="shape13" d="M596.08,339H614a.35.35,0,0,1,.28.36v.2a.35.35,0,0,1-.28.36h-17.9a.31.31,0,0,1-.28-.36h0v-.12A.32.32,0,0,1,596,339Z" transform="translate(-583.04 -273.06)" style="fill-rule:evenodd;fill:url(#未命名的渐变_7)"/><path id="shape14" d="M596.08,336.11H614a.35.35,0,0,1,.28.36v.2a.33.33,0,0,1-.28.34h-17.9a.31.31,0,0,1-.28-.34v-.22A.31.31,0,0,1,596.08,336.11Z" transform="translate(-583.04 -273.06)" style="fill-rule:evenodd;fill:url(#未命名的渐变_8)"/><path id="shape15" d="M596.08,333.25H614a.33.33,0,0,1,.28.34v.22a.31.31,0,0,1-.26.34H596.08a.3.3,0,0,1-.29-.32v-.24A.31.31,0,0,1,596.08,333.25Z" transform="translate(-583.04 -273.06)" style="fill-rule:evenodd;fill:url(#未命名的渐变_9)"/><path id="shape16" d="M596.08,330.39H614a.33.33,0,0,1,.28.34V331a.33.33,0,0,1-.28.34h-17.9a.3.3,0,0,1-.29-.32v-.24A.31.31,0,0,1,596.08,330.39Z" transform="translate(-583.04 -273.06)" style="fill-rule:evenodd;fill:url(#未命名的渐变_10)"/><path id="shape17" d="M596.08,327.79H614a.33.33,0,0,1,.28.34v.22a.33.33,0,0,1-.28.34h-17.9a.31.31,0,0,1-.28-.34v-.18a.32.32,0,0,1,.24-.38h0Z" transform="translate(-583.04 -273.06)" style="fill-rule:evenodd;fill:url(#未命名的渐变_11)"/><path id="shape18" d="M596.08,324.91H614a.3.3,0,0,1,.28.32v.18a.35.35,0,0,1-.28.36h-17.9a.31.31,0,0,1-.28-.36h0v-.2A.3.3,0,0,1,596.08,324.91Z" transform="translate(-583.04 -273.06)" style="fill-rule:evenodd;fill:url(#未命名的渐变_12)"/><path id="shape19" d="M596.08,321.63H614a.33.33,0,0,1,.28.34v.22a.31.31,0,0,1-.26.34H596.08a.3.3,0,0,1-.29-.32V322A.31.31,0,0,1,596.08,321.63Z" transform="translate(-583.04 -273.06)" style="fill-rule:evenodd;fill:url(#未命名的渐变_13)"/><path id="shape20" d="M596.08,318.91H614a.33.33,0,0,1,.28.34h0v.16a.31.31,0,0,1-.26.34H596.08a.3.3,0,0,1-.29-.32v-.24A.31.31,0,0,1,596.08,318.91Z" transform="translate(-583.04 -273.06)" style="fill-rule:evenodd;fill:url(#未命名的渐变_14)"/><path id="shape21" d="M596.08,316.05H614a.33.33,0,0,1,.28.34v.22a.33.33,0,0,1-.28.34h-17.9a.31.31,0,0,1-.28-.34v-.22A.31.31,0,0,1,596.08,316.05Z" transform="translate(-583.04 -273.06)" style="fill-rule:evenodd;fill:url(#未命名的渐变_15)"/></g></g></g></svg>