<svg id="图层_1" data-name="图层 1" xmlns="http://www.w3.org/2000/svg" xmlns:xlink="http://www.w3.org/1999/xlink" width="44.02" height="79.35" viewBox="0 0 44.02 79.35"><defs><radialGradient id="未命名的渐变" cx="-10933.59" cy="10936.64" r="31.08" gradientTransform="matrix(-1, 0, 0, 1, -10328.67, -10607.39)" gradientUnits="userSpaceOnUse"><stop offset="0" stop-color="#3c3736"/><stop offset="0.91" stop-color="#3b3635"/><stop offset="0.91" stop-color="#7a7877"/><stop offset="0.91" stop-color="#3b3635"/></radialGradient><linearGradient id="未命名的渐变_2" x1="-10936.04" y1="10960.22" x2="-10962" y2="10944.78" gradientTransform="matrix(-1, 0, 0, 1, -10343.94, -10622.98)" gradientUnits="userSpaceOnUse"><stop offset="0.41" stop-color="#191919"/><stop offset="0.6"/><stop offset="0.8"/><stop offset="0.93"/><stop offset="1"/></linearGradient><linearGradient id="未命名的渐变_3" x1="1458.76" y1="5338.23" x2="1458.06" y2="5338.23" gradientTransform="matrix(-31, 0, 0, 84.3, 45815.87, -449711.4)" gradientUnits="userSpaceOnUse"><stop offset="0" stop-color="#292525"/><stop offset="0.03" stop-color="#868584"/><stop offset="0.08" stop-color="#383433"/><stop offset="0.64" stop-color="#373332"/><stop offset="0.95" stop-color="#363130"/><stop offset="1" stop-color="#252221"/></linearGradient><linearGradient id="未命名的渐变_4" x1="1464.99" y1="8846.04" x2="1464.99" y2="8845.34" gradientTransform="matrix(-31.5, 0, 0, 1.6, 46752.11, -13877.13)" gradientUnits="userSpaceOnUse"><stop offset="0" stop-color="#343232"/><stop offset="0.15" stop-color="#555454"/><stop offset="0.26" stop-color="#797777"/><stop offset="0.41" stop-color="#5d5b5b"/><stop offset="0.6" stop-color="#484646"/><stop offset="0.8" stop-color="#383636"/><stop offset="0.93" stop-color="#2c2b2b"/><stop offset="1" stop-color="#535151"/></linearGradient><linearGradient id="未命名的渐变_5" x1="1384.42" y1="9670.1" x2="1384.42" y2="9669.4" gradientTransform="matrix(-26.3, 0, 0, 1.3, 37015.13, -12291.74)" xlink:href="#未命名的渐变_4"/><linearGradient id="未命名的渐变_6" x1="1384.42" y1="9669.18" x2="1384.42" y2="9668.46" gradientTransform="matrix(-26.3, 0, 0, 1.3, 37015.13, -12287.66)" xlink:href="#未命名的渐变_4"/><linearGradient id="未命名的渐变_7" x1="1384.42" y1="9668.25" x2="1384.42" y2="9667.53" gradientTransform="matrix(-26.3, 0, 0, 1.3, 37015.13, -12283.57)" xlink:href="#未命名的渐变_4"/><linearGradient id="未命名的渐变_8" x1="1384.42" y1="9667.29" x2="1384.42" y2="9666.59" gradientTransform="matrix(-26.3, 0, 0, 1.3, 37015.13, -12279.48)" xlink:href="#未命名的渐变_4"/><linearGradient id="未命名的渐变_9" x1="1384.42" y1="9666.35" x2="1384.42" y2="9665.65" gradientTransform="matrix(-26.3, 0, 0, 1.3, 37015.13, -12275.4)" xlink:href="#未命名的渐变_4"/><linearGradient id="未命名的渐变_10" x1="1384.42" y1="9665.43" x2="1384.42" y2="9664.73" gradientTransform="matrix(-26.3, 0, 0, 1.3, 37015.13, -12271.32)" xlink:href="#未命名的渐变_4"/><linearGradient id="未命名的渐变_11" x1="1384.42" y1="9664.56" x2="1384.42" y2="9663.86" gradientTransform="matrix(-26.3, 0, 0, 1.3, 37015.13, -12267.61)" xlink:href="#未命名的渐变_4"/><linearGradient id="未命名的渐变_12" x1="1384.42" y1="9663.62" x2="1384.42" y2="9662.92" gradientTransform="matrix(-26.3, 0, 0, 1.3, 37015.13, -12263.5)" xlink:href="#未命名的渐变_4"/><linearGradient id="未命名的渐变_13" x1="1384.42" y1="9662.55" x2="1384.42" y2="9661.85" gradientTransform="matrix(-26.3, 0, 0, 1.3, 37015.13, -12258.84)" xlink:href="#未命名的渐变_4"/><linearGradient id="未命名的渐变_14" x1="1384.42" y1="9661.67" x2="1384.42" y2="9660.97" gradientTransform="matrix(-26.3, 0, 0, 1.3, 37015.13, -12254.96)" xlink:href="#未命名的渐变_4"/><linearGradient id="未命名的渐变_15" x1="1384.42" y1="9660.73" x2="1384.42" y2="9660.03" gradientTransform="matrix(-26.3, 0, 0, 1.3, 37015.13, -12250.88)" xlink:href="#未命名的渐变_4"/></defs><title>13_1</title><g id="开关区"><g id="group1"><path id="shape2" d="M626.68,329.55a21.76,21.76,0,1,1-21.76-22.26,22,22,0,0,1,21.76,22.23Z" transform="translate(-582.92 -271.71)" style="stroke:#3e3938;stroke-width:0.5px;fill-rule:evenodd;fill:url(#未命名的渐变)"/><g id="group3"><path id="shape4" d="M620.92,329.55a16.29,16.29,0,1,1,0-.11Z" transform="translate(-582.92 -271.71)" style="fill:#595757;fill-rule:evenodd"/><path id="shape5" d="M618.62,329.53a13.72,13.72,0,1,1-13.68-14,13.71,13.71,0,0,1,13.68,14Z" transform="translate(-582.92 -271.71)" style="stroke:#000;stroke-width:0.5px;fill-rule:evenodd"/><path id="shape6" d="M617.48,329.49a12.56,12.56,0,1,1-12.56-12.84,12.69,12.69,0,0,1,12.56,12.83Z" transform="translate(-582.92 -271.71)" style="fill:#5d5b5b;fill-rule:evenodd"/><path id="shape7" d="M616,329.47a11.13,11.13,0,0,1-11,11.29h-.06a11.26,11.26,0,0,1,0-22.5,11.11,11.11,0,0,1,11,11.19Z" transform="translate(-582.92 -271.71)" style="fill-rule:evenodd;fill:url(#未命名的渐变_2)"/></g><path id="shape8" d="M614,330.87H595.8L594,276.27s.42-4.56,10.74-4.56c10.74,0,11,4.56,11,4.56Z" transform="translate(-582.92 -271.71)" style="fill-rule:evenodd;fill:url(#未命名的渐变_3)"/><path id="shape9" d="M615.62,276.53h-21.4a.47.47,0,0,1-.36-.42v-.28a.51.51,0,0,1,.36-.42h21.4a.4.4,0,0,1,.34.42v.28a.38.38,0,0,1-.33.41Z" transform="translate(-582.92 -271.71)" style="fill-rule:evenodd;fill:url(#未命名的渐变_4)"/><g id="group10"><path id="shape11" d="M613.88,279.41H596a.36.36,0,0,1-.28-.36v-.2a.35.35,0,0,1,.28-.36h17.9a.31.31,0,0,1,.28.35h0v.2a.31.31,0,0,1-.27.35Z" transform="translate(-582.92 -271.71)" style="fill-rule:evenodd;fill:url(#未命名的渐变_5)"/><path id="shape12" d="M613.88,282.27H596a.35.35,0,0,1-.28-.34v-.22a.35.35,0,0,1,.28-.36h17.9a.31.31,0,0,1,.28.35h0v.22A.33.33,0,0,1,613.88,282.27Z" transform="translate(-582.92 -271.71)" style="fill-rule:evenodd;fill:url(#未命名的渐变_6)"/><path id="shape13" d="M613.88,285.15H596a.36.36,0,0,1-.28-.36v-.22a.32.32,0,0,1,.28-.34h17.9a.32.32,0,0,1,.28.34v.22a.31.31,0,0,1-.27.35Z" transform="translate(-582.92 -271.71)" style="fill-rule:evenodd;fill:url(#未命名的渐变_7)"/><path id="shape14" d="M613.88,288H596a.36.36,0,0,1-.28-.36v-.2a.34.34,0,0,1,.28-.36h17.9a.31.31,0,0,1,.28.35h0v.26A.33.33,0,0,1,613.88,288Z" transform="translate(-582.92 -271.71)" style="fill-rule:evenodd;fill:url(#未命名的渐变_8)"/><path id="shape15" d="M613.88,290.87H596a.36.36,0,0,1-.28-.36v-.2A.32.32,0,0,1,596,290h17.9a.29.29,0,0,1,.28.31v.23a.31.31,0,0,1-.27.35Z" transform="translate(-582.92 -271.71)" style="fill-rule:evenodd;fill:url(#未命名的渐变_9)"/><path id="shape16" d="M613.88,293.71H596a.35.35,0,0,1-.28-.34v-.22a.32.32,0,0,1,.28-.34h17.9a.29.29,0,0,1,.28.31v.25A.33.33,0,0,1,613.88,293.71Z" transform="translate(-582.92 -271.71)" style="fill-rule:evenodd;fill:url(#未命名的渐变_10)"/><path id="shape17" d="M613.88,296.33H596a.35.35,0,0,1-.28-.34v-.28a.34.34,0,0,1,.28-.34h17.9a.32.32,0,0,1,.28.34v.22a.32.32,0,0,1-.23.39Z" transform="translate(-582.92 -271.71)" style="fill-rule:evenodd;fill:url(#未命名的渐变_11)"/><path id="shape18" d="M613.88,299.21H596a.36.36,0,0,1-.28-.36v-.18a.35.35,0,0,1,.28-.36h17.9a.31.31,0,0,1,.28.35h0v.2A.33.33,0,0,1,613.88,299.21Z" transform="translate(-582.92 -271.71)" style="fill-rule:evenodd;fill:url(#未命名的渐变_12)"/><path id="shape19" d="M613.88,302.49H596a.35.35,0,0,1-.28-.34v-.22a.32.32,0,0,1,.28-.34h17.9a.29.29,0,0,1,.28.31v.25A.33.33,0,0,1,613.88,302.49Z" transform="translate(-582.92 -271.71)" style="fill-rule:evenodd;fill:url(#未命名的渐变_13)"/><path id="shape20" d="M613.88,305.21H596a.35.35,0,0,1-.28-.36v-.2a.35.35,0,0,1,.28-.36h17.9a.31.31,0,0,1,.28.35h0v.2a.31.31,0,0,1-.27.35Z" transform="translate(-582.92 -271.71)" style="fill-rule:evenodd;fill:url(#未命名的渐变_14)"/><path id="shape21" d="M613.88,308.07H596a.35.35,0,0,1-.28-.34v-.22a.34.34,0,0,1,.28-.34h17.9a.32.32,0,0,1,.28.34v.2a.32.32,0,0,1-.26.36Z" transform="translate(-582.92 -271.71)" style="fill-rule:evenodd;fill:url(#未命名的渐变_15)"/></g></g></g></svg>