<svg id="图层_1" data-name="图层 1" xmlns="http://www.w3.org/2000/svg" xmlns:xlink="http://www.w3.org/1999/xlink" width="80.26" height="44.94" viewBox="0 0 80.26 44.94"><defs><radialGradient id="未命名的渐变" cx="-490.83" cy="13300.07" r="31.08" gradientTransform="translate(13896.78 794) rotate(90)" gradientUnits="userSpaceOnUse"><stop offset="0" stop-color="#3c3736"/><stop offset="0.91" stop-color="#3b3635"/><stop offset="0.91" stop-color="#7a7877"/><stop offset="0.91" stop-color="#3b3635"/></radialGradient><linearGradient id="未命名的渐变_2" x1="-493.29" y1="13323.67" x2="-519.25" y2="13308.23" gradientTransform="translate(13912.37 809.27) rotate(90)" gradientUnits="userSpaceOnUse"><stop offset="0.41" stop-color="#191919"/><stop offset="0.6"/><stop offset="0.8"/><stop offset="0.93"/><stop offset="1"/></linearGradient><linearGradient id="未命名的渐变_3" x1="2126.11" y1="5100.46" x2="2125.41" y2="5100.46" gradientTransform="translate(430593.22 -65595.5) rotate(90) scale(31 84.3)" gradientUnits="userSpaceOnUse"><stop offset="0" stop-color="#292525"/><stop offset="0.03" stop-color="#868584"/><stop offset="0.08" stop-color="#383433"/><stop offset="0.64" stop-color="#373332"/><stop offset="0.95" stop-color="#363130"/><stop offset="1" stop-color="#252221"/></linearGradient><linearGradient id="未命名的渐变_4" x1="2127.16" y1="10222.3" x2="2127.16" y2="10221.6" gradientTransform="translate(17005.12 -66702.49) rotate(90) scale(31.5 1.6)" gradientUnits="userSpaceOnUse"><stop offset="0" stop-color="#343232"/><stop offset="0.15" stop-color="#555454"/><stop offset="0.26" stop-color="#797777"/><stop offset="0.41" stop-color="#5d5b5b"/><stop offset="0.6" stop-color="#484646"/><stop offset="0.8" stop-color="#383636"/><stop offset="0.93" stop-color="#2c2b2b"/><stop offset="1" stop-color="#535151"/></linearGradient><linearGradient id="未命名的渐变_5" x1="2110" y1="11426.05" x2="2110" y2="11425.35" gradientTransform="translate(15500.43 -55189.72) rotate(90) scale(26.3 1.3)" xlink:href="#未命名的渐变_4"/><linearGradient id="未命名的渐变_6" x1="2110" y1="11425.11" x2="2110" y2="11424.41" gradientTransform="translate(15496.35 -55189.72) rotate(90) scale(26.3 1.3)" xlink:href="#未命名的渐变_4"/><linearGradient id="未命名的渐变_7" x1="2110" y1="11424.16" x2="2110" y2="11423.46" gradientTransform="translate(15492.26 -55189.72) rotate(90) scale(26.3 1.3)" xlink:href="#未命名的渐变_4"/><linearGradient id="未命名的渐变_8" x1="2110" y1="11423.22" x2="2110" y2="11422.52" gradientTransform="translate(15488.17 -55189.72) rotate(90) scale(26.3 1.3)" xlink:href="#未命名的渐变_4"/><linearGradient id="未命名的渐变_9" x1="2110" y1="11422.3" x2="2110" y2="11421.58" gradientTransform="translate(15484.09 -55189.72) rotate(90) scale(26.3 1.3)" xlink:href="#未命名的渐变_4"/><linearGradient id="未命名的渐变_10" x1="2110" y1="11421.36" x2="2110" y2="11420.66" gradientTransform="translate(15480.01 -55189.72) rotate(90) scale(26.3 1.3)" xlink:href="#未命名的渐变_4"/><linearGradient id="未命名的渐变_11" x1="2110" y1="11420.49" x2="2110" y2="11419.79" gradientTransform="translate(15476.3 -55189.72) rotate(90) scale(26.3 1.3)" xlink:href="#未命名的渐变_4"/><linearGradient id="未命名的渐变_12" x1="2110" y1="11419.56" x2="2110" y2="11418.86" gradientTransform="translate(15472.19 -55189.72) rotate(90) scale(26.3 1.3)" xlink:href="#未命名的渐变_4"/><linearGradient id="未命名的渐变_13" x1="2110" y1="11418.5" x2="2110" y2="11417.8" gradientTransform="translate(15467.53 -55189.72) rotate(90) scale(26.3 1.3)" xlink:href="#未命名的渐变_4"/><linearGradient id="未命名的渐变_14" x1="2110" y1="11417.61" x2="2110" y2="11416.9" gradientTransform="translate(15463.65 -55189.72) rotate(90) scale(26.3 1.3)" xlink:href="#未命名的渐变_4"/><linearGradient id="未命名的渐变_15" x1="2110" y1="11416.66" x2="2110" y2="11415.96" gradientTransform="translate(15459.57 -55189.72) rotate(90) scale(26.3 1.3)" xlink:href="#未命名的渐变_4"/></defs><title>14_0</title><g id="开关区"><g id="group1"><path id="shape2" d="M618.69,303.17A22.22,22.22,0,1,1,596,281.44h.45A22,22,0,0,1,618.69,303.17Z" transform="translate(-574.01 -281.18)" style="stroke:#3e3938;stroke-width:0.5px;fill-rule:evenodd;fill:url(#未命名的渐变)"/><g id="group3"><path id="shape4" d="M612.79,303.17a16.32,16.32,0,1,1-16.63-16h.29a16.16,16.16,0,0,1,16.34,16Z" transform="translate(-574.01 -281.18)" style="fill:#595757;fill-rule:evenodd"/><path id="shape5" d="M610.49,303.17a14,14,0,1,1-14-14A14,14,0,0,1,610.49,303.17Z" transform="translate(-574.01 -281.18)" style="stroke:#000;stroke-width:0.5px;fill-rule:evenodd"/><path id="shape6" d="M609.27,303.17a12.84,12.84,0,1,1-13.11-12.55h.27a12.7,12.7,0,0,1,12.84,12.56Z" transform="translate(-574.01 -281.18)" style="fill:#5d5b5b;fill-rule:evenodd"/><path id="shape7" d="M607.73,303.17a11.23,11.23,0,1,1-11.22-11h0a11.12,11.12,0,0,1,11.22,11Z" transform="translate(-574.01 -281.18)" style="fill-rule:evenodd;fill:url(#未命名的渐变_2)"/></g><path id="shape8" d="M649.71,292.29s4.56.28,4.56,11c0,10.32-4.56,10.74-4.56,10.74l-54.58-1.74V294.05Z" transform="translate(-574.01 -281.18)" style="fill-rule:evenodd;fill:url(#未命名的渐变_3)"/><path id="shape9" d="M649.87,292.13h.28a.4.4,0,0,1,.42.34v21.4a.45.45,0,0,1-.42.36h-.28a.47.47,0,0,1-.42-.36V292.49a.38.38,0,0,1,.4-.36Z" transform="translate(-574.01 -281.18)" style="fill-rule:evenodd;fill:url(#未命名的渐变_4)"/><g id="group10"><path id="shape11" d="M646.93,293.93h.2a.32.32,0,0,1,.36.28h0v17.9a.32.32,0,0,1-.36.28h-.2a.33.33,0,0,1-.36-.28v-17.9a.33.33,0,0,1,.36-.28Z" transform="translate(-574.01 -281.18)" style="fill-rule:evenodd;fill:url(#未命名的渐变_5)"/><path id="shape12" d="M644.07,293.93h.2a.32.32,0,0,1,.36.28h0v17.9a.32.32,0,0,1-.36.28h-.2a.33.33,0,0,1-.36-.28v-17.9a.33.33,0,0,1,.36-.28Z" transform="translate(-574.01 -281.18)" style="fill-rule:evenodd;fill:url(#未命名的渐变_6)"/><path id="shape13" d="M641.27,293.93h.2a.32.32,0,0,1,.36.28h0v17.9a.31.31,0,0,1-.34.28h-.22a.33.33,0,0,1-.36-.28v-17.9a.33.33,0,0,1,.36-.28Z" transform="translate(-574.01 -281.18)" style="fill-rule:evenodd;fill:url(#未命名的渐变_7)"/><path id="shape14" d="M638.33,293.93h.2a.33.33,0,0,1,.34.28v17.9a.31.31,0,0,1-.34.28h-.22a.29.29,0,0,1-.33-.25V294.21a.3.3,0,0,1,.32-.28h0Z" transform="translate(-574.01 -281.18)" style="fill-rule:evenodd;fill:url(#未命名的渐变_8)"/><path id="shape15" d="M635.45,293.93h.22a.3.3,0,0,1,.34.26v17.92a.3.3,0,0,1-.31.29h-.25a.31.31,0,0,1-.34-.28v-17.9A.33.33,0,0,1,635.45,293.93Z" transform="translate(-574.01 -281.18)" style="fill-rule:evenodd;fill:url(#未命名的渐变_9)"/><path id="shape16" d="M632.59,293.93h.22a.3.3,0,0,1,.34.26v17.92a.3.3,0,0,1-.31.29h-.25a.31.31,0,0,1-.34-.28v-17.9A.33.33,0,0,1,632.59,293.93Z" transform="translate(-574.01 -281.18)" style="fill-rule:evenodd;fill:url(#未命名的渐变_10)"/><path id="shape17" d="M630,293.93h.2a.3.3,0,0,1,.34.26v17.92a.3.3,0,0,1-.31.29H630a.33.33,0,0,1-.36-.28v-17.9a.33.33,0,0,1,.36-.28Z" transform="translate(-574.01 -281.18)" style="fill-rule:evenodd;fill:url(#未命名的渐变_11)"/><path id="shape18" d="M627.11,293.93h.16a.32.32,0,0,1,.36.28h0v17.9a.32.32,0,0,1-.36.28h-.2a.29.29,0,0,1-.33-.25V294.21a.32.32,0,0,1,.31-.29Z" transform="translate(-574.01 -281.18)" style="fill-rule:evenodd;fill:url(#未命名的渐变_12)"/><path id="shape19" d="M623.83,293.93h.22a.3.3,0,0,1,.34.26v17.92a.3.3,0,0,1-.31.29h-.25a.31.31,0,0,1-.34-.28v-17.9A.33.33,0,0,1,623.83,293.93Z" transform="translate(-574.01 -281.18)" style="fill-rule:evenodd;fill:url(#未命名的渐变_13)"/><path id="shape20" d="M621.11,293.93h.16a.3.3,0,0,1,.34.26v17.92a.3.3,0,0,1-.31.29h-.25a.31.31,0,0,1-.34-.28h0v-17.9a.32.32,0,0,1,.35-.28Z" transform="translate(-574.01 -281.18)" style="fill-rule:evenodd;fill:url(#未命名的渐变_14)"/><path id="shape21" d="M618.25,293.93h.22a.33.33,0,0,1,.34.28v17.9a.31.31,0,0,1-.34.28h-.22a.31.31,0,0,1-.34-.28v-17.9A.33.33,0,0,1,618.25,293.93Z" transform="translate(-574.01 -281.18)" style="fill-rule:evenodd;fill:url(#未命名的渐变_15)"/></g></g></g></svg>