<svg id="图层_1" data-name="图层 1" xmlns="http://www.w3.org/2000/svg" xmlns:xlink="http://www.w3.org/1999/xlink" width="80.27" height="44.94" viewBox="0 0 80.27 44.94"><defs><radialGradient id="未命名的渐变" cx="-9970.61" cy="18943.26" r="31.08" gradientTransform="translate(-18311.66 -9667.67) rotate(-90)" gradientUnits="userSpaceOnUse"><stop offset="0" stop-color="#3c3736"/><stop offset="0.91" stop-color="#3b3635"/><stop offset="0.91" stop-color="#7a7877"/><stop offset="0.91" stop-color="#3b3635"/></radialGradient><linearGradient id="未命名的渐变_2" x1="-9973" y1="18966.73" x2="-9998.96" y2="18951.31" gradientTransform="translate(-18327.25 -9682.94) rotate(-90)" gradientUnits="userSpaceOnUse"><stop offset="0.41" stop-color="#191919"/><stop offset="0.6"/><stop offset="0.8"/><stop offset="0.93"/><stop offset="1"/></linearGradient><linearGradient id="未命名的渐变_3" x1="1568.21" y1="5167.4" x2="1567.51" y2="5167.4" gradientTransform="translate(-435008.1 48906.83) rotate(-90) scale(31 84.3)" gradientUnits="userSpaceOnUse"><stop offset="0" stop-color="#292525"/><stop offset="0.03" stop-color="#868584"/><stop offset="0.08" stop-color="#383433"/><stop offset="0.64" stop-color="#373332"/><stop offset="0.95" stop-color="#363130"/><stop offset="1" stop-color="#252221"/></linearGradient><linearGradient id="未命名的渐变_4" x1="1573.99" y1="13749.28" x2="1573.99" y2="13748.58" gradientTransform="translate(-21420 49883.57) rotate(-90) scale(31.5 1.6)" gradientUnits="userSpaceOnUse"><stop offset="0" stop-color="#343232"/><stop offset="0.15" stop-color="#555454"/><stop offset="0.26" stop-color="#797777"/><stop offset="0.41" stop-color="#5d5b5b"/><stop offset="0.6" stop-color="#484646"/><stop offset="0.8" stop-color="#383636"/><stop offset="0.93" stop-color="#2c2b2b"/><stop offset="1" stop-color="#535151"/></linearGradient><linearGradient id="未命名的渐变_5" x1="1498.95" y1="15766.95" x2="1498.95" y2="15766.25" gradientTransform="translate(-19915.31 39725.4) rotate(-90) scale(26.3 1.3)" xlink:href="#未命名的渐变_4"/><linearGradient id="未命名的渐变_6" x1="1498.95" y1="15766.03" x2="1498.95" y2="15765.33" gradientTransform="translate(-19911.23 39725.4) rotate(-90) scale(26.3 1.3)" xlink:href="#未命名的渐变_4"/><linearGradient id="未命名的渐变_7" x1="1498.95" y1="15765.08" x2="1498.95" y2="15764.38" gradientTransform="translate(-19907.14 39725.4) rotate(-90) scale(26.3 1.3)" xlink:href="#未命名的渐变_4"/><linearGradient id="未命名的渐变_8" x1="1498.95" y1="15764.14" x2="1498.95" y2="15763.45" gradientTransform="translate(-19903.05 39725.4) rotate(-90) scale(26.3 1.3)" xlink:href="#未命名的渐变_4"/><linearGradient id="未命名的渐变_9" x1="1498.95" y1="15763.2" x2="1498.95" y2="15762.5" gradientTransform="translate(-19898.97 39725.4) rotate(-90) scale(26.3 1.3)" xlink:href="#未命名的渐变_4"/><linearGradient id="未命名的渐变_10" x1="1498.95" y1="15762.26" x2="1498.95" y2="15761.56" gradientTransform="translate(-19894.89 39725.4) rotate(-90) scale(26.3 1.3)" xlink:href="#未命名的渐变_4"/><linearGradient id="未命名的渐变_11" x1="1498.95" y1="15761.42" x2="1498.95" y2="15760.71" gradientTransform="translate(-19891.18 39725.4) rotate(-90) scale(26.3 1.3)" xlink:href="#未命名的渐变_4"/><linearGradient id="未命名的渐变_12" x1="1498.95" y1="15760.47" x2="1498.95" y2="15759.78" gradientTransform="translate(-19887.07 39725.4) rotate(-90) scale(26.3 1.3)" xlink:href="#未命名的渐变_4"/><linearGradient id="未命名的渐变_13" x1="1498.95" y1="15759.4" x2="1498.95" y2="15758.7" gradientTransform="translate(-19882.41 39725.4) rotate(-90) scale(26.3 1.3)" xlink:href="#未命名的渐变_4"/><linearGradient id="未命名的渐变_14" x1="1498.95" y1="15758.51" x2="1498.95" y2="15757.81" gradientTransform="translate(-19878.53 39725.4) rotate(-90) scale(26.3 1.3)" xlink:href="#未命名的渐变_4"/><linearGradient id="未命名的渐变_15" x1="1498.95" y1="15757.58" x2="1498.95" y2="15756.88" gradientTransform="translate(-19874.45 39725.4) rotate(-90) scale(26.3 1.3)" xlink:href="#未命名的渐变_4"/></defs><title>14_1</title><g id="开关区"><g id="group1"><path id="shape2" d="M609.62,302.94a22.22,22.22,0,1,1,22.67,21.76h-.41A22,22,0,0,1,609.62,303Z" transform="translate(-574.04 -280.01)" style="stroke:#3e3938;stroke-width:0.5px;fill-rule:evenodd;fill:url(#未命名的渐变)"/><g id="group3"><path id="shape4" d="M615.54,302.94a16.32,16.32,0,1,1,16.63,16h-.29a16.15,16.15,0,0,1-16.34-16Z" transform="translate(-574.04 -280.01)" style="fill:#595757;fill-rule:evenodd"/><path id="shape5" d="M617.82,302.94a14,14,0,1,1,14.31,13.68h-.31A14,14,0,0,1,617.82,302.94Z" transform="translate(-574.04 -280.01)" style="stroke:#000;stroke-width:0.5px;fill-rule:evenodd"/><path id="shape6" d="M619,302.94a12.84,12.84,0,1,1,13.11,12.56h-.27A12.69,12.69,0,0,1,619,303Z" transform="translate(-574.04 -280.01)" style="fill:#5d5b5b;fill-rule:evenodd"/><path id="shape7" d="M620.58,302.94a11.26,11.26,0,1,1,10.77,10.78A11.26,11.26,0,0,1,620.58,302.94Z" transform="translate(-574.04 -280.01)" style="fill-rule:evenodd;fill:url(#未命名的渐变_2)"/></g><path id="shape8" d="M578.6,313.82s-4.56-.28-4.56-11c0-10.32,4.56-10.74,4.56-10.74l54.6,1.76v18.24Z" transform="translate(-574.04 -280.01)" style="fill-rule:evenodd;fill:url(#未命名的渐变_3)"/><path id="shape9" d="M578.44,314h-.28a.4.4,0,0,1-.42-.34v-21.4a.48.48,0,0,1,.42-.36h.28a.46.46,0,0,1,.42.36v21.4a.39.39,0,0,1-.42.34Z" transform="translate(-574.04 -280.01)" style="fill-rule:evenodd;fill:url(#未命名的渐变_4)"/><g id="group10"><path id="shape11" d="M581.38,312.18h-.2a.31.31,0,0,1-.36-.27h0V294a.38.38,0,0,1,.36-.28h.2a.38.38,0,0,1,.36.28v17.9a.33.33,0,0,1-.36.29Z" transform="translate(-574.04 -280.01)" style="fill-rule:evenodd;fill:url(#未命名的渐变_5)"/><path id="shape12" d="M584.26,312.18H584a.31.31,0,0,1-.36-.27h0V294a.38.38,0,0,1,.36-.28h.22a.35.35,0,0,1,.34.28v17.9A.31.31,0,0,1,584.26,312.18Z" transform="translate(-574.04 -280.01)" style="fill-rule:evenodd;fill:url(#未命名的渐变_6)"/><path id="shape13" d="M587.12,312.18h-.22a.31.31,0,0,1-.34-.28V294a.33.33,0,0,1,.34-.28h.22a.38.38,0,0,1,.36.28v17.9a.33.33,0,0,1-.36.29Z" transform="translate(-574.04 -280.01)" style="fill-rule:evenodd;fill:url(#未命名的渐变_7)"/><path id="shape14" d="M590,312.18h-.2a.31.31,0,0,1-.36-.27h0V294a.34.34,0,0,1,.36-.28h.2a.38.38,0,0,1,.36.28v17.9a.33.33,0,0,1-.36.29Z" transform="translate(-574.04 -280.01)" style="fill-rule:evenodd;fill:url(#未命名的渐变_8)"/><path id="shape15" d="M592.84,312.18h-.2a.29.29,0,0,1-.34-.25V294a.33.33,0,0,1,.34-.28h.2a.38.38,0,0,1,.36.28v17.9a.33.33,0,0,1-.36.29Z" transform="translate(-574.04 -280.01)" style="fill-rule:evenodd;fill:url(#未命名的渐变_9)"/><path id="shape16" d="M595.72,312.18h-.22a.29.29,0,0,1-.34-.25V294a.33.33,0,0,1,.34-.28h.22a.35.35,0,0,1,.34.28v17.9A.31.31,0,0,1,595.72,312.18Z" transform="translate(-574.04 -280.01)" style="fill-rule:evenodd;fill:url(#未命名的渐变_10)"/><path id="shape17" d="M598.32,312.18H598a.31.31,0,0,1-.34-.28V294a.34.34,0,0,1,.34-.28h.22a.35.35,0,0,1,.34.28v17.9A.32.32,0,0,1,598.32,312.18Z" transform="translate(-574.04 -280.01)" style="fill-rule:evenodd;fill:url(#未命名的渐变_11)"/><path id="shape18" d="M601.2,312.18H601a.31.31,0,0,1-.36-.27h0V294a.38.38,0,0,1,.36-.28h.2a.38.38,0,0,1,.36.28v17.9a.33.33,0,0,1-.36.29Z" transform="translate(-574.04 -280.01)" style="fill-rule:evenodd;fill:url(#未命名的渐变_12)"/><path id="shape19" d="M604.48,312.18h-.22a.29.29,0,0,1-.34-.25V294a.33.33,0,0,1,.34-.28h.22a.35.35,0,0,1,.34.28v17.9A.31.31,0,0,1,604.48,312.18Z" transform="translate(-574.04 -280.01)" style="fill-rule:evenodd;fill:url(#未命名的渐变_13)"/><path id="shape20" d="M607.2,312.18H607a.29.29,0,0,1-.34-.25V294a.33.33,0,0,1,.34-.28h.22a.33.33,0,0,1,.34.28v17.9A.31.31,0,0,1,607.2,312.18Z" transform="translate(-574.04 -280.01)" style="fill-rule:evenodd;fill:url(#未命名的渐变_14)"/><path id="shape21" d="M610,312.18h-.2a.31.31,0,0,1-.36-.27h0V294a.38.38,0,0,1,.36-.28h.2a.33.33,0,0,1,.34.28v17.9a.3.3,0,0,1-.32.29Z" transform="translate(-574.04 -280.01)" style="fill-rule:evenodd;fill:url(#未命名的渐变_15)"/></g></g></g></svg>