<svg id="图层_1" data-name="图层 1" xmlns="http://www.w3.org/2000/svg" xmlns:xlink="http://www.w3.org/1999/xlink" width="80" height="80" viewBox="0 0 80 80"><defs><clipPath id="clip-path" transform="translate(-574.04 -271.94)"><circle cx="614.04" cy="317.47" r="22.98" style="fill:none"/></clipPath></defs><title>15_1</title><g id="开关区"><rect width="80" height="80"/><rect x="5.98" y="5.98" width="68.04" height="68.04" style="fill:#fff"/><circle cx="40" cy="45.52" r="22.86" style="fill:#fff"/><path d="M614,294.72a22.74,22.74,0,1,1-22.74,22.75h0A22.79,22.79,0,0,1,614,294.72m0-.24a23,23,0,1,0,23,23h0a23,23,0,0,0-23-23Z" transform="translate(-574.04 -271.94)"/><g style="clip-path:url(#clip-path)"><line x1="13.34" y1="20.22" x2="66.66" y2="20.22" style="fill:none;stroke:#ff1d25;stroke-miterlimit:10;stroke-width:0.25px"/><line x1="13.34" y1="21.14" x2="66.66" y2="21.14" style="fill:none;stroke:#ff1d25;stroke-miterlimit:10;stroke-width:0.25px"/><line x1="13.34" y1="22.06" x2="66.66" y2="22.06" style="fill:none;stroke:#ff1d25;stroke-miterlimit:10;stroke-width:0.25px"/><line x1="13.34" y1="22.98" x2="66.66" y2="22.98" style="fill:none;stroke:#ff1d25;stroke-miterlimit:10;stroke-width:0.25px"/><line x1="13.34" y1="23.9" x2="66.66" y2="23.9" style="fill:none;stroke:#ff1d25;stroke-miterlimit:10;stroke-width:0.25px"/><line x1="13.34" y1="24.82" x2="66.66" y2="24.82" style="fill:none;stroke:#ff1d25;stroke-miterlimit:10;stroke-width:0.25px"/><line x1="13.34" y1="25.74" x2="66.66" y2="25.74" style="fill:none;stroke:#ff1d25;stroke-miterlimit:10;stroke-width:0.25px"/><line x1="13.34" y1="26.66" x2="66.66" y2="26.66" style="fill:none;stroke:#ff1d25;stroke-miterlimit:10;stroke-width:0.25px"/><line x1="13.34" y1="27.58" x2="66.66" y2="27.58" style="fill:none;stroke:#ff1d25;stroke-miterlimit:10;stroke-width:0.25px"/><line x1="13.34" y1="28.5" x2="66.66" y2="28.5" style="fill:none;stroke:#ff1d25;stroke-miterlimit:10;stroke-width:0.25px"/><line x1="13.34" y1="29.42" x2="66.66" y2="29.42" style="fill:none;stroke:#ff1d25;stroke-miterlimit:10;stroke-width:0.25px"/><line x1="13.34" y1="30.34" x2="66.66" y2="30.34" style="fill:none;stroke:#ff1d25;stroke-miterlimit:10;stroke-width:0.25px"/><line x1="13.34" y1="31.26" x2="66.66" y2="31.26" style="fill:none;stroke:#ff1d25;stroke-miterlimit:10;stroke-width:0.25px"/><line x1="13.34" y1="32.18" x2="66.66" y2="32.18" style="fill:none;stroke:#ff1d25;stroke-miterlimit:10;stroke-width:0.25px"/><line x1="13.34" y1="33.1" x2="66.66" y2="33.1" style="fill:none;stroke:#ff1d25;stroke-miterlimit:10;stroke-width:0.25px"/><line x1="13.34" y1="34.02" x2="66.66" y2="34.02" style="fill:none;stroke:#ff1d25;stroke-miterlimit:10;stroke-width:0.25px"/><line x1="13.34" y1="34.94" x2="66.66" y2="34.94" style="fill:none;stroke:#ff1d25;stroke-miterlimit:10;stroke-width:0.25px"/><line x1="13.34" y1="35.86" x2="66.66" y2="35.86" style="fill:none;stroke:#ff1d25;stroke-miterlimit:10;stroke-width:0.25px"/><line x1="13.34" y1="36.78" x2="66.66" y2="36.78" style="fill:none;stroke:#ff1d25;stroke-miterlimit:10;stroke-width:0.25px"/><line x1="13.34" y1="37.7" x2="66.66" y2="37.7" style="fill:none;stroke:#ff1d25;stroke-miterlimit:10;stroke-width:0.25px"/><line x1="13.34" y1="38.62" x2="66.66" y2="38.62" style="fill:none;stroke:#ff1d25;stroke-miterlimit:10;stroke-width:0.25px"/><line x1="13.34" y1="39.54" x2="66.66" y2="39.54" style="fill:none;stroke:#ff1d25;stroke-miterlimit:10;stroke-width:0.25px"/><line x1="13.34" y1="40.46" x2="66.66" y2="40.46" style="fill:none;stroke:#ff1d25;stroke-miterlimit:10;stroke-width:0.25px"/><line x1="13.34" y1="41.38" x2="66.66" y2="41.38" style="fill:none;stroke:#ff1d25;stroke-miterlimit:10;stroke-width:0.25px"/><line x1="13.34" y1="42.3" x2="66.66" y2="42.3" style="fill:none;stroke:#ff1d25;stroke-miterlimit:10;stroke-width:0.25px"/><line x1="13.34" y1="43.22" x2="66.66" y2="43.22" style="fill:none;stroke:#ff1d25;stroke-miterlimit:10;stroke-width:0.25px"/><line x1="13.34" y1="44.14" x2="66.66" y2="44.14" style="fill:none;stroke:#ff1d25;stroke-miterlimit:10;stroke-width:0.25px"/><line x1="13.34" y1="45.06" x2="66.66" y2="45.06" style="fill:none;stroke:#ff1d25;stroke-miterlimit:10;stroke-width:0.25px"/><line x1="13.34" y1="45.98" x2="66.66" y2="45.98" style="fill:none;stroke:#ff1d25;stroke-miterlimit:10;stroke-width:0.25px"/><line x1="13.34" y1="46.9" x2="66.66" y2="46.9" style="fill:none;stroke:#ff1d25;stroke-miterlimit:10;stroke-width:0.25px"/><line x1="13.34" y1="47.82" x2="66.66" y2="47.82" style="fill:none;stroke:#ff1d25;stroke-miterlimit:10;stroke-width:0.25px"/><line x1="13.34" y1="48.74" x2="66.66" y2="48.74" style="fill:none;stroke:#ff1d25;stroke-miterlimit:10;stroke-width:0.25px"/><line x1="13.34" y1="49.66" x2="66.66" y2="49.66" style="fill:none;stroke:#ff1d25;stroke-miterlimit:10;stroke-width:0.25px"/><line x1="13.34" y1="50.58" x2="66.66" y2="50.58" style="fill:none;stroke:#ff1d25;stroke-miterlimit:10;stroke-width:0.25px"/><line x1="13.34" y1="51.5" x2="66.66" y2="51.5" style="fill:none;stroke:#ff1d25;stroke-miterlimit:10;stroke-width:0.25px"/><line x1="13.34" y1="52.42" x2="66.66" y2="52.42" style="fill:none;stroke:#ff1d25;stroke-miterlimit:10;stroke-width:0.25px"/><line x1="13.34" y1="53.34" x2="66.66" y2="53.34" style="fill:none;stroke:#ff1d25;stroke-miterlimit:10;stroke-width:0.25px"/><line x1="13.34" y1="54.26" x2="66.66" y2="54.26" style="fill:none;stroke:#ff1d25;stroke-miterlimit:10;stroke-width:0.25px"/><line x1="13.34" y1="55.16" x2="66.66" y2="55.16" style="fill:none;stroke:#ff1d25;stroke-miterlimit:10;stroke-width:0.25px"/><line x1="13.34" y1="56.1" x2="66.66" y2="56.1" style="fill:none;stroke:#ff1d25;stroke-miterlimit:10;stroke-width:0.25px"/><line x1="13.34" y1="57" x2="66.66" y2="57" style="fill:none;stroke:#ff1d25;stroke-miterlimit:10;stroke-width:0.25px"/><line x1="13.34" y1="57.94" x2="66.66" y2="57.94" style="fill:none;stroke:#ff1d25;stroke-miterlimit:10;stroke-width:0.25px"/><line x1="13.34" y1="58.84" x2="66.66" y2="58.84" style="fill:none;stroke:#ff1d25;stroke-miterlimit:10;stroke-width:0.25px"/><line x1="13.34" y1="59.78" x2="66.66" y2="59.78" style="fill:none;stroke:#ff1d25;stroke-miterlimit:10;stroke-width:0.25px"/><line x1="13.34" y1="60.68" x2="66.66" y2="60.68" style="fill:none;stroke:#ff1d25;stroke-miterlimit:10;stroke-width:0.25px"/><line x1="13.34" y1="61.62" x2="66.66" y2="61.62" style="fill:none;stroke:#ff1d25;stroke-miterlimit:10;stroke-width:0.25px"/><line x1="13.34" y1="62.52" x2="66.66" y2="62.52" style="fill:none;stroke:#ff1d25;stroke-miterlimit:10;stroke-width:0.25px"/><line x1="13.34" y1="63.46" x2="66.66" y2="63.46" style="fill:none;stroke:#ff1d25;stroke-miterlimit:10;stroke-width:0.25px"/><line x1="13.34" y1="64.38" x2="66.66" y2="64.38" style="fill:none;stroke:#ff1d25;stroke-miterlimit:10;stroke-width:0.25px"/><line x1="13.34" y1="65.28" x2="66.66" y2="65.28" style="fill:none;stroke:#ff1d25;stroke-miterlimit:10;stroke-width:0.25px"/><line x1="13.34" y1="66.2" x2="66.66" y2="66.2" style="fill:none;stroke:#ff1d25;stroke-miterlimit:10;stroke-width:0.25px"/><line x1="13.34" y1="67.12" x2="66.66" y2="67.12" style="fill:none;stroke:#ff1d25;stroke-miterlimit:10;stroke-width:0.25px"/><line x1="13.34" y1="68.04" x2="66.66" y2="68.04" style="fill:none;stroke:#ff1d25;stroke-miterlimit:10;stroke-width:0.25px"/><line x1="13.34" y1="68.96" x2="66.66" y2="68.96" style="fill:none;stroke:#ff1d25;stroke-miterlimit:10;stroke-width:0.25px"/><line x1="13.34" y1="69.88" x2="66.66" y2="69.88" style="fill:none;stroke:#ff1d25;stroke-miterlimit:10;stroke-width:0.25px"/><line x1="15.18" y1="71.72" x2="15.18" y2="18.38" style="fill:none;stroke:#ff1d25;stroke-miterlimit:10;stroke-width:0.25px"/><line x1="16.1" y1="71.72" x2="16.1" y2="18.38" style="fill:none;stroke:#ff1d25;stroke-miterlimit:10;stroke-width:0.25px"/><line x1="17.02" y1="71.72" x2="17.02" y2="18.38" style="fill:none;stroke:#ff1d25;stroke-miterlimit:10;stroke-width:0.25px"/><line x1="17.94" y1="71.72" x2="17.94" y2="18.38" style="fill:none;stroke:#ff1d25;stroke-miterlimit:10;stroke-width:0.25px"/><line x1="18.86" y1="71.72" x2="18.86" y2="18.38" style="fill:none;stroke:#ff1d25;stroke-miterlimit:10;stroke-width:0.25px"/><line x1="19.78" y1="71.72" x2="19.78" y2="18.38" style="fill:none;stroke:#ff1d25;stroke-miterlimit:10;stroke-width:0.25px"/><line x1="20.7" y1="71.72" x2="20.7" y2="18.38" style="fill:none;stroke:#ff1d25;stroke-miterlimit:10;stroke-width:0.25px"/><line x1="21.62" y1="71.72" x2="21.62" y2="18.38" style="fill:none;stroke:#ff1d25;stroke-miterlimit:10;stroke-width:0.25px"/><line x1="22.54" y1="71.72" x2="22.54" y2="18.38" style="fill:none;stroke:#ff1d25;stroke-miterlimit:10;stroke-width:0.25px"/><line x1="23.46" y1="71.72" x2="23.46" y2="18.38" style="fill:none;stroke:#ff1d25;stroke-miterlimit:10;stroke-width:0.25px"/><line x1="24.38" y1="71.72" x2="24.38" y2="18.38" style="fill:none;stroke:#ff1d25;stroke-miterlimit:10;stroke-width:0.25px"/><line x1="25.28" y1="71.72" x2="25.28" y2="18.38" style="fill:none;stroke:#ff1d25;stroke-miterlimit:10;stroke-width:0.25px"/><line x1="26.2" y1="71.72" x2="26.2" y2="18.38" style="fill:none;stroke:#ff1d25;stroke-miterlimit:10;stroke-width:0.25px"/><line x1="27.12" y1="71.72" x2="27.12" y2="18.38" style="fill:none;stroke:#ff1d25;stroke-miterlimit:10;stroke-width:0.25px"/><line x1="28.04" y1="71.72" x2="28.04" y2="18.38" style="fill:none;stroke:#ff1d25;stroke-miterlimit:10;stroke-width:0.25px"/><line x1="28.96" y1="71.72" x2="28.96" y2="18.38" style="fill:none;stroke:#ff1d25;stroke-miterlimit:10;stroke-width:0.25px"/><line x1="29.88" y1="71.72" x2="29.88" y2="18.38" style="fill:none;stroke:#ff1d25;stroke-miterlimit:10;stroke-width:0.25px"/><line x1="30.8" y1="71.72" x2="30.8" y2="18.38" style="fill:none;stroke:#ff1d25;stroke-miterlimit:10;stroke-width:0.25px"/><line x1="31.72" y1="71.72" x2="31.72" y2="18.38" style="fill:none;stroke:#ff1d25;stroke-miterlimit:10;stroke-width:0.25px"/><line x1="32.64" y1="71.72" x2="32.64" y2="18.38" style="fill:none;stroke:#ff1d25;stroke-miterlimit:10;stroke-width:0.25px"/><line x1="33.56" y1="71.72" x2="33.56" y2="18.38" style="fill:none;stroke:#ff1d25;stroke-miterlimit:10;stroke-width:0.25px"/><line x1="34.48" y1="71.72" x2="34.48" y2="18.38" style="fill:none;stroke:#ff1d25;stroke-miterlimit:10;stroke-width:0.25px"/><line x1="35.4" y1="71.72" x2="35.4" y2="18.38" style="fill:none;stroke:#ff1d25;stroke-miterlimit:10;stroke-width:0.25px"/><line x1="36.32" y1="71.72" x2="36.32" y2="18.38" style="fill:none;stroke:#ff1d25;stroke-miterlimit:10;stroke-width:0.25px"/><line x1="37.24" y1="71.72" x2="37.24" y2="18.38" style="fill:none;stroke:#ff1d25;stroke-miterlimit:10;stroke-width:0.25px"/><line x1="38.16" y1="71.72" x2="38.16" y2="18.38" style="fill:none;stroke:#ff1d25;stroke-miterlimit:10;stroke-width:0.25px"/><line x1="39.08" y1="71.72" x2="39.08" y2="18.38" style="fill:none;stroke:#ff1d25;stroke-miterlimit:10;stroke-width:0.25px"/><line x1="40" y1="71.72" x2="40" y2="18.38" style="fill:none;stroke:#ff1d25;stroke-miterlimit:10;stroke-width:0.25px"/><line x1="40.92" y1="71.72" x2="40.92" y2="18.38" style="fill:none;stroke:#ff1d25;stroke-miterlimit:10;stroke-width:0.25px"/><line x1="41.84" y1="71.72" x2="41.84" y2="18.38" style="fill:none;stroke:#ff1d25;stroke-miterlimit:10;stroke-width:0.25px"/><line x1="42.76" y1="71.72" x2="42.76" y2="18.38" style="fill:none;stroke:#ff1d25;stroke-miterlimit:10;stroke-width:0.25px"/><line x1="43.68" y1="71.72" x2="43.68" y2="18.38" style="fill:none;stroke:#ff1d25;stroke-miterlimit:10;stroke-width:0.25px"/><line x1="44.6" y1="71.72" x2="44.6" y2="18.38" style="fill:none;stroke:#ff1d25;stroke-miterlimit:10;stroke-width:0.25px"/><line x1="45.52" y1="71.72" x2="45.52" y2="18.38" style="fill:none;stroke:#ff1d25;stroke-miterlimit:10;stroke-width:0.25px"/><line x1="46.44" y1="71.72" x2="46.44" y2="18.38" style="fill:none;stroke:#ff1d25;stroke-miterlimit:10;stroke-width:0.25px"/><line x1="47.36" y1="71.72" x2="47.36" y2="18.38" style="fill:none;stroke:#ff1d25;stroke-miterlimit:10;stroke-width:0.25px"/><line x1="48.28" y1="71.72" x2="48.28" y2="18.38" style="fill:none;stroke:#ff1d25;stroke-miterlimit:10;stroke-width:0.25px"/><line x1="49.2" y1="71.72" x2="49.2" y2="18.38" style="fill:none;stroke:#ff1d25;stroke-miterlimit:10;stroke-width:0.25px"/><line x1="50.12" y1="71.72" x2="50.12" y2="18.38" style="fill:none;stroke:#ff1d25;stroke-miterlimit:10;stroke-width:0.25px"/><line x1="51.04" y1="71.72" x2="51.04" y2="18.38" style="fill:none;stroke:#ff1d25;stroke-miterlimit:10;stroke-width:0.25px"/><line x1="51.96" y1="71.72" x2="51.96" y2="18.38" style="fill:none;stroke:#ff1d25;stroke-miterlimit:10;stroke-width:0.25px"/><line x1="52.88" y1="71.72" x2="52.88" y2="18.38" style="fill:none;stroke:#ff1d25;stroke-miterlimit:10;stroke-width:0.25px"/><line x1="53.8" y1="71.72" x2="53.8" y2="18.38" style="fill:none;stroke:#ff1d25;stroke-miterlimit:10;stroke-width:0.25px"/><line x1="54.72" y1="71.72" x2="54.72" y2="18.38" style="fill:none;stroke:#ff1d25;stroke-miterlimit:10;stroke-width:0.25px"/><line x1="55.64" y1="71.72" x2="55.64" y2="18.38" style="fill:none;stroke:#ff1d25;stroke-miterlimit:10;stroke-width:0.25px"/><line x1="56.54" y1="71.72" x2="56.54" y2="18.38" style="fill:none;stroke:#ff1d25;stroke-miterlimit:10;stroke-width:0.25px"/><line x1="57.48" y1="71.72" x2="57.48" y2="18.38" style="fill:none;stroke:#ff1d25;stroke-miterlimit:10;stroke-width:0.25px"/><line x1="58.38" y1="71.72" x2="58.38" y2="18.38" style="fill:none;stroke:#ff1d25;stroke-miterlimit:10;stroke-width:0.25px"/><line x1="59.32" y1="71.72" x2="59.32" y2="18.38" style="fill:none;stroke:#ff1d25;stroke-miterlimit:10;stroke-width:0.25px"/><line x1="60.22" y1="71.72" x2="60.22" y2="18.38" style="fill:none;stroke:#ff1d25;stroke-miterlimit:10;stroke-width:0.25px"/><line x1="61.16" y1="71.72" x2="61.16" y2="18.38" style="fill:none;stroke:#ff1d25;stroke-miterlimit:10;stroke-width:0.25px"/><line x1="62.06" y1="71.72" x2="62.06" y2="18.38" style="fill:none;stroke:#ff1d25;stroke-miterlimit:10;stroke-width:0.25px"/><line x1="63" y1="71.72" x2="63" y2="18.38" style="fill:none;stroke:#ff1d25;stroke-miterlimit:10;stroke-width:0.25px"/><line x1="63.9" y1="71.72" x2="63.9" y2="18.38" style="fill:none;stroke:#ff1d25;stroke-miterlimit:10;stroke-width:0.25px"/><line x1="64.84" y1="71.72" x2="64.84" y2="18.38" style="fill:none;stroke:#ff1d25;stroke-miterlimit:10;stroke-width:0.25px"/></g><rect x="592.42" y="313.66" width="43.22" height="8.28" transform="translate(-618.91 255.32) rotate(-45)"/><rect x="618.98" y="304.56" width="12.88" height="3.68" transform="translate(-607.51 260.04) rotate(-45)" style="fill:#fff"/><text transform="translate(9.2 18.32)" style="isolation:isolate;font-size:12.873564720153809px;font-family:SimHei">1#</text><text transform="translate(57.92 18.32)" style="isolation:isolate;font-size:12.873564720153809px;font-family:SimHei">2#</text></g></svg>