<svg id="图层_1" data-name="图层 1" xmlns="http://www.w3.org/2000/svg" xmlns:xlink="http://www.w3.org/1999/xlink" width="80.5" height="80.5" viewBox="0 0 80.5 80.5"><defs><radialGradient id="未命名的渐变" cx="-332.86" cy="1490.96" r="56.52" gradientTransform="translate(947.03 -1178.87)" gradientUnits="userSpaceOnUse"><stop offset="0" stop-color="#f8d8a8"/><stop offset="0.91" stop-color="#f3d4a5"/><stop offset="0.91" stop-color="#fff9f3"/><stop offset="0.91" stop-color="#f3d4a5"/></radialGradient><linearGradient id="未命名的渐变_2" x1="-300.77" y1="1475.08" x2="-378.67" y2="1520.36" gradientTransform="translate(953.83 -1185.67)" gradientUnits="userSpaceOnUse"><stop offset="0" stop-color="#c4aa84"/><stop offset="0.15" stop-color="#ffe0b3"/><stop offset="0.25" stop-color="#ffe6c6"/><stop offset="0.44" stop-color="#dfc297"/><stop offset="0.6" stop-color="#c7ad86"/><stop offset="0.8" stop-color="#a89170"/><stop offset="0.97" stop-color="#998566"/><stop offset="1" stop-color="#cbb189"/></linearGradient><linearGradient id="未命名的渐变_3" x1="-3050.34" y1="4954.83" x2="-3051.4" y2="4954.83" gradientTransform="translate(38445.03 -306887.28) scale(12.4 62)" gradientUnits="userSpaceOnUse"><stop offset="0" stop-color="#c4aa84"/><stop offset="0.15" stop-color="#ffe0b3"/><stop offset="0.25" stop-color="#ffeed7"/><stop offset="0.44" stop-color="#dfc297"/><stop offset="0.6" stop-color="#c7ad86"/><stop offset="0.8" stop-color="#a89170"/><stop offset="0.97" stop-color="#998566"/><stop offset="1" stop-color="#cbb189"/></linearGradient></defs><title>20_0</title><g id="开关区"><g id="group363"><path id="shape364" d="M574.17,312.09a40,40,0,1,0,40-40A40,40,0,0,0,574.17,312.09Z" transform="translate(-573.92 -271.84)" style="stroke:#cdcece;stroke-width:0.5px;fill-rule:evenodd;fill:url(#未命名的渐变)"/><path id="shape365" d="M580,312.09a34.32,34.32,0,1,0,34.32-34.32A34.32,34.32,0,0,0,580,312.09Z" transform="translate(-573.92 -271.84)" style="fill:#a89170;fill-rule:evenodd"/><path id="shape366" d="M581.33,312.09a32.91,32.91,0,1,0,0-.19Z" transform="translate(-573.92 -271.84)" style="fill-rule:evenodd;fill:url(#未命名的渐变_2)"/><path id="shape367" d="M612.37,344.83h3.7a4.69,4.69,0,0,0,4.74-4.62h0v-56a4.72,4.72,0,0,0-4.74-4.64h-3.7a4.61,4.61,0,0,0-4.62,4.58v56a4.58,4.58,0,0,0,4.54,4.61h0Z" transform="translate(-573.92 -271.84)" style="fill-rule:evenodd;fill:url(#未命名的渐变_3)"/><path id="shape368" d="M612.91,338.92h2.76a.7.7,0,0,0,.62-.74v-8a.74.74,0,0,0-.62-.74h-2.76a.72.72,0,0,0-.72.72h0v8a.7.7,0,0,0,.66.74s0,0,0,0Z" transform="translate(-573.92 -271.84)" style="fill:#eacd98;fill-rule:evenodd"/></g></g></svg>