<svg id="图层_1" data-name="图层 1" xmlns="http://www.w3.org/2000/svg" xmlns:xlink="http://www.w3.org/1999/xlink" width="80.5" height="80.5" viewBox="0 0 80.5 80.5"><defs><radialGradient id="未命名的渐变" cx="-256.41" cy="8455.81" r="56.52" gradientTransform="matrix(1, 0, 0, -1, 871.08, 8768.12)" gradientUnits="userSpaceOnUse"><stop offset="0" stop-color="#f8d8a8"/><stop offset="0.91" stop-color="#f3d4a5"/><stop offset="0.91" stop-color="#fff9f3"/><stop offset="0.91" stop-color="#f3d4a5"/></radialGradient><linearGradient id="未命名的渐变_2" x1="-224.49" y1="8484.94" x2="-302.37" y2="8439.68" gradientTransform="matrix(1, 0, 0, -1, 877.86, 8774.88)" gradientUnits="userSpaceOnUse"><stop offset="0" stop-color="#c4aa84"/><stop offset="0.15" stop-color="#ffe0b3"/><stop offset="0.25" stop-color="#ffe6c6"/><stop offset="0.44" stop-color="#dfc297"/><stop offset="0.6" stop-color="#c7ad86"/><stop offset="0.8" stop-color="#a89170"/><stop offset="0.97" stop-color="#998566"/><stop offset="1" stop-color="#cbb189"/></linearGradient><linearGradient id="未命名的渐变_3" x1="-3283.22" y1="5067.17" x2="-3284.26" y2="5067.17" gradientTransform="matrix(12.4, 0, 0, -62, 41333, 314476.49)" gradientUnits="userSpaceOnUse"><stop offset="0" stop-color="#c4aa84"/><stop offset="0.15" stop-color="#ffe0b3"/><stop offset="0.25" stop-color="#ffeed7"/><stop offset="0.44" stop-color="#dfc297"/><stop offset="0.6" stop-color="#c7ad86"/><stop offset="0.8" stop-color="#a89170"/><stop offset="0.97" stop-color="#998566"/><stop offset="1" stop-color="#cbb189"/></linearGradient></defs><title>20_1</title><g id="开关区"><g id="group357"><path id="shape358" d="M574.67,312.31a40,40,0,1,1,40,40A40,40,0,0,1,574.67,312.31Z" transform="translate(-574.42 -272.06)" style="stroke:#cdcece;stroke-width:0.5px;fill-rule:evenodd;fill:url(#未命名的渐变)"/><path id="shape359" d="M580.35,312.31a34.32,34.32,0,1,1,34.34,34.3h0A34.32,34.32,0,0,1,580.35,312.31Z" transform="translate(-574.42 -272.06)" style="fill:#a89170;fill-rule:evenodd"/><path id="shape360" d="M581.81,312.27a32.93,32.93,0,1,1,0,.22Z" transform="translate(-574.42 -272.06)" style="fill-rule:evenodd;fill:url(#未命名的渐变_2)"/><path id="shape361" d="M612.79,279.57h3.7a4.66,4.66,0,0,1,4.72,4.6v56a4.7,4.7,0,0,1-4.72,4.64h-3.7a4.6,4.6,0,0,1-4.62-4.58h0v-56a4.58,4.58,0,0,1,4.54-4.62h0Z" transform="translate(-574.42 -272.06)" style="fill-rule:evenodd;fill:url(#未命名的渐变_3)"/><path id="shape362" d="M613.41,285.45h2.76a.71.71,0,0,1,.62.74v8a.7.7,0,0,1-.62.74h-2.76a.72.72,0,0,1-.72-.7v-8a.72.72,0,0,1,.7-.74h0Z" transform="translate(-574.42 -272.06)" style="fill:#eacd98;fill-rule:evenodd"/></g></g></svg>