<svg id="图层_1" data-name="图层 1" xmlns="http://www.w3.org/2000/svg" xmlns:xlink="http://www.w3.org/1999/xlink" width="80.5" height="80.5" viewBox="0 0 80.5 80.5"><defs><radialGradient id="未命名的渐变" cx="587.98" cy="2241.77" r="56.46" gradientTransform="matrix(0, -1, -1, 0, 2855.89, 900)" gradientUnits="userSpaceOnUse"><stop offset="0" stop-color="#f8d8a8"/><stop offset="0.91" stop-color="#f3d4a5"/><stop offset="0.91" stop-color="#fff9f3"/><stop offset="0.91" stop-color="#f3d4a5"/></radialGradient><linearGradient id="未命名的渐变_2" x1="610.66" y1="2213.18" x2="551.72" y2="2283.72" gradientTransform="matrix(0, -1, -1, 0, 2862.69, 893.3)" gradientUnits="userSpaceOnUse"><stop offset="0" stop-color="#c4aa84"/><stop offset="0.15" stop-color="#ffe0b3"/><stop offset="0.25" stop-color="#ffe6c6"/><stop offset="0.44" stop-color="#dfc297"/><stop offset="0.6" stop-color="#c7ad86"/><stop offset="0.8" stop-color="#a89170"/><stop offset="0.97" stop-color="#998566"/><stop offset="1" stop-color="#cbb189"/></linearGradient><linearGradient id="未命名的渐变_3" x1="-2973.57" y1="5222.64" x2="-2974.61" y2="5222.64" gradientTransform="matrix(0, -12.3, -62, 0, 324417.88, -36269.25)" gradientUnits="userSpaceOnUse"><stop offset="0" stop-color="#c4aa84"/><stop offset="0.15" stop-color="#ffe0b3"/><stop offset="0.25" stop-color="#ffeed7"/><stop offset="0.44" stop-color="#dfc297"/><stop offset="0.6" stop-color="#c7ad86"/><stop offset="0.8" stop-color="#a89170"/><stop offset="0.97" stop-color="#998566"/><stop offset="1" stop-color="#cbb189"/></linearGradient></defs><title>33_0</title><g id="开关区"><g id="group369"><path id="shape370" d="M614.12,352a40,40,0,1,1,40-40A40,40,0,0,1,614.12,352Z" transform="translate(-573.87 -271.78)" style="stroke:#cdcece;stroke-width:0.5px;fill-rule:evenodd;fill:url(#未命名的渐变)"/><path id="shape371" d="M614.12,346.32A34.32,34.32,0,1,1,648.42,312v0A34.3,34.3,0,0,1,614.12,346.32Z" transform="translate(-573.87 -271.78)" style="fill:#a89170;fill-rule:evenodd"/><path id="shape372" d="M614.12,345a30,30,0,1,1,.1,0Z" transform="translate(-573.87 -271.78)" style="fill-rule:evenodd;fill:url(#未命名的渐变_2)"/><path id="shape373" d="M581.36,313.9v-3.68a4.58,4.58,0,0,1,4.54-4.61h56a4.57,4.57,0,0,1,4.62,4.53v3.77a4.63,4.63,0,0,1-4.58,4.64H586a4.62,4.62,0,0,1-4.64-4.58Z" transform="translate(-573.87 -271.78)" style="fill-rule:evenodd;fill:url(#未命名的渐变_3)"/><path id="shape374" d="M587.16,313.28v-2.64a.68.68,0,0,1,.73-.62h8a.68.68,0,0,1,.74.61h0v2.64a.75.75,0,0,1-.7.75h-8a.74.74,0,0,1-.74-.7Z" transform="translate(-573.87 -271.78)" style="fill:#eacd98;fill-rule:evenodd"/></g></g></svg>