<svg id="图层_1" data-name="图层 1" xmlns="http://www.w3.org/2000/svg" xmlns:xlink="http://www.w3.org/1999/xlink" width="80.5" height="80.5" viewBox="0 0 80.5 80.5"><defs><radialGradient id="未命名的渐变" cx="-7056.82" cy="9002.67" r="56.52" gradientTransform="matrix(0, 1, 1, 0, -7794.87, 7661.03)" gradientUnits="userSpaceOnUse"><stop offset="0" stop-color="#f8d8a8"/><stop offset="0.91" stop-color="#f3d4a5"/><stop offset="0.91" stop-color="#fff9f3"/><stop offset="0.91" stop-color="#f3d4a5"/></radialGradient><linearGradient id="未命名的渐变_2" x1="-7086.27" y1="9048.43" x2="-7041.01" y2="8970.53" gradientTransform="matrix(0, 1, 1, 0, -7801.67, 7667.83)" gradientUnits="userSpaceOnUse"><stop offset="0" stop-color="#c4aa84"/><stop offset="0.15" stop-color="#ffe0b3"/><stop offset="0.25" stop-color="#ffe6c6"/><stop offset="0.44" stop-color="#dfc297"/><stop offset="0.6" stop-color="#c7ad86"/><stop offset="0.8" stop-color="#a89170"/><stop offset="0.97" stop-color="#998566"/><stop offset="1" stop-color="#cbb189"/></linearGradient><linearGradient id="未命名的渐变_3" x1="-3831.62" y1="5331.79" x2="-3832.68" y2="5331.79" gradientTransform="matrix(0, 12.4, 62, 0, -329363.28, 48123.03)" gradientUnits="userSpaceOnUse"><stop offset="0" stop-color="#c4aa84"/><stop offset="0.15" stop-color="#ffe0b3"/><stop offset="0.25" stop-color="#ffeed7"/><stop offset="0.44" stop-color="#dfc297"/><stop offset="0.6" stop-color="#c7ad86"/><stop offset="0.8" stop-color="#a89170"/><stop offset="0.97" stop-color="#998566"/><stop offset="1" stop-color="#cbb189"/></linearGradient></defs><title>33_1</title><g id="开关区"><g id="group375"><path id="shape376" d="M1207.8,564.21a40,40,0,1,1-40,40A40,40,0,0,1,1207.8,564.21Z" transform="translate(-1167.55 -563.96)" style="stroke:#cdcece;stroke-width:0.5px;fill-rule:evenodd;fill:url(#未命名的渐变)"/><path id="shape377" d="M1207.8,570a34.32,34.32,0,1,1-34.32,34.32A34.32,34.32,0,0,1,1207.8,570Z" transform="translate(-1167.55 -563.96)" style="fill:#a89170;fill-rule:evenodd"/><path id="shape378" d="M1207.8,571.37a31.23,31.23,0,1,1-.18,0Z" transform="translate(-1167.55 -563.96)" style="fill-rule:evenodd;fill:url(#未命名的渐变_2)"/><path id="shape379" d="M1240.54,602.4v3.7a4.68,4.68,0,0,1-4.62,4.74h-56a4.73,4.73,0,0,1-4.64-4.75v-3.7a4.61,4.61,0,0,1,4.58-4.61h56a4.57,4.57,0,0,1,4.62,4.53v0Z" transform="translate(-1167.55 -563.96)" style="fill-rule:evenodd;fill:url(#未命名的渐变_3)"/><path id="shape380" d="M1234.64,603v2.76a.69.69,0,0,1-.74.61h-8a.71.71,0,0,1-.74-.61V603a.72.72,0,0,1,.72-.72h8a.7.7,0,0,1,.74.65v0Z" transform="translate(-1167.55 -563.96)" style="fill:#eacd98;fill-rule:evenodd"/></g></g></svg>