<svg xmlns="http://www.w3.org/2000/svg" xmlns:xlink="http://www.w3.org/1999/xlink" width="80.51" height="80.51" viewBox="0 0 80.51 80.51"><defs><radialGradient id="未命名的渐变_226" cx="-3994.95" cy="3170.54" r="56.53" gradientTransform="matrix(0.71, 0.71, 0.71, -0.71, 623.19, 5107.02)" gradientUnits="userSpaceOnUse"><stop offset="0" stop-color="#f8d8a8"/><stop offset="0.91" stop-color="#f3d4a5"/><stop offset="0.91" stop-color="#fff9f3"/><stop offset="0.91" stop-color="#f3d4a5"/></radialGradient><linearGradient id="未命名的渐变_227" x1="-4024.37" y1="3216.33" x2="-3979.1" y2="3138.43" gradientTransform="matrix(0.71, 0.71, 0.71, -0.71, 623.19, 5116.63)" gradientUnits="userSpaceOnUse"><stop offset="0" stop-color="#c4aa84"/><stop offset="0.15" stop-color="#ffe0b3"/><stop offset="0.25" stop-color="#ffe6c6"/><stop offset="0.44" stop-color="#dfc297"/><stop offset="0.6" stop-color="#c7ad86"/><stop offset="0.8" stop-color="#a89170"/><stop offset="0.97" stop-color="#998566"/><stop offset="1" stop-color="#cbb189"/></linearGradient><linearGradient id="未命名的渐变_242" x1="166.76" y1="4722.51" x2="165.71" y2="4722.51" gradientTransform="matrix(8.77, 8.77, 43.84, -43.84, -208454.74, 205620.29)" gradientUnits="userSpaceOnUse"><stop offset="0" stop-color="#c4aa84"/><stop offset="0.15" stop-color="#ffe0b3"/><stop offset="0.25" stop-color="#ffeed7"/><stop offset="0.44" stop-color="#dfc297"/><stop offset="0.6" stop-color="#c7ad86"/><stop offset="0.8" stop-color="#a89170"/><stop offset="0.97" stop-color="#998566"/><stop offset="1" stop-color="#cbb189"/></linearGradient></defs><title>group375</title><g id="图层_2" data-name="图层 2"><g id="开关区"><g id="group375"><path id="shape376" d="M12,12A40,40,0,1,1,12,68.61,40,40,0,0,1,12,12Z" style="stroke:#cdcece;stroke-width:0.5px;fill-rule:evenodd;fill:url(#未命名的渐变_226)"/><path id="shape377" d="M16.06,16.06a34.32,34.32,0,1,1,0,48.53A34.32,34.32,0,0,1,16.06,16.06Z" style="fill:#a89170;fill-rule:evenodd"/><path id="shape378" d="M17,17a32.89,32.89,0,1,1,0,46.59A32.9,32.9,0,0,1,17,17Z" style="fill-rule:evenodd;fill:url(#未命名的渐变_227)"/><path id="shape379" d="M62.13,15.83l2.61,2.61a4.69,4.69,0,0,1,.07,6.62l-39.6,39.6a4.69,4.69,0,0,1-6.62-.07L16,62a4.61,4.61,0,0,1,0-6.55l39.6-39.6A4.61,4.61,0,0,1,62.13,15.83Z" style="fill-rule:evenodd;fill:url(#未命名的渐变_242)"/><path id="shape380" d="M58.34,20.37l1.93,1.94a.72.72,0,0,1-.07,1l-5.66,5.65a.71.71,0,0,1-1,.08l-1.93-1.94a.71.71,0,0,1,0-1l5.65-5.66A.74.74,0,0,1,58.34,20.37Z" style="fill:#eacd98;fill-rule:evenodd"/></g></g></g></svg>