<svg xmlns="http://www.w3.org/2000/svg" xmlns:xlink="http://www.w3.org/1999/xlink" width="80.51" height="80.51" viewBox="0 0 80.51 80.51"><defs><radialGradient id="未命名的渐变_226" cx="-891.2" cy="8918.94" r="56.53" gradientTransform="matrix(0.71, -0.71, -0.71, -0.71, 6977.06, 5716.73)" gradientUnits="userSpaceOnUse"><stop offset="0" stop-color="#f8d8a8"/><stop offset="0.91" stop-color="#f3d4a5"/><stop offset="0.91" stop-color="#fff9f3"/><stop offset="0.91" stop-color="#f3d4a5"/></radialGradient><linearGradient id="未命名的渐变_227" x1="-859.31" y1="8948.13" x2="-937.21" y2="8902.87" gradientTransform="matrix(0.71, -0.71, -0.71, -0.71, 6986.64, 5716.72)" gradientUnits="userSpaceOnUse"><stop offset="0" stop-color="#c4aa84"/><stop offset="0.15" stop-color="#ffe0b3"/><stop offset="0.25" stop-color="#ffe6c6"/><stop offset="0.44" stop-color="#dfc297"/><stop offset="0.6" stop-color="#c7ad86"/><stop offset="0.8" stop-color="#a89170"/><stop offset="0.97" stop-color="#998566"/><stop offset="1" stop-color="#cbb189"/></linearGradient><linearGradient id="未命名的渐变_242" x1="417.06" y1="4687.34" x2="416.01" y2="4687.34" gradientTransform="matrix(8.77, -8.77, -43.84, -43.84, 201883.71, 209188.15)" gradientUnits="userSpaceOnUse"><stop offset="0" stop-color="#c4aa84"/><stop offset="0.15" stop-color="#ffe0b3"/><stop offset="0.25" stop-color="#ffeed7"/><stop offset="0.44" stop-color="#dfc297"/><stop offset="0.6" stop-color="#c7ad86"/><stop offset="0.8" stop-color="#a89170"/><stop offset="0.97" stop-color="#998566"/><stop offset="1" stop-color="#cbb189"/></linearGradient></defs><title>group357</title><g id="图层_2" data-name="图层 2"><g id="开关区"><g id="group357"><path id="shape358" d="M12,68.55a40,40,0,1,1,56.65-.07A40,40,0,0,1,12,68.55Z" style="stroke:#cdcece;stroke-width:0.5px;fill-rule:evenodd;fill:url(#未命名的渐变_226)"/><path id="shape359" d="M16,64.52a34.32,34.32,0,1,1,48.53,0A34.32,34.32,0,0,1,16,64.52Z" style="fill:#a89170;fill-rule:evenodd"/><path id="shape360" d="M17,63.47a32.89,32.89,0,1,1,46.6,0A32.91,32.91,0,0,1,17,63.47Z" style="fill-rule:evenodd;fill:url(#未命名的渐变_227)"/><path id="shape361" d="M15.76,18.43l2.6-2.61A4.7,4.7,0,0,1,25,15.75l39.6,39.6A4.7,4.7,0,0,1,64.51,62l-2.6,2.61a4.61,4.61,0,0,1-6.55,0L15.76,25A4.6,4.6,0,0,1,15.76,18.43Z" style="fill-rule:evenodd;fill:url(#未命名的渐变_242)"/><path id="shape362" d="M20.36,22.18l1.94-1.94a.7.7,0,0,1,1,.08L28.92,26a.69.69,0,0,1,.07,1l-1.93,1.94a.71.71,0,0,1-1,0l-5.66-5.66A.71.71,0,0,1,20.36,22.18Z" style="fill:#eacd98;fill-rule:evenodd"/></g></g></g></svg>