<svg id="图层_1" data-name="图层 1" xmlns="http://www.w3.org/2000/svg" xmlns:xlink="http://www.w3.org/1999/xlink" width="50.52" height="80" viewBox="0 0 50.52 80"><defs><linearGradient id="未命名的渐变" x1="-590.58" y1="5302.73" x2="-591.28" y2="5302.73" gradientTransform="matrix(72, 0, 0, -114, 43154.24, 604823)" gradientUnits="userSpaceOnUse"><stop offset="0" stop-color="#b5b5b5"/><stop offset="0.03" stop-color="#fff"/><stop offset="0.05" stop-color="#ebebeb"/><stop offset="0.64" stop-color="#e7e7e7"/><stop offset="0.95" stop-color="#e2e2e2"/><stop offset="1" stop-color="#a8a8a8"/></linearGradient><linearGradient id="未命名的渐变_2" x1="-585.28" y1="5230.43" x2="-585.98" y2="5230.43" gradientTransform="translate(29068.06 -479318.79) scale(48.6 91.7)" gradientUnits="userSpaceOnUse"><stop offset="0" stop-color="#383a42"/><stop offset="0.03" stop-color="#8e8f94"/><stop offset="0.03" stop-color="#4c4f59"/><stop offset="0.76" stop-color="#4a4d57"/><stop offset="0.97" stop-color="#494b55"/><stop offset="1" stop-color="#34363d"/></linearGradient><linearGradient id="未命名的渐变_3" x1="-582.26" y1="6742.21" x2="-582.26" y2="6741.51" gradientTransform="matrix(40.3, 0, 0, -2.5, 24071.63, 17176.88)" gradientUnits="userSpaceOnUse"><stop offset="0" stop-color="#bc5057"/><stop offset="0.15" stop-color="#f67a81"/><stop offset="0.25" stop-color="#fac0c3"/><stop offset="0.55" stop-color="#d65c64"/><stop offset="1" stop-color="#bf5158"/></linearGradient><linearGradient id="未命名的渐变_4" x1="-582.26" y1="6742.96" x2="-582.26" y2="6742.26" gradientTransform="matrix(40.3, 0, 0, -2.5, 24071.63, 17183.11)" xlink:href="#未命名的渐变_3"/><linearGradient id="未命名的渐变_5" x1="-582.26" y1="6743.7" x2="-582.26" y2="6743" gradientTransform="matrix(40.3, 0, 0, -2.5, 24071.63, 17189.35)" xlink:href="#未命名的渐变_3"/><linearGradient id="未命名的渐变_6" x1="-582.26" y1="6744.45" x2="-582.26" y2="6743.75" gradientTransform="matrix(40.3, 0, 0, -2.5, 24071.63, 17195.58)" xlink:href="#未命名的渐变_3"/><linearGradient id="未命名的渐变_7" x1="-582.26" y1="6745.19" x2="-582.26" y2="6744.49" gradientTransform="matrix(40.3, 0, 0, -2.5, 24071.63, 17201.82)" xlink:href="#未命名的渐变_3"/></defs><title>23_0</title><g id="开关区"><g id="group169"><path id="shape170" d="M582.11,271.94h49.06a.77.77,0,0,1,.76.76h0v78.48a.76.76,0,0,1-.76.75H582.11a.73.73,0,0,1-.7-.74h0V272.71a.75.75,0,0,1,.68-.77Z" transform="translate(-581.41 -271.94)" style="fill-rule:evenodd;fill:url(#未命名的渐变)"/><path id="shape171" d="M589.63,344.14h34V279.81h-34Z" transform="translate(-581.41 -271.94)" style="fill-rule:evenodd;fill:url(#未命名的渐变_2)"/><g id="group172"><path id="shape173" d="M590.35,343.44H623V318.53H590.35Z" transform="translate(-581.41 -271.94)" style="fill:#eb6d71;fill-rule:evenodd"/><g id="group174"><path id="shape175" d="M593.21,321.33h26.86c.44,0,.72.42.72.92h0a.8.8,0,0,1-.72.83H593.21a.78.78,0,0,1-.7-.83h0A.85.85,0,0,1,593.21,321.33Z" transform="translate(-581.41 -271.94)" style="fill-rule:evenodd;fill:url(#未命名的渐变_3)"/><path id="shape176" d="M593.21,325.7h26.86c.44,0,.72.42.72.92h0a.79.79,0,0,1-.72.82H593.21a.78.78,0,0,1-.7-.83h0A.85.85,0,0,1,593.21,325.7Z" transform="translate(-581.41 -271.94)" style="fill-rule:evenodd;fill:url(#未命名的渐变_4)"/><path id="shape177" d="M593.21,330.08h26.86c.44,0,.72.42.72.92h0a.8.8,0,0,1-.72.84H593.21a.82.82,0,0,1-.7-.84h0A.86.86,0,0,1,593.21,330.08Z" transform="translate(-581.41 -271.94)" style="fill-rule:evenodd;fill:url(#未命名的渐变_5)"/><path id="shape178" d="M593.21,334.44h26.86c.44,0,.72.42.72.92h0a.8.8,0,0,1-.72.84H593.21a.82.82,0,0,1-.7-.84h0C592.51,334.89,592.85,334.44,593.21,334.44Z" transform="translate(-581.41 -271.94)" style="fill-rule:evenodd;fill:url(#未命名的渐变_6)"/><path id="shape179" d="M593.21,338.83h26.86c.44,0,.72.42.72.92h0a.8.8,0,0,1-.72.83H593.21a.78.78,0,0,1-.7-.83h0A.85.85,0,0,1,593.21,338.83Z" transform="translate(-581.41 -271.94)" style="fill-rule:evenodd;fill:url(#未命名的渐变_7)"/></g></g></g></g></svg>