<svg id="图层_1" data-name="图层 1" xmlns="http://www.w3.org/2000/svg" xmlns:xlink="http://www.w3.org/1999/xlink" width="50.52" height="80" viewBox="0 0 50.52 80"><defs><linearGradient id="未命名的渐变" x1="-896.8" y1="5294.75" x2="-897.5" y2="5294.75" gradientTransform="translate(65200.89 -603289.5) scale(72 114)" gradientUnits="userSpaceOnUse"><stop offset="0" stop-color="#b5b5b5"/><stop offset="0.03" stop-color="#fff"/><stop offset="0.05" stop-color="#ebebeb"/><stop offset="0.64" stop-color="#e7e7e7"/><stop offset="0.95" stop-color="#e2e2e2"/><stop offset="1" stop-color="#a8a8a8"/></linearGradient><linearGradient id="未命名的渐变_2" x1="-913.74" y1="5240.35" x2="-914.44" y2="5240.35" gradientTransform="matrix(48.6, 0, 0, -91.7, 45030.71, 480852.29)" gradientUnits="userSpaceOnUse"><stop offset="0" stop-color="#383a42"/><stop offset="0.03" stop-color="#8e8f94"/><stop offset="0.03" stop-color="#4c4f59"/><stop offset="0.76" stop-color="#4a4d57"/><stop offset="0.97" stop-color="#494b55"/><stop offset="1" stop-color="#34363d"/></linearGradient><linearGradient id="未命名的渐变_3" x1="-924.81" y1="6378.51" x2="-924.81" y2="6377.81" gradientTransform="translate(37876.33 -15643.3) scale(40.3 2.5)" gradientUnits="userSpaceOnUse"><stop offset="0" stop-color="#bc5057"/><stop offset="0.15" stop-color="#f67a81"/><stop offset="0.25" stop-color="#fac0c3"/><stop offset="0.55" stop-color="#d65c64"/><stop offset="1" stop-color="#bf5158"/></linearGradient><linearGradient id="未命名的渐变_4" x1="-924.81" y1="6379.25" x2="-924.81" y2="6378.55" gradientTransform="translate(37876.33 -15649.53) scale(40.3 2.5)" xlink:href="#未命名的渐变_3"/><linearGradient id="未命名的渐变_5" x1="-924.81" y1="6380" x2="-924.81" y2="6379.3" gradientTransform="translate(37876.33 -15655.77) scale(40.3 2.5)" xlink:href="#未命名的渐变_3"/><linearGradient id="未命名的渐变_6" x1="-924.81" y1="6380.75" x2="-924.81" y2="6380.05" gradientTransform="translate(37876.33 -15662) scale(40.3 2.5)" xlink:href="#未命名的渐变_3"/><linearGradient id="未命名的渐变_7" x1="-924.81" y1="6381.49" x2="-924.81" y2="6380.79" gradientTransform="translate(37876.33 -15668.24) scale(40.3 2.5)" xlink:href="#未命名的渐变_3"/></defs><title>23_1</title><g id="开关区"><g id="group158"><path id="shape159" d="M581.74,352.31H630.8a.76.76,0,0,0,.76-.76V273.07a.77.77,0,0,0-.76-.76H581.74a.74.74,0,0,0-.7.74h0v78.5a.73.73,0,0,0,.68.76Z" transform="translate(-581.04 -272.31)" style="fill-rule:evenodd;fill:url(#未命名的渐变)"/><path id="shape160" d="M589.26,280.09h34v64.36h-34Z" transform="translate(-581.04 -272.31)" style="fill-rule:evenodd;fill:url(#未命名的渐变_2)"/><g id="group161"><path id="shape162" d="M590,280.87h32.62v24.94H590Z" transform="translate(-581.04 -272.31)" style="fill:#eb6d71;fill-rule:evenodd"/><g id="group163"><path id="shape164" d="M592.86,303h26.88c.42,0,.7-.42.7-.9h0a.76.76,0,0,0-.68-.83h-26.9a.84.84,0,0,0-.7.84h0A.85.85,0,0,0,592.86,303Z" transform="translate(-581.04 -272.31)" style="fill-rule:evenodd;fill:url(#未命名的渐变_3)"/><path id="shape165" d="M592.86,298.61h26.88c.42,0,.7-.42.7-.92h0a.79.79,0,0,0-.7-.84H592.86a.84.84,0,0,0-.7.84h0A.89.89,0,0,0,592.86,298.61Z" transform="translate(-581.04 -272.31)" style="fill-rule:evenodd;fill:url(#未命名的渐变_4)"/><path id="shape166" d="M592.86,294.31h26.88c.42,0,.7-.42.7-.92h0a.76.76,0,0,0-.68-.83h-26.9a.84.84,0,0,0-.7.84h0A.89.89,0,0,0,592.86,294.31Z" transform="translate(-581.04 -272.31)" style="fill-rule:evenodd;fill:url(#未命名的渐变_5)"/><path id="shape167" d="M592.86,289.85h26.88c.42,0,.7-.42.7-.92h0a.81.81,0,0,0-.7-.84H592.86a.89.89,0,0,0-.7.84h0A.89.89,0,0,0,592.86,289.85Z" transform="translate(-581.04 -272.31)" style="fill-rule:evenodd;fill:url(#未命名的渐变_6)"/><path id="shape168" d="M592.86,285.47h26.88c.42,0,.7-.42.7-.9h0a.78.78,0,0,0-.69-.85H592.86a.89.89,0,0,0-.7.86h0A.85.85,0,0,0,592.86,285.47Z" transform="translate(-581.04 -272.31)" style="fill-rule:evenodd;fill:url(#未命名的渐变_7)"/></g></g></g></g></svg>