<svg id="图层_1" data-name="图层 1" xmlns="http://www.w3.org/2000/svg" xmlns:xlink="http://www.w3.org/1999/xlink" width="80" height="50.52" viewBox="0 0 80 50.52"><defs><linearGradient id="未命名的渐变" x1="-577.26" y1="5024.03" x2="-577.96" y2="5024.03" gradientTransform="matrix(0, -72, -114, 0, 573354, -41282.87)" gradientUnits="userSpaceOnUse"><stop offset="0" stop-color="#b5b5b5"/><stop offset="0.03" stop-color="#fff"/><stop offset="0.05" stop-color="#ebebeb"/><stop offset="0.64" stop-color="#e7e7e7"/><stop offset="0.95" stop-color="#e2e2e2"/><stop offset="1" stop-color="#a8a8a8"/></linearGradient><linearGradient id="未命名的渐变_2" x1="-597.05" y1="4976.91" x2="-597.75" y2="4976.91" gradientTransform="translate(-455768.45 -28728.78) rotate(-90) scale(48.6 91.7)" gradientUnits="userSpaceOnUse"><stop offset="0" stop-color="#383a42"/><stop offset="0.03" stop-color="#8e8f94"/><stop offset="0.03" stop-color="#4c4f59"/><stop offset="0.76" stop-color="#4a4d57"/><stop offset="0.97" stop-color="#494b55"/><stop offset="1" stop-color="#34363d"/></linearGradient><linearGradient id="未命名的渐变_3" x1="-609.94" y1="5956.64" x2="-609.94" y2="5955.94" gradientTransform="matrix(0, -40.3, -2.5, 0, 15476.97, -24275.77)" gradientUnits="userSpaceOnUse"><stop offset="0" stop-color="#bc5057"/><stop offset="0.15" stop-color="#f67a81"/><stop offset="0.25" stop-color="#fac0c3"/><stop offset="0.55" stop-color="#d65c64"/><stop offset="1" stop-color="#bf5158"/></linearGradient><linearGradient id="未命名的渐变_4" x1="-609.94" y1="5957.39" x2="-609.94" y2="5956.68" gradientTransform="matrix(0, -40.3, -2.5, 0, 15483.2, -24275.77)" xlink:href="#未命名的渐变_3"/><linearGradient id="未命名的渐变_5" x1="-609.94" y1="5958.13" x2="-609.94" y2="5957.43" gradientTransform="matrix(0, -40.3, -2.5, 0, 15489.44, -24275.77)" xlink:href="#未命名的渐变_3"/><linearGradient id="未命名的渐变_6" x1="-609.94" y1="5958.88" x2="-609.94" y2="5958.18" gradientTransform="matrix(0, -40.3, -2.5, 0, 15495.67, -24275.77)" xlink:href="#未命名的渐变_3"/><linearGradient id="未命名的渐变_7" x1="-609.94" y1="5959.62" x2="-609.94" y2="5958.92" gradientTransform="matrix(0, -40.3, -2.5, 0, 15501.91, -24275.77)" xlink:href="#未命名的渐变_3"/></defs><title>24_0</title><g id="开关区"><g id="group137"><path id="shape138" d="M574,329.13V280.07a.77.77,0,0,1,.76-.76h78.48a.77.77,0,0,1,.76.76v49.06a.73.73,0,0,1-.74.7H574.8a.72.72,0,0,1-.76-.68Z" transform="translate(-574.04 -279.31)" style="fill-rule:evenodd;fill:url(#未命名的渐变)"/><path id="shape139" d="M646.24,321.61v-34.1H581.9v34Z" transform="translate(-574.04 -279.31)" style="fill-rule:evenodd;fill:url(#未命名的渐变_2)"/><path id="shape140" d="M607.54,320.85V288.21H582.6v32.64Z" transform="translate(-574.04 -279.31)" style="fill:#eb6d71;fill-rule:evenodd"/><g id="group141"><path id="shape142" d="M585.38,318V291.17c0-.42.42-.7.9-.7h0a.81.81,0,0,1,.86.7V318a.88.88,0,0,1-.86.72h0A.85.85,0,0,1,585.38,318Z" transform="translate(-574.04 -279.31)" style="fill-rule:evenodd;fill:url(#未命名的渐变_3)"/><path id="shape143" d="M589.74,318V291.17c0-.42.42-.7.92-.7h0a.78.78,0,0,1,.84.68V318a.83.83,0,0,1-.84.72h0A.87.87,0,0,1,589.74,318Z" transform="translate(-574.04 -279.31)" style="fill-rule:evenodd;fill:url(#未命名的渐变_4)"/><path id="shape144" d="M594,318V291.17c0-.42.42-.7.92-.7h0a.78.78,0,0,1,.84.68V318a.83.83,0,0,1-.84.72h0A.87.87,0,0,1,594,318Z" transform="translate(-574.04 -279.31)" style="fill-rule:evenodd;fill:url(#未命名的渐变_5)"/><path id="shape145" d="M598.5,318V291.17c0-.42.42-.7.92-.7h0a.79.79,0,0,1,.84.7V318a.88.88,0,0,1-.84.72h0A.87.87,0,0,1,598.5,318Z" transform="translate(-574.04 -279.31)" style="fill-rule:evenodd;fill:url(#未命名的渐变_6)"/><path id="shape146" d="M602.88,318V291.17c0-.42.42-.7.9-.7h0a.78.78,0,0,1,.84.68V318a.83.83,0,0,1-.84.72h0A.85.85,0,0,1,602.88,318Z" transform="translate(-574.04 -279.31)" style="fill-rule:evenodd;fill:url(#未命名的渐变_7)"/></g></g></g></svg>