<svg id="图层_1" data-name="图层 1" xmlns="http://www.w3.org/2000/svg" xmlns:xlink="http://www.w3.org/1999/xlink" width="80" height="50.52" viewBox="0 0 80 50.52"><defs><linearGradient id="未命名的渐变" x1="-880.95" y1="4968.76" x2="-881.65" y2="4968.76" gradientTransform="matrix(0, -72, -114, 0, 567052.5, -63149.37)" gradientUnits="userSpaceOnUse"><stop offset="0" stop-color="#b5b5b5"/><stop offset="0.03" stop-color="#fff"/><stop offset="0.05" stop-color="#ebebeb"/><stop offset="0.64" stop-color="#e7e7e7"/><stop offset="0.95" stop-color="#e2e2e2"/><stop offset="1" stop-color="#a8a8a8"/></linearGradient><linearGradient id="未命名的渐变_2" x1="-921.78" y1="5045.63" x2="-922.48" y2="5045.63" gradientTransform="translate(-462069.95 -44511.28) rotate(-90) scale(48.6 91.7)" gradientUnits="userSpaceOnUse"><stop offset="0" stop-color="#383a42"/><stop offset="0.03" stop-color="#8e8f94"/><stop offset="0.03" stop-color="#4c4f59"/><stop offset="0.76" stop-color="#4a4d57"/><stop offset="0.97" stop-color="#494b55"/><stop offset="1" stop-color="#34363d"/></linearGradient><linearGradient id="未命名的渐变_3" x1="-948" y1="3442.37" x2="-948" y2="3441.67" gradientTransform="matrix(0, -40.3, -2.5, 0, 9229.72, -37900.32)" gradientUnits="userSpaceOnUse"><stop offset="0" stop-color="#bc5057"/><stop offset="0.15" stop-color="#f67a81"/><stop offset="0.25" stop-color="#fac0c3"/><stop offset="0.55" stop-color="#d65c64"/><stop offset="1" stop-color="#bf5158"/></linearGradient><linearGradient id="未命名的渐变_4" x1="-948" y1="3443.12" x2="-948" y2="3442.4" gradientTransform="matrix(0, -40.3, -2.5, 0, 9235.95, -37900.32)" xlink:href="#未命名的渐变_3"/><linearGradient id="未命名的渐变_5" x1="-948" y1="3443.84" x2="-948" y2="3443.14" gradientTransform="matrix(0, -40.3, -2.5, 0, 9242.19, -37900.32)" xlink:href="#未命名的渐变_3"/><linearGradient id="未命名的渐变_6" x1="-948" y1="3444.59" x2="-948" y2="3443.89" gradientTransform="matrix(0, -40.3, -2.5, 0, 9248.42, -37900.32)" xlink:href="#未命名的渐变_3"/><linearGradient id="未命名的渐变_7" x1="-948" y1="3445.33" x2="-948" y2="3444.63" gradientTransform="matrix(0, -40.3, -2.5, 0, 9254.66, -37900.32)" xlink:href="#未命名的渐变_3"/></defs><title>24_1</title><g id="开关区"><g id="group147"><path id="shape148" d="M574.41,328.76V279.7a.77.77,0,0,1,.76-.76h78.48a.77.77,0,0,1,.76.76v49.06a.73.73,0,0,1-.74.7h-78.5a.72.72,0,0,1-.76-.68Z" transform="translate(-574.41 -278.94)" style="fill-rule:evenodd;fill:url(#未命名的渐变)"/><path id="shape149" d="M646.61,321.24v-34.1H582.27v34Z" transform="translate(-574.41 -278.94)" style="fill-rule:evenodd;fill:url(#未命名的渐变_2)"/><g id="group150"><path id="shape151" d="M645.91,320.48V287.84H621v32.64Z" transform="translate(-574.41 -278.94)" style="fill:#eb6d71;fill-rule:evenodd"/><g id="group152"><path id="shape153" d="M623.81,317.64V290.76c0-.41.42-.69.92-.69h0a.77.77,0,0,1,.84.69v26.88a.84.84,0,0,1-.84.7h0A.88.88,0,0,1,623.81,317.64Z" transform="translate(-574.41 -278.94)" style="fill-rule:evenodd;fill:url(#未命名的渐变_3)"/><path id="shape154" d="M628.19,317.64V290.76c0-.41.42-.69.92-.69h0a.79.79,0,0,1,.84.69v26.88a.86.86,0,0,1-.84.7h0A.87.87,0,0,1,628.19,317.64Z" transform="translate(-574.41 -278.94)" style="fill-rule:evenodd;fill:url(#未命名的渐变_4)"/><path id="shape155" d="M632.57,317.64V290.76c0-.41.42-.69.9-.69h0a.76.76,0,0,1,.84.67v26.9a.84.84,0,0,1-.84.7h0A.85.85,0,0,1,632.57,317.64Z" transform="translate(-574.41 -278.94)" style="fill-rule:evenodd;fill:url(#未命名的渐变_5)"/><path id="shape156" d="M636.93,317.64V290.76c0-.41.42-.69.92-.69h0a.77.77,0,0,1,.84.69v26.88a.84.84,0,0,1-.84.7h0A.88.88,0,0,1,636.93,317.64Z" transform="translate(-574.41 -278.94)" style="fill-rule:evenodd;fill:url(#未命名的渐变_6)"/><path id="shape157" d="M641.31,317.64V290.76c0-.41.42-.69.92-.69h0a.77.77,0,0,1,.84.69v26.88a.84.84,0,0,1-.84.7h0A.88.88,0,0,1,641.31,317.64Z" transform="translate(-574.41 -278.94)" style="fill-rule:evenodd;fill:url(#未命名的渐变_7)"/></g></g></g></g></svg>