<svg id="图层_1" data-name="图层 1" xmlns="http://www.w3.org/2000/svg" xmlns:xlink="http://www.w3.org/1999/xlink" width="50.52" height="80" viewBox="0 0 50.52 80"><defs><linearGradient id="未命名的渐变" x1="-1128.29" y1="5304.36" x2="-1128.99" y2="5304.36" gradientTransform="matrix(72, 0, 0, -114, 81869.24, 605008.5)" gradientUnits="userSpaceOnUse"><stop offset="0" stop-color="#666971"/><stop offset="0.03" stop-color="#b0b2ba"/><stop offset="0.05" stop-color="#878a95"/><stop offset="0.64" stop-color="#858792"/><stop offset="0.95" stop-color="#82848f"/><stop offset="1" stop-color="#5f6169"/></linearGradient><linearGradient id="未命名的渐变_2" x1="-1117.07" y1="5312.59" x2="-1117.77" y2="5312.59" gradientTransform="matrix(48.6, 0, 0, -91.7, 54913.05, 487476.32)" gradientUnits="userSpaceOnUse"><stop offset="0" stop-color="#383a42"/><stop offset="0.03" stop-color="#8e8f94"/><stop offset="0.03" stop-color="#4c4f59"/><stop offset="0.76" stop-color="#4a4d57"/><stop offset="0.97" stop-color="#494b55"/><stop offset="1" stop-color="#34363d"/></linearGradient><linearGradient id="未命名的渐变_3" x1="-1115.85" y1="5325.9" x2="-1115.85" y2="5326.6" gradientTransform="matrix(46.5, 0, 0, -69.3, 52493.91, 369427.33)" gradientUnits="userSpaceOnUse"><stop offset="0" stop-color="#ededed"/><stop offset="0.11" stop-color="#e2e2e2"/><stop offset="0.55" stop-color="#c7c7c7"/><stop offset="1" stop-color="#b8b8b8"/></linearGradient></defs><title>25_0</title><g id="开关区"><g id="group85"><path id="shape86" d="M582.11,271.94h49.06a.77.77,0,0,1,.76.76h0v78.48a.76.76,0,0,1-.76.75H582.11a.73.73,0,0,1-.7-.74h0V272.71a.75.75,0,0,1,.68-.77Z" transform="translate(-581.41 -271.94)" style="fill-rule:evenodd;fill:url(#未命名的渐变)"/><path id="shape87" d="M589.63,279.75h34.1v64.36h-34.1Z" transform="translate(-581.41 -271.94)" style="fill-rule:evenodd;fill:url(#未命名的渐变_2)"/><path id="shape88" d="M590.35,294.77H623v48.64H590.35Z" transform="translate(-581.41 -271.94)" style="fill-rule:evenodd;fill:url(#未命名的渐变_3)"/><path id="shape89" d="M590.35,280.41H623v14.73H590.35Z" transform="translate(-581.41 -271.94)" style="fill:#dcdcdd;fill-rule:evenodd"/><path id="shape90" d="M590.35,293.94H623v1.54H590.35Z" transform="translate(-581.41 -271.94)" style="fill:#fff;fill-opacity:0.5299999713897705;fill-rule:evenodd"/></g></g></svg>