<svg id="图层_1" data-name="图层 1" xmlns="http://www.w3.org/2000/svg" xmlns:xlink="http://www.w3.org/1999/xlink" width="50.52" height="80" viewBox="0 0 50.52 80"><defs><linearGradient id="未命名的渐变" x1="-1448.58" y1="5253.06" x2="-1449.28" y2="5253.06" gradientTransform="matrix(72, 0, 0, -114, 104929.24, 599161.5)" gradientUnits="userSpaceOnUse"><stop offset="0" stop-color="#666971"/><stop offset="0.03" stop-color="#b0b2ba"/><stop offset="0.05" stop-color="#878a95"/><stop offset="0.64" stop-color="#858792"/><stop offset="0.95" stop-color="#82848f"/><stop offset="1" stop-color="#5f6169"/></linearGradient><linearGradient id="未命名的渐变_2" x1="-1466.38" y1="5248.82" x2="-1467.08" y2="5248.82" gradientTransform="matrix(48.6, 0, 0, -91.7, 71889.06, 481629.29)" gradientUnits="userSpaceOnUse"><stop offset="0" stop-color="#383a42"/><stop offset="0.03" stop-color="#8e8f94"/><stop offset="0.03" stop-color="#4c4f59"/><stop offset="0.76" stop-color="#4a4d57"/><stop offset="0.97" stop-color="#494b55"/><stop offset="1" stop-color="#34363d"/></linearGradient><linearGradient id="未命名的渐变_3" x1="-1469.2" y1="5242.12" x2="-1469.2" y2="5241.42" gradientTransform="matrix(46.5, 0, 0, -69.3, 68923.96, 363560.02)" gradientUnits="userSpaceOnUse"><stop offset="0" stop-color="#ededed"/><stop offset="0.11" stop-color="#e2e2e2"/><stop offset="0.55" stop-color="#c7c7c7"/><stop offset="1" stop-color="#b8b8b8"/></linearGradient></defs><title>25_1</title><g id="开关区"><g id="group103"><path id="shape104" d="M581.74,272.32H630.8a.76.76,0,0,1,.76.76h0v78.48a.77.77,0,0,1-.76.76H581.74a.74.74,0,0,1-.7-.74h0v-78.5a.73.73,0,0,1,.68-.76Z" transform="translate(-581.04 -272.32)" style="fill-rule:evenodd;fill:url(#未命名的渐变)"/><path id="shape105" d="M589.26,280.1h34v64.36h-34Z" transform="translate(-581.04 -272.32)" style="fill-rule:evenodd;fill:url(#未命名的渐变_2)"/><path id="shape106" d="M590,280.88h32.62v48.64H590Z" transform="translate(-581.04 -272.32)" style="fill-rule:evenodd;fill:url(#未命名的渐变_3)"/><path id="shape107" d="M590,329.1h32.62v14.72H590Z" transform="translate(-581.04 -272.32)" style="fill:#dcdcdd;fill-rule:evenodd"/><path id="shape108" d="M590,328.66h32.62v1.66H590Z" transform="translate(-581.04 -272.32)" style="fill:#fff;fill-opacity:0.5299999713897705;fill-rule:evenodd"/></g></g></svg>