<svg id="图层_1" data-name="图层 1" xmlns="http://www.w3.org/2000/svg" xmlns:xlink="http://www.w3.org/1999/xlink" width="80" height="50.52" viewBox="0 0 80 50.52"><defs><linearGradient id="未命名的渐变" x1="-1079.82" y1="4939.15" x2="-1080.52" y2="4939.15" gradientTransform="translate(563677.5 78077.14) rotate(90) scale(72 114)" gradientUnits="userSpaceOnUse"><stop offset="0" stop-color="#666971"/><stop offset="0.03" stop-color="#b0b2ba"/><stop offset="0.05" stop-color="#878a95"/><stop offset="0.64" stop-color="#858792"/><stop offset="0.95" stop-color="#82848f"/><stop offset="1" stop-color="#5f6169"/></linearGradient><linearGradient id="未命名的渐变_2" x1="-1076.77" y1="4923.62" x2="-1077.47" y2="4923.62" gradientTransform="translate(452109.95 52653.04) rotate(90) scale(48.6 91.7)" gradientUnits="userSpaceOnUse"><stop offset="0" stop-color="#383a42"/><stop offset="0.03" stop-color="#8e8f94"/><stop offset="0.03" stop-color="#4c4f59"/><stop offset="0.76" stop-color="#4a4d57"/><stop offset="0.97" stop-color="#494b55"/><stop offset="1" stop-color="#34363d"/></linearGradient><linearGradient id="未命名的渐变_3" x1="-1076.71" y1="4897.66" x2="-1076.71" y2="4898.36" gradientTransform="translate(340052.48 50371.44) rotate(90) scale(46.5 69.3)" gradientUnits="userSpaceOnUse"><stop offset="0" stop-color="#ededed"/><stop offset="0.11" stop-color="#e2e2e2"/><stop offset="0.55" stop-color="#c7c7c7"/><stop offset="1" stop-color="#b8b8b8"/></linearGradient></defs><title>26_0</title><g id="开关区"><g id="group91"><path id="shape92" d="M574,280v49.06a.76.76,0,0,0,.76.76h78.48a.76.76,0,0,0,.76-.76V280a.74.74,0,0,0-.74-.7H574.8a.74.74,0,0,0-.76.68Z" transform="translate(-574.04 -279.31)" style="fill-rule:evenodd;fill:url(#未命名的渐变)"/><path id="shape93" d="M581.82,287.53v34h64.36v-34Z" transform="translate(-574.04 -279.31)" style="fill-rule:evenodd;fill:url(#未命名的渐变_2)"/><path id="shape94" d="M596.92,288.31v32.62h48.62V288.31Z" transform="translate(-574.04 -279.31)" style="fill-rule:evenodd;fill:url(#未命名的渐变_3)"/><path id="shape95" d="M582.54,288.31v32.62h14.72V288.31Z" transform="translate(-574.04 -279.31)" style="fill:#dcdcdd;fill-rule:evenodd"/><path id="shape96" d="M596.14,288.31v32.62h1.54V288.31Z" transform="translate(-574.04 -279.31)" style="fill:#fff;fill-opacity:0.5299999713897705;fill-rule:evenodd"/></g></g></svg>