<svg id="图层_1" data-name="图层 1" xmlns="http://www.w3.org/2000/svg" xmlns:xlink="http://www.w3.org/1999/xlink" width="80" height="50.52" viewBox="0 0 80 50.52"><defs><linearGradient id="未命名的渐变" x1="-1295.82" y1="5017.89" x2="-1296.52" y2="5017.89" gradientTransform="translate(-571425.5 -93019.87) rotate(-90) scale(72 114)" gradientUnits="userSpaceOnUse"><stop offset="0" stop-color="#666971"/><stop offset="0.03" stop-color="#b0b2ba"/><stop offset="0.05" stop-color="#878a95"/><stop offset="0.64" stop-color="#858792"/><stop offset="0.95" stop-color="#82848f"/><stop offset="1" stop-color="#5f6169"/></linearGradient><linearGradient id="未命名的渐变_2" x1="-1271.58" y1="5021.5" x2="-1272.28" y2="5021.5" gradientTransform="translate(-459857.95 -61511.77) rotate(-90) scale(48.6 91.7)" gradientUnits="userSpaceOnUse"><stop offset="0" stop-color="#383a42"/><stop offset="0.03" stop-color="#8e8f94"/><stop offset="0.03" stop-color="#4c4f59"/><stop offset="0.76" stop-color="#4a4d57"/><stop offset="0.97" stop-color="#494b55"/><stop offset="1" stop-color="#34363d"/></linearGradient><linearGradient id="未命名的渐变_3" x1="-1268.56" y1="5027.17" x2="-1268.56" y2="5027.87" gradientTransform="translate(-347800.48 -58684.17) rotate(-90) scale(46.5 69.3)" gradientUnits="userSpaceOnUse"><stop offset="0" stop-color="#ededed"/><stop offset="0.11" stop-color="#e2e2e2"/><stop offset="0.55" stop-color="#c7c7c7"/><stop offset="1" stop-color="#b8b8b8"/></linearGradient></defs><title>26_1</title><g id="开关区"><g id="group97"><path id="shape98" d="M653.66,328.25V279.19a.76.76,0,0,0-.76-.76H574.42a.76.76,0,0,0-.76.76h0v49.06a.74.74,0,0,0,.74.7h78.5a.74.74,0,0,0,.76-.68Z" transform="translate(-573.66 -278.43)" style="fill-rule:evenodd;fill:url(#未命名的渐变)"/><path id="shape99" d="M645.86,320.73v-34.1H581.52v34Z" transform="translate(-573.66 -278.43)" style="fill-rule:evenodd;fill:url(#未命名的渐变_2)"/><path id="shape100" d="M630.78,320V287.33H582.16V320Z" transform="translate(-573.66 -278.43)" style="fill-rule:evenodd;fill:url(#未命名的渐变_3)"/><path id="shape101" d="M645.16,320V287.33H630.44V320Z" transform="translate(-573.66 -278.43)" style="fill:#dcdcdd;fill-rule:evenodd"/><path id="shape102" d="M631.66,320V287.33H630.1V320Z" transform="translate(-573.66 -278.43)" style="fill:#fff;fill-opacity:0.5299999713897705;fill-rule:evenodd"/></g></g></svg>