<svg id="图层_1" data-name="图层 1" xmlns="http://www.w3.org/2000/svg" xmlns:xlink="http://www.w3.org/1999/xlink" width="65.5" height="90.06" viewBox="0 0 65.5 90.06"><defs><linearGradient id="未命名的渐变" x1="-1646.99" y1="5314.59" x2="-1647.67" y2="5314.59" gradientTransform="matrix(96, 0, 0, -95.9, 158753.65, 509971.7)" gradientUnits="userSpaceOnUse"><stop offset="0" stop-color="#666971"/><stop offset="0.03" stop-color="#b0b2ba"/><stop offset="0.05" stop-color="#878a95"/><stop offset="0.64" stop-color="#858792"/><stop offset="0.95" stop-color="#82848f"/><stop offset="1" stop-color="#5f6169"/></linearGradient><radialGradient id="未命名的渐变_2" cx="546.68" cy="9275.2" r="33.34" gradientTransform="matrix(1, 0, 0, -1, 64.39, 9578.13)" gradientUnits="userSpaceOnUse"><stop offset="0" stop-color="#3c3736"/><stop offset="0.85" stop-color="#3b3635"/><stop offset="0.85" stop-color="#7a7877"/><stop offset="0.85" stop-color="#3b3635"/></radialGradient><linearGradient id="未命名的渐变_3" x1="-1570.53" y1="5307.37" x2="-1571.21" y2="5307.37" gradientTransform="matrix(22, 0, 0, -116, 35169.73, 615975)" xlink:href="#未命名的渐变"/><linearGradient id="未命名的渐变_4" x1="-1570.97" y1="5396.54" x2="-1571.65" y2="5396.54" gradientTransform="matrix(22.1, 0, 0, -32.5, 35336.76, 175677.63)" gradientUnits="userSpaceOnUse"><stop offset="0" stop-color="#7b7e89"/><stop offset="0.03" stop-color="#c3c5d1"/><stop offset="0.05" stop-color="#a1a5b3"/><stop offset="0.64" stop-color="#9ea2b0"/><stop offset="0.95" stop-color="#9b9eac"/><stop offset="1" stop-color="#72747f"/></linearGradient></defs><title>27_0</title><g id="开关区"><g id="group109"><path id="shape110" d="M578.45,269.44h64a.74.74,0,0,1,.74.74h0v63.87a.77.77,0,0,1-.74.75h-64a.76.76,0,0,1-.76-.75V270.19a.75.75,0,0,1,.74-.75Z" transform="translate(-577.69 -269.44)" style="fill-rule:evenodd;fill:url(#未命名的渐变)"/><path id="shape111" d="M580.63,271.61h59.56a.78.78,0,0,1,.76.75v59.58a.71.71,0,0,1-.72.68h-59.6a.69.69,0,0,1-.76-.63v0h0V272.44a.77.77,0,0,1,.71-.83Z" transform="translate(-577.69 -269.44)" style="fill:#efefe4;fill-rule:evenodd"/><path id="shape112" d="M587.21,302.64a23.6,23.6,0,1,1,23.7,23.5h0A23.59,23.59,0,0,1,587.21,302.64Z" transform="translate(-577.69 -269.44)" style="stroke:#3e3938;stroke-width:0.5px;fill-rule:evenodd;fill:url(#未命名的渐变_2)"/><path id="shape113" d="M604,280.44h13.5a.76.76,0,0,1,.76.75v77.5a.83.83,0,0,1-.76.82H604a.79.79,0,0,1-.74-.82h0V281.11A.75.75,0,0,1,604,280.44Z" transform="translate(-577.69 -269.44)" style="fill-rule:evenodd;fill:url(#未命名的渐变_3)"/><path id="shape114" d="M618.33,280.44v20.78H603.27V280.44a22.24,22.24,0,0,1,7.5-1.3A23.73,23.73,0,0,1,618.33,280.44Z" transform="translate(-577.69 -269.44)" style="fill-rule:evenodd;fill:url(#未命名的渐变_4)"/><path id="shape115" d="M610.47,284.44h.62a.77.77,0,0,1,.74.76v11a.75.75,0,0,1-.74.75h-.62a.73.73,0,0,1-.74-.73V285.25a.73.73,0,0,1,.67-.8Z" transform="translate(-577.69 -269.44)" style="fill:#f2f2ea;fill-opacity:0.25;fill-rule:evenodd"/></g></g></svg>