<svg id="图层_1" data-name="图层 1" xmlns="http://www.w3.org/2000/svg" xmlns:xlink="http://www.w3.org/1999/xlink" width="65.52" height="90" viewBox="0 0 65.52 90"><defs><linearGradient id="未命名的渐变" x1="-1899.8" y1="5287.21" x2="-1900.49" y2="5287.21" gradientTransform="matrix(-96, 0, 0, 95.9, -181804.5, -506716.7)" gradientUnits="userSpaceOnUse"><stop offset="0" stop-color="#666971"/><stop offset="0.03" stop-color="#b0b2ba"/><stop offset="0.05" stop-color="#878a95"/><stop offset="0.64" stop-color="#858792"/><stop offset="0.95" stop-color="#82848f"/><stop offset="1" stop-color="#5f6169"/></linearGradient><radialGradient id="未命名的渐变_2" cx="973.74" cy="6649.21" r="33.34" gradientTransform="matrix(-1, 0, 0, 1, 1583.32, -6323.1)" gradientUnits="userSpaceOnUse"><stop offset="0" stop-color="#3c3736"/><stop offset="0.85" stop-color="#3b3635"/><stop offset="0.85" stop-color="#7a7877"/><stop offset="0.85" stop-color="#3b3635"/></radialGradient><linearGradient id="未命名的渐变_3" x1="-1799.28" y1="5284.73" x2="-1799.96" y2="5284.73" gradientTransform="matrix(-22, 0, 0, 116, -38981.74, -612720)" xlink:href="#未命名的渐变"/><linearGradient id="未命名的渐变_4" x1="-1799.86" y1="5315.74" x2="-1800.54" y2="5315.74" gradientTransform="matrix(-22.1, 0, 0, 32.5, -39174.69, -172422.59)" gradientUnits="userSpaceOnUse"><stop offset="0" stop-color="#7b7e89"/><stop offset="0.03" stop-color="#c3c5d1"/><stop offset="0.05" stop-color="#a1a5b3"/><stop offset="0.64" stop-color="#9ea2b0"/><stop offset="0.95" stop-color="#9b9eac"/><stop offset="1" stop-color="#72747f"/></linearGradient></defs><title>27_1</title><g id="开关区"><g id="group123"><path id="shape124" d="M642.24,359.59h-64a.75.75,0,0,1-.76-.74V295a.76.76,0,0,1,.76-.74h64a.76.76,0,0,1,.76.74v63.91A.75.75,0,0,1,642.24,359.59Z" transform="translate(-577.48 -269.59)" style="fill-rule:evenodd;fill:url(#未命名的渐变)"/><path id="shape125" d="M640.06,357.42H580.48a.77.77,0,0,1-.76-.76V297.09a.71.71,0,0,1,.74-.67h59.6a.7.7,0,0,1,.76.63v0h0v59.51a.76.76,0,0,1-.7.82Z" transform="translate(-577.48 -269.59)" style="fill:#efefe4;fill-rule:evenodd"/><path id="shape126" d="M633.46,326.4a23.6,23.6,0,1,1-23.7-23.5h0a23.6,23.6,0,0,1,23.7,23.49Z" transform="translate(-577.48 -269.59)" style="stroke:#3e3938;stroke-width:0.5px;fill-rule:evenodd;fill:url(#未命名的渐变_2)"/><path id="shape127" d="M616.62,348.59h-13.5a.73.73,0,0,1-.76-.71V270.42a.83.83,0,0,1,.76-.83h13.5a.83.83,0,0,1,.74.83v77.5a.74.74,0,0,1-.72.75h0Z" transform="translate(-577.48 -269.59)" style="fill-rule:evenodd;fill:url(#未命名的渐变_3)"/><path id="shape128" d="M602.36,348.59V327.82h15v20.77a22.09,22.09,0,0,1-7.5,1.31A22.55,22.55,0,0,1,602.36,348.59Z" transform="translate(-577.48 -269.59)" style="fill-rule:evenodd;fill:url(#未命名的渐变_4)"/><path id="shape129" d="M610.2,344.59h-.62a.75.75,0,0,1-.74-.75v-11a.75.75,0,0,1,.74-.75h.62a.76.76,0,0,1,.76.75v11A.78.78,0,0,1,610.2,344.59Z" transform="translate(-577.48 -269.59)" style="fill:#f2f2ea;fill-opacity:0.25;fill-rule:evenodd"/></g></g></svg>