<svg id="图层_1" data-name="图层 1" xmlns="http://www.w3.org/2000/svg" xmlns:xlink="http://www.w3.org/1999/xlink" width="90" height="65.52" viewBox="0 0 90 65.52"><defs><linearGradient id="未命名的渐变" x1="-1630.07" y1="4978.19" x2="-1630.75" y2="4978.19" gradientTransform="translate(-476779.89 -156211.14) rotate(-90) scale(96 95.9)" gradientUnits="userSpaceOnUse"><stop offset="0" stop-color="#666971"/><stop offset="0.03" stop-color="#b0b2ba"/><stop offset="0.05" stop-color="#878a95"/><stop offset="0.64" stop-color="#858792"/><stop offset="0.95" stop-color="#82848f"/><stop offset="1" stop-color="#5f6169"/></linearGradient><radialGradient id="未命名的渐变_2" cx="-3107.75" cy="2214.61" r="33.34" gradientTransform="translate(-1586.55 -2800.14) rotate(-90)" gradientUnits="userSpaceOnUse"><stop offset="0" stop-color="#3c3736"/><stop offset="0.85" stop-color="#3b3635"/><stop offset="0.85" stop-color="#7a7877"/><stop offset="0.85" stop-color="#3b3635"/></radialGradient><linearGradient id="未命名的渐变_3" x1="-1683.59" y1="4983.25" x2="-1684.27" y2="4983.25" gradientTransform="translate(-577445.75 -36738.64) rotate(-90) scale(22 116)" xlink:href="#未命名的渐变"/><linearGradient id="未命名的渐变_4" x1="-1683.29" y1="4921.91" x2="-1683.97" y2="4921.91" gradientTransform="translate(-159321.38 -36900.14) rotate(-90) scale(22.1 32.5)" gradientUnits="userSpaceOnUse"><stop offset="0" stop-color="#7b7e89"/><stop offset="0.03" stop-color="#c3c5d1"/><stop offset="0.05" stop-color="#a1a5b3"/><stop offset="0.64" stop-color="#9ea2b0"/><stop offset="0.95" stop-color="#9b9eac"/><stop offset="1" stop-color="#72747f"/></linearGradient></defs><title>28_0</title><g id="开关区"><g id="group116"><path id="shape117" d="M661.54,340.27v-64a.76.76,0,0,0-.74-.76H596.9a.76.76,0,0,0-.74.76v64a.75.75,0,0,0,.74.75h63.9A.75.75,0,0,0,661.54,340.27Z" transform="translate(-571.54 -275.51)" style="fill-rule:evenodd;fill:url(#未命名的渐变)"/><path id="shape118" d="M659.36,338.08V278.51a.76.76,0,0,0-.76-.76H599a.71.71,0,0,0-.68.73h0v59.6a.7.7,0,0,0,.64.76h59.54a.75.75,0,0,0,.82-.69Z" transform="translate(-571.54 -275.51)" style="fill:#efefe4;fill-rule:evenodd"/><path id="shape119" d="M628.34,331.49a23.6,23.6,0,1,0-23.5-23.71h0a23.61,23.61,0,0,0,23.5,23.71Z" transform="translate(-571.54 -275.51)" style="stroke:#3e3938;stroke-width:0.5px;fill-rule:evenodd;fill:url(#未命名的渐变_2)"/><path id="shape120" d="M650.54,314.71V301.2a.77.77,0,0,0-.74-.76H572.36a.85.85,0,0,0-.82.76v13.51a.82.82,0,0,0,.82.74h77.5a.75.75,0,0,0,.76-.72v0Z" transform="translate(-571.54 -275.51)" style="fill-rule:evenodd;fill:url(#未命名的渐变_3)"/><path id="shape121" d="M650.54,300.39H629.76v15h20.78a22.33,22.33,0,0,0,1.3-7.5A22.75,22.75,0,0,0,650.54,300.39Z" transform="translate(-571.54 -275.51)" style="fill-rule:evenodd;fill:url(#未命名的渐变_4)"/><path id="shape122" d="M646.54,308.22v-.61a.76.76,0,0,0-.76-.75h-11a.74.74,0,0,0-.74.74h0v.61a.76.76,0,0,0,.74.76h11A.77.77,0,0,0,646.54,308.22Z" transform="translate(-571.54 -275.51)" style="fill:#f2f2ea;fill-opacity:0.25;fill-rule:evenodd"/></g></g></svg>