<svg id="图层_1" data-name="图层 1" xmlns="http://www.w3.org/2000/svg" xmlns:xlink="http://www.w3.org/1999/xlink" width="89.98" height="65.52" viewBox="0 0 89.98 65.52"><defs><linearGradient id="未命名的渐变" x1="-1806.99" y1="4980.61" x2="-1807.67" y2="4980.61" gradientTransform="translate(478244.9 173811.86) rotate(90) scale(96 95.9)" gradientUnits="userSpaceOnUse"><stop offset="0" stop-color="#666971"/><stop offset="0.03" stop-color="#b0b2ba"/><stop offset="0.05" stop-color="#878a95"/><stop offset="0.64" stop-color="#858792"/><stop offset="0.95" stop-color="#82848f"/><stop offset="1" stop-color="#5f6169"/></linearGradient><radialGradient id="未命名的渐变_2" cx="4608.48" cy="2446.05" r="33.34" gradientTransform="translate(3051.56 -4299.14) rotate(90)" gradientUnits="userSpaceOnUse"><stop offset="0" stop-color="#3c3736"/><stop offset="0.85" stop-color="#3b3635"/><stop offset="0.85" stop-color="#7a7877"/><stop offset="0.85" stop-color="#3b3635"/></radialGradient><linearGradient id="未命名的渐变_3" x1="-1581.04" y1="4985.24" x2="-1581.72" y2="4985.24" gradientTransform="translate(578910.76 35099.46) rotate(90) scale(22 116)" xlink:href="#未命名的渐变"/><linearGradient id="未命名的渐变_4" x1="-1582.37" y1="4929.04" x2="-1583.05" y2="4929.04" gradientTransform="translate(160786.39 35286.86) rotate(90) scale(22.1 32.5)" gradientUnits="userSpaceOnUse"><stop offset="0" stop-color="#7b7e89"/><stop offset="0.03" stop-color="#c3c5d1"/><stop offset="0.05" stop-color="#a1a5b3"/><stop offset="0.64" stop-color="#9ea2b0"/><stop offset="0.95" stop-color="#9b9eac"/><stop offset="1" stop-color="#72747f"/></linearGradient></defs><title>28_1</title><g id="开关区"><g id="group130"><path id="shape131" d="M572.05,276.71v64a.74.74,0,0,0,.72.75h63.9a.76.76,0,0,0,.76-.75v-64a.77.77,0,0,0-.76-.77H572.79a.74.74,0,0,0-.74.74Z" transform="translate(-572.05 -275.94)" style="fill-rule:evenodd;fill:url(#未命名的渐变)"/><path id="shape132" d="M574.23,278.89v59.57a.74.74,0,0,0,.72.76h59.62a.71.71,0,0,0,.68-.74h0V278.89a.71.71,0,0,0-.66-.76H575.07a.73.73,0,0,0-.83.63A.53.53,0,0,0,574.23,278.89Z" transform="translate(-572.05 -275.94)" style="fill:#efefe4;fill-rule:evenodd"/><path id="shape133" d="M605.25,285.49a23.6,23.6,0,1,0,23.5,23.69v0h0A23.61,23.61,0,0,0,605.25,285.49Z" transform="translate(-572.05 -275.94)" style="stroke:#3e3938;stroke-width:0.5px;fill-rule:evenodd;fill:url(#未命名的渐变_2)"/><path id="shape134" d="M583,302.32v13.44a.76.76,0,0,0,.76.76h77.5a.81.81,0,0,0,.82-.76V302.32a.82.82,0,0,0-.82-.74h-77.5A.76.76,0,0,0,583,302.32Z" transform="translate(-572.05 -275.94)" style="fill-rule:evenodd;fill:url(#未命名的渐变_3)"/><path id="shape135" d="M583,316.59h20.86V301.53H583a22.24,22.24,0,0,0-1.3,7.5A23.78,23.78,0,0,0,583,316.59Z" transform="translate(-572.05 -275.94)" style="fill-rule:evenodd;fill:url(#未命名的渐变_4)"/><path id="shape136" d="M587.07,308.74v.62a.75.75,0,0,0,.76.74h11a.75.75,0,0,0,.74-.74v-.62a.75.75,0,0,0-.74-.75h-11a.77.77,0,0,0-.8.75Z" transform="translate(-572.05 -275.94)" style="fill:#f2f2ea;fill-opacity:0.25;fill-rule:evenodd"/></g></g></svg>