<svg id="图层_1" data-name="图层 1" xmlns="http://www.w3.org/2000/svg" xmlns:xlink="http://www.w3.org/1999/xlink" width="51.94" height="80" viewBox="0 0 51.94 80"><defs><linearGradient id="未命名的渐变" x1="-2036.39" y1="4985.98" x2="-2037.09" y2="4985.98" gradientTransform="translate(23214.92 -68959.47) scale(11.1 13.9)" gradientUnits="userSpaceOnUse"><stop offset="0" stop-color="#63656d"/><stop offset="0.15" stop-color="#92959e"/><stop offset="0.25" stop-color="#b0b2b8"/><stop offset="0.52" stop-color="#757882"/><stop offset="0.69" stop-color="#686a73"/><stop offset="0.8" stop-color="#62646c"/><stop offset="1" stop-color="#5c5e66"/></linearGradient><linearGradient id="未命名的渐变_2" x1="-2050.69" y1="5682.6" x2="-2051.39" y2="5682.6" gradientTransform="matrix(11.9, 0, 0, -9.6, 25014.59, 54901.51)" gradientUnits="userSpaceOnUse"><stop offset="0" stop-color="#343232"/><stop offset="0.15" stop-color="#555454"/><stop offset="0.26" stop-color="#797777"/><stop offset="0.41" stop-color="#5d5b5b"/><stop offset="0.6" stop-color="#484646"/><stop offset="0.8" stop-color="#383636"/><stop offset="0.93" stop-color="#2c2b2b"/><stop offset="1" stop-color="#535151"/></linearGradient><linearGradient id="未命名的渐变_3" x1="-2217.29" y1="5321.34" x2="-2218.01" y2="5321.34" gradientTransform="matrix(74, 0, 0, -77.4, 164713.02, 412170.9)" gradientUnits="userSpaceOnUse"><stop offset="0" stop-color="#92a6ae"/><stop offset="0.03" stop-color="#daeff8"/><stop offset="0.05" stop-color="#bed8e3"/><stop offset="0.64" stop-color="#bbd5df"/><stop offset="0.95" stop-color="#b7d0da"/><stop offset="1" stop-color="#879aa2"/></linearGradient><linearGradient id="未命名的渐变_4" x1="-2077.67" y1="5347.51" x2="-2078.37" y2="5347.51" gradientTransform="matrix(13.8, 0, 0, -51.1, 29271.53, 273556.72)" gradientUnits="userSpaceOnUse"><stop offset="0" stop-color="#383a42"/><stop offset="0.03" stop-color="#8e8f94"/><stop offset="0.03" stop-color="#4c4f59"/><stop offset="0.76" stop-color="#4a4d57"/><stop offset="0.97" stop-color="#494b55"/><stop offset="1" stop-color="#34363d"/></linearGradient><linearGradient id="未命名的渐变_5" x1="-1997.35" y1="5354.23" x2="-1998.05" y2="5354.23" gradientTransform="matrix(9.4, 0, 0, -47, 19373.39, 251947.69)" gradientUnits="userSpaceOnUse"><stop offset="0"/><stop offset="0.03" stop-color="#7c7c7c"/><stop offset="0.03"/><stop offset="0.76"/><stop offset="0.97"/><stop offset="1"/></linearGradient><linearGradient id="未命名的渐变_6" x1="-2078.39" y1="5347.51" x2="-2079.09" y2="5347.51" gradientTransform="matrix(13.8, 0, 0, -51.1, 29305.74, 273556.72)" xlink:href="#未命名的渐变_4"/><linearGradient id="未命名的渐变_7" x1="-1998.43" y1="5354.23" x2="-1999.13" y2="5354.23" gradientTransform="matrix(9.4, 0, 0, -47, 19407.6, 251947.69)" xlink:href="#未命名的渐变_5"/><linearGradient id="未命名的渐变_8" x1="-1998.43" y1="6185.53" x2="-1999.13" y2="6185.53" gradientTransform="matrix(9.4, 0, 0, -4.3, 19407.6, 26895.75)" gradientUnits="userSpaceOnUse"><stop offset="0" stop-color="#3d3b3b"/><stop offset="0.03" stop-color="#908f8f"/><stop offset="0.03" stop-color="#514f4f"/><stop offset="0.76" stop-color="#504e4e"/><stop offset="0.97" stop-color="#4e4c4c"/><stop offset="1" stop-color="#383636"/></linearGradient><linearGradient id="未命名的渐变_9" x1="-1997.35" y1="6185.53" x2="-1998.05" y2="6185.53" gradientTransform="matrix(9.4, 0, 0, -4.3, 19373.39, 26895.75)" xlink:href="#未命名的渐变_8"/><linearGradient id="未命名的渐变_10" x1="-1958.18" y1="5190.87" x2="-1958.88" y2="5190.87" gradientTransform="translate(16483.19 -256633.09) scale(8.1 49.5)" gradientUnits="userSpaceOnUse"><stop offset="0" stop-color="#bdbdbd"/><stop offset="0.15" stop-color="#fff"/><stop offset="0.25" stop-color="#fff"/><stop offset="0.52" stop-color="#dfdfdf"/><stop offset="0.69" stop-color="#c7c7c7"/><stop offset="0.8" stop-color="#bcbcbc"/><stop offset="0.92" stop-color="#b1b1b1"/><stop offset="1" stop-color="#cbcbcb"/></linearGradient><linearGradient id="未命名的渐变_11" x1="-2541.53" y1="5190.87" x2="-2542.23" y2="5190.87" gradientTransform="matrix(-8.1, 0, 0, 49.5, -19994.22, -256633.09)" xlink:href="#未命名的渐变_10"/><radialGradient id="未命名的渐变_12" cx="-4615.48" cy="1309.07" r="12" gradientTransform="matrix(-1, 0, 0, 1, -4015.19, -977.4)" gradientUnits="userSpaceOnUse"><stop offset="0" stop-color="#5c5d65"/><stop offset="0.64" stop-color="#62636b"/><stop offset="0.64" stop-color="#686972"/><stop offset="0.64" stop-color="#757781"/><stop offset="0.64" stop-color="#b1b2b8"/><stop offset="0.64" stop-color="#a7a9b0"/><stop offset="1" stop-color="#54565d"/></radialGradient><linearGradient id="未命名的渐变_13" x1="-2365.95" y1="5758.01" x2="-2365.95" y2="5758.71" gradientTransform="translate(-47421.73 46980.7) rotate(180) scale(20.3 8.1)" gradientUnits="userSpaceOnUse"><stop offset="0" stop-color="#787a81"/><stop offset="0.26" stop-color="#a3a5ac"/><stop offset="0.36" stop-color="#999ba3"/><stop offset="0.51" stop-color="#757781"/><stop offset="1" stop-color="#686972"/></linearGradient><radialGradient id="未命名的渐变_14" cx="109.63" cy="1309.07" r="12" gradientTransform="translate(504.06 -977.4)" gradientUnits="userSpaceOnUse"><stop offset="0" stop-color="#5c5d65"/><stop offset="0.64" stop-color="#62636b"/><stop offset="0.64" stop-color="#686972"/><stop offset="0.64" stop-color="#7c7d84"/><stop offset="0.64" stop-color="#aaabb2"/><stop offset="0.64" stop-color="#a0a2a9"/><stop offset="1" stop-color="#54565d"/></radialGradient><linearGradient id="未命名的渐变_15" x1="-2541.53" y1="4415.04" x2="-2542.23" y2="4415.04" gradientTransform="matrix(-8.1, 0, 0, 4.6, -19994.22, -20010.1)" gradientUnits="userSpaceOnUse"><stop offset="0" stop-color="#a3a3a4"/><stop offset="0.15" stop-color="#dededf"/><stop offset="0.25" stop-color="#ededed"/><stop offset="0.52" stop-color="#c0c0c1"/><stop offset="0.69" stop-color="#ababac"/><stop offset="0.8" stop-color="#a1a1a2"/><stop offset="0.92" stop-color="#989899"/><stop offset="1" stop-color="#afafb0"/></linearGradient><linearGradient id="未命名的渐变_16" x1="-1958.18" y1="4415.04" x2="-1958.88" y2="4415.04" gradientTransform="translate(16483.19 -20010.1) scale(8.1 4.6)" xlink:href="#未命名的渐变_15"/></defs><title>29_0</title><g id="开关区"><g id="group180"><g id="group181"><path id="shape182" d="M603.17,350.48H611v-9.76h-7.8Z" transform="translate(-581.05 -271.94)" style="fill-rule:evenodd;fill:url(#未命名的渐变)"/><path id="shape183" d="M603.17,345.2H611a.26.26,0,0,1,.28.24h0v6.14c0,.23,0,.36-.28.36h-7.8a.32.32,0,0,1-.28-.35h0v-6a.3.3,0,0,1,.21-.36Z" transform="translate(-581.05 -271.94)" style="fill-rule:evenodd;fill:url(#未命名的渐变_2)"/></g><path id="shape184" d="M581.69,271.94h50.66a.66.66,0,0,1,.64.63h0v53.05a.62.62,0,0,1-.62.62H581.69a.61.61,0,0,1-.64-.59h0V272.57a.63.63,0,0,1,.62-.63h0Z" transform="translate(-581.05 -271.94)" style="fill-rule:evenodd;fill:url(#未命名的渐变_3)"/><g id="group185"><path id="shape186" d="M590.19,281.17h9.68V317h-9.68Z" transform="translate(-581.05 -271.94)" style="fill-rule:evenodd;fill:url(#未命名的渐变_4)"/><path id="shape187" d="M591.73,282.61h6.58v33h-6.58Z" transform="translate(-581.05 -271.94)" style="fill-rule:evenodd;fill:url(#未命名的渐变_5)"/></g><g id="group188"><path id="shape189" d="M614.19,281.17h9.68V317h-9.68Z" transform="translate(-581.05 -271.94)" style="fill-rule:evenodd;fill:url(#未命名的渐变_6)"/><path id="shape190" d="M615.73,282.61h6.6v33h-6.6Z" transform="translate(-581.05 -271.94)" style="fill-rule:evenodd;fill:url(#未命名的渐变_7)"/></g><path id="shape191" d="M615.73,296.47h6.6v3h-6.6Z" transform="translate(-581.05 -271.94)" style="fill-rule:evenodd;fill:url(#未命名的渐变_8)"/><path id="shape192" d="M591.73,296.47h6.58v3h-6.58Z" transform="translate(-581.05 -271.94)" style="fill-rule:evenodd;fill:url(#未命名的渐变_9)"/><path id="shape193" d="M616.21,332.22h5.68V297.48h-5.68Z" transform="translate(-581.05 -271.94)" style="fill-rule:evenodd;fill:url(#未命名的渐变_10)"/><path id="shape194" d="M597.83,332.22h-5.68V297.48h5.68Z" transform="translate(-581.05 -271.94)" style="fill-rule:evenodd;fill:url(#未命名的渐变_11)"/><path id="shape195" d="M600.29,340.78a10.09,10.09,0,0,1-6.4-2.5,10,10,0,0,1-1.74-6.34h5.68a3.56,3.56,0,0,0,2.46,3.17Z" transform="translate(-581.05 -271.94)" style="fill-rule:evenodd;fill:url(#未命名的渐变_12)"/><path id="shape196" d="M614.25,340.84v-5.67H600v5.67Z" transform="translate(-581.05 -271.94)" style="fill-rule:evenodd;fill:url(#未命名的渐变_13)"/><path id="shape197" d="M613.69,340.78a10.07,10.07,0,0,0,6.38-2.5,9.92,9.92,0,0,0,1.76-6.34h-5.68a3.59,3.59,0,0,1-2.46,3.17Z" transform="translate(-581.05 -271.94)" style="fill-rule:evenodd;fill:url(#未命名的渐变_14)"/><path id="shape198" d="M597.83,300.7h-5.68v-3.22h5.68Z" transform="translate(-581.05 -271.94)" style="fill-rule:evenodd;fill:url(#未命名的渐变_15)"/><path id="shape199" d="M616.21,300.7h5.68v-3.22h-5.68Z" transform="translate(-581.05 -271.94)" style="fill-rule:evenodd;fill:url(#未命名的渐变_16)"/></g></g></svg>