<svg id="图层_1" data-name="图层 1" xmlns="http://www.w3.org/2000/svg" xmlns:xlink="http://www.w3.org/1999/xlink" width="51.94" height="80" viewBox="0 0 51.94 80"><defs><linearGradient id="未命名的渐变" x1="-2713.52" y1="4803.25" x2="-2714.22" y2="4803.25" gradientTransform="translate(-29517.1 67043.47) rotate(180) scale(11.1 13.9)" gradientUnits="userSpaceOnUse"><stop offset="0" stop-color="#63656d"/><stop offset="0.15" stop-color="#92959e"/><stop offset="0.25" stop-color="#b0b2b8"/><stop offset="0.52" stop-color="#757882"/><stop offset="0.69" stop-color="#686a73"/><stop offset="0.8" stop-color="#62646c"/><stop offset="1" stop-color="#5c5e66"/></linearGradient><linearGradient id="未命名的渐变_2" x1="-2699.8" y1="5947.17" x2="-2700.5" y2="5947.17" gradientTransform="matrix(-11.9, 0, 0, 9.6, -31524.77, -56817.51)" gradientUnits="userSpaceOnUse"><stop offset="0" stop-color="#343232"/><stop offset="0.15" stop-color="#555454"/><stop offset="0.26" stop-color="#797777"/><stop offset="0.41" stop-color="#5d5b5b"/><stop offset="0.6" stop-color="#484646"/><stop offset="0.8" stop-color="#383636"/><stop offset="0.93" stop-color="#2c2b2b"/><stop offset="1" stop-color="#535151"/></linearGradient><linearGradient id="未命名的渐变_3" x1="-2539.86" y1="5354.16" x2="-2540.56" y2="5354.16" gradientTransform="matrix(-74, 0, 0, 77.4, -187369.19, -414086.9)" gradientUnits="userSpaceOnUse"><stop offset="0" stop-color="#92a6ae"/><stop offset="0.03" stop-color="#daeff8"/><stop offset="0.05" stop-color="#bed8e3"/><stop offset="0.64" stop-color="#bbd5df"/><stop offset="0.95" stop-color="#b7d0da"/><stop offset="1" stop-color="#879aa2"/></linearGradient><linearGradient id="未命名的渐变_4" x1="-2673.17" y1="5397.21" x2="-2673.87" y2="5397.21" gradientTransform="matrix(-13.8, 0, 0, 51.1, -36275.71, -275472.72)" gradientUnits="userSpaceOnUse"><stop offset="0" stop-color="#383a42"/><stop offset="0.03" stop-color="#8e8f94"/><stop offset="0.03" stop-color="#4c4f59"/><stop offset="0.76" stop-color="#4a4d57"/><stop offset="0.97" stop-color="#494b55"/><stop offset="1" stop-color="#34363d"/></linearGradient><linearGradient id="未命名的渐变_5" x1="-2749.93" y1="5408.27" x2="-2750.63" y2="5408.27" gradientTransform="matrix(-9.4, 0, 0, 47, -25233.57, -253863.69)" gradientUnits="userSpaceOnUse"><stop offset="0"/><stop offset="0.03" stop-color="#7c7c7c"/><stop offset="0.03"/><stop offset="0.76"/><stop offset="0.97"/><stop offset="1"/></linearGradient><linearGradient id="未命名的渐变_6" x1="-2673.91" y1="5397.21" x2="-2674.61" y2="5397.21" gradientTransform="matrix(-13.8, 0, 0, 51.1, -36309.92, -275472.72)" xlink:href="#未命名的渐变_4"/><linearGradient id="未命名的渐变_7" x1="-2751.01" y1="5408.27" x2="-2751.71" y2="5408.27" gradientTransform="matrix(-9.4, 0, 0, 47, -25267.78, -253863.69)" xlink:href="#未命名的渐变_5"/><linearGradient id="未命名的渐变_8" x1="-2751.01" y1="6776.21" x2="-2751.71" y2="6776.21" gradientTransform="matrix(-9.4, 0, 0, 4.3, -25267.78, -28811.75)" gradientUnits="userSpaceOnUse"><stop offset="0" stop-color="#3d3b3b"/><stop offset="0.03" stop-color="#908f8f"/><stop offset="0.03" stop-color="#514f4f"/><stop offset="0.76" stop-color="#504e4e"/><stop offset="0.97" stop-color="#4e4c4c"/><stop offset="1" stop-color="#383636"/></linearGradient><linearGradient id="未命名的渐变_9" x1="-2749.93" y1="6776.21" x2="-2750.63" y2="6776.21" gradientTransform="matrix(-9.4, 0, 0, 4.3, -25233.57, -28811.75)" xlink:href="#未命名的渐变_8"/><linearGradient id="未命名的渐变_10" x1="-2789.82" y1="5139.56" x2="-2790.52" y2="5139.56" gradientTransform="translate(-22005.37 254717.09) rotate(180) scale(8.1 49.5)" gradientUnits="userSpaceOnUse"><stop offset="0" stop-color="#bdbdbd"/><stop offset="0.15" stop-color="#fff"/><stop offset="0.25" stop-color="#fff"/><stop offset="0.52" stop-color="#dfdfdf"/><stop offset="0.69" stop-color="#c7c7c7"/><stop offset="0.8" stop-color="#bcbcbc"/><stop offset="0.92" stop-color="#b1b1b1"/><stop offset="1" stop-color="#cbcbcb"/></linearGradient><linearGradient id="未命名的渐变_11" x1="-2229.9" y1="5139.56" x2="-2230.6" y2="5139.56" gradientTransform="matrix(8.1, 0, 0, -49.5, 18684.04, 254717.09)" xlink:href="#未命名的渐变_10"/><radialGradient id="未命名的渐变_12" cx="-245.27" cy="-1230.84" r="12" gradientTransform="matrix(1, 0, 0, -1, 859.01, -938.6)" gradientUnits="userSpaceOnUse"><stop offset="0" stop-color="#5c5d65"/><stop offset="0.64" stop-color="#62636b"/><stop offset="0.64" stop-color="#686972"/><stop offset="0.64" stop-color="#757781"/><stop offset="0.64" stop-color="#b1b2b8"/><stop offset="0.64" stop-color="#a7a9b0"/><stop offset="1" stop-color="#54565d"/></radialGradient><linearGradient id="未命名的渐变_13" x1="-2397.86" y1="6071.57" x2="-2397.86" y2="6072.27" gradientTransform="translate(49283.55 -48896.7) scale(20.3 8.1)" gradientUnits="userSpaceOnUse"><stop offset="0" stop-color="#787a81"/><stop offset="0.26" stop-color="#a3a5ac"/><stop offset="0.36" stop-color="#999ba3"/><stop offset="0.51" stop-color="#757781"/><stop offset="1" stop-color="#686972"/></linearGradient><radialGradient id="未命名的渐变_14" cx="-4780.58" cy="-1230.84" r="12" gradientTransform="translate(-4180.24 -938.6) rotate(180)" gradientUnits="userSpaceOnUse"><stop offset="0" stop-color="#5c5d65"/><stop offset="0.64" stop-color="#62636b"/><stop offset="0.64" stop-color="#686972"/><stop offset="0.64" stop-color="#7c7d84"/><stop offset="0.64" stop-color="#aaabb2"/><stop offset="0.64" stop-color="#a0a2a9"/><stop offset="1" stop-color="#54565d"/></radialGradient><linearGradient id="未命名的渐变_15" x1="-2229.9" y1="3862.89" x2="-2230.6" y2="3862.89" gradientTransform="matrix(8.1, 0, 0, -4.6, 18684.04, 18094.1)" gradientUnits="userSpaceOnUse"><stop offset="0" stop-color="#a3a3a4"/><stop offset="0.15" stop-color="#dededf"/><stop offset="0.25" stop-color="#ededed"/><stop offset="0.52" stop-color="#c0c0c1"/><stop offset="0.69" stop-color="#ababac"/><stop offset="0.8" stop-color="#a1a1a2"/><stop offset="0.92" stop-color="#989899"/><stop offset="1" stop-color="#afafb0"/></linearGradient><linearGradient id="未命名的渐变_16" x1="-2789.82" y1="3862.89" x2="-2790.52" y2="3862.89" gradientTransform="translate(-22005.37 18094.1) rotate(180) scale(8.1 4.6)" xlink:href="#未命名的渐变_15"/></defs><title>29_1</title><g id="开关区"><g id="group180"><g id="group181"><path id="shape182" d="M610.8,273.42H603v9.76h7.8Z" transform="translate(-581.04 -271.96)" style="fill-rule:evenodd;fill:url(#未命名的渐变)"/><path id="shape183" d="M610.78,278.7H603a.28.28,0,0,1-.28-.24v-6.14c0-.22,0-.36.28-.36h7.78a.32.32,0,0,1,.26.36v6a.29.29,0,0,1-.16.36Z" transform="translate(-581.04 -271.96)" style="fill-rule:evenodd;fill:url(#未命名的渐变_2)"/></g><path id="shape184" d="M632.34,352H581.68a.66.66,0,0,1-.64-.62h0V298.28a.62.62,0,0,1,.62-.62h50.68a.62.62,0,0,1,.64.6h0v53.08a.62.62,0,0,1-.62.62Z" transform="translate(-581.04 -271.96)" style="fill-rule:evenodd;fill:url(#未命名的渐变_3)"/><g id="group185"><path id="shape186" d="M623.84,342.74h-9.68V306.88h9.68Z" transform="translate(-581.04 -271.96)" style="fill-rule:evenodd;fill:url(#未命名的渐变_4)"/><path id="shape187" d="M622.3,341.3h-6.58v-33h6.58Z" transform="translate(-581.04 -271.96)" style="fill-rule:evenodd;fill:url(#未命名的渐变_5)"/></g><g id="group188"><path id="shape189" d="M599.84,342.74h-9.68V306.88h9.68Z" transform="translate(-581.04 -271.96)" style="fill-rule:evenodd;fill:url(#未命名的渐变_6)"/><path id="shape190" d="M598.3,341.3h-6.6v-33h6.6Z" transform="translate(-581.04 -271.96)" style="fill-rule:evenodd;fill:url(#未命名的渐变_7)"/></g><path id="shape191" d="M598.3,327.46h-6.6v-3h6.6Z" transform="translate(-581.04 -271.96)" style="fill-rule:evenodd;fill:url(#未命名的渐变_8)"/><path id="shape192" d="M622.3,327.46h-6.58v-3h6.58Z" transform="translate(-581.04 -271.96)" style="fill-rule:evenodd;fill:url(#未命名的渐变_9)"/><path id="shape193" d="M597.82,291.68h-5.68v34.74h5.68Z" transform="translate(-581.04 -271.96)" style="fill-rule:evenodd;fill:url(#未命名的渐变_10)"/><path id="shape194" d="M616.2,291.68h5.68v34.74H616.2Z" transform="translate(-581.04 -271.96)" style="fill-rule:evenodd;fill:url(#未命名的渐变_11)"/><path id="shape195" d="M613.74,283.12a7.53,7.53,0,0,1,8.14,8.84H616.2a3.52,3.52,0,0,0-2.46-3.14Z" transform="translate(-581.04 -271.96)" style="fill-rule:evenodd;fill:url(#未命名的渐变_12)"/><path id="shape196" d="M599.78,283.06v5.68H614v-5.68Z" transform="translate(-581.04 -271.96)" style="fill-rule:evenodd;fill:url(#未命名的渐变_13)"/><path id="shape197" d="M600.34,283.12A7.55,7.55,0,0,0,592.2,292h5.68a3.59,3.59,0,0,1,2.46-3.16Z" transform="translate(-581.04 -271.96)" style="fill-rule:evenodd;fill:url(#未命名的渐变_14)"/><path id="shape198" d="M616.2,323.2h5.68v3.22H616.2Z" transform="translate(-581.04 -271.96)" style="fill-rule:evenodd;fill:url(#未命名的渐变_15)"/><path id="shape199" d="M597.82,323.2h-5.68v3.22h5.68Z" transform="translate(-581.04 -271.96)" style="fill-rule:evenodd;fill:url(#未命名的渐变_16)"/></g></g></svg>