<svg id="图层_1" data-name="图层 1" xmlns="http://www.w3.org/2000/svg" xmlns:xlink="http://www.w3.org/1999/xlink" width="80" height="51.94" viewBox="0 0 80 51.94"><defs><linearGradient id="未命名的渐变" x1="-2311.33" y1="4819.77" x2="-2312.03" y2="4819.77" gradientTransform="translate(-66347.13 -25354.82) rotate(-90) scale(11.1 13.9)" gradientUnits="userSpaceOnUse"><stop offset="0" stop-color="#63656d"/><stop offset="0.15" stop-color="#92959e"/><stop offset="0.25" stop-color="#b0b2b8"/><stop offset="0.52" stop-color="#757882"/><stop offset="0.69" stop-color="#686a73"/><stop offset="0.8" stop-color="#62646c"/><stop offset="1" stop-color="#5c5e66"/></linearGradient><linearGradient id="未命名的渐变_2" x1="-2302.92" y1="5269.47" x2="-2303.62" y2="5269.47" gradientTransform="matrix(0, -11.9, -9.6, 0, 51237.59, -27104.03)" gradientUnits="userSpaceOnUse"><stop offset="0" stop-color="#343232"/><stop offset="0.15" stop-color="#555454"/><stop offset="0.26" stop-color="#797777"/><stop offset="0.41" stop-color="#5d5b5b"/><stop offset="0.6" stop-color="#484646"/><stop offset="0.8" stop-color="#383636"/><stop offset="0.93" stop-color="#2c2b2b"/><stop offset="1" stop-color="#535151"/></linearGradient><linearGradient id="未命名的渐变_3" x1="-2204.93" y1="5036.15" x2="-2205.63" y2="5036.15" gradientTransform="matrix(0, -74, -77.4, 0, 390399.32, -162885.51)" gradientUnits="userSpaceOnUse"><stop offset="0" stop-color="#92a6ae"/><stop offset="0.03" stop-color="#daeff8"/><stop offset="0.05" stop-color="#bed8e3"/><stop offset="0.64" stop-color="#bbd5df"/><stop offset="0.95" stop-color="#b7d0da"/><stop offset="1" stop-color="#879aa2"/></linearGradient><linearGradient id="未命名的渐变_4" x1="-2286.46" y1="5053" x2="-2287.16" y2="5053" gradientTransform="matrix(0, -13.8, -51.1, 0, 258809.23, -31241.12)" gradientUnits="userSpaceOnUse"><stop offset="0" stop-color="#383a42"/><stop offset="0.03" stop-color="#8e8f94"/><stop offset="0.03" stop-color="#4c4f59"/><stop offset="0.76" stop-color="#4a4d57"/><stop offset="0.97" stop-color="#494b55"/><stop offset="1" stop-color="#34363d"/></linearGradient><linearGradient id="未命名的渐变_5" x1="-2333.42" y1="5057.32" x2="-2334.12" y2="5057.32" gradientTransform="matrix(0, -9.4, -47, 0, 238295.19, -21620.51)" gradientUnits="userSpaceOnUse"><stop offset="0"/><stop offset="0.03" stop-color="#7c7c7c"/><stop offset="0.03"/><stop offset="0.76"/><stop offset="0.97"/><stop offset="1"/></linearGradient><linearGradient id="未命名的渐变_6" x1="-2287.2" y1="5053" x2="-2287.9" y2="5053" gradientTransform="matrix(0, -13.8, -51.1, 0, 258809.23, -31275.33)" xlink:href="#未命名的渐变_4"/><linearGradient id="未命名的渐变_7" x1="-2334.5" y1="5057.32" x2="-2335.22" y2="5057.32" gradientTransform="matrix(0, -9.4, -47, 0, 238295.19, -21654.72)" xlink:href="#未命名的渐变_5"/><linearGradient id="未命名的渐变_8" x1="-2334.5" y1="5592.39" x2="-2335.22" y2="5592.39" gradientTransform="matrix(0, -9.4, -4.3, 0, 24647.33, -21654.72)" gradientUnits="userSpaceOnUse"><stop offset="0" stop-color="#3d3b3b"/><stop offset="0.03" stop-color="#908f8f"/><stop offset="0.03" stop-color="#514f4f"/><stop offset="0.76" stop-color="#504e4e"/><stop offset="0.97" stop-color="#4e4c4c"/><stop offset="1" stop-color="#383636"/></linearGradient><linearGradient id="未命名的渐变_9" x1="-2333.42" y1="5592.39" x2="-2334.12" y2="5592.39" gradientTransform="matrix(0, -9.4, -4.3, 0, 24647.33, -21620.51)" xlink:href="#未命名的渐变_8"/><linearGradient id="未命名的渐变_10" x1="-2358.33" y1="4952.12" x2="-2359.03" y2="4952.12" gradientTransform="translate(-244512.91 -18812.31) rotate(-90) scale(8.1 49.5)" gradientUnits="userSpaceOnUse"><stop offset="0" stop-color="#bdbdbd"/><stop offset="0.15" stop-color="#fff"/><stop offset="0.25" stop-color="#fff"/><stop offset="0.52" stop-color="#dfdfdf"/><stop offset="0.69" stop-color="#c7c7c7"/><stop offset="0.8" stop-color="#bcbcbc"/><stop offset="0.92" stop-color="#b1b1b1"/><stop offset="1" stop-color="#cbcbcb"/></linearGradient><linearGradient id="未命名的渐变_11" x1="-2015.24" y1="4952.12" x2="-2015.96" y2="4952.12" gradientTransform="matrix(0, 8.1, 49.5, 0, -244512.91, 16643.29)" xlink:href="#未命名的渐变_10"/><radialGradient id="未命名的渐变_12" cx="-800.43" cy="2444.07" r="12" gradientTransform="matrix(0, 1, 1, 0, -1810.33, 1112.09)" gradientUnits="userSpaceOnUse"><stop offset="0" stop-color="#5c5d65"/><stop offset="0.64" stop-color="#62636b"/><stop offset="0.64" stop-color="#686972"/><stop offset="0.64" stop-color="#757781"/><stop offset="0.64" stop-color="#b1b2b8"/><stop offset="0.64" stop-color="#a7a9b0"/><stop offset="1" stop-color="#54565d"/></radialGradient><linearGradient id="未命名的渐变_13" x1="-2118.05" y1="5317.83" x2="-2118.05" y2="5318.53" gradientTransform="translate(43717.4 43301.28) rotate(90) scale(20.3 8.1)" gradientUnits="userSpaceOnUse"><stop offset="0" stop-color="#787a81"/><stop offset="0.26" stop-color="#a3a5ac"/><stop offset="0.36" stop-color="#999ba3"/><stop offset="0.51" stop-color="#757781"/><stop offset="1" stop-color="#686972"/></linearGradient><radialGradient id="未命名的渐变_14" cx="-3579.27" cy="2444.07" r="12" gradientTransform="translate(-1810.33 -3281.01) rotate(-90)" gradientUnits="userSpaceOnUse"><stop offset="0" stop-color="#5c5d65"/><stop offset="0.64" stop-color="#62636b"/><stop offset="0.64" stop-color="#686972"/><stop offset="0.64" stop-color="#7c7d84"/><stop offset="0.64" stop-color="#aaabb2"/><stop offset="0.64" stop-color="#a0a2a9"/><stop offset="1" stop-color="#54565d"/></radialGradient><linearGradient id="未命名的渐变_15" x1="-2015.24" y1="4452.77" x2="-2015.96" y2="4452.77" gradientTransform="matrix(0, 8.1, 4.6, 0, -19881.56, 16643.29)" gradientUnits="userSpaceOnUse"><stop offset="0" stop-color="#a3a3a4"/><stop offset="0.15" stop-color="#dededf"/><stop offset="0.25" stop-color="#ededed"/><stop offset="0.52" stop-color="#c0c0c1"/><stop offset="0.69" stop-color="#ababac"/><stop offset="0.8" stop-color="#a1a1a2"/><stop offset="0.92" stop-color="#989899"/><stop offset="1" stop-color="#afafb0"/></linearGradient><linearGradient id="未命名的渐变_16" x1="-2358.33" y1="4452.77" x2="-2359.03" y2="4452.77" gradientTransform="translate(-19881.56 -18812.31) rotate(-90) scale(8.1 4.6)" xlink:href="#未命名的渐变_15"/></defs><title>30_0</title><g id="开关区"><g id="group180"><g id="group181"><path id="shape182" d="M652.58,308.72v-7.8h-9.76v7.8Z" transform="translate(-574.04 -278.96)" style="fill-rule:evenodd;fill:url(#未命名的渐变)"/><path id="shape183" d="M647.3,308.7v-7.78a.28.28,0,0,1,.24-.28h6.14c.22,0,.36,0,.36.28v7.78a.32.32,0,0,1-.36.28h-6a.3.3,0,0,1-.37-.21A.17.17,0,0,1,647.3,308.7Z" transform="translate(-574.04 -278.96)" style="fill-rule:evenodd;fill:url(#未命名的渐变_2)"/></g><path id="shape184" d="M574,330.26V279.6a.66.66,0,0,1,.62-.64h53.06a.62.62,0,0,1,.62.62h0v50.68a.62.62,0,0,1-.6.64H574.66a.62.62,0,0,1-.62-.62Z" transform="translate(-574.04 -278.96)" style="fill-rule:evenodd;fill:url(#未命名的渐变_3)"/><g id="group185"><path id="shape186" d="M583.26,321.76v-9.68h35.86v9.68Z" transform="translate(-574.04 -278.96)" style="fill-rule:evenodd;fill:url(#未命名的渐变_4)"/><path id="shape187" d="M584.7,320.22v-6.58h33v6.58Z" transform="translate(-574.04 -278.96)" style="fill-rule:evenodd;fill:url(#未命名的渐变_5)"/></g><g id="group188"><path id="shape189" d="M583.26,297.76v-9.68h35.86v9.68Z" transform="translate(-574.04 -278.96)" style="fill-rule:evenodd;fill:url(#未命名的渐变_6)"/><path id="shape190" d="M584.7,296.22v-6.6h33v6.6Z" transform="translate(-574.04 -278.96)" style="fill-rule:evenodd;fill:url(#未命名的渐变_7)"/></g><path id="shape191" d="M598.56,296.22v-6.6h3v6.6Z" transform="translate(-574.04 -278.96)" style="fill-rule:evenodd;fill:url(#未命名的渐变_8)"/><path id="shape192" d="M598.56,320.22v-6.58h3v6.58Z" transform="translate(-574.04 -278.96)" style="fill-rule:evenodd;fill:url(#未命名的渐变_9)"/><path id="shape193" d="M634.32,295.74v-5.68H599.58v5.68Z" transform="translate(-574.04 -278.96)" style="fill-rule:evenodd;fill:url(#未命名的渐变_10)"/><path id="shape194" d="M634.32,314.12v5.68H599.58v-5.68Z" transform="translate(-574.04 -278.96)" style="fill-rule:evenodd;fill:url(#未命名的渐变_11)"/><path id="shape195" d="M642.88,311.66a10.2,10.2,0,0,1-2.5,6.4A10,10,0,0,1,634,319.8v-5.68a3.56,3.56,0,0,0,3.16-2.46Z" transform="translate(-574.04 -278.96)" style="fill-rule:evenodd;fill:url(#未命名的渐变_12)"/><path id="shape196" d="M642.94,297.7h-5.68V312h5.68Z" transform="translate(-574.04 -278.96)" style="fill-rule:evenodd;fill:url(#未命名的渐变_13)"/><path id="shape197" d="M642.88,298.26a10.14,10.14,0,0,0-2.5-6.38,10,10,0,0,0-6.34-1.76v5.68a3.61,3.61,0,0,1,3.16,2.46Z" transform="translate(-574.04 -278.96)" style="fill-rule:evenodd;fill:url(#未命名的渐变_14)"/><path id="shape198" d="M602.8,314.12v5.68h-3.22v-5.68Z" transform="translate(-574.04 -278.96)" style="fill-rule:evenodd;fill:url(#未命名的渐变_15)"/><path id="shape199" d="M602.8,295.74v-5.68h-3.22v5.68Z" transform="translate(-574.04 -278.96)" style="fill-rule:evenodd;fill:url(#未命名的渐变_16)"/></g></g></svg>