<svg id="图层_1" data-name="图层 1" xmlns="http://www.w3.org/2000/svg" xmlns:xlink="http://www.w3.org/1999/xlink" width="80" height="51.94" viewBox="0 0 80 51.94"><defs><linearGradient id="未命名的渐变" x1="-2312.43" y1="4435.31" x2="-2313.13" y2="4435.31" gradientTransform="translate(62231.13 25976.94) rotate(90) scale(11.1 13.9)" gradientUnits="userSpaceOnUse"><stop offset="0" stop-color="#63656d"/><stop offset="0.15" stop-color="#92959e"/><stop offset="0.25" stop-color="#b0b2b8"/><stop offset="0.52" stop-color="#757882"/><stop offset="0.69" stop-color="#686a73"/><stop offset="0.8" stop-color="#62646c"/><stop offset="1" stop-color="#5c5e66"/></linearGradient><linearGradient id="未命名的渐变_2" x1="-2321.43" y1="5826.15" x2="-2322.13" y2="5826.15" gradientTransform="matrix(0, 11.9, 9.6, 0, -55353.59, 27934.15)" gradientUnits="userSpaceOnUse"><stop offset="0" stop-color="#343232"/><stop offset="0.15" stop-color="#555454"/><stop offset="0.26" stop-color="#797777"/><stop offset="0.41" stop-color="#5d5b5b"/><stop offset="0.6" stop-color="#484646"/><stop offset="0.8" stop-color="#383636"/><stop offset="0.93" stop-color="#2c2b2b"/><stop offset="1" stop-color="#535151"/></linearGradient><linearGradient id="未命名的渐变_3" x1="-2426.09" y1="5105.2" x2="-2426.79" y2="5105.2" gradientTransform="matrix(0, 74, 77.4, 0, -394515.32, 179861.63)" gradientUnits="userSpaceOnUse"><stop offset="0" stop-color="#92a6ae"/><stop offset="0.03" stop-color="#daeff8"/><stop offset="0.05" stop-color="#bed8e3"/><stop offset="0.64" stop-color="#bbd5df"/><stop offset="0.95" stop-color="#b7d0da"/><stop offset="1" stop-color="#879aa2"/></linearGradient><linearGradient id="未命名的渐变_4" x1="-2338.21" y1="5157.58" x2="-2338.91" y2="5157.58" gradientTransform="matrix(0, 13.8, 51.1, 0, -262925.23, 32565.24)" gradientUnits="userSpaceOnUse"><stop offset="0" stop-color="#383a42"/><stop offset="0.03" stop-color="#8e8f94"/><stop offset="0.03" stop-color="#4c4f59"/><stop offset="0.76" stop-color="#4a4d57"/><stop offset="0.97" stop-color="#494b55"/><stop offset="1" stop-color="#34363d"/></linearGradient><linearGradient id="未命名的渐变_5" x1="-2287.69" y1="5171.02" x2="-2288.41" y2="5171.02" gradientTransform="matrix(0, 9.4, 47, 0, -242411.19, 21800.63)" gradientUnits="userSpaceOnUse"><stop offset="0"/><stop offset="0.03" stop-color="#7c7c7c"/><stop offset="0.03"/><stop offset="0.76"/><stop offset="0.97"/><stop offset="1"/></linearGradient><linearGradient id="未命名的渐变_6" x1="-2338.95" y1="5157.58" x2="-2339.65" y2="5157.58" gradientTransform="matrix(0, 13.8, 51.1, 0, -262925.23, 32599.45)" xlink:href="#未命名的渐变_4"/><linearGradient id="未命名的渐变_7" x1="-2288.79" y1="5171.02" x2="-2289.49" y2="5171.02" gradientTransform="matrix(0, 9.4, 47, 0, -242411.19, 21834.84)" xlink:href="#未命名的渐变_5"/><linearGradient id="未命名的渐变_8" x1="-2288.79" y1="6835.2" x2="-2289.49" y2="6835.2" gradientTransform="matrix(0, 9.4, 4.3, 0, -28763.33, 21834.84)" gradientUnits="userSpaceOnUse"><stop offset="0" stop-color="#3d3b3b"/><stop offset="0.03" stop-color="#908f8f"/><stop offset="0.03" stop-color="#514f4f"/><stop offset="0.76" stop-color="#504e4e"/><stop offset="0.97" stop-color="#4e4c4c"/><stop offset="1" stop-color="#383636"/></linearGradient><linearGradient id="未命名的渐变_9" x1="-2287.69" y1="6835.2" x2="-2288.41" y2="6835.2" gradientTransform="matrix(0, 9.4, 4.3, 0, -28763.33, 21800.63)" xlink:href="#未命名的渐变_8"/><linearGradient id="未命名的渐变_10" x1="-2263.53" y1="4844.16" x2="-2264.25" y2="4844.16" gradientTransform="translate(240396.91 18654.43) rotate(90) scale(8.1 49.5)" gradientUnits="userSpaceOnUse"><stop offset="0" stop-color="#bdbdbd"/><stop offset="0.15" stop-color="#fff"/><stop offset="0.25" stop-color="#fff"/><stop offset="0.52" stop-color="#dfdfdf"/><stop offset="0.69" stop-color="#c7c7c7"/><stop offset="0.8" stop-color="#bcbcbc"/><stop offset="0.92" stop-color="#b1b1b1"/><stop offset="1" stop-color="#cbcbcb"/></linearGradient><linearGradient id="未命名的渐变_11" x1="-2630.04" y1="4844.16" x2="-2630.74" y2="4844.16" gradientTransform="matrix(0, -8.1, -49.5, 0, 240396.91, -21013.17)" xlink:href="#未命名的渐变_10"/><radialGradient id="未命名的渐变_12" cx="-3934.17" cy="-2900.01" r="12" gradientTransform="matrix(0, -1, -1, 0, -2305.67, -3635.97)" gradientUnits="userSpaceOnUse"><stop offset="0" stop-color="#5c5d65"/><stop offset="0.64" stop-color="#62636b"/><stop offset="0.64" stop-color="#686972"/><stop offset="0.64" stop-color="#757781"/><stop offset="0.64" stop-color="#b1b2b8"/><stop offset="0.64" stop-color="#a7a9b0"/><stop offset="1" stop-color="#54565d"/></radialGradient><linearGradient id="未命名的渐变_13" x1="-2519.62" y1="5977.6" x2="-2519.62" y2="5978.3" gradientTransform="translate(-47833.4 -50843.16) rotate(-90) scale(20.3 8.1)" gradientUnits="userSpaceOnUse"><stop offset="0" stop-color="#787a81"/><stop offset="0.26" stop-color="#a3a5ac"/><stop offset="0.36" stop-color="#999ba3"/><stop offset="0.51" stop-color="#757781"/><stop offset="1" stop-color="#686972"/></linearGradient><radialGradient id="未命名的渐变_14" cx="-965.53" cy="-2900.01" r="12" gradientTransform="translate(-2305.67 1277.13) rotate(90)" gradientUnits="userSpaceOnUse"><stop offset="0" stop-color="#5c5d65"/><stop offset="0.64" stop-color="#62636b"/><stop offset="0.64" stop-color="#686972"/><stop offset="0.64" stop-color="#7c7d84"/><stop offset="0.64" stop-color="#aaabb2"/><stop offset="0.64" stop-color="#a0a2a9"/><stop offset="1" stop-color="#54565d"/></radialGradient><linearGradient id="未命名的渐变_15" x1="-2630.04" y1="3291.02" x2="-2630.74" y2="3291.02" gradientTransform="matrix(0, -8.1, -4.6, 0, 15765.56, -21013.17)" gradientUnits="userSpaceOnUse"><stop offset="0" stop-color="#a3a3a4"/><stop offset="0.15" stop-color="#dededf"/><stop offset="0.25" stop-color="#ededed"/><stop offset="0.52" stop-color="#c0c0c1"/><stop offset="0.69" stop-color="#ababac"/><stop offset="0.8" stop-color="#a1a1a2"/><stop offset="0.92" stop-color="#989899"/><stop offset="1" stop-color="#afafb0"/></linearGradient><linearGradient id="未命名的渐变_16" x1="-2263.53" y1="3291.02" x2="-2264.25" y2="3291.02" gradientTransform="translate(15765.56 18654.43) rotate(90) scale(8.1 4.6)" xlink:href="#未命名的渐变_15"/></defs><title>30_1</title><g id="开关区"><g id="group180"><g id="group181"><path id="shape182" d="M575.5,301.08v7.8h9.76v-7.8Z" transform="translate(-574.04 -278.96)" style="fill-rule:evenodd;fill:url(#未命名的渐变)"/><path id="shape183" d="M580.78,301.08v7.8a.27.27,0,0,1-.24.28H574.4c-.22,0-.36,0-.36-.28v-7.8a.31.31,0,0,1,.35-.28h6a.31.31,0,0,1,.37.21S580.78,301.06,580.78,301.08Z" transform="translate(-574.04 -278.96)" style="fill-rule:evenodd;fill:url(#未命名的渐变_2)"/></g><path id="shape184" d="M654,279.6v50.66a.66.66,0,0,1-.62.64H600.36a.62.62,0,0,1-.62-.62h0V279.6a.62.62,0,0,1,.6-.64h53.08a.62.62,0,0,1,.62.62Z" transform="translate(-574.04 -278.96)" style="fill-rule:evenodd;fill:url(#未命名的渐变_3)"/><g id="group185"><path id="shape186" d="M644.82,288.1v9.68H609V288.1Z" transform="translate(-574.04 -278.96)" style="fill-rule:evenodd;fill:url(#未命名的渐变_4)"/><path id="shape187" d="M643.38,289.64v6.58h-33v-6.58Z" transform="translate(-574.04 -278.96)" style="fill-rule:evenodd;fill:url(#未命名的渐变_5)"/></g><g id="group188"><path id="shape189" d="M644.82,312.1v9.68H609V312.1Z" transform="translate(-574.04 -278.96)" style="fill-rule:evenodd;fill:url(#未命名的渐变_6)"/><path id="shape190" d="M643.38,313.64v6.6h-33v-6.6Z" transform="translate(-574.04 -278.96)" style="fill-rule:evenodd;fill:url(#未命名的渐变_7)"/></g><path id="shape191" d="M629.54,313.64v6.6h-3v-6.6Z" transform="translate(-574.04 -278.96)" style="fill-rule:evenodd;fill:url(#未命名的渐变_8)"/><path id="shape192" d="M629.54,289.64v6.58h-3v-6.58Z" transform="translate(-574.04 -278.96)" style="fill-rule:evenodd;fill:url(#未命名的渐变_9)"/><path id="shape193" d="M593.76,314.12v5.68H628.5v-5.68Z" transform="translate(-574.04 -278.96)" style="fill-rule:evenodd;fill:url(#未命名的渐变_10)"/><path id="shape194" d="M593.76,295.74v-5.68H628.5v5.68Z" transform="translate(-574.04 -278.96)" style="fill-rule:evenodd;fill:url(#未命名的渐变_11)"/><path id="shape195" d="M585.2,298.2a7.53,7.53,0,0,1,8.84-8.14v5.68a3.54,3.54,0,0,0-3.16,2.46Z" transform="translate(-574.04 -278.96)" style="fill-rule:evenodd;fill:url(#未命名的渐变_12)"/><path id="shape196" d="M585.14,312.16h5.68V297.92h-5.68Z" transform="translate(-574.04 -278.96)" style="fill-rule:evenodd;fill:url(#未命名的渐变_13)"/><path id="shape197" d="M585.2,311.6a10,10,0,0,0,2.54,6.36,10.3,10.3,0,0,0,6.3,1.78v-5.68a3.6,3.6,0,0,1-3.16-2.46Z" transform="translate(-574.04 -278.96)" style="fill-rule:evenodd;fill:url(#未命名的渐变_14)"/><path id="shape198" d="M625.28,295.74v-5.68h3.22v5.68Z" transform="translate(-574.04 -278.96)" style="fill-rule:evenodd;fill:url(#未命名的渐变_15)"/><path id="shape199" d="M625.28,314.12v5.68h3.22v-5.68Z" transform="translate(-574.04 -278.96)" style="fill-rule:evenodd;fill:url(#未命名的渐变_16)"/></g></g></svg>