<svg id="图层_1" data-name="图层 1" xmlns="http://www.w3.org/2000/svg" xmlns:xlink="http://www.w3.org/1999/xlink" width="28" height="63.92" viewBox="0 0 28 63.92"><defs><linearGradient id="未命名的渐变" x1="691.36" y1="1089.45" x2="720.92" y2="1140.63" gradientTransform="translate(-105.05 -806)" gradientUnits="userSpaceOnUse"><stop offset="0" stop-color="#363536"/><stop offset="0.31" stop-color="#dddee0"/><stop offset="0.53" stop-color="#363536"/><stop offset="0.9" stop-color="#535456"/><stop offset="1" stop-color="#363536"/></linearGradient><linearGradient id="未命名的渐变_2" x1="728.92" y1="1092.56" x2="683.3" y2="1138.18" gradientTransform="translate(-105.05 -806)" gradientUnits="userSpaceOnUse"><stop offset="0" stop-color="#c5c7c9"/><stop offset="0.07" stop-color="#f7f7f8"/><stop offset="0.16" stop-color="#fff"/><stop offset="0.27" stop-color="#b0b3b5"/><stop offset="0.42" stop-color="#fff"/><stop offset="0.62" stop-color="#fff"/><stop offset="0.72" stop-color="#dddee0"/><stop offset="0.9" stop-color="#fff"/><stop offset="1" stop-color="#dddee0"/></linearGradient><linearGradient id="未命名的渐变_3" x1="706.29" y1="-993.65" x2="706.29" y2="-968.71" gradientTransform="matrix(1, 0, 0, -1, -692.24, -938.25)" gradientUnits="userSpaceOnUse"><stop offset="0" stop-color="#001d00"/><stop offset="0.12" stop-color="#052d04"/><stop offset="0.27" stop-color="#10510c"/><stop offset="0.34" stop-color="#176a12"/><stop offset="0.59" stop-color="#5f4"/><stop offset="0.84" stop-color="#2bac21"/><stop offset="1" stop-color="#2bac21"/></linearGradient><linearGradient id="未命名的渐变_4" x1="691.9" y1="-965.39" x2="707.22" y2="-941.79" gradientTransform="matrix(1, 0, 0, -1, -692.24, -938.25)" gradientUnits="userSpaceOnUse"><stop offset="0" stop-color="#2bac21"/><stop offset="1" stop-color="#5f4"/></linearGradient><linearGradient id="未命名的渐变_5" x1="707.56" y1="-968.67" x2="707.56" y2="-948.61" xlink:href="#未命名的渐变_4"/><linearGradient id="未命名的渐变_6" x1="709.69" y1="-938.51" x2="709.69" y2="-948.59" gradientTransform="matrix(1, 0, 0, -1, -692.24, -938.25)" gradientUnits="userSpaceOnUse"><stop offset="0" stop-color="#001d00"/><stop offset="0.12" stop-color="#2bac21"/><stop offset="0.5" stop-color="#2bac21"/><stop offset="0.86" stop-color="#5f4"/><stop offset="1" stop-color="#001d00"/></linearGradient></defs><title>2_1</title><path d="M589.37,278.78H613a2,2,0,0,1,2,2v57a2,2,0,0,1-2,2h-23.6a2,2,0,0,1-2-2v-57A2,2,0,0,1,589.37,278.78Z" transform="translate(-587.19 -275.96)" style="fill-rule:evenodd;fill:url(#未命名的渐变)"/><path d="M589.37,278.54H613a2.45,2.45,0,0,1,1.56.6,2.36,2.36,0,0,1,.6,1.58h0v57h0a2.24,2.24,0,0,1-.6,1.56,2.33,2.33,0,0,1-1.56.6h-23.6a2.25,2.25,0,0,1-1.58-.6,2.3,2.3,0,0,1-.66-1.56h0v-57h0a2.4,2.4,0,0,1,.66-1.58h0a2.34,2.34,0,0,1,1.58-.6Zm23.58.54H589.37a1.68,1.68,0,0,0-1.2.44h0a1.76,1.76,0,0,0-.52,1.2h0v57h0a1.76,1.76,0,0,0,.52,1.2,1.68,1.68,0,0,0,1.2.44H613a1.52,1.52,0,0,0,1.64-1.39v-.25h0v-57h0a1.76,1.76,0,0,0-.44-1.2,1.83,1.83,0,0,0-1.22-.44Z" transform="translate(-587.19 -275.96)" style="fill:url(#未命名的渐变_2)"/><path d="M593,286.72h16a1.4,1.4,0,0,1,1.36,1.42V330.3a1.42,1.42,0,0,1-1.36,1.42H593a1.39,1.39,0,0,1-1.28-1.42V288.14A1.39,1.39,0,0,1,593,286.72Z" transform="translate(-587.19 -275.96)" style="fill:#111;stroke:#363536;stroke-width:0.22462500631809235px;fill-rule:evenodd"/><path d="M601.17,335.44a1.84,1.84,0,0,1,0-.74c0-.16.22-.3.3-.46a.48.48,0,0,1,.38-.22,1.16,1.16,0,0,1,.66-.14,1.54,1.54,0,0,1,1.06.36,1.66,1.66,0,0,1,.44,1.2,1.86,1.86,0,0,1-.36,1.14,1.54,1.54,0,0,1-1.14.44,1.21,1.21,0,0,1-1-.44,1.28,1.28,0,0,1-.38-1.14Zm.6,0a1.15,1.15,0,0,0,.22.76.73.73,0,0,0,.6.3.61.61,0,0,0,.6-.3,1.17,1.17,0,0,0,.24-.76,1.34,1.34,0,0,0-.24-.82.75.75,0,0,0-.6-.22.92.92,0,0,0-.6.22A1.32,1.32,0,0,0,601.77,335.44Zm2.76,1.5v-3h.6l1.28,2v-2H607v3h-.6l-1.2-2v2Z" transform="translate(-587.19 -275.96)" style="fill:#fff"/><circle cx="9.34" cy="59.42" r="0.96" style="fill:#00ff67"/><rect x="5.32" y="30.18" width="17.46" height="24.94" style="fill:url(#未命名的渐变_3)"/><polygon points="5.32 30.18 9.74 10.12 9.66 0 5.26 12.22 5.32 30.18" style="fill-rule:evenodd;fill:url(#未命名的渐变_4)"/><polygon points="5.32 30.18 22.84 30.18 25.32 10.12 9.66 10.12 5.32 30.18" style="fill-rule:evenodd;fill:url(#未命名的渐变_5)"/><path d="M592.51,306.22h0L596.85,286h15.64L610,306H592.51Zm20-20H597l-4.34,20h17.38Z" transform="translate(-587.19 -275.96)" style="fill:#001d00"/><rect x="9.66" width="15.58" height="10.12" style="fill:url(#未命名的渐变_6)"/></svg>