<svg id="图层_1" data-name="图层 1" xmlns="http://www.w3.org/2000/svg" xmlns:xlink="http://www.w3.org/1999/xlink" width="28" height="64" viewBox="0 0 28 64"><defs><linearGradient id="未命名的渐变" x1="691.25" y1="1086.87" x2="720.79" y2="1138.03" gradientTransform="translate(-105.05 -806)" gradientUnits="userSpaceOnUse"><stop offset="0" stop-color="#363536"/><stop offset="0.31" stop-color="#dddee0"/><stop offset="0.53" stop-color="#363536"/><stop offset="0.9" stop-color="#535456"/><stop offset="1" stop-color="#363536"/></linearGradient><linearGradient id="未命名的渐变_2" x1="728.8" y1="1089.99" x2="683.18" y2="1135.61" gradientTransform="translate(-105.05 -806)" gradientUnits="userSpaceOnUse"><stop offset="0" stop-color="#c5c7c9"/><stop offset="0.07" stop-color="#f7f7f8"/><stop offset="0.16" stop-color="#fff"/><stop offset="0.27" stop-color="#b0b3b5"/><stop offset="0.42" stop-color="#fff"/><stop offset="0.62" stop-color="#fff"/><stop offset="0.72" stop-color="#dddee0"/><stop offset="0.9" stop-color="#fff"/><stop offset="1" stop-color="#dddee0"/></linearGradient><linearGradient id="未命名的渐变_3" x1="706.11" y1="1090.6" x2="706.11" y2="1115.52" gradientTransform="translate(-692.12 -1081.98)" gradientUnits="userSpaceOnUse"><stop offset="0" stop-color="#680202"/><stop offset="0.09" stop-color="#6c0505"/><stop offset="0.22" stop-color="#881b1b"/><stop offset="0.44" stop-color="#dd5d5d"/><stop offset="0.56" stop-color="#f77"/><stop offset="0.68" stop-color="#fe6868"/><stop offset="0.92" stop-color="#fb2626"/><stop offset="1" stop-color="#fc3636"/></linearGradient><linearGradient id="未命名的渐变_4" x1="691.72" y1="1118.84" x2="707.04" y2="1142.44" gradientTransform="translate(-692.12 -1081.98)" gradientUnits="userSpaceOnUse"><stop offset="0" stop-color="red"/><stop offset="1" stop-color="#f77"/></linearGradient><linearGradient id="未命名的渐变_5" x1="707.37" y1="1115.56" x2="707.37" y2="1135.62" xlink:href="#未命名的渐变_4"/><linearGradient id="未命名的渐变_6" x1="709.51" y1="1145.7" x2="709.51" y2="1135.64" gradientTransform="translate(-692.12 -1081.98)" gradientUnits="userSpaceOnUse"><stop offset="0" stop-color="#7e0707"/><stop offset="0.12" stop-color="#fb2626"/><stop offset="0.5" stop-color="#fb2626"/><stop offset="0.86" stop-color="#f77"/><stop offset="1" stop-color="#680202"/></linearGradient></defs><title>8_0</title><path d="M589.25,276.2h23.66a2,2,0,0,1,2,2v57a2,2,0,0,1-2,2h-23.6a2,2,0,0,1-2-2v-57A2,2,0,0,1,589.25,276.2Z" transform="translate(-587.07 -275.98)" style="fill-rule:evenodd;fill:url(#未命名的渐变)"/><path d="M589.25,276h23.66a2.43,2.43,0,0,1,1.56.6,2.33,2.33,0,0,1,.6,1.58h0v57h0a2.29,2.29,0,0,1-.6,1.58,2.45,2.45,0,0,1-1.56.6h-23.6a2.34,2.34,0,0,1-1.58-.6,2.38,2.38,0,0,1-.66-1.58h0v-57h0a2.42,2.42,0,0,1,.66-1.58h0a2.34,2.34,0,0,1,1.58-.6Zm23.58.52H589.25a1.75,1.75,0,0,0-1.2.46h0a1.72,1.72,0,0,0-.52,1.2h0v57h0a1.72,1.72,0,0,0,.52,1.2,1.67,1.67,0,0,0,1.2.44h23.66a1.52,1.52,0,0,0,1.64-1.38v-.26h0v-57h0a1.72,1.72,0,0,0-.44-1.2,1.89,1.89,0,0,0-1.22-.46Z" transform="translate(-587.07 -275.98)" style="fill:url(#未命名的渐变_2)"/><path d="M592.91,284.14h16a1.43,1.43,0,0,1,1.36,1.42V327.7a1.42,1.42,0,0,1-1.36,1.44h-16a1.39,1.39,0,0,1-1.28-1.44V285.56A1.4,1.4,0,0,1,592.91,284.14Z" transform="translate(-587.07 -275.98)" style="fill:#111;stroke:#363536;stroke-width:0.2245749980211258px;fill-rule:evenodd"/><rect x="5.26" y="8.92" width="17.46" height="24.92" style="fill:url(#未命名的渐变_3)"/><polygon points="5.26 33.84 9.68 53.9 9.6 64 5.18 51.8 5.26 33.84" style="fill-rule:evenodd;fill:url(#未命名的渐变_4)"/><polygon points="5.26 33.84 22.78 33.84 25.24 53.9 9.6 53.9 5.26 33.84" style="fill-rule:evenodd;fill:url(#未命名的渐变_5)"/><path d="M592.31,309.74h17.54l2.46,20H596.67l-4.42-20.14h0Zm17.46.16H592.39l4.34,20h15.5Z" transform="translate(-587.07 -275.98)" style="fill:#680202"/><rect x="9.6" y="53.9" width="15.58" height="10.1" style="fill:url(#未命名的渐变_6)"/><path d="M599.93,280.2a2.36,2.36,0,0,1,.14-.74,2.27,2.27,0,0,1,.3-.46l.38-.22a2.18,2.18,0,0,1,.68-.16,1.27,1.27,0,0,1,1,.46,1.44,1.44,0,0,1,.46,1.12,1.29,1.29,0,0,1-.46,1.12,1.18,1.18,0,0,1-1,.46,1.41,1.41,0,0,1-1.51-1.32A2.26,2.26,0,0,1,599.93,280.2Zm.68,0a1.18,1.18,0,0,0,.22.82.79.79,0,0,0,.6.24.81.81,0,0,0,.6-.24,1.47,1.47,0,0,0,.22-.82,1,1,0,0,0-.22-.74.75.75,0,0,0-.6-.3.7.7,0,0,0-.6.3A.92.92,0,0,0,600.61,280.2Zm2.76,1.5v-3h2v.54h-1.5V280h1.28v.52h-1.28v1.28Zm2.54,0v-3h2v.54h-1.42V280h1.28v.52h-1.28v1.28Z" transform="translate(-587.07 -275.98)" style="fill:#fff"/><circle cx="8.64" cy="4.24" r="0.94" style="fill:red"/></svg>