<svg id="图层_1" data-name="图层 1" xmlns="http://www.w3.org/2000/svg" xmlns:xlink="http://www.w3.org/1999/xlink" width="28" height="63.84" viewBox="0 0 28 63.84"><defs><linearGradient id="未命名的渐变" x1="690.67" y1="1088.99" x2="720.43" y2="1140.51" gradientTransform="translate(-105.05 -806)" gradientUnits="userSpaceOnUse"><stop offset="0" stop-color="#363536"/><stop offset="0.31" stop-color="#dddee0"/><stop offset="0.53" stop-color="#363536"/><stop offset="0.9" stop-color="#535456"/><stop offset="1" stop-color="#363536"/></linearGradient><linearGradient id="未命名的渐变_2" x1="728.44" y1="1092.13" x2="682.56" y2="1138.03" gradientTransform="translate(-105.05 -806)" gradientUnits="userSpaceOnUse"><stop offset="0" stop-color="#c5c7c9"/><stop offset="0.07" stop-color="#f7f7f8"/><stop offset="0.16" stop-color="#fff"/><stop offset="0.27" stop-color="#b0b3b5"/><stop offset="0.42" stop-color="#fff"/><stop offset="0.62" stop-color="#fff"/><stop offset="0.72" stop-color="#dddee0"/><stop offset="0.9" stop-color="#fff"/><stop offset="1" stop-color="#dddee0"/></linearGradient><linearGradient id="未命名的渐变_3" x1="721.64" y1="-1140.1" x2="721.64" y2="-1114.96" gradientTransform="matrix(1, 0, 0, -1, -707.65, -1084.64)" gradientUnits="userSpaceOnUse"><stop offset="0" stop-color="#680202"/><stop offset="0.09" stop-color="#6c0505"/><stop offset="0.22" stop-color="#881b1b"/><stop offset="0.44" stop-color="#dd5d5d"/><stop offset="0.56" stop-color="#f77"/><stop offset="0.68" stop-color="#fe6868"/><stop offset="0.92" stop-color="#fb2626"/><stop offset="1" stop-color="#fc3636"/></linearGradient><linearGradient id="未命名的渐变_4" x1="707.19" y1="-1112.07" x2="722.63" y2="-1088.29" gradientTransform="matrix(1, 0, 0, -1, -707.65, -1084.64)" gradientUnits="userSpaceOnUse"><stop offset="0" stop-color="red"/><stop offset="1" stop-color="#f77"/></linearGradient><linearGradient id="未命名的渐变_5" x1="722.9" y1="-1115.4" x2="722.9" y2="-1095.18" xlink:href="#未命名的渐变_4"/><linearGradient id="未命名的渐变_6" x1="725.04" y1="-1084.92" x2="725.04" y2="-1095.08" gradientTransform="matrix(1, 0, 0, -1, -707.65, -1084.64)" gradientUnits="userSpaceOnUse"><stop offset="0" stop-color="#7e0707"/><stop offset="0.12" stop-color="#fb2626"/><stop offset="0.5" stop-color="#fb2626"/><stop offset="0.86" stop-color="#f77"/><stop offset="1" stop-color="#680202"/></linearGradient></defs><title>8_1</title><path d="M588.78,278.24h23.66a2,2,0,0,1,2,2v57.48a2,2,0,0,1-2,2h-23.6a2,2,0,0,1-2-2V280.2A2,2,0,0,1,588.78,278.24Z" transform="translate(-586.6 -275.94)" style="fill-rule:evenodd;fill:url(#未命名的渐变)"/><path d="M588.78,277.94h23.66a2.43,2.43,0,0,1,1.56.6,2.33,2.33,0,0,1,.6,1.58h0V337.6h0a2.23,2.23,0,0,1-.6,1.58,2.33,2.33,0,0,1-1.56.6h-23.6a2.25,2.25,0,0,1-1.58-.6,2.31,2.31,0,0,1-.66-1.58h0V280.2h0a2.35,2.35,0,0,1,.66-1.58h0a2.34,2.34,0,0,1,1.58-.6Zm23.58.52H588.78a1.87,1.87,0,0,0-1.2.44h0a1.83,1.83,0,0,0-.52,1.22h0V337.6h0a1.85,1.85,0,0,0,.52,1.22,1.67,1.67,0,0,0,1.2.44h23.66a1.52,1.52,0,0,0,1.64-1.38,1.31,1.31,0,0,0,0-.28h0V280.2h0a1.83,1.83,0,0,0-.44-1.22,2.09,2.09,0,0,0-1.22-.44Z" transform="translate(-586.6 -275.94)" style="fill:url(#未命名的渐变_2)"/><path d="M592.44,286.24h16a1.43,1.43,0,0,1,1.36,1.44V330.2a1.42,1.42,0,0,1-1.36,1.44h-16a1.39,1.39,0,0,1-1.28-1.44V287.68A1.4,1.4,0,0,1,592.44,286.24Z" transform="translate(-586.6 -275.94)" style="fill:#111;stroke:#363536;stroke-width:0.22557500004768372px;fill-rule:evenodd"/><rect x="5.26" y="30.02" width="17.46" height="25.14" style="fill:url(#未命名的渐变_3)"/><polygon points="5.26 30.48 9.68 10.26 9.6 0.06 5.18 12.36 5.26 30.48" style="fill-rule:evenodd;fill:url(#未命名的渐变_4)"/><polygon points="5.26 30.48 22.78 30.48 25.24 10.26 9.6 10.26 5.26 30.48" style="fill-rule:evenodd;fill:url(#未命名的渐变_5)"/><path d="M591.84,306.08h0l4.42-20.3H611.9l-2.52,20.16H591.84Zm20-20.24h-15.5l-4.42,20.1H609.3Z" transform="translate(-586.6 -275.94)" style="fill:#680202"/><rect x="9.6" width="15.58" height="10.2" style="fill:url(#未命名的渐变_6)"/><path d="M600.58,335.4a1.94,1.94,0,0,1,0-.76c0-.16.22-.3.3-.44a.58.58,0,0,1,.38-.24,1.16,1.16,0,0,1,.66-.14,1.48,1.48,0,0,1,1.06.38,1.58,1.58,0,0,1,.44,1.2,1.77,1.77,0,0,1-.36,1.14,1.54,1.54,0,0,1-1.14.46,1.23,1.23,0,0,1-1-.46,1.34,1.34,0,0,1-.38-1.14Zm.6,0a1.08,1.08,0,0,0,.22.74.69.69,0,0,0,.6.3.58.58,0,0,0,.6-.3,1.08,1.08,0,0,0,.24-.74,1.42,1.42,0,0,0-.24-.84.83.83,0,0,0-.6-.22.92.92,0,0,0-.6.22A1.42,1.42,0,0,0,601.18,335.4Zm2.76,1.5v-3h.6l1.28,2v-2h.62v3h-.6l-1.2-2v2Z" transform="translate(-586.6 -275.94)" style="fill:#fff"/><circle cx="9.34" cy="59.38" r="0.94" style="fill:#00ff67"/></svg>