<svg id="图层_1" data-name="图层 1" xmlns="http://www.w3.org/2000/svg" xmlns:xlink="http://www.w3.org/1999/xlink" width="46" height="64" viewBox="0 0 46 64"><defs><linearGradient id="未命名的渐变" x1="796.05" y1="1141.23" x2="784.11" y2="1127.97" gradientTransform="translate(-172.5 -806)" gradientUnits="userSpaceOnUse"><stop offset="0" stop-color="#6c6e70"/><stop offset="0.09" stop-color="#8d8f90"/><stop offset="0.21" stop-color="#b0b1b2"/><stop offset="0.33" stop-color="#cdcdce"/><stop offset="0.47" stop-color="#e3e3e4"/><stop offset="0.61" stop-color="#f3f3f3"/><stop offset="0.77" stop-color="#fcfcfc"/><stop offset="1" stop-color="#fff"/></linearGradient><linearGradient id="未命名的渐变_2" x1="752.77" y1="1143.96" x2="803.13" y2="1083.94" gradientTransform="translate(-172.5 -806)" gradientUnits="userSpaceOnUse"><stop offset="0" stop-color="#221e1f"/><stop offset="1" stop-color="#6c6e70"/></linearGradient><linearGradient id="未命名的渐变_3" x1="778.78" y1="1136.76" x2="778.78" y2="1090.9" gradientTransform="translate(-172.5 -806)" gradientUnits="userSpaceOnUse"><stop offset="0" stop-color="#221e1f"/><stop offset="0.18" stop-color="#221e1f"/><stop offset="0.36" stop-color="#808183"/><stop offset="0.68" stop-color="#6c6e70"/><stop offset="0.84" stop-color="#929496"/><stop offset="1" stop-color="#e6e7e7"/></linearGradient><linearGradient id="未命名的渐变_4" x1="778.75" y1="1137.32" x2="778.75" y2="1090.58" gradientTransform="translate(-172.5 -806)" gradientUnits="userSpaceOnUse"><stop offset="0" stop-color="#221e1f"/><stop offset="0.3" stop-color="#929496"/><stop offset="0.55" stop-color="#6c6e70"/><stop offset="0.84" stop-color="#929496"/><stop offset="1" stop-color="#e6e7e7"/></linearGradient><linearGradient id="未命名的渐变_5" x1="790.47" y1="1088.94" x2="766.37" y2="1130.7" xlink:href="#未命名的渐变_4"/></defs><title>10_0</title><path d="M614.44,336.52a10.87,10.87,0,0,1-4.66-1,19,19,0,0,0,14.76-14.74,10.88,10.88,0,0,1,1,4.62,11.12,11.12,0,0,1-11.1,11.14Z" transform="translate(-582.54 -275.94)" style="fill-rule:evenodd;fill:url(#未命名的渐变)"/><path d="M606.18,324.1a11.24,11.24,0,0,0,7.06-7.06A7.08,7.08,0,0,1,606.18,324.1Z" transform="translate(-582.54 -275.94)" style="fill:#807f7f;fill-rule:evenodd"/><path d="M585.3,275.94h40.44a2.8,2.8,0,0,1,2.8,2.78v58.44a2.79,2.79,0,0,1-2.78,2.78H585.3a2.72,2.72,0,0,1-2.76-2.71V278.72a2.77,2.77,0,0,1,2.74-2.78Z" transform="translate(-582.54 -275.94)" style="fill-rule:evenodd"/><path d="M585.28,276.06l39.88.7a2.79,2.79,0,0,1,2.78,2.74l.26,57.7a2.68,2.68,0,0,1-2.62,2.74H585.34a2.71,2.71,0,0,1-2.74-2.69V278.8a2.69,2.69,0,0,1,2.66-2.73Z" transform="translate(-582.54 -275.94)" style="fill-rule:evenodd;fill:url(#未命名的渐变_2)"/><path d="M585.7,276.52l39.48.24a2.77,2.77,0,0,1,2.76,2.76h0V337.2a2.74,2.74,0,0,1-2.74,2.74H585.28a2.69,2.69,0,0,1-2.74-2.65v-.09l.44-58A2.75,2.75,0,0,1,585.7,276.52Z" transform="translate(-582.54 -275.94)" style="fill:#323232;fill-rule:evenodd"/><path d="M620.9,323.94a11.15,11.15,0,0,1-7.06-7.06A7.07,7.07,0,0,0,620.9,323.94Z" transform="translate(-582.54 -275.94)" style="fill:#666;fill-rule:evenodd"/><path d="M595.54,284.76a91.14,91.14,0,0,1,21.14,0,4.39,4.39,0,0,1,4,4,146.48,146.48,0,0,1,0,38,4.4,4.4,0,0,1-4,4,89,89,0,0,1-21.14,0,4.64,4.64,0,0,1-4-4,98.75,98.75,0,0,1,0-38A4.63,4.63,0,0,1,595.54,284.76Z" transform="translate(-582.54 -275.94)" style="stroke:#221e1f;stroke-width:0.11755000054836273px;fill-rule:evenodd"/><path d="M595.88,285.62a88.52,88.52,0,0,1,20.32,0,4.45,4.45,0,0,1,3.88,3.9,114.27,114.27,0,0,1,0,36.54,4.41,4.41,0,0,1-3.88,3.9,88.52,88.52,0,0,1-20.32,0,4.34,4.34,0,0,1-3.88-3.9,169.08,169.08,0,0,1,0-36.54A4.33,4.33,0,0,1,595.88,285.62Z" transform="translate(-582.54 -275.94)" style="fill-rule:evenodd;fill:url(#未命名的渐变_3)"/><path d="M595.88,285.62a88.52,88.52,0,0,1,20.32,0,4.37,4.37,0,0,1,3.88,3.9,78.87,78.87,0,0,1-.32,28.86,4.38,4.38,0,0,1-3.88,3.88,82.31,82.31,0,0,1-19.84,0,4.26,4.26,0,0,1-3.88-3.88,124.92,124.92,0,0,1-.16-28.86A4.33,4.33,0,0,1,595.88,285.62Z" transform="translate(-582.54 -275.94)" style="fill-rule:evenodd;fill:url(#未命名的渐变_4)"/><path d="M595.88,285.52a86.63,86.63,0,0,1,10.18-.6,91.17,91.17,0,0,1,10.18.6h0a2.91,2.91,0,0,1,.86.2,4.25,4.25,0,0,1,3.1,3.76A106.58,106.58,0,0,1,621.4,304a93.44,93.44,0,0,1-1.52,14.46h0a4.32,4.32,0,0,1-.2.88,3.91,3.91,0,0,1-.34.78,4.18,4.18,0,0,1-3.4,2.33,92.83,92.83,0,0,1-10,.58,75.82,75.82,0,0,1-10-.58h0a3.1,3.1,0,0,1-.86-.21,2.19,2.19,0,0,1-.78-.32,4.27,4.27,0,0,1-2.32-3.46c-.54-6-.9-10.1-.94-14.3a137.07,137.07,0,0,1,.8-14.6h0a6.81,6.81,0,0,1,.16-.86,5.13,5.13,0,0,1,.32-.78,4.33,4.33,0,0,1,3.5-2.32Zm10.18-.32a88.82,88.82,0,0,0-10.18.58,4.15,4.15,0,0,0-3.24,2.16,2.52,2.52,0,0,0-.32.76,4.75,4.75,0,0,0-.16.82h0a136.67,136.67,0,0,0-.78,14.58c0,4.2.38,8.32.92,14.28a4,4,0,0,0,2.16,3.24,3.76,3.76,0,0,0,.74.32,4.57,4.57,0,0,0,.82.16h0a72.56,72.56,0,0,0,10,.6,86.24,86.24,0,0,0,9.9-.6,4.1,4.1,0,0,0,3.22-2.16c0-.24.22-.48.3-.74a3.33,3.33,0,0,0,.2-.84h0a93.18,93.18,0,0,0,1.52-14.44,99.86,99.86,0,0,0-1.2-14.44,4.26,4.26,0,0,0-2.16-3.24,5.33,5.33,0,0,0-.74-.32l-.82-.16h0a93.58,93.58,0,0,0-10.18-.56Z" transform="translate(-582.54 -275.94)" style="fill:url(#未命名的渐变_5)"/><path d="M603.54,295.08a2.47,2.47,0,0,1,.18-.92,1.6,1.6,0,0,1,.36-.54c.18-.1.28-.2.46-.28a3.75,3.75,0,0,1,.82-.18,1.56,1.56,0,0,1,1.28.54,1.8,1.8,0,0,1,.56,1.38,1.66,1.66,0,0,1-.56,1.38,1.5,1.5,0,0,1-1.28.54,1.68,1.68,0,0,1-1.26-.46,1.77,1.77,0,0,1-.56-1.46Zm.8,0a1.6,1.6,0,0,0,.28,1,1.07,1.07,0,0,0,1.44,0,1.6,1.6,0,0,0,.28-1,1.2,1.2,0,0,0-.28-.92.9.9,0,0,0-.72-.36.84.84,0,0,0-.72.36A1.28,1.28,0,0,0,604.34,295.08Zm3.38,1.82v-3.64h2.54v.68h-1.82v.82H610v.64h-1.56v1.54Zm3.1,0v-3.64h2.54v.68h-1.72v.82h1.54v.64h-1.54v1.54Z" transform="translate(-582.54 -275.94)" style="fill:#fff"/><circle cx="15.9" cy="19.14" r="1.14" style="fill:red"/></svg>