<svg id="图层_1" data-name="图层 1" xmlns="http://www.w3.org/2000/svg" xmlns:xlink="http://www.w3.org/1999/xlink" width="46" height="64" viewBox="0 0 46 64"><defs><linearGradient id="未命名的渐变" x1="796.57" y1="1140.9" x2="784.63" y2="1127.64" gradientTransform="translate(-172.5 -806)" gradientUnits="userSpaceOnUse"><stop offset="0" stop-color="#6c6e70"/><stop offset="0.09" stop-color="#8d8f90"/><stop offset="0.21" stop-color="#b0b1b2"/><stop offset="0.33" stop-color="#cdcdce"/><stop offset="0.47" stop-color="#e3e3e4"/><stop offset="0.61" stop-color="#f3f3f3"/><stop offset="0.77" stop-color="#fcfcfc"/><stop offset="1" stop-color="#fff"/></linearGradient><linearGradient id="未命名的渐变_2" x1="753.01" y1="1143.9" x2="804.17" y2="1082.96" gradientTransform="translate(-172.5 -806)" gradientUnits="userSpaceOnUse"><stop offset="0" stop-color="#221e1f"/><stop offset="1" stop-color="#6c6e70"/></linearGradient><linearGradient id="未命名的渐变_3" x1="779.27" y1="1136.42" x2="779.27" y2="1090.1" gradientTransform="translate(-172.5 -806)" gradientUnits="userSpaceOnUse"><stop offset="0" stop-color="#221e1f"/><stop offset="0.67" stop-color="#221e1f"/><stop offset="0.85" stop-color="#808183"/><stop offset="0.9" stop-color="#6c6e70"/><stop offset="0.96" stop-color="#58595b"/><stop offset="1" stop-color="#221e1f"/></linearGradient><linearGradient id="未命名的渐变_4" x1="779.24" y1="1136.42" x2="779.24" y2="1090.1" gradientTransform="translate(-172.5 -806)" gradientUnits="userSpaceOnUse"><stop offset="0" stop-color="#221e1f"/><stop offset="0.3" stop-color="#929496"/><stop offset="0.55" stop-color="#6c6e70"/><stop offset="0.84" stop-color="#929496"/><stop offset="1" stop-color="#e6e7e7"/></linearGradient><linearGradient id="未命名的渐变_5" x1="772.82" y1="1140.65" x2="785.4" y2="1093.67" xlink:href="#未命名的渐变_4"/></defs><title>10_1</title><path d="M614.93,336.18a10.67,10.67,0,0,1-4.62-1A19,19,0,0,0,625,320.42a10.7,10.7,0,0,1,1,4.62A11.12,11.12,0,0,1,615,336.18Z" transform="translate(-583.03 -275.6)" style="fill-rule:evenodd;fill:url(#未命名的渐变)"/><path d="M606.67,291.12a11.23,11.23,0,0,1,7.06,7.1A7.1,7.1,0,0,0,606.67,291.12Z" transform="translate(-583.03 -275.6)" style="fill:#807f7f;fill-rule:evenodd"/><path d="M585.79,275.6h40.44a2.8,2.8,0,0,1,2.8,2.78v58.44a2.8,2.8,0,0,1-2.78,2.78H585.79a2.76,2.76,0,0,1-2.76-2.76V278.38A2.78,2.78,0,0,1,585.79,275.6Z" transform="translate(-583.03 -275.6)" style="fill-rule:evenodd"/><path d="M585.77,275.72l39.88.7a2.78,2.78,0,0,1,2.78,2.74l.26,57.7a2.68,2.68,0,0,1-2.62,2.74H585.83a2.72,2.72,0,0,1-2.74-2.7V278.46a2.7,2.7,0,0,1,2.66-2.74Z" transform="translate(-583.03 -275.6)" style="fill-rule:evenodd;fill:url(#未命名的渐变_2)"/><path d="M586.19,276.18l39.48.24a2.77,2.77,0,0,1,2.76,2.76h0v57.68a2.74,2.74,0,0,1-2.74,2.74H585.77a2.7,2.7,0,0,1-2.74-2.66v-.08l.44-58A2.74,2.74,0,0,1,586.19,276.18Z" transform="translate(-583.03 -275.6)" style="fill:#323232;fill-rule:evenodd"/><path d="M621.39,291.28a11.18,11.18,0,0,0-7.06,7.08A7.08,7.08,0,0,1,621.39,291.28Z" transform="translate(-583.03 -275.6)" style="fill:#666;fill-rule:evenodd"/><path d="M596,330.46a91.14,91.14,0,0,0,21.14,0,4.33,4.33,0,0,0,4-4,146.48,146.48,0,0,0,0-38,4.44,4.44,0,0,0-4-4,91.14,91.14,0,0,0-21.14,0,4.67,4.67,0,0,0-4,4,98.75,98.75,0,0,0,0,38A4.62,4.62,0,0,0,596,330.46Z" transform="translate(-583.03 -275.6)" style="stroke:#221e1f;stroke-width:0.11755000054836273px;fill-rule:evenodd"/><path d="M596.37,329.6a88.52,88.52,0,0,0,20.32,0,4.4,4.4,0,0,0,3.88-3.88,114.39,114.39,0,0,0,0-36.56,4.4,4.4,0,0,0-3.88-3.88,87.41,87.41,0,0,0-20.32,0,4.34,4.34,0,0,0-3.88,3.88,169.26,169.26,0,0,0,0,36.56A4.29,4.29,0,0,0,596.37,329.6Z" transform="translate(-583.03 -275.6)" style="fill-rule:evenodd;fill:url(#未命名的渐变_3)"/><path d="M596.37,329.6a88.52,88.52,0,0,0,20.32,0,4.33,4.33,0,0,0,3.88-3.88,78.88,78.88,0,0,0-.32-28.86,4.39,4.39,0,0,0-3.88-3.9,84.4,84.4,0,0,0-19.84,0,4.28,4.28,0,0,0-3.88,3.9,124.92,124.92,0,0,0-.16,28.86A4.29,4.29,0,0,0,596.37,329.6Z" transform="translate(-583.03 -275.6)" style="fill-rule:evenodd;fill:url(#未命名的渐变_4)"/><path d="M596.37,329.72a89.63,89.63,0,0,0,20.36,0h0a6.21,6.21,0,0,0,.86-.16,5.51,5.51,0,0,0,.78-.36,4.47,4.47,0,0,0,2.32-3.44,100.29,100.29,0,0,0,1.2-14.48,93.82,93.82,0,0,0-1.52-14.48h0a3.7,3.7,0,0,0-.2-.86,3.18,3.18,0,0,0-.34-.78,4.12,4.12,0,0,0-3.4-2.32,90.33,90.33,0,0,0-10-.58,72.73,72.73,0,0,0-10,.58h0a8.26,8.26,0,0,0-.86.2,5.32,5.32,0,0,0-.78.32,4.35,4.35,0,0,0-2.32,3.48c-.54,6-.9,10-.94,14.28a140.13,140.13,0,0,0,.8,14.62h0a5,5,0,0,0,.16.86,4.42,4.42,0,0,0,3.82,3.12Zm10.18.32a86.63,86.63,0,0,1-10.18-.6,4,4,0,0,1-3.24-2.16,3.25,3.25,0,0,1-.32-.74,4.57,4.57,0,0,1-.16-.82h0a136.9,136.9,0,0,1-.78-14.6c0-4.16.38-8.3.92-14.26A4,4,0,0,1,595,293.6a4.86,4.86,0,0,1,.74-.32l.84-.16h0a69.63,69.63,0,0,1,10-.58,88.54,88.54,0,0,1,9.9.58,4,4,0,0,1,3.22,2.16,5.45,5.45,0,0,1,.3.76,2.59,2.59,0,0,1,.2.82h0a95.07,95.07,0,0,1,1.54,14.38,99.77,99.77,0,0,1-1.22,14.44,4.23,4.23,0,0,1-2.14,3.26,5,5,0,0,1-.76.3l-.82.18h0A91.55,91.55,0,0,1,606.55,330Z" transform="translate(-583.03 -275.6)" style="fill:url(#未命名的渐变_5)"/><path d="M606.67,320.78a3,3,0,0,1,0-.94c0-.2.28-.4.36-.58a.65.65,0,0,1,.46-.28,1.25,1.25,0,0,1,.82-.2,1.84,1.84,0,0,1,1.3.48,2,2,0,0,1,.54,1.52,2.2,2.2,0,0,1-.46,1.44,1.77,1.77,0,0,1-1.38.58,1.5,1.5,0,0,1-1.3-.58,1.87,1.87,0,0,1-.42-1.44Zm.72,0a1.39,1.39,0,0,0,.28,1,.84.84,0,0,0,.74.38.77.77,0,0,0,.74-.38,1.5,1.5,0,0,0,.28-1,1.74,1.74,0,0,0-.28-1,.94.94,0,0,0-.74-.28,1.12,1.12,0,0,0-.74.28A1.74,1.74,0,0,0,607.39,320.78Zm3.42,2V319h.74l1.56,2.58V319h.66v3.82H613l-1.48-2.48v2.48Z" transform="translate(-583.03 -275.6)" style="fill:#fff"/><ellipse cx="17.92" cy="45.12" rx="1.16" ry="1.2" style="fill:#00ff67"/></svg>