<svg id="图层_1" data-name="图层 1" xmlns="http://www.w3.org/2000/svg" xmlns:xlink="http://www.w3.org/1999/xlink" width="63.89" height="64.06" viewBox="0 0 63.89 64.06"><defs><linearGradient id="未命名的渐变" x1="824.21" y1="1134.53" x2="872.37" y2="1134.53" gradientTransform="translate(-239.06 -806)" gradientUnits="userSpaceOnUse"><stop offset="0" stop-color="#d0d2d3"/><stop offset="0.1" stop-color="#d7d9da"/><stop offset="0.32" stop-color="#e2e3e4"/><stop offset="0.57" stop-color="#e6e7e8"/><stop offset="0.82" stop-color="#dbddde"/><stop offset="1" stop-color="#d0d2d3"/></linearGradient><linearGradient id="未命名的渐变_2" x1="817.11" y1="1113.43" x2="879.95" y2="1113.43" gradientTransform="translate(-239.06 -806)" gradientUnits="userSpaceOnUse"><stop offset="0" stop-color="#d0d2d3"/><stop offset="0.07" stop-color="#dddedf"/><stop offset="0.18" stop-color="#e8e9ea"/><stop offset="0.34" stop-color="#efeff0"/><stop offset="0.78" stop-color="#f1f1f2"/></linearGradient><linearGradient id="未命名的渐变_3" x1="848.46" y1="1137.99" x2="848.46" y2="1088.83" gradientTransform="translate(-239.06 -806)" gradientUnits="userSpaceOnUse"><stop offset="0" stop-color="#a6a8ab"/><stop offset="1" stop-color="#bbbdbf"/></linearGradient><linearGradient id="未命名的渐变_4" x1="848.28" y1="1137.27" x2="848.28" y2="1082.07" gradientTransform="translate(-239.06 -806)" gradientUnits="userSpaceOnUse"><stop offset="0.22" stop-color="#f1f1f2"/><stop offset="0.66" stop-color="#efeff0"/><stop offset="0.82" stop-color="#e8e9ea"/><stop offset="0.93" stop-color="#dddedf"/><stop offset="1" stop-color="#d0d2d3"/></linearGradient><linearGradient id="未命名的渐变_5" x1="-917.11" y1="-457.05" x2="-907.29" y2="-457.05" gradientTransform="translate(-880.99 -409.89) rotate(180)" gradientUnits="userSpaceOnUse"><stop offset="0" stop-color="#333"/><stop offset="0.01" stop-color="#383838"/><stop offset="0.1" stop-color="#5b5b5b"/><stop offset="0.19" stop-color="#767676"/><stop offset="0.28" stop-color="#8a8a8a"/><stop offset="0.38" stop-color="#959595"/><stop offset="0.47" stop-color="#999"/><stop offset="0.63" stop-color="#767676"/><stop offset="0.87" stop-color="#464646"/><stop offset="1" stop-color="#333"/></linearGradient><linearGradient id="未命名的渐变_8" x1="-917.11" y1="-457.06" x2="-907.29" y2="-457.06" gradientTransform="translate(-303.06 -134) rotate(180)" xlink:href="#未命名的渐变_5"/><linearGradient id="未命名的渐变_10" x1="-917.11" y1="-457.05" x2="-907.29" y2="-457.05" xlink:href="#未命名的渐变_5"/><linearGradient id="未命名的渐变_16" x1="-917.09" y1="-457.05" x2="-907.29" y2="-457.05" xlink:href="#未命名的渐变_5"/><linearGradient id="未命名的渐变_19" x1="-917.11" y1="-457.04" x2="-907.29" y2="-457.04" gradientTransform="translate(-303.06 -134) rotate(180)" xlink:href="#未命名的渐变_5"/><linearGradient id="未命名的渐变_20" x1="-917.11" y1="-457.06" x2="-907.29" y2="-457.06" gradientTransform="translate(-303.06 -134) rotate(180)" xlink:href="#未命名的渐变_5"/><linearGradient id="未命名的渐变_23" x1="-917.11" y1="-457.03" x2="-907.29" y2="-457.03" gradientTransform="translate(-303.06 -134) rotate(180)" xlink:href="#未命名的渐变_5"/><linearGradient id="未命名的渐变_26" x1="-917.11" y1="-457.15" x2="-907.29" y2="-457.15" gradientTransform="translate(-303.06 -134) rotate(180)" xlink:href="#未命名的渐变_5"/><linearGradient id="未命名的渐变_28" x1="-917.11" y1="-457.14" x2="-907.29" y2="-457.14" gradientTransform="translate(-303.06 -134) rotate(180)" xlink:href="#未命名的渐变_5"/><linearGradient id="未命名的渐变_29" x1="-914.31" y1="-457.05" x2="-914.11" y2="-457.05" gradientTransform="translate(-880.99 -409.89) rotate(180)" gradientUnits="userSpaceOnUse"><stop offset="0.02" stop-color="#333"/><stop offset="0.6" stop-color="#b3b3b3"/><stop offset="0.77" stop-color="#b1b1b1"/><stop offset="0.83" stop-color="#aaa"/><stop offset="0.88" stop-color="#9f9f9f"/><stop offset="0.91" stop-color="#8e8e8e"/><stop offset="0.94" stop-color="#787878"/><stop offset="0.97" stop-color="#5c5c5c"/><stop offset="0.99" stop-color="#3d3d3d"/><stop offset="1" stop-color="#333"/></linearGradient><linearGradient id="未命名的渐变_30" x1="-913.85" y1="-457.05" x2="-913.67" y2="-457.05" xlink:href="#未命名的渐变_29"/><linearGradient id="未命名的渐变_31" x1="-913.45" y1="-457.05" x2="-913.25" y2="-457.05" xlink:href="#未命名的渐变_29"/><linearGradient id="未命名的渐变_32" x1="-913.03" y1="-457.05" x2="-912.83" y2="-457.05" xlink:href="#未命名的渐变_29"/><linearGradient id="未命名的渐变_33" x1="-912.65" y1="-457.05" x2="-912.45" y2="-457.05" xlink:href="#未命名的渐变_29"/><linearGradient id="未命名的渐变_34" x1="-912.19" y1="-457.05" x2="-911.99" y2="-457.05" xlink:href="#未命名的渐变_29"/><linearGradient id="未命名的渐变_35" x1="-911.77" y1="-457.05" x2="-911.57" y2="-457.05" xlink:href="#未命名的渐变_29"/><linearGradient id="未命名的渐变_36" x1="-911.37" y1="-457.05" x2="-911.17" y2="-457.05" xlink:href="#未命名的渐变_29"/><linearGradient id="未命名的渐变_37" x1="-910.97" y1="-457.05" x2="-910.77" y2="-457.05" xlink:href="#未命名的渐变_29"/><linearGradient id="未命名的渐变_38" x1="-910.53" y1="-457.05" x2="-910.33" y2="-457.05" xlink:href="#未命名的渐变_29"/><linearGradient id="未命名的渐变_39" x1="-910.11" y1="-457.05" x2="-909.91" y2="-457.05" xlink:href="#未命名的渐变_29"/><linearGradient id="未命名的渐变_40" x1="-909.69" y1="-457.05" x2="-909.51" y2="-457.05" xlink:href="#未命名的渐变_29"/><linearGradient id="未命名的渐变_41" x1="-909.29" y1="-457.06" x2="-909.09" y2="-457.06" gradientTransform="translate(-303.06 -134) rotate(180)" xlink:href="#未命名的渐变_29"/><linearGradient id="未命名的渐变_42" x1="-908.83" y1="-457.05" x2="-908.63" y2="-457.05" gradientTransform="translate(-303.06 -134) rotate(180)" xlink:href="#未命名的渐变_29"/><linearGradient id="未命名的渐变_43" x1="-908.41" y1="-457.06" x2="-908.21" y2="-457.06" gradientTransform="translate(-303.06 -134) rotate(180)" xlink:href="#未命名的渐变_29"/><linearGradient id="未命名的渐变_44" x1="-908.01" y1="-457.05" x2="-907.81" y2="-457.05" gradientTransform="translate(-303.06 -134) rotate(180)" xlink:href="#未命名的渐变_29"/><linearGradient id="未命名的渐变_45" x1="-915.97" y1="-457.14" x2="-915.77" y2="-457.14" gradientTransform="translate(-303.06 -134) rotate(180)" xlink:href="#未命名的渐变_29"/><linearGradient id="未命名的渐变_46" x1="-915.51" y1="-457.1" x2="-915.31" y2="-457.1" gradientTransform="translate(-303.06 -134) rotate(180)" xlink:href="#未命名的渐变_29"/><linearGradient id="未命名的渐变_47" x1="-914.99" y1="-457.06" x2="-914.99" y2="-457.06" gradientTransform="translate(-303.06 -134) rotate(180)" xlink:href="#未命名的渐变_29"/><linearGradient id="未命名的渐变_48" x1="-914.69" y1="-457.05" x2="-914.49" y2="-457.05" xlink:href="#未命名的渐变_29"/><linearGradient id="未命名的渐变_49" x1="-917.11" y1="-457.06" x2="-916.97" y2="-457.06" gradientTransform="translate(-303.06 -134) rotate(180)" xlink:href="#未命名的渐变_29"/><linearGradient id="未命名的渐变_50" x1="-916.75" y1="-457.09" x2="-916.55" y2="-457.09" gradientTransform="translate(-303.06 -134) rotate(180)" xlink:href="#未命名的渐变_29"/><linearGradient id="未命名的渐变_51" x1="-916.33" y1="-457.06" x2="-916.15" y2="-457.06" gradientTransform="translate(-303.06 -134) rotate(180)" xlink:href="#未命名的渐变_29"/><linearGradient id="未命名的渐变_52" x1="-907.63" y1="-457.03" x2="-907.43" y2="-457.03" gradientTransform="translate(-303.06 -134) rotate(180)" xlink:href="#未命名的渐变_29"/></defs><title>5_1</title><path d="M630.29,328.8H588.17a3,3,0,0,1-3-3v2.47a3,3,0,0,0,3,3h42.12a3,3,0,0,0,3-3V325.8A3,3,0,0,1,630.29,328.8Z" transform="translate(-577.93 -275.89)" style="fill:url(#未命名的渐变)"/><path d="M641.81,335.94a4,4,0,0,1-4,4h-55a5,5,0,0,1-4.82-4.59l.9-54.38a4,4,0,0,1,4-4l54.5-1.08a4.73,4.73,0,0,1,4.42,5Z" transform="translate(-577.93 -275.89)" style="fill:#d0d2d3"/><path d="M640.89,334.92a4,4,0,0,1-4,4h-55a4,4,0,0,1-4-4v-55a4,4,0,0,1,4-4h55a4,4,0,0,1,4,4v55Z" transform="translate(-577.93 -275.89)" style="fill:url(#未命名的渐变_2)"/><path d="M633.93,328.91a3.06,3.06,0,0,1-3,3.07h-43a3.06,3.06,0,0,1-3.06-3.06v-43a3.08,3.08,0,0,1,3.06-3.05h43a3.05,3.05,0,0,1,3,3.05v43Z" transform="translate(-577.93 -275.89)" style="fill:url(#未命名的渐变_3)"/><path d="M633.29,328.27a3,3,0,0,1-3,3H588.15a3,3,0,0,1-3-3v-42.1a3,3,0,0,1,3-3h42.12a3,3,0,0,1,3,3Z" transform="translate(-577.93 -275.89)" style="fill:url(#未命名的渐变_4)"/><path d="M614.19,323.09a2.16,2.16,0,0,1-2.16,2.16h-5.84a2.16,2.16,0,0,1-2.16-2.15h0a2.16,2.16,0,0,1,2.16-2.16h5.74a2.17,2.17,0,0,1,2.18,2.16Z" transform="translate(-577.93 -275.89)" style="fill:#bbbdbf"/><path d="M604.05,323.06a2.16,2.16,0,0,1,2.16-2.15h5.84a2.15,2.15,0,0,1,2.16,2.15h0a2.15,2.15,0,0,1-2.16,2.16h-5.84A2.16,2.16,0,0,1,604.05,323.06Z" transform="translate(-577.93 -275.89)" style="fill:#bbbdbf"/><rect x="32.86" y="45.16" width="0.26" height="4.02" style="fill:url(#未命名的渐变_5)"/><rect x="31.2" y="45.16" width="0.26" height="4.02" style="fill:url(#未命名的渐变_5)"/><rect x="29.1" y="45.16" width="0.22" height="4.02" style="fill:url(#未命名的渐变_5)"/><path d="M606.31,325.06h.12v-4h-.22v4Z" transform="translate(-577.93 -275.89)" style="fill:url(#未命名的渐变_8)"/><rect x="32.44" y="45.16" width="0.22" height="4.02" style="fill:url(#未命名的渐变_5)"/><rect x="33.7" y="45.16" width="0.22" height="4.02" style="fill:url(#未命名的渐变_10)"/><rect x="33.32" y="45.16" width="0.18" height="4.02" style="fill:url(#未命名的渐变_5)"/><rect x="28.7" y="45.16" width="0.22" height="4.02" style="fill:url(#未命名的渐变_5)"/><rect x="31.64" y="45.16" width="0.2" height="4.02" style="fill:url(#未命名的渐变_5)"/><rect x="30.78" y="45.16" width="0.22" height="4.02" style="fill:url(#未命名的渐变_5)"/><rect x="30.38" y="45.16" width="0.22" height="4.02" style="fill:url(#未命名的渐变_5)"/><rect x="29.52" y="45.16" width="0.26" height="4.02" style="fill:url(#未命名的渐变_16)"/><rect x="32.04" y="45.16" width="0.22" height="4.02" style="fill:url(#未命名的渐变_5)"/><rect x="29.98" y="45.16" width="0.2" height="4.02" style="fill:url(#未命名的渐变_5)"/><path d="M606,325v-4h-.26v3.86Z" transform="translate(-577.93 -275.89)" style="fill:url(#未命名的渐变_19)"/><path d="M613.93,323.79v-1.46a1.68,1.68,0,0,0-.22-.42v2.3A4.23,4.23,0,0,0,613.93,323.79Z" transform="translate(-577.93 -275.89)" style="fill:url(#未命名的渐变_20)"/><path d="M605.15,324.73v-3.34a1,1,0,0,0-.2.15v3Z" transform="translate(-577.93 -275.89)" style="fill:url(#未命名的渐变_20)"/><path d="M604.75,324.36v-2.62l-.2.22v2.16A1.59,1.59,0,0,0,604.75,324.36Z" transform="translate(-577.93 -275.89)" style="fill:url(#未命名的渐变_20)"/><path d="M613.47,324.42v-2.74l-.2-.2v3.1A.53.53,0,0,0,613.47,324.42Z" transform="translate(-577.93 -275.89)" style="fill:url(#未命名的渐变_23)"/><path d="M612.25,325v-4H612v4Z" transform="translate(-577.93 -275.89)" style="fill:url(#未命名的渐变_19)"/><path d="M604.37,323.74v-1.38a2,2,0,0,0-.14.68A2.08,2.08,0,0,0,604.37,323.74Z" transform="translate(-577.93 -275.89)" style="fill:url(#未命名的渐变_20)"/><path d="M613.09,324.74v-3.38h-.18v3.58Z" transform="translate(-577.93 -275.89)" style="fill:url(#未命名的渐变_26)"/><path d="M605.57,324.92v-3.74l-.22.1v3.54Z" transform="translate(-577.93 -275.89)" style="fill:url(#未命名的渐变_20)"/><path d="M612.71,324.92v-3.74h-.26v3.91Z" transform="translate(-577.93 -275.89)" style="fill:url(#未命名的渐变_28)"/><rect x="33.12" y="45.16" width="0.2" height="4.02" style="fill:url(#未命名的渐变_29)"/><rect x="32.66" y="45.16" width="0.2" height="4.02" style="fill:url(#未命名的渐变_30)"/><rect x="32.24" y="45.16" width="0.2" height="4.02" style="fill:url(#未命名的渐变_31)"/><rect x="31.84" y="45.16" width="0.2" height="4.02" style="fill:url(#未命名的渐变_32)"/><rect x="31.46" y="45.16" width="0.2" height="4.02" style="fill:url(#未命名的渐变_33)"/><rect x="31" y="45.16" width="0.2" height="4.02" style="fill:url(#未命名的渐变_34)"/><rect x="30.58" y="45.16" width="0.2" height="4.02" style="fill:url(#未命名的渐变_35)"/><rect x="30.16" y="45.16" width="0.2" height="4.02" style="fill:url(#未命名的渐变_36)"/><rect x="29.78" y="45.16" width="0.2" height="4.02" style="fill:url(#未命名的渐变_37)"/><rect x="29.34" y="45.16" width="0.2" height="4.02" style="fill:url(#未命名的渐变_38)"/><rect x="28.9" y="45.16" width="0.2" height="4.02" style="fill:url(#未命名的渐变_39)"/><rect x="28.5" y="45.16" width="0.2" height="4.02" style="fill:url(#未命名的渐变_40)"/><path d="M606.21,325.06v-4h-.28v4Z" transform="translate(-577.93 -275.89)" style="fill:url(#未命名的渐变_41)"/><path d="M605.77,325v-3.86h-.2v3.74A.47.47,0,0,0,605.77,325Z" transform="translate(-577.93 -275.89)" style="fill:url(#未命名的渐变_42)"/><path d="M605.35,324.83v-3.54l-.2.1v3.34Z" transform="translate(-577.93 -275.89)" style="fill:url(#未命名的渐变_43)"/><path d="M605,324.56v-3l-.2.18v2.64Z" transform="translate(-577.93 -275.89)" style="fill:url(#未命名的渐变_44)"/><path d="M612.91,324.85v-3.58h-.2V325Z" transform="translate(-577.93 -275.89)" style="fill:url(#未命名的渐变_45)"/><path d="M612.45,325v-3.9h-.2v4Z" transform="translate(-577.93 -275.89)" style="fill:url(#未命名的渐变_46)"/><path d="M611.93,325.06h0v-4h0Z" transform="translate(-577.93 -275.89)" style="fill:url(#未命名的渐变_47)"/><rect x="33.5" y="45.16" width="0.2" height="4.02" style="fill:url(#未命名的渐变_48)"/><path d="M614.05,323.06a1.67,1.67,0,0,0-.14-.73v1.46A2.06,2.06,0,0,0,614.05,323.06Z" transform="translate(-577.93 -275.89)" style="fill:url(#未命名的渐变_49)"/><path d="M613.69,324.21v-2.27l-.22-.21v2.71Z" transform="translate(-577.93 -275.89)" style="fill:url(#未命名的渐变_50)"/><path d="M613.27,324.6v-3.1l-.2-.14v3.41Z" transform="translate(-577.93 -275.89)" style="fill:url(#未命名的渐变_51)"/><path d="M604.57,324.12v-2.18a2,2,0,0,0-.2.41v1.38A.86.86,0,0,0,604.57,324.12Z" transform="translate(-577.93 -275.89)" style="fill:url(#未命名的渐变_52)"/></svg>