<svg id="图层_1" data-name="图层 1" xmlns="http://www.w3.org/2000/svg" xmlns:xlink="http://www.w3.org/1999/xlink" width="63.89" height="64.06" viewBox="0 0 63.89 64.06"><defs><linearGradient id="未命名的渐变" x1="853.19" y1="1191.45" x2="916.03" y2="1191.45" gradientTransform="translate(-275.06 -884)" gradientUnits="userSpaceOnUse"><stop offset="0" stop-color="#d0d2d3"/><stop offset="0.07" stop-color="#dddedf"/><stop offset="0.18" stop-color="#e8e9ea"/><stop offset="0.34" stop-color="#efeff0"/><stop offset="0.78" stop-color="#f1f1f2"/></linearGradient><linearGradient id="未命名的渐变_2" x1="-913.6" y1="-417.92" x2="-913.6" y2="-467.08" gradientTransform="translate(-303.06 -134) rotate(180)" gradientUnits="userSpaceOnUse"><stop offset="0" stop-color="#a6a8ab"/><stop offset="1" stop-color="#bbbdbf"/></linearGradient><linearGradient id="未命名的渐变_3" x1="-913.78" y1="-418.64" x2="-913.78" y2="-473.84" gradientTransform="translate(-303.06 -134) rotate(180)" gradientUnits="userSpaceOnUse"><stop offset="0.22" stop-color="#f1f1f2"/><stop offset="0.66" stop-color="#efeff0"/><stop offset="0.82" stop-color="#e8e9ea"/><stop offset="0.93" stop-color="#dddedf"/><stop offset="1" stop-color="#d0d2d3"/></linearGradient><linearGradient id="未命名的渐变_4" x1="-937.85" y1="-421.37" x2="-889.69" y2="-421.37" gradientTransform="translate(-303.06 -134) rotate(180)" gradientUnits="userSpaceOnUse"><stop offset="0" stop-color="#d0d2d3"/><stop offset="0.1" stop-color="#d7d9da"/><stop offset="0.32" stop-color="#e2e3e4"/><stop offset="0.57" stop-color="#e6e7e8"/><stop offset="0.82" stop-color="#dbddde"/><stop offset="1" stop-color="#d0d2d3"/></linearGradient><linearGradient id="未命名的渐变_5" x1="845.07" y1="1098.85" x2="854.89" y2="1098.85" gradientTransform="translate(-817.07 -1081.9)" gradientUnits="userSpaceOnUse"><stop offset="0" stop-color="#f05a28"/><stop offset="0.1" stop-color="#f26f24"/><stop offset="0.22" stop-color="#f48321"/><stop offset="0.34" stop-color="#f68e1f"/><stop offset="0.47" stop-color="#f6921e"/><stop offset="0.75" stop-color="#f37820"/><stop offset="1" stop-color="#f16522"/></linearGradient><linearGradient id="未命名的渐变_8" x1="845.09" y1="1098.84" x2="854.89" y2="1098.84" gradientTransform="translate(-239.06 -806)" xlink:href="#未命名的渐变_5"/><linearGradient id="未命名的渐变_16" x1="845.09" y1="1098.85" x2="854.89" y2="1098.85" xlink:href="#未命名的渐变_5"/><linearGradient id="未命名的渐变_19" x1="845.09" y1="1098.86" x2="854.89" y2="1098.86" gradientTransform="translate(-239.06 -806)" xlink:href="#未命名的渐变_5"/><linearGradient id="未命名的渐变_20" x1="845.07" y1="1098.86" x2="854.89" y2="1098.86" gradientTransform="translate(-239.06 -806)" xlink:href="#未命名的渐变_5"/><linearGradient id="未命名的渐变_24" x1="845.07" y1="1098.86" x2="854.89" y2="1098.86" gradientTransform="translate(-239.06 -806)" xlink:href="#未命名的渐变_5"/><linearGradient id="未命名的渐变_28" x1="845.07" y1="1098.77" x2="854.89" y2="1098.77" gradientTransform="translate(-239.06 -806)" xlink:href="#未命名的渐变_5"/><linearGradient id="未命名的渐变_29" x1="847.87" y1="1098.85" x2="848.07" y2="1098.85" gradientTransform="translate(-817.07 -1081.9)" gradientUnits="userSpaceOnUse"><stop offset="0.02" stop-color="#f05a28"/><stop offset="0.6" stop-color="#f6921e"/><stop offset="0.8" stop-color="#f6901e"/><stop offset="0.87" stop-color="#f58920"/><stop offset="0.93" stop-color="#f47e22"/><stop offset="0.97" stop-color="#f26d25"/><stop offset="1" stop-color="#f05a28"/></linearGradient><linearGradient id="未命名的渐变_30" x1="848.33" y1="1098.85" x2="848.53" y2="1098.85" xlink:href="#未命名的渐变_29"/><linearGradient id="未命名的渐变_31" x1="848.75" y1="1098.85" x2="848.95" y2="1098.85" xlink:href="#未命名的渐变_29"/><linearGradient id="未命名的渐变_32" x1="849.15" y1="1098.85" x2="849.35" y2="1098.85" xlink:href="#未命名的渐变_29"/><linearGradient id="未命名的渐变_33" x1="849.55" y1="1098.85" x2="849.73" y2="1098.85" xlink:href="#未命名的渐变_29"/><linearGradient id="未命名的渐变_34" x1="849.99" y1="1098.85" x2="850.19" y2="1098.85" xlink:href="#未命名的渐变_29"/><linearGradient id="未命名的渐变_35" x1="850.41" y1="1098.85" x2="850.61" y2="1098.85" xlink:href="#未命名的渐变_29"/><linearGradient id="未命名的渐变_36" x1="850.81" y1="1098.85" x2="851.01" y2="1098.85" xlink:href="#未命名的渐变_29"/><linearGradient id="未命名的渐变_37" x1="851.21" y1="1098.85" x2="851.41" y2="1098.85" xlink:href="#未命名的渐变_29"/><linearGradient id="未命名的渐变_38" x1="851.67" y1="1098.85" x2="851.87" y2="1098.85" xlink:href="#未命名的渐变_29"/><linearGradient id="未命名的渐变_39" x1="852.09" y1="1098.85" x2="852.27" y2="1098.85" xlink:href="#未命名的渐变_29"/><linearGradient id="未命名的渐变_40" x1="852.49" y1="1098.85" x2="852.69" y2="1098.85" xlink:href="#未命名的渐变_29"/><linearGradient id="未命名的渐变_41" x1="852.91" y1="1098.84" x2="853.11" y2="1098.84" gradientTransform="translate(-239.06 -806)" xlink:href="#未命名的渐变_29"/><linearGradient id="未命名的渐变_42" x1="853.35" y1="1098.85" x2="853.55" y2="1098.85" gradientTransform="translate(-239.06 -806)" xlink:href="#未命名的渐变_29"/><linearGradient id="未命名的渐变_43" x1="853.77" y1="1098.85" x2="853.97" y2="1098.85" gradientTransform="translate(-239.06 -806)" xlink:href="#未命名的渐变_29"/><linearGradient id="未命名的渐变_44" x1="854.19" y1="1098.85" x2="854.37" y2="1098.85" gradientTransform="translate(-239.06 -806)" xlink:href="#未命名的渐变_29"/><linearGradient id="未命名的渐变_45" x1="846.21" y1="1098.77" x2="846.41" y2="1098.77" gradientTransform="translate(-239.06 -806)" xlink:href="#未命名的渐变_29"/><linearGradient id="未命名的渐变_46" x1="846.67" y1="1098.8" x2="846.87" y2="1098.8" gradientTransform="translate(-239.06 -806)" xlink:href="#未命名的渐变_29"/><linearGradient id="未命名的渐变_47" x1="847.09" y1="1098.84" x2="847.29" y2="1098.84" gradientTransform="translate(-239.06 -806)" xlink:href="#未命名的渐变_29"/><linearGradient id="未命名的渐变_48" x1="847.49" y1="1098.85" x2="847.69" y2="1098.85" xlink:href="#未命名的渐变_29"/><linearGradient id="未命名的渐变_49" x1="845.07" y1="1098.85" x2="845.23" y2="1098.85" gradientTransform="translate(-239.06 -806)" xlink:href="#未命名的渐变_29"/><linearGradient id="未命名的渐变_50" x1="845.45" y1="1098.83" x2="845.63" y2="1098.83" gradientTransform="translate(-239.06 -806)" xlink:href="#未命名的渐变_29"/><linearGradient id="未命名的渐变_51" x1="845.85" y1="1098.84" x2="846.05" y2="1098.84" gradientTransform="translate(-239.06 -806)" xlink:href="#未命名的渐变_29"/><linearGradient id="未命名的渐变_52" x1="854.57" y1="1098.87" x2="854.75" y2="1098.87" gradientTransform="translate(-239.06 -806)" xlink:href="#未命名的渐变_29"/></defs><title>5_0</title><path d="M641.89,336a4,4,0,0,1-4,4h-55a5,5,0,0,1-4.82-4.6L579,281a4,4,0,0,1,4-4l54.5-1.08a4.75,4.75,0,0,1,4.42,5Z" transform="translate(-578.01 -275.9)" style="fill:#d0d2d3"/><path d="M641,334.94a4,4,0,0,1-4,4H582a4,4,0,0,1-4-4V280a4,4,0,0,1,4-4h55a4,4,0,0,1,4,4v55Z" transform="translate(-578.01 -275.9)" style="fill:url(#未命名的渐变)"/><path d="M586,287a3.05,3.05,0,0,1,3-3.08h43a3.06,3.06,0,0,1,3.06,3.06v43a3,3,0,0,1-3,3.06H589a3,3,0,0,1-3-3.06Z" transform="translate(-578.01 -275.9)" style="fill:url(#未命名的渐变_2)"/><path d="M586.65,287.64a3,3,0,0,1,3-3h42.14a3,3,0,0,1,3,3v42a3,3,0,0,1-3,3H589.67a3,3,0,0,1-3-3Z" transform="translate(-578.01 -275.9)" style="fill:url(#未命名的渐变_3)"/><path d="M589.65,287.1h42.12a3,3,0,0,1,3,3v-2.46a3,3,0,0,0-3-3H589.65a3,3,0,0,0-3,3v2.46A3,3,0,0,1,589.65,287.1Z" transform="translate(-578.01 -275.9)" style="fill:url(#未命名的渐变_4)"/><path d="M605.77,292.82a2.16,2.16,0,0,1,2.16-2.16h5.82a2.16,2.16,0,0,1,2.16,2.16h0a2.16,2.16,0,0,1-2.16,2.16H608a2.16,2.16,0,0,1-2.16-2.16h-.08Z" transform="translate(-578.01 -275.9)" style="fill:#bbbdbf"/><path d="M616,292.84a2.16,2.16,0,0,1-2.14,2.18H608a2.16,2.16,0,0,1-2.16-2.16v0h0a2.16,2.16,0,0,1,2.16-2.16h5.82a2.16,2.16,0,0,1,2.16,2.16Z" transform="translate(-578.01 -275.9)" style="fill:#bbbdbf"/><rect x="31" y="14.94" width="0.26" height="4.02" style="fill:url(#未命名的渐变_5)"/><rect x="32.66" y="14.94" width="0.26" height="4.02" style="fill:url(#未命名的渐变_5)"/><rect x="34.78" y="14.94" width="0.22" height="4.02" style="fill:url(#未命名的渐变_5)"/><path d="M613.75,290.84h-.12v4h.22v-4Z" transform="translate(-578.01 -275.9)" style="fill:url(#未命名的渐变_8)"/><rect x="31.44" y="14.94" width="0.22" height="4.02" style="fill:url(#未命名的渐变_5)"/><rect x="30.2" y="14.94" width="0.22" height="4.02" style="fill:url(#未命名的渐变_5)"/><rect x="30.6" y="14.94" width="0.18" height="4.02" style="fill:url(#未命名的渐变_5)"/><rect x="35.2" y="14.94" width="0.22" height="4.02" style="fill:url(#未命名的渐变_5)"/><rect x="32.28" y="14.94" width="0.2" height="4.02" style="fill:url(#未命名的渐变_5)"/><rect x="33.12" y="14.94" width="0.22" height="4.02" style="fill:url(#未命名的渐变_5)"/><rect x="33.54" y="14.94" width="0.22" height="4.02" style="fill:url(#未命名的渐变_5)"/><rect x="34.34" y="14.94" width="0.26" height="4.02" style="fill:url(#未命名的渐变_16)"/><rect x="31.88" y="14.94" width="0.22" height="4.02" style="fill:url(#未命名的渐变_5)"/><rect x="33.94" y="14.94" width="0.2" height="4.02" style="fill:url(#未命名的渐变_5)"/><path d="M614,290.86v4h.26V291Z" transform="translate(-578.01 -275.9)" style="fill:url(#未命名的渐变_19)"/><path d="M606.15,292.12v1.46a1.76,1.76,0,0,0,.24.42v-2.28A1.85,1.85,0,0,0,606.15,292.12Z" transform="translate(-578.01 -275.9)" style="fill:url(#未命名的渐变_20)"/><path d="M614.91,291.18v3.34l.22-.16v-3Z" transform="translate(-578.01 -275.9)" style="fill:url(#未命名的渐变_5)"/><path d="M615.33,291.54v2.62l.18-.22v-2.16A1.5,1.5,0,0,0,615.33,291.54Z" transform="translate(-578.01 -275.9)" style="fill:url(#未命名的渐变_16)"/><path d="M606.59,291.48v2.74l.2.18v-3.1A.7.7,0,0,0,606.59,291.48Z" transform="translate(-578.01 -275.9)" style="fill:url(#未命名的渐变_5)"/><path d="M607.81,290.86v4h.2v-4Z" transform="translate(-578.01 -275.9)" style="fill:url(#未命名的渐变_24)"/><path d="M615.69,292.16v1.38a1.76,1.76,0,0,0,.14-.68A1.86,1.86,0,0,0,615.69,292.16Z" transform="translate(-578.01 -275.9)" style="fill:url(#未命名的渐变_16)"/><path d="M607,291.16v3.38l.16.1v-3.58Z" transform="translate(-578.01 -275.9)" style="fill:url(#未命名的渐变_5)"/><path d="M614.49,291v3.74h.24v-3.54Z" transform="translate(-578.01 -275.9)" style="fill:url(#未命名的渐变_5)"/><path d="M607.35,291v3.74h.26v-3.9Z" transform="translate(-578.01 -275.9)" style="fill:url(#未命名的渐变_28)"/><rect x="30.8" y="14.94" width="0.2" height="4.02" style="fill:url(#未命名的渐变_29)"/><rect x="31.26" y="14.94" width="0.2" height="4.02" style="fill:url(#未命名的渐变_30)"/><rect x="31.66" y="14.94" width="0.2" height="4.02" style="fill:url(#未命名的渐变_31)"/><rect x="32.08" y="14.94" width="0.2" height="4.02" style="fill:url(#未命名的渐变_32)"/><rect x="32.46" y="14.94" width="0.2" height="4.02" style="fill:url(#未命名的渐变_33)"/><rect x="32.92" y="14.94" width="0.2" height="4.02" style="fill:url(#未命名的渐变_34)"/><rect x="33.34" y="14.94" width="0.2" height="4.02" style="fill:url(#未命名的渐变_35)"/><rect x="33.74" y="14.94" width="0.2" height="4.02" style="fill:url(#未命名的渐变_36)"/><rect x="34.14" y="14.94" width="0.2" height="4.02" style="fill:url(#未命名的渐变_37)"/><rect x="34.6" y="14.94" width="0.2" height="4.02" style="fill:url(#未命名的渐变_38)"/><rect x="35" y="14.94" width="0.2" height="4.02" style="fill:url(#未命名的渐变_39)"/><rect x="35.4" y="14.94" width="0.2" height="4.02" style="fill:url(#未命名的渐变_40)"/><path d="M613.85,290.84v4h.2v-4Z" transform="translate(-578.01 -275.9)" style="fill:url(#未命名的渐变_41)"/><path d="M614.29,290.92v3.86h.2V291A.82.82,0,0,0,614.29,290.92Z" transform="translate(-578.01 -275.9)" style="fill:url(#未命名的渐变_42)"/><path d="M614.71,291.08v3.54l.2-.1v-3.34Z" transform="translate(-578.01 -275.9)" style="fill:url(#未命名的渐变_43)"/><path d="M615.13,291.34v3l.2-.18v-2.64Z" transform="translate(-578.01 -275.9)" style="fill:url(#未命名的渐变_44)"/><path d="M607.15,291.06v3.58h.22V290.9Z" transform="translate(-578.01 -275.9)" style="fill:url(#未命名的渐变_45)"/><path d="M607.61,290.9v3.9h.2v-4Z" transform="translate(-578.01 -275.9)" style="fill:url(#未命名的渐变_46)"/><path d="M608.11,290.84h0v4h.2v-4Z" transform="translate(-578.01 -275.9)" style="fill:url(#未命名的渐变_47)"/><rect x="30.42" y="14.94" width="0.2" height="4.02" style="fill:url(#未命名的渐变_48)"/><path d="M606,292.84a1.71,1.71,0,0,0,.14.74v-1.46A2,2,0,0,0,606,292.84Z" transform="translate(-578.01 -275.9)" style="fill:url(#未命名的渐变_49)"/><path d="M606.39,291.72V294a.91.91,0,0,0,.2.24v-2.74A1,1,0,0,0,606.39,291.72Z" transform="translate(-578.01 -275.9)" style="fill:url(#未命名的渐变_50)"/><path d="M606.79,291.3v3.1l.2.14v-3.4Z" transform="translate(-578.01 -275.9)" style="fill:url(#未命名的渐变_51)"/><path d="M615.49,291.78V294a1.87,1.87,0,0,0,.2-.4v-1.38A.94.94,0,0,0,615.49,291.78Z" transform="translate(-578.01 -275.9)" style="fill:url(#未命名的渐变_52)"/></svg>