<svg id="图层_1" data-name="图层 1" xmlns="http://www.w3.org/2000/svg" xmlns:xlink="http://www.w3.org/1999/xlink" width="64" height="64" viewBox="0 0 64 64"><defs><linearGradient id="未命名的渐变" x1="818.04" y1="1113.79" x2="881.06" y2="1113.79" gradientTransform="translate(-240 -806)" gradientUnits="userSpaceOnUse"><stop offset="0" stop-color="#d0d2d3"/><stop offset="0.07" stop-color="#dddedf"/><stop offset="0.18" stop-color="#e8e9ea"/><stop offset="0.34" stop-color="#efeff0"/><stop offset="0.78" stop-color="#f1f1f2"/></linearGradient><linearGradient id="未命名的渐变_2" x1="825.48" y1="1113.22" x2="873.64" y2="1113.22" gradientTransform="translate(-240 -806)" gradientUnits="userSpaceOnUse"><stop offset="0" stop-color="#a6a8ab"/><stop offset="1" stop-color="#bbbdbf"/></linearGradient><linearGradient id="未命名的渐变_3" x1="826" y1="1113.21" x2="873.12" y2="1113.21" gradientTransform="translate(-240 -806)" gradientUnits="userSpaceOnUse"><stop offset="0.22" stop-color="#f1f1f2"/><stop offset="0.66" stop-color="#efeff0"/><stop offset="0.82" stop-color="#e8e9ea"/><stop offset="0.93" stop-color="#dddedf"/><stop offset="1" stop-color="#d0d2d3"/></linearGradient><linearGradient id="未命名的渐变_4" x1="826" y1="1128.72" x2="873.12" y2="1128.72" gradientTransform="translate(-240 -806)" gradientUnits="userSpaceOnUse"><stop offset="0" stop-color="#d0d2d3"/><stop offset="0.1" stop-color="#d7d9da"/><stop offset="0.32" stop-color="#e2e3e4"/><stop offset="0.57" stop-color="#e6e7e8"/><stop offset="1" stop-color="#d0d2d3"/></linearGradient><linearGradient id="未命名的渐变_5" x1="-914.8" y1="-456.67" x2="-904.96" y2="-456.67" gradientTransform="translate(-878.04 -410.32) rotate(180)" gradientUnits="userSpaceOnUse"><stop offset="0" stop-color="#333"/><stop offset="0.01" stop-color="#383838"/><stop offset="0.1" stop-color="#5b5b5b"/><stop offset="0.19" stop-color="#767676"/><stop offset="0.28" stop-color="#8a8a8a"/><stop offset="0.38" stop-color="#959595"/><stop offset="0.47" stop-color="#999"/><stop offset="0.63" stop-color="#767676"/><stop offset="0.87" stop-color="#464646"/><stop offset="1" stop-color="#333"/></linearGradient><linearGradient id="未命名的渐变_6" x1="-914.8" y1="-456.67" x2="-904.94" y2="-456.67" xlink:href="#未命名的渐变_5"/><linearGradient id="未命名的渐变_7" x1="-914.8" y1="-456.67" x2="-904.96" y2="-456.67" xlink:href="#未命名的渐变_5"/><linearGradient id="未命名的渐变_8" x1="-914.8" y1="-456.7" x2="-904.96" y2="-456.7" gradientTransform="translate(-300 -134) rotate(180)" xlink:href="#未命名的渐变_5"/><linearGradient id="未命名的渐变_12" x1="-914.8" y1="-456.67" x2="-904.94" y2="-456.67" xlink:href="#未命名的渐变_5"/><linearGradient id="未命名的渐变_16" x1="-914.78" y1="-456.67" x2="-904.96" y2="-456.67" xlink:href="#未命名的渐变_5"/><linearGradient id="未命名的渐变_19" x1="-914.8" y1="-456.66" x2="-904.96" y2="-456.66" gradientTransform="translate(-300 -134) rotate(180)" xlink:href="#未命名的渐变_5"/><linearGradient id="未命名的渐变_20" x1="-914.8" y1="-456.68" x2="-904.96" y2="-456.68" gradientTransform="translate(-300 -134) rotate(180)" xlink:href="#未命名的渐变_5"/><linearGradient id="未命名的渐变_21" x1="-914.8" y1="-456.65" x2="-904.96" y2="-456.65" gradientTransform="translate(-300 -134) rotate(180)" xlink:href="#未命名的渐变_5"/><linearGradient id="未命名的渐变_23" x1="-914.8" y1="-456.72" x2="-904.96" y2="-456.72" gradientTransform="translate(-300 -134) rotate(180)" xlink:href="#未命名的渐变_5"/><linearGradient id="未命名的渐变_28" x1="-914.8" y1="-456.8" x2="-904.96" y2="-456.8" gradientTransform="translate(-300 -134) rotate(180)" xlink:href="#未命名的渐变_5"/><linearGradient id="未命名的渐变_29" x1="-912" y1="-456.67" x2="-911.8" y2="-456.67" gradientTransform="translate(-878.04 -410.32) rotate(180)" gradientUnits="userSpaceOnUse"><stop offset="0.02" stop-color="#333"/><stop offset="0.6" stop-color="#b3b3b3"/><stop offset="0.77" stop-color="#b1b1b1"/><stop offset="0.83" stop-color="#aaa"/><stop offset="0.88" stop-color="#9f9f9f"/><stop offset="0.91" stop-color="#8e8e8e"/><stop offset="0.94" stop-color="#787878"/><stop offset="0.97" stop-color="#5c5c5c"/><stop offset="0.99" stop-color="#3d3d3d"/><stop offset="1" stop-color="#333"/></linearGradient><linearGradient id="未命名的渐变_30" x1="-911.54" y1="-456.67" x2="-911.34" y2="-456.67" xlink:href="#未命名的渐变_29"/><linearGradient id="未命名的渐变_31" x1="-911.12" y1="-456.67" x2="-910.92" y2="-456.67" xlink:href="#未命名的渐变_29"/><linearGradient id="未命名的渐变_32" x1="-910.72" y1="-456.67" x2="-910.52" y2="-456.67" xlink:href="#未命名的渐变_29"/><linearGradient id="未命名的渐变_33" x1="-910.32" y1="-456.67" x2="-910.12" y2="-456.67" xlink:href="#未命名的渐变_29"/><linearGradient id="未命名的渐变_34" x1="-909.86" y1="-456.67" x2="-909.66" y2="-456.67" xlink:href="#未命名的渐变_29"/><linearGradient id="未命名的渐变_35" x1="-909.44" y1="-456.67" x2="-909.24" y2="-456.67" xlink:href="#未命名的渐变_29"/><linearGradient id="未命名的渐变_36" x1="-909.04" y1="-456.67" x2="-908.84" y2="-456.67" xlink:href="#未命名的渐变_29"/><linearGradient id="未命名的渐变_37" x1="-908.64" y1="-456.67" x2="-908.44" y2="-456.67" xlink:href="#未命名的渐变_29"/><linearGradient id="未命名的渐变_38" x1="-908.18" y1="-456.67" x2="-908" y2="-456.67" xlink:href="#未命名的渐变_29"/><linearGradient id="未命名的渐变_39" x1="-907.78" y1="-456.67" x2="-907.58" y2="-456.67" xlink:href="#未命名的渐变_29"/><linearGradient id="未命名的渐变_40" x1="-907.36" y1="-456.67" x2="-907.16" y2="-456.67" xlink:href="#未命名的渐变_29"/><linearGradient id="未命名的渐变_41" x1="-906.94" y1="-456.68" x2="-906.74" y2="-456.68" gradientTransform="translate(-300 -134) rotate(180)" xlink:href="#未命名的渐变_29"/><linearGradient id="未命名的渐变_42" x1="-906.5" y1="-456.67" x2="-906.3" y2="-456.67" gradientTransform="translate(-300 -134) rotate(180)" xlink:href="#未命名的渐变_29"/><linearGradient id="未命名的渐变_43" x1="-906.08" y1="-456.68" x2="-905.88" y2="-456.68" gradientTransform="translate(-300 -134) rotate(180)" xlink:href="#未命名的渐变_29"/><linearGradient id="未命名的渐变_44" x1="-905.66" y1="-456.67" x2="-905.46" y2="-456.67" gradientTransform="translate(-300 -134) rotate(180)" xlink:href="#未命名的渐变_29"/><linearGradient id="未命名的渐变_45" x1="-913.66" y1="-456.68" x2="-913.46" y2="-456.68" gradientTransform="translate(-300 -134) rotate(180)" xlink:href="#未命名的渐变_29"/><linearGradient id="未命名的渐变_46" x1="-913.2" y1="-456.64" x2="-913" y2="-456.64" gradientTransform="translate(-300 -134) rotate(180)" xlink:href="#未命名的渐变_29"/><linearGradient id="未命名的渐变_47" x1="-912.78" y1="-456.7" x2="-912.58" y2="-456.7" gradientTransform="translate(-300 -134) rotate(180)" xlink:href="#未命名的渐变_29"/><linearGradient id="未命名的渐变_48" x1="-912.38" y1="-456.67" x2="-912.18" y2="-456.67" xlink:href="#未命名的渐变_29"/><linearGradient id="未命名的渐变_49" x1="-914.8" y1="-456.67" x2="-914.66" y2="-456.67" gradientTransform="translate(-300 -134) rotate(180)" xlink:href="#未命名的渐变_29"/><linearGradient id="未命名的渐变_50" x1="-914.42" y1="-456.69" x2="-914.24" y2="-456.69" gradientTransform="translate(-300 -134) rotate(180)" xlink:href="#未命名的渐变_29"/><linearGradient id="未命名的渐变_51" x1="-914.02" y1="-456.7" x2="-913.82" y2="-456.7" gradientTransform="translate(-300 -134) rotate(180)" xlink:href="#未命名的渐变_29"/><linearGradient id="未命名的渐变_52" x1="-905.28" y1="-456.68" x2="-905.08" y2="-456.68" gradientTransform="translate(-300 -134) rotate(180)" xlink:href="#未命名的渐变_29"/></defs><title>6_1</title><path d="M642,322a18.38,18.38,0,0,1-18.38,18.36H597.4A18.36,18.36,0,0,1,579,322V295.74a18.36,18.36,0,0,1,18.36-18.36h26.28A18.38,18.38,0,0,1,642,295.74Z" transform="translate(-578.04 -276.32)" style="fill:#d0d2d3"/><path d="M641.06,320.9a18.38,18.38,0,0,1-18.38,18.36H596.42A18.38,18.38,0,0,1,578,320.9V294.68a18.38,18.38,0,0,1,18.38-18.36h26.26a18.38,18.38,0,0,1,18.38,18.36Z" transform="translate(-578.04 -276.32)" style="fill:url(#未命名的渐变)"/><path d="M633.64,317.22a14,14,0,0,1-14,14h-20a14,14,0,0,1-14-14v-20a14,14,0,0,1,14-14h20a14,14,0,0,1,14,14Z" transform="translate(-578.04 -276.32)" style="fill:url(#未命名的渐变_2)"/><path d="M633.12,317a13.74,13.74,0,0,1-13.74,13.74H599.74A13.74,13.74,0,0,1,586,317V297.4a13.72,13.72,0,0,1,13.72-13.72h19.66a13.74,13.74,0,0,1,13.74,13.72Z" transform="translate(-578.04 -276.32)" style="fill:url(#未命名的渐变_3)"/><path d="M619.38,328.32H599.74A13.72,13.72,0,0,1,586,314.62v2.48a13.72,13.72,0,0,0,13.7,13.74h19.68a13.74,13.74,0,0,0,13.74-13.74v-2.5A13.74,13.74,0,0,1,619.38,328.32Z" transform="translate(-578.04 -276.32)" style="fill:url(#未命名的渐变_4)"/><path d="M614.76,322.62a2.12,2.12,0,0,1-2.12,2.12h-5.78a2.14,2.14,0,0,1-2.14-2.12h0a2.12,2.12,0,0,1,2.12-2.12h5.78a2.12,2.12,0,0,1,2.14,2.1Z" transform="translate(-578.04 -276.32)" style="fill:#bbbdbf"/><path d="M604.78,322.68a2.16,2.16,0,0,1,2.16-2.16h5.84a2.16,2.16,0,0,1,2.16,2.16h0a2.16,2.16,0,0,1-2.16,2.16h-5.84A2.16,2.16,0,0,1,604.78,322.68Z" transform="translate(-578.04 -276.32)" style="fill:#bbbdbf"/><rect x="33.5" y="44.34" width="0.26" height="4.02" style="fill:url(#未命名的渐变_5)"/><rect x="31.82" y="44.34" width="0.26" height="4.02" style="fill:url(#未命名的渐变_6)"/><rect x="29.72" y="44.34" width="0.22" height="4.02" style="fill:url(#未命名的渐变_7)"/><path d="M607.06,324.7h.1v-4H607v4Z" transform="translate(-578.04 -276.32)" style="fill:url(#未命名的渐变_8)"/><rect x="33.08" y="44.34" width="0.22" height="4.02" style="fill:url(#未命名的渐变_5)"/><rect x="34.34" y="44.34" width="0.22" height="4.02" style="fill:url(#未命名的渐变_5)"/><rect x="33.96" y="44.34" width="0.18" height="4.02" style="fill:url(#未命名的渐变_5)"/><rect x="29.32" y="44.34" width="0.22" height="4.02" style="fill:url(#未命名的渐变_12)"/><rect x="32.28" y="44.34" width="0.2" height="4.02" style="fill:url(#未命名的渐变_5)"/><rect x="31.4" y="44.34" width="0.22" height="4.02" style="fill:url(#未命名的渐变_12)"/><rect x="31" y="44.34" width="0.22" height="4.02" style="fill:url(#未命名的渐变_5)"/><rect x="30.14" y="44.34" width="0.26" height="4.02" style="fill:url(#未命名的渐变_16)"/><rect x="32.68" y="44.34" width="0.22" height="4.02" style="fill:url(#未命名的渐变_5)"/><rect x="30.6" y="44.34" width="0.2" height="4.02" style="fill:url(#未命名的渐变_5)"/><path d="M606.76,324.66v-4h-.28v3.86A.57.57,0,0,0,606.76,324.66Z" transform="translate(-578.04 -276.32)" style="fill:url(#未命名的渐变_19)"/><path d="M614.66,323.4v-1.46a3.26,3.26,0,0,0-.24-.4v2.28A2.86,2.86,0,0,0,614.66,323.4Z" transform="translate(-578.04 -276.32)" style="fill:url(#未命名的渐变_20)"/><path d="M605.88,324.32V321l-.22.16v3Z" transform="translate(-578.04 -276.32)" style="fill:url(#未命名的渐变_21)"/><path d="M605.46,324v-2.64l-.18.24v2.16Z" transform="translate(-578.04 -276.32)" style="fill:url(#未命名的渐变_20)"/><path d="M614.22,324V321.3l-.2-.18v3.2A2.83,2.83,0,0,0,614.22,324Z" transform="translate(-578.04 -276.32)" style="fill:url(#未命名的渐变_23)"/><path d="M613,324.66v-4h-.22v4Z" transform="translate(-578.04 -276.32)" style="fill:url(#未命名的渐变_19)"/><path d="M605.08,323.36V322a2,2,0,0,0-.12.68A2.06,2.06,0,0,0,605.08,323.36Z" transform="translate(-578.04 -276.32)" style="fill:url(#未命名的渐变_5)"/><path d="M613.82,324.32v-3.38h-.16v3.56Z" transform="translate(-578.04 -276.32)" style="fill:url(#未命名的渐变_23)"/><path d="M606.3,324.56V320.8l-.24.1v3.56Z" transform="translate(-578.04 -276.32)" style="fill:url(#未命名的渐变_20)"/><path d="M613.46,324.56V320.8h-.28v4Z" transform="translate(-578.04 -276.32)" style="fill:url(#未命名的渐变_28)"/><rect x="33.76" y="44.34" width="0.2" height="4.02" style="fill:url(#未命名的渐变_29)"/><rect x="33.3" y="44.34" width="0.2" height="4.02" style="fill:url(#未命名的渐变_30)"/><rect x="32.88" y="44.34" width="0.2" height="4.02" style="fill:url(#未命名的渐变_31)"/><rect x="32.48" y="44.34" width="0.2" height="4.02" style="fill:url(#未命名的渐变_32)"/><rect x="32.08" y="44.34" width="0.2" height="4.02" style="fill:url(#未命名的渐变_33)"/><rect x="31.62" y="44.34" width="0.2" height="4.02" style="fill:url(#未命名的渐变_34)"/><rect x="31.22" y="44.34" width="0.2" height="4.02" style="fill:url(#未命名的渐变_35)"/><rect x="30.8" y="44.34" width="0.2" height="4.02" style="fill:url(#未命名的渐变_36)"/><rect x="30.42" y="44.34" width="0.2" height="4.02" style="fill:url(#未命名的渐变_37)"/><rect x="29.96" y="44.34" width="0.2" height="4.02" style="fill:url(#未命名的渐变_38)"/><rect x="29.54" y="44.34" width="0.2" height="4.02" style="fill:url(#未命名的渐变_39)"/><rect x="29.12" y="44.34" width="0.2" height="4.02" style="fill:url(#未命名的渐变_40)"/><path d="M606.94,324.68v-4h-.2v4Z" transform="translate(-578.04 -276.32)" style="fill:url(#未命名的渐变_41)"/><path d="M606.5,324.6v-3.86h-.2v3.76Z" transform="translate(-578.04 -276.32)" style="fill:url(#未命名的渐变_42)"/><path d="M606,324.46V320.9h-.2v3.42A.48.48,0,0,0,606,324.46Z" transform="translate(-578.04 -276.32)" style="fill:url(#未命名的渐变_43)"/><path d="M605.66,324.18v-3l-.2.2V324Z" transform="translate(-578.04 -276.32)" style="fill:url(#未命名的渐变_44)"/><path d="M613.66,324.48V320.9l-.2-.1v3.76Z" transform="translate(-578.04 -276.32)" style="fill:url(#未命名的渐变_45)"/><path d="M613.2,324.64v-4H613v4Z" transform="translate(-578.04 -276.32)" style="fill:url(#未命名的渐变_46)"/><path d="M612.7,324.7h0v-4h-.2v4Z" transform="translate(-578.04 -276.32)" style="fill:url(#未命名的渐变_47)"/><rect x="34.14" y="44.34" width="0.2" height="4.02" style="fill:url(#未命名的渐变_48)"/><path d="M614.8,322.68a2.07,2.07,0,0,0-.14-.74v1.46A2,2,0,0,0,614.8,322.68Z" transform="translate(-578.04 -276.32)" style="fill:url(#未命名的渐变_49)"/><path d="M614.42,323.82v-2.28a1.42,1.42,0,0,0-.2-.22v2.74Z" transform="translate(-578.04 -276.32)" style="fill:url(#未命名的渐变_50)"/><path d="M614,324.32v-3.1l-.2-.14v3.24Z" transform="translate(-578.04 -276.32)" style="fill:url(#未命名的渐变_51)"/><path d="M605.3,323.76V321.6a2.08,2.08,0,0,0-.22.38v1.4A2.08,2.08,0,0,0,605.3,323.76Z" transform="translate(-578.04 -276.32)" style="fill:url(#未命名的渐变_52)"/></svg>