<svg id="图层_1" data-name="图层 1" xmlns="http://www.w3.org/2000/svg" xmlns:xlink="http://www.w3.org/1999/xlink" width="63.94" height="64" viewBox="0 0 63.94 64"><defs><linearGradient id="未命名的渐变" x1="818.07" y1="1113.41" x2="880.99" y2="1113.41" gradientTransform="translate(-240.03 -806)" gradientUnits="userSpaceOnUse"><stop offset="0" stop-color="#d0d2d3"/><stop offset="0.07" stop-color="#dddedf"/><stop offset="0.18" stop-color="#e8e9ea"/><stop offset="0.34" stop-color="#efeff0"/><stop offset="0.78" stop-color="#f1f1f2"/></linearGradient><linearGradient id="未命名的渐变_2" x1="98.68" y1="-560.64" x2="146.78" y2="-560.64" gradientTransform="translate(732.22 -253.81) rotate(180)" gradientUnits="userSpaceOnUse"><stop offset="0" stop-color="#a6a8ab"/><stop offset="1" stop-color="#bbbdbf"/></linearGradient><linearGradient id="未命名的渐变_3" x1="99.18" y1="-560.64" x2="146.24" y2="-560.64" gradientTransform="translate(732.22 -253.81) rotate(180)" gradientUnits="userSpaceOnUse"><stop offset="0.22" stop-color="#f1f1f2"/><stop offset="0.66" stop-color="#efeff0"/><stop offset="0.82" stop-color="#e8e9ea"/><stop offset="0.93" stop-color="#dddedf"/><stop offset="1" stop-color="#d0d2d3"/></linearGradient><linearGradient id="未命名的渐变_4" x1="99.2" y1="-545.24" x2="146.26" y2="-545.24" gradientTransform="translate(732.22 -253.81) rotate(180)" gradientUnits="userSpaceOnUse"><stop offset="0" stop-color="#d0d2d3"/><stop offset="0.1" stop-color="#d7d9da"/><stop offset="0.32" stop-color="#e2e3e4"/><stop offset="0.57" stop-color="#e6e7e8"/><stop offset="1" stop-color="#d0d2d3"/></linearGradient><linearGradient id="未命名的渐变_5" x1="844.39" y1="1097.45" x2="854.21" y2="1097.45" gradientTransform="translate(-818.07 -1081.94)" gradientUnits="userSpaceOnUse"><stop offset="0" stop-color="#f05a28"/><stop offset="0.1" stop-color="#f26f24"/><stop offset="0.22" stop-color="#f48321"/><stop offset="0.34" stop-color="#f68e1f"/><stop offset="0.47" stop-color="#f6921e"/><stop offset="0.75" stop-color="#f37820"/><stop offset="1" stop-color="#f16522"/></linearGradient><linearGradient id="未命名的渐变_6" x1="844.39" y1="1097.45" x2="854.21" y2="1097.45" xlink:href="#未命名的渐变_5"/><linearGradient id="未命名的渐变_8" x1="844.39" y1="1097.44" x2="854.21" y2="1097.44" gradientTransform="translate(-240.03 -806)" xlink:href="#未命名的渐变_5"/><linearGradient id="未命名的渐变_12" x1="844.37" y1="1097.45" x2="854.21" y2="1097.45" xlink:href="#未命名的渐变_5"/><linearGradient id="未命名的渐变_19" x1="844.39" y1="1097.46" x2="854.21" y2="1097.46" gradientTransform="translate(-240.03 -806)" xlink:href="#未命名的渐变_5"/><linearGradient id="未命名的渐变_21" x1="844.37" y1="1097.46" x2="854.21" y2="1097.46" gradientTransform="translate(-240.03 -806)" xlink:href="#未命名的渐变_5"/><linearGradient id="未命名的渐变_23" x1="844.39" y1="1097.49" x2="854.21" y2="1097.49" gradientTransform="translate(-240.03 -806)" xlink:href="#未命名的渐变_5"/><linearGradient id="未命名的渐变_26" x1="844.39" y1="1097.38" x2="854.21" y2="1097.38" gradientTransform="translate(-240.03 -806)" xlink:href="#未命名的渐变_5"/><linearGradient id="未命名的渐变_28" x1="844.39" y1="1097.38" x2="854.21" y2="1097.38" gradientTransform="translate(-240.03 -806)" xlink:href="#未命名的渐变_5"/><linearGradient id="未命名的渐变_29" x1="847.19" y1="1097.45" x2="847.39" y2="1097.45" gradientTransform="translate(-818.07 -1081.94)" gradientUnits="userSpaceOnUse"><stop offset="0.02" stop-color="#f05a28"/><stop offset="0.6" stop-color="#f6921e"/><stop offset="0.8" stop-color="#f6901e"/><stop offset="0.87" stop-color="#f58920"/><stop offset="0.93" stop-color="#f47e22"/><stop offset="0.97" stop-color="#f26d25"/><stop offset="1" stop-color="#f05a28"/></linearGradient><linearGradient id="未命名的渐变_30" x1="847.65" y1="1097.45" x2="847.83" y2="1097.45" xlink:href="#未命名的渐变_29"/><linearGradient id="未命名的渐变_31" x1="848.05" y1="1097.45" x2="848.25" y2="1097.45" xlink:href="#未命名的渐变_29"/><linearGradient id="未命名的渐变_32" x1="848.47" y1="1097.45" x2="848.67" y2="1097.45" xlink:href="#未命名的渐变_29"/><linearGradient id="未命名的渐变_33" x1="848.85" y1="1097.45" x2="849.05" y2="1097.45" xlink:href="#未命名的渐变_29"/><linearGradient id="未命名的渐变_34" x1="849.31" y1="1097.45" x2="849.51" y2="1097.45" xlink:href="#未命名的渐变_29"/><linearGradient id="未命名的渐变_35" x1="849.73" y1="1097.45" x2="849.93" y2="1097.45" xlink:href="#未命名的渐变_29"/><linearGradient id="未命名的渐变_36" x1="850.13" y1="1097.45" x2="850.33" y2="1097.45" xlink:href="#未命名的渐变_29"/><linearGradient id="未命名的渐变_37" x1="850.53" y1="1097.45" x2="850.73" y2="1097.45" xlink:href="#未命名的渐变_29"/><linearGradient id="未命名的渐变_38" x1="850.99" y1="1097.45" x2="851.17" y2="1097.45" xlink:href="#未命名的渐变_29"/><linearGradient id="未命名的渐变_39" x1="851.41" y1="1097.45" x2="851.59" y2="1097.45" xlink:href="#未命名的渐变_29"/><linearGradient id="未命名的渐变_40" x1="851.81" y1="1097.45" x2="852.01" y2="1097.45" xlink:href="#未命名的渐变_29"/><linearGradient id="未命名的渐变_41" x1="852.23" y1="1097.46" x2="852.43" y2="1097.46" gradientTransform="translate(-240.03 -806)" xlink:href="#未命名的渐变_29"/><linearGradient id="未命名的渐变_42" x1="852.67" y1="1097.46" x2="852.87" y2="1097.46" gradientTransform="translate(-240.03 -806)" xlink:href="#未命名的渐变_29"/><linearGradient id="未命名的渐变_43" x1="853.09" y1="1097.45" x2="853.29" y2="1097.45" gradientTransform="translate(-240.03 -806)" xlink:href="#未命名的渐变_29"/><linearGradient id="未命名的渐变_44" x1="853.51" y1="1097.44" x2="853.69" y2="1097.44" gradientTransform="translate(-240.03 -806)" xlink:href="#未命名的渐变_29"/><linearGradient id="未命名的渐变_45" x1="845.53" y1="1097.37" x2="845.73" y2="1097.37" gradientTransform="translate(-240.03 -806)" xlink:href="#未命名的渐变_29"/><linearGradient id="未命名的渐变_46" x1="845.99" y1="1097.4" x2="846.17" y2="1097.4" gradientTransform="translate(-240.03 -806)" xlink:href="#未命名的渐变_29"/><linearGradient id="未命名的渐变_47" x1="846.39" y1="1097.44" x2="846.59" y2="1097.44" gradientTransform="translate(-240.03 -806)" xlink:href="#未命名的渐变_29"/><linearGradient id="未命名的渐变_48" x1="846.81" y1="1097.45" x2="847.01" y2="1097.45" xlink:href="#未命名的渐变_29"/><linearGradient id="未命名的渐变_49" x1="844.39" y1="1097.46" x2="844.53" y2="1097.46" gradientTransform="translate(-240.03 -806)" xlink:href="#未命名的渐变_29"/><linearGradient id="未命名的渐变_50" x1="844.75" y1="1097.46" x2="844.95" y2="1097.46" gradientTransform="translate(-240.03 -806)" xlink:href="#未命名的渐变_29"/><linearGradient id="未命名的渐变_51" x1="845.15" y1="1097.5" x2="845.35" y2="1097.5" gradientTransform="translate(-240.03 -806)" xlink:href="#未命名的渐变_29"/><linearGradient id="未命名的渐变_52" x1="853.89" y1="1097.47" x2="854.09" y2="1097.47" gradientTransform="translate(-240.03 -806)" xlink:href="#未命名的渐变_29"/></defs><title>6_0</title><path d="M642,321.59a18.37,18.37,0,0,1-18.38,18.35H597.4A18.36,18.36,0,0,1,579,321.59V295.37A18.37,18.37,0,0,1,597.4,277h26.2A18.38,18.38,0,0,1,642,295.36Z" transform="translate(-578.04 -275.94)" style="fill:#d0d2d3"/><path d="M641,320.53a18.36,18.36,0,0,1-18.36,18.35H596.4A18.36,18.36,0,0,1,578,320.53V294.3a18.35,18.35,0,0,1,18.32-18.36H622.6A18.37,18.37,0,0,1,641,294.3Z" transform="translate(-578.04 -275.94)" style="fill:url(#未命名的渐变)"/><path d="M585.44,296.83a14,14,0,0,1,14-14h20a14,14,0,0,1,14,14v20a14,14,0,0,1-14,14h-20a14,14,0,0,1-14-14v-20Z" transform="translate(-578.04 -275.94)" style="fill:url(#未命名的渐变_2)"/><path d="M586,297a13.74,13.74,0,0,1,13.74-13.72h19.6A13.74,13.74,0,0,1,633,297v19.6a13.73,13.73,0,0,1-13.72,13.74h-19.6A13.74,13.74,0,0,1,586,316.62Z" transform="translate(-578.04 -275.94)" style="fill:url(#未命名的渐变_3)"/><path d="M599.7,285.83h19.6A13.72,13.72,0,0,1,633,299.55V297a13.72,13.72,0,0,0-13.72-13.72H599.7A13.73,13.73,0,0,0,586,297v2.52A13.73,13.73,0,0,1,599.7,285.83Z" transform="translate(-578.04 -275.94)" style="fill:url(#未命名的渐变_4)"/><path d="M604.3,291.43a2.12,2.12,0,0,1,2.12-2.13h5.74a2.11,2.11,0,0,1,2.14,2.09v0h0a2.14,2.14,0,0,1-2.14,2.12h-5.72a2.12,2.12,0,0,1-2.14-2.1v0Z" transform="translate(-578.04 -275.94)" style="fill:#bbbdbf"/><path d="M604.22,291.43a2.15,2.15,0,0,1,2.16-2.16h5.84a2.16,2.16,0,0,1,2.16,2.16h0a2.16,2.16,0,0,1-2.14,2.17h-5.86A2.21,2.21,0,0,1,604.22,291.43Z" transform="translate(-578.04 -275.94)" style="fill:#bbbdbf"/><path d="M614.36,291.46a2.16,2.16,0,0,1-2.16,2.16h-5.84a2.15,2.15,0,0,1-2.16-2.16h0a2.15,2.15,0,0,1,2.14-2.17h5.86A2.19,2.19,0,0,1,614.36,291.46Z" transform="translate(-578.04 -275.94)" style="fill:#bbbdbf"/><rect x="29.32" y="13.5" width="0.26" height="4.02" style="fill:url(#未命名的渐变_5)"/><rect x="31" y="13.5" width="0.26" height="4.02" style="fill:url(#未命名的渐变_6)"/><rect x="33.12" y="13.5" width="0.22" height="4.02" style="fill:url(#未命名的渐变_5)"/><path d="M612.1,289.44H612v4h.22v-4Z" transform="translate(-578.04 -275.94)" style="fill:url(#未命名的渐变_8)"/><rect x="29.78" y="13.5" width="0.22" height="4.02" style="fill:url(#未命名的渐变_5)"/><rect x="28.54" y="13.5" width="0.22" height="4.02" style="fill:url(#未命名的渐变_5)"/><rect x="28.94" y="13.5" width="0.18" height="4.02" style="fill:url(#未命名的渐变_5)"/><rect x="33.54" y="13.5" width="0.22" height="4.02" style="fill:url(#未命名的渐变_12)"/><rect x="30.6" y="13.5" width="0.2" height="4.02" style="fill:url(#未命名的渐变_5)"/><rect x="31.44" y="13.5" width="0.22" height="4.02" style="fill:url(#未命名的渐变_12)"/><rect x="31.86" y="13.5" width="0.22" height="4.02" style="fill:url(#未命名的渐变_5)"/><rect x="32.66" y="13.5" width="0.26" height="4.02" style="fill:url(#未命名的渐变_5)"/><rect x="30.2" y="13.5" width="0.22" height="4.02" style="fill:url(#未命名的渐变_5)"/><rect x="32.28" y="13.5" width="0.2" height="4.02" style="fill:url(#未命名的渐变_5)"/><path d="M612.4,289.46v4h.26v-3.88Z" transform="translate(-578.04 -275.94)" style="fill:url(#未命名的渐变_19)"/><path d="M604.5,290.72v1.49a1.85,1.85,0,0,0,.24.4v-2.28A1.58,1.58,0,0,0,604.5,290.72Z" transform="translate(-578.04 -275.94)" style="fill:url(#未命名的渐变_19)"/><path d="M613.26,289.8v3.32l.22-.16v-3A1.64,1.64,0,0,0,613.26,289.8Z" transform="translate(-578.04 -275.94)" style="fill:url(#未命名的渐变_21)"/><path d="M613.66,290.15v2.62l.2-.22v-2.17Z" transform="translate(-578.04 -275.94)" style="fill:url(#未命名的渐变_5)"/><path d="M604.92,290.09v2.74l.22.2v-3.09Z" transform="translate(-578.04 -275.94)" style="fill:url(#未命名的渐变_23)"/><path d="M606.14,289.46v4h.22v-4Z" transform="translate(-578.04 -275.94)" style="fill:url(#未命名的渐变_19)"/><path d="M614,290.77v1.39a2.08,2.08,0,0,0,.14-.7A3.25,3.25,0,0,0,614,290.77Z" transform="translate(-578.04 -275.94)" style="fill:url(#未命名的渐变_19)"/><path d="M605.34,289.77v3.39h.16v-3.57Z" transform="translate(-578.04 -275.94)" style="fill:url(#未命名的渐变_26)"/><path d="M612.84,289.59v3.74l.22-.11v-3.54Z" transform="translate(-578.04 -275.94)" style="fill:url(#未命名的渐变_12)"/><path d="M605.7,289.59v3.74a.57.57,0,0,0,.26,0v-3.9Z" transform="translate(-578.04 -275.94)" style="fill:url(#未命名的渐变_28)"/><rect x="29.12" y="13.5" width="0.2" height="4.02" style="fill:url(#未命名的渐变_29)"/><rect x="29.58" y="13.5" width="0.2" height="4.02" style="fill:url(#未命名的渐变_30)"/><rect x="30" y="13.5" width="0.2" height="4.02" style="fill:url(#未命名的渐变_31)"/><rect x="30.4" y="13.5" width="0.2" height="4.02" style="fill:url(#未命名的渐变_32)"/><rect x="30.8" y="13.5" width="0.2" height="4.02" style="fill:url(#未命名的渐变_33)"/><rect x="31.24" y="13.5" width="0.2" height="4.02" style="fill:url(#未命名的渐变_34)"/><rect x="31.68" y="13.5" width="0.2" height="4.02" style="fill:url(#未命名的渐变_35)"/><rect x="32.08" y="13.5" width="0.2" height="4.02" style="fill:url(#未命名的渐变_36)"/><rect x="32.46" y="13.5" width="0.2" height="4.02" style="fill:url(#未命名的渐变_37)"/><rect x="32.92" y="13.5" width="0.2" height="4.02" style="fill:url(#未命名的渐变_38)"/><rect x="33.34" y="13.5" width="0.2" height="4.02" style="fill:url(#未命名的渐变_39)"/><rect x="33.74" y="13.5" width="0.2" height="4.02" style="fill:url(#未命名的渐变_40)"/><path d="M612.2,289.46v4h.2v-4Z" transform="translate(-578.04 -275.94)" style="fill:url(#未命名的渐变_41)"/><path d="M612.66,289.52v3.86a.34.34,0,0,0,.2,0v-3.74Z" transform="translate(-578.04 -275.94)" style="fill:url(#未命名的渐变_42)"/><path d="M613.06,289.68v3.54h.2V289.9A.83.83,0,0,0,613.06,289.68Z" transform="translate(-578.04 -275.94)" style="fill:url(#未命名的渐变_43)"/><path d="M613.46,289.94v3l.2-.17v-2.62A1.34,1.34,0,0,0,613.46,289.94Z" transform="translate(-578.04 -275.94)" style="fill:url(#未命名的渐变_44)"/><path d="M605.5,289.66v3.58h.2V289.5Z" transform="translate(-578.04 -275.94)" style="fill:url(#未命名的渐变_45)"/><path d="M606,289.5v3.9h.2v-4Z" transform="translate(-578.04 -275.94)" style="fill:url(#未命名的渐变_46)"/><path d="M606.44,289.44h0v4h.2v-4Z" transform="translate(-578.04 -275.94)" style="fill:url(#未命名的渐变_47)"/><rect x="28.74" y="13.5" width="0.2" height="4.02" style="fill:url(#未命名的渐变_48)"/><path d="M604.36,291.46a1.68,1.68,0,0,0,.14.74v-1.48A1.74,1.74,0,0,0,604.36,291.46Z" transform="translate(-578.04 -275.94)" style="fill:url(#未命名的渐变_49)"/><path d="M604.72,290.33v2.26a.91.91,0,0,0,.2.24v-2.74Z" transform="translate(-578.04 -275.94)" style="fill:url(#未命名的渐变_50)"/><path d="M605.14,289.94v3.11l.2.14v-3.38Z" transform="translate(-578.04 -275.94)" style="fill:url(#未命名的渐变_51)"/><path d="M613.86,290.38v2.17a2.87,2.87,0,0,0,.2-.39v-1.39A2.87,2.87,0,0,0,613.86,290.38Z" transform="translate(-578.04 -275.94)" style="fill:url(#未命名的渐变_52)"/></svg>