<?xml version="1.0" standalone="no"?><!DOCTYPE svg PUBLIC "-//W3C//DTD SVG 1.1//EN" "http://www.w3.org/Graphics/SVG/1.1/DTD/svg11.dtd"><svg t="1716594285574" class="icon" viewBox="0 0 1024 1024" version="1.1" xmlns="http://www.w3.org/2000/svg" p-id="44319" xmlns:xlink="http://www.w3.org/1999/xlink" width="200" height="200"><path d="M70.5 511.77c0 243.76 197.74 441.5 441.5 441.5s441.5-197.74 441.5-441.5S755.76 70.27 512 70.27 70.5 268 70.5 511.77z" fill="#D7E3F8" p-id="44320"></path><path d="M445.48 631.6h138.51v114.36H445.02l0.46-114.36zM357.54 478.51c0 20.34-12.3 36.82-27.79 36.82S302 498.85 302 478.51s12.3-36.81 27.79-36.81 27.79 16.48 27.79 36.81M728 478c0 20.33-12.31 36.81-27.8 36.81S672.38 498.3 672.38 478s12.3-36.82 27.79-36.82S728 458.18 728 478" fill="#FFFFFF" p-id="44321"></path><path d="M445.48 648s26.43 13.67 64.24 13.67c44.65 1.83 73.81-13.21 73.81-13.21v13.67s-49.2 26.42-71.07 26.42c-22.33 0-67-31-67-31z" fill="#D7E3F8" p-id="44322"></path><path d="M834.12 813.39c-22.32-17.77-62.2-68-104.12-88.06-67.89-33.26-146.47-23.56-146.47-23.56V704c-5.47 5.93-32.35 32.35-68.8 32.35-36 0-63.33-24.6-69.25-31l-0.46-3.19s-86.68-10.15-155 23.11c-46.47 22.79-79.62 72.57-99.67 89.88a438 438 0 0 0 321.19 138.58c127.58-0.46 242.39-54.22 322.58-140.34z m0 0" fill="#739DE6" p-id="44323"></path><path d="M695.62 448.54c0 47.13-14.26 111-38.2 145.51-33 47.56-107.42 69.54-142.23 69.54-35.19 0-102.15-17.93-135.19-60-28.16-35.87-45.24-103.47-45.24-155 0-112.08 80.65-203.21 180.43-203.21s180.43 91.13 180.43 203.21" fill="#FFFFFF" p-id="44324"></path><path d="M711.57 355.49S710 285.33 670 235.33c-27.94-34.92-117-60.27-180.78-55.25 0 0-124.93 5-127.53 88-22.83 13.67-46.29 37.25-48.8 76.88-5 79.74 9.11 100.7 9.11 100.7s20.05 0 25.07 30.06c0 0 9.11 5.48 10 0 1.36-9.11-8.2-52.85 10.93-92.94 2.36-5.07 4.72-9.59 7-13.62 62.64-69.68 246.37-62.46 289.42 13.73a91.72 91.72 0 0 1 3.81 16.29c3.64 26 8.2 75.18 8.2 75.18s6.83 4.55 11.39-6.38c4.56-11.39 3.65-22.32 7.75-25.51 23.28-15.47 17.36-80.14 16-86.98z" fill="#9BB9ED" p-id="44325"></path></svg>